<?xml version="1.0" encoding="utf-8"?>
<!-- Generator: Adobe Illustrator 25.0.1, SVG Export Plug-In . SVG Version: 6.00 Build 0)  -->
<svg version="1.1" id="Layer_3" xmlns="http://www.w3.org/2000/svg" xmlns:xlink="http://www.w3.org/1999/xlink" x="0px" y="0px"
	 viewBox="0 0 1257.8 686.3" style="enable-background:new 0 0 1257.8 686.3;" xml:space="preserve">
<style type="text/css">
	.st0{fill:#EEEEEE;}
	.st1{fill:#FFF7FC;}
	.st2{fill:#ECDCE4;}
	.st3{fill:#B38A9B;}
	.st4{fill:#671C39;}
	.st5{fill:#A06E82;}
	.st6{fill:#7A3852;}
	.st7{fill:#D9C0CB;}
	.st8{fill:#8D536A;}
	.st9{fill:#C6A5B3;}
	.st10{fill:#540121;}
	.st11{fill:none;}
	.st12{font-family:'SpaceGrotesk-Regular';}
	.st13{font-size:20px;}
	.st14{font-family:'SpaceGrotesk-Medium';}
	.st15{font-size:16px;}
</style>
<path class="st0" d="M839.5,505.6l1.5,1.2l2.8,0.5l-0.1,0.7l-1.6,1.8l-4.8,0.1l0.7-2l1.1-1.6L839.5,505.6z"/>
<path class="st0" d="M1065.4,347.3l0.4-0.9l3.2-0.9l2.4-0.1l1.2-0.4l1.3,0.4l-1.4,1.1l-3.8,1.9l-2.9,1.1v-1.2L1065.4,347.3z"/>
<path class="st0" d="M746.1,182.3l0.3,2.5l-0.4,1.1l-1.6,0.5l0.1-0.9l0.8-0.7l-0.9-0.4l0.4-2.6L746.1,182.3z"/>
<path class="st0" d="M1223.3,288.5l-0.1-0.1v-0.3h0.1V288.5z M1227.9,283.3l0.5,0.3l0.4-0.1l0,0l-0.3,0.1h-0.1l-0.5-0.1V283.3z"/>
<path class="st0" d="M1200,290.6v0.1l-0.3-0.1l0.1-0.1L1200,290.6z M1183.1,284.6l-0.1,0.1l-0.3-0.1l-0.1-0.3l-0.1-0.1v-0.1l0.3-0.1
	h0.3l0.3,0.4l-0.1,0.1V284.6z M1159.4,282.5l-0.1-0.1v-0.1h0.1V282.5z M1160.3,282.1h-0.1v-0.1h0.1V282.1z M1111.3,273.8v-0.3h0.1
	l0.1,0.1l-0.1,0.1H1111.3z"/>
<path class="st0" d="M1099.5,282.4h-0.2l-0.1-0.3v-0.4l0.1-0.3h0.1l0.1,0.4l-0.1,0.3L1099.5,282.4z"/>
<path class="st0" d="M1252.9,343.9l0.3-0.4l0.3,0.1l-0.3,0.5L1252.9,343.9z M1254.4,341.6l0.1,0.1h-0.1V341.6z M1255.7,345.5h0.1
	v0.4l-0.4,0.3v0.1l-0.1,0.1v-0.5l0.3-0.4L1255.7,345.5z M1257.8,349.2v0.1l0,0l-0.1,0.3v-0.4H1257.8z M1245.9,361.6h0.5v0.3
	l-0.5-0.1V361.6z M1249.2,340.8l-0.1-0.3h0.1V340.8z M1245.9,334.3l0.1,0.1l0.1,0.1l-0.1-0.1l-0.3-0.1H1245.9z"/>
<path class="st0" d="M631.3,141.7l0.3-0.1h0.3l0.4,0.1v0.4l-0.8,0.3l-0.1-0.1L631.3,141.7L631.3,141.7z"/>
<path class="st0" d="M656.7,123.5l-0.1,0.1l0.3,0.1v0.1l-0.1,0.1l-0.1,0.1l-0.3-0.1l0.1-0.1l-0.1-0.3l0.1-0.4L656.7,123.5z"/>
<path class="st0" d="M650.5,137.2h-0.3v-0.1L650.5,137.2z"/>
<path class="st0" d="M666.1,136.4l0.3-0.3l0.3,0.1l-0.1,0.3h-0.3L666.1,136.4z"/>
<path class="st1" d="M829.5,169.3l3.7,1.5l2.4-0.5l0.3-1.7l2.5-0.7l1.6-1.2l-0.1-3.2l2.6-0.8l0.1-1.5l1.8,1.1l1.1,0.1l1.8,0.1
	l2.6,0.8l1.1,0.5l2.1-1.3l1.3,0.8l0.5-1.9l2,0.1l0.4-0.7l-0.1-1.6l1.1-1.3l2,0.8v1.3l1,0.1l0.7,3.3l1.6,1.3l0.9-0.8l1.3-0.4l1.6-1.9
	l2.4,0.4h3.3l0.9,1.1l-1.7,0.5l-1.5,0.7l-3.7,0.5l-3.3,0.8l-1.5,1.7l1.2,1.7l0.8,2l-1.2,1.7l0.5,1.5l-0.7,1.5l-3.2-0.1l2,2.7l-2,1.1
	l-0.9,2.4l0.7,2.4l-1,1.1l-1.3-0.3l-2.4,0.5l-0.1,1.1h-2.5l-1.5,2.3l0.4,3.4l-4.1,1.6l-2.4-0.3l-0.5,0.8l-2.1-0.5l-3.3,0.7l-6-2.1
	l2.4-3.6l-0.7-2.5l-2.6-0.7l-0.8-2.6l-1.8-3.2l1.1-2.1l-1.6-0.7l0.4-2.9L829.5,169.3z"/>
<path class="st2" d="M710.6,355.6l0.3,1.2l-0.4,2l0.5,1.9l-0.5,1.5l0.3,1.3h-7.3l-0.5,12.7l2.2,3.3l2.2,2.4l-6.5,1.7l-8.3-0.7
	l-2.4-1.9l-14.1,0.1l-0.5,0.3l-2-1.7l-2.2-0.1l-2.1,0.7l-1.7,0.8l-0.3-2.5l0.5-3.6l1.3-3.6l0.1-1.7l1.2-3.6l0.9-1.7l2-2.6l1.2-1.7
	l0.4-2.9l-0.1-2.2l-1-1.5l-0.9-2.4l-0.8-2.5l0.1-0.8l1.1-1.6l-0.9-3.8l-0.8-2.7l-1.7-2.5l0.4-0.8l1.5-0.5h0.9l1.3-0.4h10.3l0.9,3
	l0.9,2.4l0.8,1.3l1.3,2l2.4-0.3l1.1-0.5l2,0.5l0.5-1.1l0.9-2.3l2.1-0.1l0.3-0.8h1.7l-0.3,1.5h4.2l0.1,2.5l0.7,1.5l-0.5,2.5l0.1,2.4
	l1.2,1.5l-0.3,4.8l0.9-0.3h1.5l2.2-0.5L710.6,355.6z M669.6,335l-0.9-3l1.5-1.7l1.1-0.7l1.3,1.3l-1.3,0.9l-0.5,0.9l-0.1,1.7
	L669.6,335z"/>
<path class="st3" d="M694.8,148.6v1.1l-1.1,0.5v1.3l-1.3,1.9l-0.7-0.3l-0.1-0.8l-1.8-1.3l-0.4-2v-2.7l0.3-1.2l-0.5-0.7l-0.4-1.2
	l1.3-2l0.3,0.8l0.8-0.4l0.8,1.1l0.8,0.4l0.4,1.5l-0.4,1.3l0.7,1.7L694.8,148.6z"/>
<path class="st4" d="M803.8,214.9l0.5-0.3l0.3,1.2l2.6-0.7l2.9,0.1l2,0.1l2.1-2.8l2.4-2.5l1.8-2.5l0.8,1.5l0.8,3h-1.8v2.7l0.7,0.5
	l-1.6,0.8l0.1,1.7l-0.8,1.6v1.6l-0.5,0.9l-10.5-2.2l-1.6-4L803.8,214.9z"/>
<path class="st5" d="M429.6,529.6h-4.9L421,521l1.9,1.9l2.8,2.8l4.8,2.4l4.5,0.9l-0.5,1.8l-2.6,0.1L429.6,529.6z M410.7,400.8l7,6.5
	l2.9,0.7l4.5,2.9l3.7,1.6l0.7,1.7l-2.5,6.1l3.6,1.1l3.8,0.7l2.7-0.7l2.6-3l0.3-3.6l1.6-0.8l2,2.4l0.3,3.2l-2.6,2.3l-2,1.6l-3.4,3.8
	l-3.7,5.4l-0.3,3.2l-0.3,4.1l0.8,4l-0.5,0.9l0.1,2.6l0.3,2l4.9,3.5v2.8l2.5,1.7l0.1,2l-2,5l-4.3,2.1l-6.3,0.9l-3.7-0.4l1.2,2.4
	l0.1,2.9l1.2,2l-1.6,1.4l-3.2,0.5l-3.6-1.5l-0.9,1.1l1.6,3.8l2.5,1.2l1.5-1.2l1.5,2l-2.5,1.3l-1.8,2.4l0.8,4l-0.1,2.1h-2.9l-1.9,2
	v2.9l4.1,2.9l3.2,0.8l0.1,3.4l-2.9,2.3l-0.3,4.5l-2.2,1.6l-0.5,1.7l2.5,4l2.9,2.2l-1.3-0.1l-3-0.7l-7.4-0.5l-2.2-2.2l-1.2-2.8
	l-1.9,0.3l-1.7-1.5l-1.9-4.2l1.7-1.7v-2.4l-1.1-2l0.4-3.3l-0.7-5.3l-1.2-2.3l1.1-0.8l-0.8-1.5l-1.7-0.8l0.4-1.6l-1.9-1.5l-2.3-4.6
	l1-0.8l-2-4.8l-0.4-4.1l-0.3-3.6l1.6-1.5l-2-3.8l-1.1-3.7l1.9-2.5l-0.8-3.3l0.9-4l-0.8-3.7l-1.1-0.7l-3-6.9l1.3-4.1l-1.1-3.9
	l0.5-3.7l1.7-3.7l2-2.5l-1.3-1.6l0.5-1.2l-0.9-6.8l3.4-1.9l0.8-4.2l-0.5-0.9l2.5-3.7l4.6,1.1l2.2,2.9l1.1-3.3l4,0.3L410.7,400.8z"/>
<path class="st5" d="M767.5,147.7l4.4-0.7l0.9,1.1l1.3,0.7l-0.5,0.9l2,1.5l-0.7,1.2l1.6,1.1l1.6,0.7l0.7,2.8l-1.2,0.1l-1.7-2.2
	l-0.1-0.7h-1.5L773,153l-0.7,0.1l-1.5-1.2l-2.7-0.9v-2L767.5,147.7z"/>
<path class="st4" d="M1096.9,474.9l2.2,1.3l2.1-0.5l3-0.8l1.7,0.3l-2.8,4.6l-2,1.5l-2.5,3.2l-0.4-1.1l-4.1,2.6l-0.5-0.1l-1.9-0.1
	l0.3-3.5l1.3-2.5l0.4-3.5l1.2-1.9L1096.9,474.9z M1128.2,366.9l0.8,3.2l2.5-1.6l0.8,1.7l1.4,1.6l-0.7,1.7l0.1,3.5l0.1,2l0.8,0.5
	l0.3,3.4l-0.8,2l0.5,2.8l3.3,2l2,2l2,1.7l-0.7,0.9l1.3,2.5l0.4,4.4l1.6-0.9l0.9,1.7l1.1-0.5l-0.5,4.2l1.8,2.4l1.2,1.6l1.8,3.2
	l-0.1,3.2l-0.7,2.2l-1.1,2.5l0.4,3.5l-1.5,3.4l-1.3,1.9l-2.4,3.6l-0.9,2.4l-1.9,2.8l-3.2,3.7l-3.4,1.9l-2.6,3.2l-2.1,2l-2.8,3.4
	l-2.2,2l-2.5,2.9l-1.9,2.8l-0.5,1.2l-2.7,1.5l-3.8,0.1l-3.8,1.6l-2.4,1.6l-3,1.7l-1.7-1.7l-1.6-0.8l1.7-2l-2.2,0.7l-4.5,2.9
	l-2.2-1.1l-1.4-0.7l-1.7-0.3l-2.5-1.2l-0.8-2.4l0.9-3l0.1-2l-0.8-1.6l-2.9-0.5l2-2l0.5-2.9l-2.9,2.8l-3.3,0.7l2.8-2.1l1.6-2.4
	l2.2-1.9l0.9-3l-4.1,3.4l-2.8,1.3l-2.7,3.2l-1.8-1.6l1.1-2.1l-0.9-2.9l-1.1-1.5l0.9-0.9l-3.3-2.5h-2.2l-2.5-2l-6.2,0.4l-4.9,1.3
	l-4.2,1.5l-3.2-0.3l-4.4,2l-3.2,0.9l-1.5,2.1l-2,1.6l-2.8,0.1l-2.2,0.3l-2.6-0.7l-2.7,0.4l-2.4,0.3l-2.8,1.9l-0.9-0.3l-2.1,1.2
	l-2.1,1.2l-2.4-0.1h-2.3l-2.5-2.5l-1.5-0.8l0.9-2.3l1.8-0.5l0.9-0.9l0.4-1.5l1.5-2.8l0.4-2.4l-0.5-4l0.3-2.3l0.8-2.4l-0.7-2.5
	l0.3-1.2l-1-1.6l0.4-3.2l-1.2-3.2v-1.6l1.1,1.7l-0.3-3.7l1.5,1.1l0.7,1.6l0.4-2l-0.9-3.2l-0.1-1.3l-0.5-1.2l0.8-2.3l0.9-0.9l0.8-2.1
	l0.1-2.2l1.8-2.9l-0.3,3l2-2.8l3-1.3l2-1.7l2.9-1.5l1.6-0.3l0.9,0.5l2.9-1.6l2.2-0.4l0.7-0.9l0.9-0.3h2l3.8-1.1l2.2-1.9l1.2-2.1
	l2.4-2l0.5-1.6l0.4-2.3l3-3.3l0.9,3.5l1.6-0.8l-0.9-1.9l1.3-2l1.4,0.8l0.9-3l2.1-1.9l1-1.6l1.9-0.7l0.3-1.2l1.4,0.5l0.3-1.1l1.6-0.5
	l1.7-0.5l2.4,1.9l1.6,2.3l2.1,0.1l2.2,0.3l-0.5-2.1l2.1-3.2l1.7-1.1l-0.4-1.1l1.9-2.2l2.2-1.5l1.7,0.5l3-0.8l0.3-2l-2.5-1.3l2-0.5
	l2.2,0.9l1.6,1.6l2.9,1.1l1.1-0.4l2,1.2l2.1-1.1l1.3,0.3l0.9-0.7l1.3,2l-1.2,2.1l-1.6,1.6l-1.2,0.1l0.1,1.6l-1.2,2l-1.6,2v1.1
	l2.5,2.2l2.4,1.3l1.6,1.3l2.1,2.4h0.9l1.7,1.1l0.3,1.2l3,1.3l2.7-1.3l1.1-2.1l1.1-1.9l0.8-2.1l1.6-3.2l-0.1-2l0.4-1.2l-0.1-2.2
	l0.9-3l0.8-0.8l-0.4-1.3l1.2-2.1l0.9-2.1l0.3-1.2l1.4-1.5l0.7,1.9v2.5l0.8,0.5v1.7l0.9,2v2.3L1128.2,366.9z"/>
<path class="st6" d="M679.4,120l-0.1,1.6h-1.7l0.7,0.8l-0.9,2.5l-0.5,0.7l-2.7,0.1l-1.6,0.9l-2.5-0.4l-4.6-0.9l-0.8-1.3l-3,0.7
	l-0.3,0.7l-2-0.5l-1.7-0.1v-0.4l-0.9-0.1l0.1-0.1v-0.2l-0.3-0.1l0.1-0.1l-0.3-0.3l0.4-0.4l-0.3-0.5l1.1-0.3l1.6,1.1l0.4-1.1l2.8,0.3
	l2.1-0.8l1.5,0.1l1.1,0.8l0.3-0.7l-0.7-2.5l1.1-0.5l1.1-1.7l2.4,1.2l1.6-1.6l1.1-0.3l2.5,1.2l1.5-0.1l1.5,0.7l-0.3,0.5L679.4,120z"
	/>
<path class="st5" d="M777.5,157l-2.4-0.5l-2-1.9l-0.8-1.5l0.7-0.1l1.2,1.1h1.5l0.1,0.7L777.5,157z M781.5,146.4l1.6-1.6l2.1,2.1
	l2.2,2.8l1.5,0.1l1.3,1.2l-2.6,0.3v3l-0.3,1.5l-1.1,0.9l0.5,2l-0.8,0.1l-2.4-2.1l0.7-1.9l-1.2-1.2l-1.1,0.3l-3.3,2.9l-0.7-2.8
	l-1.6-0.7l-1.6-1.1l0.7-1.2l-2-1.5l0.5-0.9l-1.3-0.7l-0.9-1.1l0.7-0.7l2.7,1.2l1.7,0.1l0.4-0.4l-2-2.1l0.7-0.5l0.9,0.1l2.8,2.4
	l1.5,0.3L781.5,146.4z"/>
<path class="st1" d="M730.1,329.8l-0.3-4.9l-0.8-1.7l2.1,0.3l1.1-2.2l1.8,0.3l0.3,1.6l0.8,0.9v1.2l-0.9,0.9l-1.3,2l-1.3,1.5
	L730.1,329.8z"/>
<path class="st6" d="M639.1,107.8l2.8-0.8l2,1.7l1.7,0.9l-0.3,2.5l-0.8,0.1l-0.3,2.3l-2.8-1.9l-1.6,0.4l-2.1-1.9l-1.5-1.6h-1.5
	l-0.4-1.3l2.4-0.8L639.1,107.8z"/>
<path class="st1" d="M636.3,286.8l-2.9,0.5l-0.9-2.8l0.1-9.1l-0.7-0.9l-0.1-1.9l-1.2-1.5l-1.2-1.2l0.5-2.1l1.2-0.4l0.7-1.7l1.7-0.4
	l0.8-1.2l1.2-1.2h1.2l2.8,2.2l-0.1,1.3l0.8,2.4l-0.8,1.6l0.4,1.2l-1.7,2.4l-1.1,1.2l-0.7,2.5l0.1,2.6L636.3,286.8z"/>
<path class="st1" d="M616.9,273.2l-2.4-1.1l-1.7,0.3l-1.2,0.9l-1.6-0.8l-0.5-1.3l-1.6-0.9l-0.3-2.2l0.9-1.7V265l2.8-3.3l0.5-2.8
	l0.9-0.9l1.7,0.5l1.5-0.8l0.5-1.1l2.6-1.9l0.7-1.2l3.3-1.7l1.8-0.5l0.9,0.8h2.2l-0.3,1.9l0.4,1.9l2,2.7l0.1,1.9l4.1,0.9l-0.1,2.8
	l-0.8,1.2l-1.7,0.4l-0.7,1.7l-1.2,0.4h-3l-1.7-0.4l-1.1,0.7l-1.6-0.3l-6.1,0.1l-0.1,2.4L616.9,273.2z"/>
<path class="st7" d="M946.3,223.6l0.4,2.9l-1.3-0.7l0.7,3.3l-1.3-2.1l-0.4-2l-1.1-2l-1.7-2.4l-3.2-0.1l0.5,1.7l-0.8,2.1l-1.6-0.8
	l-0.4,0.8l-1-0.4l-1.3-0.4l-1-3.3l-1.6-3l0.3-2.4l-2.4-1.1l0.5-1.5l2-1.5l-2.9-2.1l0.8-2.8l3,1.7l1.6,0.3l0.8,2.8l3.4,0.5h3.2l2,0.7
	l-0.9,3.3l-1.6,0.3l-0.7,2.3l2.1,2.1l0.3-2.5l0.9-0.1L946.3,223.6z"/>
<path class="st8" d="M698.6,135.2l1.2,1.6l1.2-0.3l2.5,0.7l4.6,0.1l1.5-0.9l3.7-0.9l2.5,1.3l1.8,0.5l-1.5,1.6l-0.8,2.8l1.3,2.3
	l-2.8-0.5l-3.2,1.4l0.3,1.9l-2.9,0.4l-2.5-1.3l-2.4,1.1l-2.4-0.1l-0.5-2.6l-1.7-1.2l0.4-0.5l-0.4-0.5l0.4-1.2l1.2-1.3l-1.7-1.7
	l-0.5-1.3L698.6,135.2z"/>
<path class="st8" d="M360.4,216.8l-0.8,0.3l-0.7-2.2l-1.1-1.2l1.1-2.5l1.1,0.1l0.8,3.3L360.4,216.8z M361.2,205.5l-3.8,0.7v-1.5
	l1.6-0.3l2.2,0.1V205.5z M363.9,205.5l-1,2.9l-0.5-0.5l0.4-2.1l-1.4-1.6l0.1-0.4L363.9,205.5z"/>
<path class="st8" d="M686.8,132.7h1.2l-0.7,1.7l1.7,1.6l-0.4,1.9L688,138l-0.5,0.4l-1.1,0.9l-0.3,2.1l-2.9-1.5l-1.3-1.7l-1.3-0.8
	L679,136l-0.8-1.3l-1.7-1.9l0.5-1.6l1.3,0.9l0.5-0.8l1.5-0.1l2.8,0.7h2.2L686.8,132.7z"/>
<path class="st8" d="M696.5,97.7h2.9l2.9-1.5l0.4-2.1l2.2-1.2l-0.7-1.7l1.7-0.5l2.9-1.5l3.2,0.9l0.7,0.9l1.5-0.5l3,0.9l0.5,1.7
	l-0.4,1.1l2.4,2.5l1.3,0.7v0.7l2.1,0.7l1.1,1.1l-0.9,0.8l-2.5-0.1l-0.5,0.4l1.1,1.3l1.2,2.4l-2.7,0.3l-0.7,0.8l0.1,2l-1.3-0.4
	l-2.6,0.1l-0.9-0.9l-1.1,0.7l-1.2-0.5h-2.5l-3.4-0.9l-3.2-0.3h-2.2l-1.4,1l-1.5,0.1l-0.3-1.7l-1.2-1.7l1.6-0.8l-0.1-1.5l-1-1.4
	L696.5,97.7z"/>
<path class="st3" d="M317.2,240.6v-0.5l0.4-0.3l0.7,0.5l1.6-2.5h0.7l-0.1,0.7h0.7l-0.1,1.1l-0.8,1.7l0.1,0.7l-0.5,1.3l0.3,0.4
	l-0.7,2l-0.8,1.1l-0.7,0.1l-0.8,1.5h-1l0.8-4.5L317.2,240.6z"/>
<path class="st9" d="M395.8,402.8l-2.4,0.5l-2-5.6l-2.4-4.5l0.7-3.8l-2-1.7l-0.7-2.8l-2-2.8l1.7-4.2l-1.7-3.5l0.7-1.3l-0.8-1.5
	l1.2-2l-0.1-3.5v-2.8l0.7-1.3l-3.4-6.5l2.7,0.4l1.7-0.1l0.8-1.2l2.9-1.6l1.8-1.5l4.5-0.8l-0.3,3l0.5,1.6l-0.1,2.6l4.1,3.6l4,0.7
	l1.5,1.5l2.4,0.8l1.5,1.2h2.3l2.1,1.1l0.3,2.4l0.8,1.2l0.1,1.7h-0.9l1.6,4.7l6.7,0.3l-0.4,2.2l0.5,1.6l2,1.1l1,2.5l-0.4,3.2
	l-0.8,1.7l0.5,2.2l-0.9,0.8l-0.3-1.2l-3.4-2l-3.2-0.1l-6,1.2l-1.3,3.6l0.1,2.1l-0.9,4.8l-0.5-0.8l-4-0.3l-1.1,3.3l-2.2-2.9l-4.6-1.1
	L395.8,402.8z"/>
<path class="st5" d="M432,432.6l3.7-5.4l3.4-3.8l2-1.6l2.6-2.3l-0.3-3.2l-2-2.4l-1.6,0.8l0.4-2.2l0.3-2.4l-0.2-2.2l-1.3-0.7
	l-1.2,0.7l-1.3-0.3l-0.5-1.5l-0.7-3.7l-0.8-1.2l-2.4-1.1l-1.3,0.8l-3.7-0.8l-0.3-5.4l-1.2-2.2l0.9-0.8l-0.5-2.2l0.8-1.7l0.4-3.2
	l-1-2.5l-2-1.1l-0.5-1.6l0.4-2.2l-6.7-0.2l-1.6-4.6h0.9l-0.1-1.7l-0.8-1.2l-0.3-2.4l-2.1-1h-2.2l-1.5-1.2l-2.4-0.8l-1.5-1.5l-4-0.7
	l-4.1-3.6l0.1-2.6l-0.5-1.7l0.3-3l-4.5,0.8l-1.8,1.5l-2.9,1.6l-0.8,1.2l-1.7,0.1l-2.7-0.4l-2,0.7l-1.6-0.4l-0.1-6.1l-2.8,2.4l-3-0.1
	l-1.5-2.1l-2.4-0.3l0.7-1.7l-2-2.4l-1.6-3.6l0.8-0.8v-1.6l2.1-1.2l-0.5-2.1l0.9-1.5l0.1-1.9l4-2.6l2.9-0.8l0.4-0.7l3.2,0.3l1.3-11
	l0.1-1.7l-0.5-2.3l-1.6-1.5v-2.9l2-0.7l0.7,0.4l0.1-1.6l-2-0.4l-0.1-2.5l6.9,0.1l1.2-1.3l1,1.2l0.7,2.4l0.7-0.5l1.8,2.1l2.8-0.3
	l0.7-1.2l2.6-0.9l1.5-0.7l0.4-1.7l2.5-1.1l-0.1-0.9l-2.9-0.3l-0.5-2.5l0.3-2.8l-1.6-0.9l0.7-0.4l2.7,0.5l2.8,0.9l0.9-0.9l2.6-0.7
	l4-1.5l1.3-1.5l-0.4-1.2l1.7-0.1l0.8,0.9l-0.4,1.7l1.2,0.7l0.7,1.9l-0.9,1.3l-0.7,3.5l0.9,2l0.1,1.9l2.2,1.9l1.7,0.3l0.4-0.8
	l1.1-0.1l1.6-0.8l1.2-1.1l2,0.4l0.8-0.1l2,0.3l0.3-0.8l-0.5-0.8l0.3-1.2l1.5,0.4l1.7-0.4l2,0.8l1.6,0.9l1.1-1.2l0.8,0.3l0.4,1.1
	l1.7-0.3l1.3-1.6l1.2-2.9l2.1-3.6l1.2-0.3l0.9,2.3l1.9,7l1.8,0.7l0.1,2.7l-2.8,3.3l1.2,1.2l6.2,0.7l0.1,4l2.7-2.5l4.5,1.3l5.8,2.5
	l1.7,2.2l-0.5,2.3l4.1-1.2l6.9,2.1l5.3-0.1l5.1,3.3l4.6,4.4l2.7,1.2l3,0.1l1.3,1.3l1.3,5l0.5,2.4l-1.2,6.6l-1.7,2.7l-4.8,5.6
	l-2.1,4.5l-2.5,3.5l-0.8,0.1l-0.9,2.9l0.7,7.4l-0.7,6.2l-0.3,2.6l-1.2,1.6l-0.3,5.3l-3.2,5.2l-0.4,4.2l-2.6,1.7l-0.7,2.4h-3.7
	l-5.3,1.5L471,407l-3.8,1.1l-3.7,3.2l-2.5,4l-0.3,3l0.8,2.2l-0.1,4l-0.5,2l-2.1,2.1l-2.8,7l-2.5,3.2l-2,1.9l-0.9,3.9l-1.8,2.3
	l-1.3-2.3l1.2-1.9l-2.4-2.8l-3-2.1l-3.8-2.6l-1.2,0.1l-4-3L432,432.6z"/>
<path class="st6" d="M1028.6,293.8l1.3-1.6l2.9-2.1l-0.1,2v2.5l-1.7-0.1l-0.7,1.3L1028.6,293.8z"/>
<path class="st6" d="M938.8,200.7l1.7,1.3l0.3,2.5l-2.8,0.1l-2.9-0.3L933,205l-3.3-1.5l-0.3-0.8l1.6-3l1.7-0.9l2.6,0.9h1.7
	L938.8,200.7z"/>
<path class="st3" d="M728.2,400.1l-5,2.9l-3.2,3l-1.3,2.6l-1,1.5l-1.8,0.4l-0.7,1.9l-0.5,1.3l-2.1,0.9l-2.8-0.3l-1.6-1.1l-1.5-0.5
	l-1.7,0.9l-0.9,1.9l-1.7,1.3l-1.7,1.7l-2.5,0.4l-0.7-1.5l0.4-2.4l-1.8-3.8l-0.9-0.5l0.4-11.7l3.4-0.1l0.5-14.3l2.5-0.1l5.4-1.3
	l1.3,1.6l2.2-1.6h1.1l2-0.8l0.7,0.3l1.2,3.2l0.7,0.7l0.9,2.4l3.8,4.4l1.5,0.4l-0.1,1.5l0.9,2.5l2.7,0.7L728.2,400.1z"/>
<path class="st1" d="M680.5,282.1l2.9-0.3l0.7-1.1l0.5,0.1l0.9,0.9l4.4-1.6l1.5-1.6l1.8-1.3l-0.4-1.5l1-0.4l3.3,0.3l3.3-1.9l2.5-4.4
	l1.7-1.6l2.2-0.7l0.4,1.7l2.1,2.5v1.6l-0.5,1.7l0.3,1.2l1.2,1.2l2.7,1.7l2,1.6v1.3l2.5,2.1l1.5,1.7l0.9,2.4l2.7,1.6l0.5,1.2
	l-1.2,0.4h-2.2l-2.6-0.5l-1.3,0.4l-0.5,0.9l-1,0.1l-1.5-0.8l-3.8,2l-1.6-0.4l-0.5,0.3l-1.1,2.4L703,295l-2.5-0.4l-2.2-1.5l-2.9-1.5
	l-1.8,1.3l-1.5,2l-0.3,2.8l-2.2-0.1l-2.4-0.7l-2.1,2.1l-1.9,3.7l-0.3-1.2l-0.3-1.9l-1.6-1.3l-1.3-2l-0.3-1.5l-1.7-2.1l0.3-1.2
	l-0.3-1.6l0.1-3.2l0.9-0.7L680.5,282.1z"/>
<path class="st10" d="M427.6,126.1l2.1,0.5l3-0.1l-2.1,1.7l-1.2,0.1l-3.4-1.6l-0.4-1.3l1.6-1.2L427.6,126.1z M436.6,116.1l-1.5,0.1
	l-3.6-1.2l-2.3-1.9l1.2-0.4l3.7,1.1l2.5,1.6L436.6,116.1z M245.4,118.5l-2,0.5l-3.8-1.9v-1.3l-1.9-1.3l0.1-1.2l-2.6-0.7l0.4-2.1
	l0.9-0.8l2.5,0.8l1.4,0.5l2.6,0.4v1.3l0.4,1.9l2,1.6L245.4,118.5z M456.1,110l-3.2,3.3l2.4-1.2l1.8,0.8l-1.5,1.3l2.4,1.1l1.7-0.9
	l2.7,1.2l-1.7,2.8l2.4-0.7l-0.3,2.1l0.4,2.4l-2.2,3.4l-1.5,0.1l-1.8-0.7l1.6-3.2l-0.8-0.5l-4.5,3.3l-1.9-0.1l2.7-1.7l-2.7-1.1
	l-3.4,0.3l-6-0.1l-0.1-1.1l2.4-1.5l-1-1.1l3.3-2.2l5.2-6.2l2.5-2.1l3-1.3l1.5,0.1l-0.9,1.1L456.1,110z M233.3,97.2L233.3,97.2
	l3.2-0.3l-4.5,4.4l0.1,3.1h-1.2l-0.4-1.9l0.4-1.7l-0.5-1.2l0.8-1.6l1.2-1.3L233.3,97.2z M408.5,67.1l-2.2,2l-1.1-0.4l-0.1-1.1
	l0.3-0.3l1.7-1.1l1.2,0.1L408.5,67.1z M402.4,65.1l-4.5,2H396V66l3.2-1.6h3.7L402.4,65.1z M400.5,54.8l-0.7,1.5l1.7-0.5l0.9,0.9
	l2.1,1.1l2.4,1.1l-0.8,1.7l2.1-0.3l1.2,1.2l-3,1.1l-3.7-0.8l-0.5-1.6l-3.8,1.8l-5.2,1.9l0.4-2.1l-3.8,0.4l3.5-1.7l2.2-2.8l3-3.3
	L400.5,54.8z M428.4,49.6l-3,0.1l0.4-1.7l2.4-1.9l2.6-0.5l1.5,0.9l-1,1.4l-0.5,0.5L428.4,49.6z M382.2,42.8l-2.6,1.2l-2.5-1.1
	l-2.4,0.4l-2.3-1.4l3.2-1.1l3-1.5l1.9,0.9l1.1,0.7l0.1,0.7L382.2,42.8z M415,131.6l-1.3-2.2l1.9-5.3l-0.9-1.1l-2.4,0.7l-0.7-1.1
	l-3.4,2.9l-2,3.1l-1.7,1.7l-1.6,0.7l-1.1,0.3l-0.7,0.9h-10.6l-1.7,0.8l-4.4,2.8l-0.5,0.3l-1.6,1.6h-6.1l-1.7,0.7l0.3,0.8l-0.1,1.2
	l-0.3,0.4l-4.9,1.9l-3.4,0.7l-4.5,2.1h-0.8l-0.9-0.7l-0.1-0.5l0.3-0.4l1.2-1.3l2.2-2.3l1.8-2.2l0.8-3.4l0.7-3.6l-2.5-1.9l0.7-0.7
	l-0.3-0.5h-0.8l-0.4-0.7l0.3-0.9l-0.8,0.4H362l0.4-0.4l-0.7-0.4l0.1-1.1l-1.8-1.2l-2-1.3l-2.4-1.6l-2.2-1.3l-3.2,1.1h-1l-3.3-0.9
	l-2.8,0.4l-2.5-1.2l-2.8-0.5l-2.1-0.3l-0.5-0.7l0.5-2.1h-1.1l-0.8,1.5h-85.5l-3.4-3.9l-1.1-1.6l-4.4-1.6l0.9-3.4l2.1-2.4l-2.5-1.6
	l2-3.1l-1.3-2.8l1.6-2l3.2-1.7l1.9-2.4l-2.8-2.4l0.8-4.2l0.8-2.7l-1.1-1.7l-0.5-1.5l0.4-2l-4,1.2l-4.8,2.1l-0.1-2.4l-0.4-1.7
	l-1.7-0.9l-2.6-0.1l22.2-20.3l15.2-12.8l3.7,0.8l2.1,1.6l2.2,0.4l4-1.5l4.4-1.1l3.3,0.4l5.4-1.5l5.2-0.8l0.1,1.3l2.8-0.8l2.4-1.6
	l1.3,0.4l0.9,3l6-2.3l-2.5,2.5l3.7-0.5l2.1-1.1l2.8,0.3l2.4,1.3l4.8,1.3l2.9,0.5l2.8-0.3l1.7,1.7l-5.3,1.7l4,0.8l7.4-0.4l2.8-0.7
	l0.9,2.1l4.4-1.7l-1.3-1.5l2.8-1.2l3.3-0.1l2.4-0.4l1.3,0.8l0.9,1.9l3-0.3l3.3,1.6l4.5-0.5h3.7l1.5-2.1l2.8-0.5l3,1.1l-2.6,3.3
	l3.8-2.8l2.1,0.1l3.8-3.5l-0.9-2l-1.9-1.5l3.6-3.5l5-2.4l2.8,0.5l1.3,1.5l0.1,3.7l-3.5,1.6l4.1,0.7l-2.6,3.5l5.4-2.7l1.4,2.3
	l-2.6,2.5l0.8,2.2l4.5-2.4l4.1-3l2.9-3.6l3.3,0.3l3.4,0.4l2.2,1.7l-1.1,1.7l-3.2,1.7l0.6,1.8l-1.5,1.7l-6.8,2.4l-4.1,0.5l-2-1.1
	l-2,1.7l-4.6,2.9l-1.8,1.6l-4.9,2.4l-4,0.3l-3.2,1.5l-1.9,2.4l-3.6,0.4l-5.3,2.9l-6,4.1l-3,2.8l-3,4.4l3.7,0.5l-0.9,3.4l-0.5,2.9
	l4.5-0.8l4.4,1.6l2.1,1.4l1,1.7l3,1.1l2.2,1.6l4.8,0.3L385,93l-2.2,3.2l-1,3.8l0.1,4.2l2.6,3.7l2.9-1.3l3.6-3.8l1.4-6.1l-1-2
	l5.7-1.7l4.6-2.7l2.9-2.7l1.1-2.5l-0.3-3l-1.8-2.8l5.4-3.8l0.7-3.3l2.4-5.7l2.4-0.8l4.2,0.9l2.6,0.4l2.8-0.9l1.8,1.2l2.2,2.1
	l0.1,1.3l4.8,0.3l-1.6,3l-1.5,4.7l2.4,0.7l1.1,2.1l5-2l4.6-4.1l2.6-1.7l0.7,3.3l1.6,4.6l1.3,4.5l-2.1,2.4l3,2.1l1.7,2.1l4.4,0.9
	l1.5,1.2v3.3l2.1,0.4l0.7,1.5l-1.2,4.4l-2.6,1.5l-2.7,1.3l-5.6,1.3l-4.8,3.2l-5.3,0.7l-6.2-0.8l-4.6-0.2l-3.3,0.3l-3.6,2.8l-4.5,1.7
	l-6.3,5.2l-4.9,3.6l2.9-0.7l6.9-5l7.5-3.3l4.8-0.4l2.1,2l-3.8,2.6l-0.4,4.1v2.9l3.6,2l5.3-0.5l4.5-4.4l-0.7,2.8l1.6,1.5l-4.6,2.5
	l-7.7,2.4l-3.7,1.6l-4.4,2.8l-2.4-0.3l0.9-3.3l6.6-3.3l-5.2,0.1L415,131.6z M349,29.7l-2.9,1.5l6.5-0.9l1.6,1.6l4.6-1.6l1.1,0.9
	l-1.3,3.3l2.6-1.5l1.9-3.3l2.6-0.4l1.8,0.5l1.3,1.3l-1.7,3l-1.6,2.4l2.6,1.6l3.2,1.7l-1.7,1.5l-4.4,0.3l0.5,1.3l-2,1.2l-4.2-0.5
	l-3.6-0.9l-3.2,0.3L347,44l-7,0.4l-4.9,0.4l0.1-1.6l-2.5-0.9l-2.7,0.4l-0.4-2.7l2-0.4l4.5-0.5l3.4,0.1l4-0.7l-4.1-0.7l-5.7,0.3
	l-3.4-0.1v-1.2l7.3-1.3h-4l-3.3-0.8l4.9-2.5l3.1-1.2l8.9-2L349,29.7z M373.6,28.6l-4.4,2.2l-1.5-2.3l1.3-0.4l3.4-0.1L373.6,28.6z
	 M441,29.7l-0.5,0.9l-2.5-0.1h-2.5l-3,0.4l-0.5-0.3l-1.3-1.6l1.1-1.2l1.3-0.3l5.3,0.4L441,29.7z M416.3,29.6l0.1,2l4.5-2.7l7.3-1.3
	l1.5,3.3l-2.1,2.1l5.7-0.9l3.3-1.2l4.2,1.6l2.2,1.6l-0.6,1.3l5-0.7l1.2,2.1l5.3,1.2l1.3,1.5l0.5,3l-5.7,1.6l4.8,2.3l3.7,0.8l2.1,3
	l4,0.3l-2.1,2.4l-6.8,4.1l-2.5-1.4L451,52l-3.7,0.5l-1.5,2l1.7,2l2.8,1.6l0.5,0.9v3.6l-2.2,2.5l-2.9-0.9l-5.3-2.8l2.2,3.2l1.7,2.1
	l-0.3,1.3l-6.8-1.5l-4.8-2.1l-2.2-1.7l1.5-1.1l-3-1.8l-2.9-1.6l-0.5,0.9l-8.1,0.7l-1.6-1.3l3.4-2.5l5-0.1l5.7-0.4l-0.1-1.2l2-1.9
	l5.5-3.3l0.1-1.5l-0.3-1.2l-2.9-1.7l-4.4-1.1l2.1-0.9l-1.2-2.1l-2.1-0.1l-1.3-1.2l-2.1,1.1l-4.9,0.4l-8.7-0.8l-4.5-0.9l-3.7-0.5
	l-1.2-1.1l4-1.6h-3.6l2.1-3.3l4.4-2.9l3.7-1.2l7-0.9L416.3,29.6z M384.9,27.3l2.2,0.7l4.6-0.4l-0.3,0.9l-3.7,1.6l2.2,1.3l-3.2,2.9
	l-5.3,1.3l-2.1-0.3l-0.5-1.3l-3.6-2.5l1.1-0.9l4.6,0.4l-0.7-2.1L384.9,27.3z M398.9,30.8l-4.9,2.4l-2.6-0.1l1.2-2.8l1.6-1.6l2.5-1.3
	l3.3-0.9l4.9,0.1l3.8,0.8l-6.2,2.8L398.9,30.8z M327,35.3l-8.5,1.6l0.4-1.5l-3.6-1.7l2.6-1.3l4.6-2.4l4.8-2.1l0.3-1.9l8.7-0.5
	l2.5,0.7l6,0.1l1.2,0.9l0.9,1.3l-4,0.8l-8.6,2.2l-5.8,2.2L327,35.3z M404.8,23.7l-2.5,1.2l-3.3-0.1l-2-0.9l2.8-1.3l4.2-0.8l0.9,1.1
	L404.8,23.7z M399.1,18.4l0.3,1.5l-1.7,1.6l-3.6,2.2l-4.2,0.3l-2.1-0.5l2.1-1.7l-4.1,0.3l2.6-2.4l2.4,0.1l4.8-1.1l3,0.1L399.1,18.4z
	 M374.8,20l-0.5,1.1l2.8-0.5l2.2,0.1l-1.3,1.6l-3.2,1.5l-8.6,0.4l-7.7,1.5h-3.7l0.9-1.1l6.7-1.3l-11.2,0.4l-2.5-0.5l7.1-3l3.4-0.8
	l5.2,0.9l1.8,1.9l3.8,0.3l0.3-2.9l3.6-1.1l2,0.3L374.8,20z M409.3,17.4l1.5,0.9h4.5l0.9,0.9l-1.7,1.2l2,0.7l0.8,0.8l3,0.1l3.2,0.3
	l4.4-0.7l5-0.3l3.6,0.1l1.5,1.2l-0.5,1.3l-2.2,0.8l-4.1,0.7l-2.8-0.4l-7.3,0.5H416l-3.6-0.4l-5.3-0.9l0.9-1.7l1.3-1.6l-0.9-1.3
	l-4.4-0.3l-1.7-0.9l2.4-1.3L409.3,17.4z M362.2,15.8l-3.6,2.2l-3.3,1l-2.4,0.1l-6.1,1.2l-4.4,0.5l-2.2-0.7l0,0l7.1-2.2l7.5-2
	l3.4,0.1L362.2,15.8z M412.6,16l-1.1,0.1l-4.1-0.1l0.4-0.9l4.5,0.1l1.1,0.5L412.6,16z M376.1,15.5l-5.4,0.9l-2.1-0.9l3.2-0.9
	l3.7-0.4l2.6,0.5L376.1,15.5z M381,12.9l-3.6,0.7h-3.7l0.7-0.4l3.4-0.9l1.1,0.1L381,12.9z M410,14.5l-4,0.7l-1-0.7l0.4-1.1l1.3-1.2
	h2.7l1.1,0.3l1.5,0.9L410,14.5z M401.5,13.8l-0.7,1.2l-3.3-0.4l-2.5-0.9l-4.9-0.1l3.3-0.8l-1.7-0.7l1.5-1.2l3.7,0.4l4.6,1.1
	L401.5,13.8z M435.2,9.9l1.6,0.9l-4,0.8l-6.7,2.1L422,14l-4.4-0.4l-0.9-1.2l1.3-1.1l2.8-0.6h-4.1l-1.2-1l0.1-1.3l3-1.2l2.5-0.7
	l2.5-0.3l-0.1-0.5l5.2-0.1l0.9,1.3l3,0.5l2.9,0.5L435.2,9.9z M484.4,1.2l5.3,0.3l4.2,0.3l3.2,0.7l-0.7,0.5l-6,1.1l-5.5,0.5L482.3,5
	h4.8l-6.5,1.6l-4.2,0.7l-5.8,2.2l-5,0.4l-2,0.7l-7,0.3l2.6,0.4l-2,0.4l0.4,1.5l-3,1.1l-4.4,0.8l-2.2,1.2l-4,0.8l-0.4,0.7l4.1-0.1
	l-0.7,0.8l-7.9,1.9l-5.3-0.9l-7.3,0.5l-3-0.4l-4.2-0.1l1.1-1.4l5-0.7l1.2-2.1l1.6-0.3l4.8,1.3l-1.1-1.9l-3-0.7l3-1.1l4.8-0.7l1.8-1
	l-1.7-1.1l0.7-1.5l5.8,0.1l1.5,0.3l4.5-0.9l-4.6-0.3l-7.8,0.1l-2.8-0.8l-0.5-1.1l-1.5-0.8l0.5-0.8l3.8-0.5h2.5l4.6-0.4l4.2-0.9
	l2.5,0.1l1.5,0.7l3-1.2l3.3-0.4l4-0.3l6.5-0.1l0.8,0.3l6.5-0.4l4.4,0.1L484.4,1.2z"/>
<path class="st8" d="M656.5,122.4l0.3,0.5l-0.4,0.4l-0.1,0.4l0.1,0.3l-0.1,0.1l0.3,0.1l0.1-0.1l0.9,0.1v0.4l1.8,0.2l-0.1,1.6
	l-1.3,0.7l-2.4-0.4l-0.5,1.5l-1.6,0.1l-0.5-0.5l-1.7,1.3l-1.5,0.1l-1.5-0.8l-1-1.7l-1.5,0.5v-1.7l2.1-2.1l-0.1-1.1l1.5,0.4l0.8-0.7
	h2.7l0.7-0.8L656.5,122.4z"/>
<path class="st8" d="M421,521l3.7,8.6h4.9l-0.3,1.6l-2,1.2l-1.5-0.1l-2-0.4l-2.6-1.1l-3.3-0.5l-4.6-2.1l-4-2.1l-6-4.2l2.8,0.8
	l5.4,2.5l4.5,1.5l0.8-1.7l-0.3-2.7l2.1-1.6L421,521z M395.8,402.8l0.5,0.9l-0.8,4.2l-3.4,1.8l0.9,6.8l-0.5,1.2l1.3,1.6l-2,2.5
	l-1.7,3.7l-0.5,3.7l1.1,3.9l-1.3,4.1l3,6.9l1.1,0.7l0.8,3.7l-0.9,4l0.8,3.3l-1.9,2.5l1.1,3.7l2,3.8l-1.6,1.5l0.3,3.6l0.4,4.1
	l2.1,4.8l-1,0.8l2.2,4.6l1.9,1.5l-0.4,1.6l1.7,0.8l0.8,1.5l-1.1,0.8l1.2,2.3l0.7,5.3l-0.4,3.3l1.1,2v2.4l-1.7,1.6l1.9,4.1l1.7,1.5
	l1.9-0.3l1.2,2.8l2.2,2.2l7.4,0.5l3,0.7l-2.6-0.1l-1.1,1.1l-2.1,1.3l1.1,3.6l-1.2,0.1l-4-1.3l-4.5-2.7l0,0l-4.8-2.1l-2.1-2.5
	l-0.1-2.3l-2.5-2.5l-3.2-6.6l-0.1-3.7l2.1-3l-5.2-1.2l1.7-3.6l-1.3-6.5l4.1,1.5l-1.2-8.2l-2.5-1.1l0.7,4.9l-2.1-0.5l-0.9-5.7
	l-1.2-7.3l0.7-2.6l-2.1-4l-1.5-4.5l1.3-0.1l0.4-6.3l0.7-6.4l0.1-6l-2-6.1l0.3-3.2l-1.3-5l1.2-4.8l-0.5-7.8v-8.2l0.1-9l-1-6.5
	l-1.3-5.7l1.7-0.9l0.8-2.1l2,2.8l0.7,2.8l2,1.7l-0.7,3.8l2.4,4.5l2,5.6L395.8,402.8z"/>
<path class="st8" d="M1009.5,237.2l-2.8,1.9l-3-1.2l-0.7-3.5l1.5-1.9l3.6-1.1l2,0.1l1.1,1.5l-1.2,1.7L1009.5,237.2z M1023.9,114.8
	l5.6,2.8l3.7,3.7h4.8l1.6-1.6l4.4-1.1l0.8,3.4l-0.3,1.5l1.8,4.2l0.4,3.9l-4.4-0.7l-1.7,1.3l2.9,3.4l2.4,4.6h-1.5l1.2,2.1l-3.4-2.4
	v2.3l-4,1.7l1.7,2l-2.9-0.1l-2.2-1.2l-0.7,2.8l-2.4,2.1l-1.3,2.5l-4,1.2l-1.5,1.9l-3,1.1l0.8-1.9l-1.3-1.5l1.2-2.6l-2.8-2.1
	l-2.1,1.3l-2.2,2.8l-0.8,2.6l-3.2,0.1l-0.8,1.9l3,2.6l2.9,0.7l0.9,1.9l3.2,1.2l2.4-2.9l3.6,1.6l2.2,0.1l1.5,2l-4.2,1.2l-0.7,2.1
	l-2.2,2l-0.7,2.8l4.5,2.3l2.9,3.8l3.3,3.7l3.4,3.1l1.1,3l-1.8,1.1l1.6,2.1l2.4,1.2l0.5,3.3v3.2l-1.7,0.4l-1.3,4.3l-1.4,5.3l-2.1,4.8
	l-4,3.7l-4.1,3.3l-3.8,0.4l-1.7,1.9l-1.5-1.3l-1.6,2l-4.5,2l-3.4,0.7l-0.5,4.2l-1.8,0.1l-1.4-2.9l0.5-1.5l-4.8-1.3l-1.6,0.7
	l-3.6-1.1l-2-1.6l0.1-2.3l-3.2-0.8l-2-1.5l-2.5,2.1l-3.3,0.4h-2.8l-1.7,1.1l-1.6,0.5l1.2,4.5h-1.8l-0.4-0.9l-0.4-1.7l-2.4,1.2
	l-1.6-0.8l-2.8-1.5l0.4-3.3l-2.2-0.8l-1.5-3.7l-3.6,0.7l-0.3-4.6l2.5-3.5l-0.5-3.3l-0.8-3l-1.7-0.9l-1.7-2.4l-1.8,0.4l-3.8-0.7
	l0.8-1.6l-2.2-2.6l-2,1.6l-3-0.9l-3.3,2.5l-2.5,3l-2.7,0.4l-1.7-1.1h-1.7l-2.6-0.9l-1.7,0.9l-1.6,3l-0.9-3.2l-1.8,0.8l-4.1-0.4
	l-4.1-0.9l-3-1.7l-2.8-0.8l-1.6-1.9l-2-0.7l-4-2.5l-3-1.2l-1.2,0.9l-5.3-2.8l-3.8-2.5l-2-4.5l2.5,0.5l-0.4-2l-1.8-2l-0.5-3.3
	l-4.8-4.6l-6-1.7l-1.7-3.1l-3-1.9l-0.9-1.1l-1.1-2.2l-0.4-1.6l-2.2-0.9l-0.9,0.4l-1.8-3.7l0.7-0.9l-0.8-0.9l2.5-1.9l2-0.8l3.7,0.5
	l0.4-2.5l4-0.4l0.5-1.6l4.4-2.1l0.1-0.9l-1.1-2.2l1.8-1.1l-5.7-6.7l5.7-1.6l1.2-0.9l-0.7-7l6.8,1.3l1-1.7l-1.6-4l2.4-0.4l1.2-2.5
	l1-0.3l2,2.6l3.6,2.1l5.2,1.5l3.6,3.1l0.8,4.6l1.8,1.7l4.1,0.7l4.5,0.5l4.9,2.4l2.2,0.5l3,3.6l2.9,2.4l3.6-0.1l7,0.9l4-0.5l3.4,0.5
	l5.8,2.4h3.8l2.1,1.2l2.6-2.1l4.6-1.3l4.6-0.1l3-1.5l1.2-2.1l1.6-1.3l-1.2-1.2l-1.8-1.6l0.3-2.5l2,0.4l3.7,0.8l2-2.1l4-1.4l0.8-2.7
	l1.6-1.1l4.2-0.5l2.6,0.4l-0.4-1.3l-4.5-2.8l-3.3-1.2l-1.5,1.3l-3.4-0.5l-1.5,0.5l-1.6-1.6l-0.3-4l-0.3-2.9l4.5,1.5l2.8-2.4
	l-1.2-1.7v-4.1l0.8-1.2l-1.6-2.1l-2.4-0.9l1.1-1.9l3.2-0.7l4-0.1l5.3,1.1l3.7,1.4l4.8,3.8l2.4,1.7l2.8,2.3l3.8,3.8L1023.9,114.8z"/>
<path class="st2" d="M616.7,291.8l-1.6,0.1l-2.5-0.8h-2.3l-4.1,0.7l-2.5,1.2l-3.4,1.5l-0.7-0.1l0.3-3.2l0.3-0.5V289l-1.6-1.7
	l-1.1-0.3l-1.1-1.1l0.8-1.7l-0.3-2l0.1-1.2h0.5l0.3-1.7l-0.3-0.8l0.3-0.5l1.3-0.5l-0.8-3.2l-0.8-1.6l0.3-1.3l0.7-0.4l0.5-0.4
	l0.9,0.7h2.7l0.7-1.2l0.7,0.1l1.1-0.4l0.5,1.7l0.8-0.5l1.5-0.7l1.6,0.9l0.5,1.3l1.6,0.8l1.2-0.9l1.7-0.3l2.4,1.1l0.9,5.7l-1.5,3.3
	l-0.9,4.6l1.5,3.3L616.7,291.8z"/>
<path class="st2" d="M672.8,302.8l-0.4-0.3l-2.1,0.5l-2.1-0.5l-1.7,0.3l-5.7-0.1l0.5-3.2l-1.5-2.7l-1.6-0.7l-0.7-1.7l-0.9-0.7v-1.1
	l0.9-2.8l1.6-3.8l1.1-0.1l2.1-2.2l1.3-0.1l2,1.7l2.4-1.5l0.4-1.6l0.7-1.6l0.5-2l2-1.7l0.7-2.8l0.7-0.9l0.5-2l0.9-2.6l2.9-3l0.1-1.3
	l0.4-0.7l-1.5-1.6l0.1-1.3l0.9-0.3l1.5,2.6l0.3,2.6l-0.1,2.7l2,3.6h-2l-0.9,0.3l-1.6-0.4l-0.8,1.9l2.1,2.4l1.6,0.7l0.4,1.6l1.2,2.8
	l-0.5,1.1l-1.7,4.1l-0.9,0.7l-0.1,3.2l0.3,1.6l-0.3,1.2l1.7,2.1l0.3,1.5l1.3,2l1.6,1.3l0.3,1.9l0.3,1.2l-0.1,2.1l-2.9-0.9l-2.8-1.1
	L672.8,302.8z"/>
<path class="st1" d="M736.5,303.1l-1.1,1.3l-1.3,1.1l-1.5,2.1l-0.7,1.9l-0.3,3.2l-0.8,1.6v2.9l-1.1,1.2l-0.1,2.4l-0.5,0.3l-0.3,2.2
	l0.8,1.7l0.3,4.9l0.5,3.6l-0.4,2.1l0.7,2.4l2,2.3l1.8,5l-1.3-0.5l-4.8,0.8l-0.9,0.4l-1.1,2.5l0.8,1.9l-0.8,4.6l-0.5,4.1l0.9,0.7
	l2.4,1.6l1-0.8l0.1,4.4H728l-1.5-2.3l-1.2-1.7l-2.7-0.5l-0.8-2.1l-2.1,1.3l-2.8-0.7l-1.2-1.7l-2.2-0.4l-1.6,0.1l-0.1-1.3h-1.2
	l-1.6-0.3l-2.2,0.5h-1.4l-0.9,0.3l0.3-4.8l-1.2-1.5l-0.1-2.4l0.5-2.5l-0.7-1.5l-0.1-2.5h-4.2l0.3-1.5h-1.8l-0.3,0.8l-2.1,0.1
	l-0.9,2.3l-0.5,1.1l-2-0.5l-1.1,0.5l-2.4,0.3l-1.3-2l-0.8-1.3l-0.9-2.4l-0.9-3h-10.3l-1.3,0.4h-0.9l-1.5,0.5l-0.5-1.2l0.9-0.5
	l0.1-1.7l0.5-0.9l1.3-0.9l0.9,0.4l1.2-1.5h1.8l0.3,1.2l1.3,0.7l2.1-2.5l2-2l0.9-1.2l-0.1-3.3l1.6-3.9l1.6-2.1l2.4-2l0.4-1.2l0.1-1.5
	l0.5-1.5l-0.3-2.3l0.5-3.6l0.7-2.4l1.1-2.1l0.1-2.5l0.3-2.8l1.5-2l1.8-1.3l2.9,1.5l2.2,1.5l2.5,0.4l2.6,0.7l1.1-2.4l0.5-0.3l1.6,0.4
	l3.8-2l1.5,0.8l1-0.1l0.5-0.9l1.3-0.4l2.6,0.5h2.2l1.2-0.4l2.2,3.3l1.6,0.5l0.9-0.7l1.6,0.3l2-0.9l0.8,1.7l3.2,2.7l-0.1,4.6
	L736.5,303.1z"/>
<path class="st7" d="M672.5,330.9l-1.3-1.3l-1.1,0.7l-1.5,1.7l-2.9-4.2l2.8-2.3l-1.3-2.7l1.2-0.9l2.4-0.5l0.3-1.7l1.8,1.9l3.2,0.3
	l1-2l0.4-2.6l-0.4-3l-1.6-2.4l1.5-4.6l-0.8-0.8l-2.7,0.3l-1-2l0.3-1.7l4.5,0.1l2.8,1.1l2.9,0.9l0.1-2.1l1.8-3.7l2.1-2.1l2.4,0.7
	l2.2,0.1l-0.1,2.5l-1.1,2.1l-0.6,2.4l-0.5,3.6l0.3,2.3l-0.5,1.5l-0.1,1.5l-0.4,1.2l-2.4,2l-1.6,2.1l-1.6,3.9l0.1,3.3l-0.9,1.2l-2,2
	l-2.1,2.5l-1.3-0.7l-0.3-1.2h-1.8l-1.2,1.5L672.5,330.9z"/>
<path class="st3" d="M361.3,312.5l-1.5-1.1l-1.7-1.3l-1.1,0.7l-3-0.5l-0.8-1.7l-0.7,0.1l-3.4-2.4l-0.5-1.2l1.3-0.3l-0.1-2l0.9-1.5
	l1.7-0.3l1.5-2.5l1.5-2.1l-1.2-0.9l0.7-2.4l-0.7-3.6l0.8-1.1l-0.4-3.5l-1.3-2.1l0.5-2l1.1,0.4l0.8-1.2l-0.8-2.4l0.5-0.5h1.7l2.8-2.8
	l1.5-0.4l0.1-1.3l0.9-3.3l2.1-1.9l2.1-0.1l0.4-0.8l2.6,0.3l2.9-2l1.5-0.9l1.9-1.9l1.2,0.3l0.9,1.1l-0.8,1.3l-2.4,0.7l-0.9,2
	l-1.5,1.2l-1,1.5l-0.7,2.8l-1.1,2.4l1.8,0.3l0.3,1.9l0.8,0.9l0.1,1.6l-0.4,1.5v0.8l0.9,0.4l0.8,1.3l4.5-0.4l2,0.5l2.4,3.5l1.5-0.4
	l2.5,0.1l2-0.4l1.3,0.7l-0.8,2.1l-0.8,1.5l-0.4,2.8l0.7,2.6l0.9,1.2l0.1,0.9l-1.9,2l1.3,0.9l0.9,1.3l1.1,4l-0.7,0.5l-0.7-2.4l-1-1.2
	l-1.2,1.3l-6.9-0.1l0.1,2.5l2,0.4l-0.1,1.6l-0.7-0.4l-2,0.7v2.9l1.6,1.5l0.5,2.3l-0.1,1.7l-1.3,11l-1.9-2.1l-1.1-0.1l2.2-4.1
	l-2.9-1.9l-2.1,0.4l-1.3-0.8l-1.9,1.1l-2.6-0.4l-2.1-4.2l-1.6-1l-1.2-1.9l-2.4-1.9L361.3,312.5z"/>
<path class="st5" d="M335.5,278.9l-1.8-0.9l-0.7-0.8l0.4-0.7v-0.9l-0.9-0.9l-1.3-0.8l-1.2-0.5l-0.1-1.2l-0.9-0.7l0.1,1.2l-0.8,0.9
	l-0.7-1.2l-1.2-0.4l-0.4-0.8l0.1-1.2l0.5-1.2l-0.9-0.7l0.8-0.7l0.7-0.5l2.2,1.1l0.8-0.5l1,0.3l0.5,0.9l1.1,0.3l0.9-0.9l0.7,2.2
	l1.3,1.6l1.5,1.7l-1.3,0.3l-0.1,1.6l0.8,0.7l-0.5,0.4v0.8l-0.3,0.8L335.5,278.9z"/>
<path class="st3" d="M343.8,219.1l2.9,0.3h2.8l3,1.3l1.2,1.6l3.2-0.5l1.2,0.9l2.5,2.5l2,1.7h1.2l2,0.8l-0.4,1.2l2.5,0.1l2.4,1.6
	l-0.5,0.9l-2.4,0.5l-2.2,0.3l-2.4-0.4l-5,0.4l2.6-2.2l-1.3-0.9l-2.2-0.3l-1-1.2l-0.5-2.2l-2,0.1l-3-1.1l-0.9-0.9l-4.4-0.5l-1.2-0.8
	l1.5-1.1l-3.3-0.1l-2.8,2l-1.5,0.1l-0.7,0.9l-1.7,0.5l-1.5-0.4l2-1.3l0.9-1.5l1.7-0.8l1.9-0.8l2.6-0.4L343.8,219.1z"/>
<path class="st8" d="M735.5,171.3h0.1l0.4-0.9h2.3l2.9-1.2l-2.1,1.7l0.4,0.8l0.1,0.3l-3.2,1.6l-1.7-0.5l-0.9-1.6L735.5,171.3z"/>
<path class="st6" d="M679.1,118.1l-1.5-0.7l-1.5,0.1l-2.5-1.2l-1.1,0.3l-1.6,1.6l-2.4-1.2l-1.8-1.7l-1.7-0.9l-0.4-1.6l-0.7-1.2
	l2.3-0.8l1.1-0.9l2.1-0.8l0.7-0.8l0.8,0.5l1.3-0.4l1.6,1.2l2.4,0.4l-0.1,1.1l1.7,0.8l0.4-1.1l2.1,0.4l0.4,1.3l2.2,0.1l1.6,2h-0.9
	l-0.4,0.7l-0.7,0.1l-0.1,0.9l-0.5,0.1v0.4l-1,0.4h-1.3L679.1,118.1z"/>
<path class="st8" d="M656,93.6l0.1,1.5l3,0.9v1.3l3-0.7l1.6-1.1l3.4,1.5l1.5,1.2l0.9,2l-0.8,1.1l1.2,1.3l0.9,2l-0.1,1.3l1.5,2.5
	l-1.3,0.4l-0.8-0.5l-0.7,0.8l-2.1,0.8l-0.9,0.9l-2.2,0.8l0.7,1.2l0.4,1.6l1.7,0.9l1.8,1.7l-1.1,1.8l-1.1,0.5l0.7,2.5l-0.3,0.7
	l-1.1-0.8l-1.5-0.1l-2.1,0.8l-2.8-0.3l-0.4,1.1l-1.6-1.1l-1.1,0.3l-3.3-1.2l-0.7,0.8h-2.7l0.4-2.8l1.5-2.6l-4.5-0.8l-1.5-0.9v-1.7
	l-0.5-0.9l0.3-2.5l-0.7-4.1h1.7l0.8-1.5l0.5-3.4l-0.5-1.3l0.5-0.8l2.4-0.1l0.7,0.8l1.8-1.9l-0.7-1.4l-0.3-2.1l2.2,0.5L656,93.6z"/>
<path class="st2" d="M777.4,261l0.9,1.2v1.7l-2,0.9l1.6,1.1l-1.3,2.1l-0.8-0.7l-0.8,0.3h-2l-0.1-1.2l-0.3-1.2l1-1.9l1.2-1.7l1.6,0.3
	L777.4,261z"/>
<path class="st8" d="M663.9,91.2l-1.6,3l-3.2-2.1l-0.5-1.4l4.2-1.3L663.9,91.2z M656,93.6l-1.9,0.7l-2.2-0.5l-1.3-2.1l-0.2-3.8
	l0.4-0.9l0.8-1.2l2.5-0.3l0.9-0.9l2.2-1.1v1.9l-0.8,1.2l0.5,1.1l1.6,0.5l-0.7,1.5l-0.9-0.4l-1.9,2.7L656,93.6z"/>
<path class="st6" d="M528.8,2.4l7.9-1.5l7.1,0.1l3.2-0.8l7.4-0.3l16.4,0.3l12.3,1.9l-4.1,0.9l-8.2,0.1l-11.4,0.1l0.8,0.5l7.7-0.3
	l6.1,0.8l4.4-0.8l1.5,0.9L577.1,6l5.7-0.9l10.6-0.9l6.2,0.4l1.1,1.1l-9.1,1.9L590.2,8L583,8.5l5,0.1l-3,2l-2.2,1.9l-0.8,3.3l2.2,1.8
	l-3.6,0.1l-4,0.9l3.8,1.6v2.7l-2.6,0.3l2.5,2.6l-5.3,0.3l2.4,1.3l-0.9,1.1L573,29h-3.4l2.6,2.3l-0.3,1.3l-4.6-1.3l-1.5,0.9L569,33
	l2.8,2l0.4,2.7l-4.6,0.7L566,37l-2.6-1.9l0.3,2.2l-3.3,1.7l6.6,0.1l3.4,0.1l-7.4,2.9l-7.7,2.8l-7.8,1.1h-2.9l-3,1.3l-4.6,3.7
	l-6.3,2.4l-1.8,0.1l-3.8,0.9l-4.1,0.8l-2.9,2.1L517,60l-2.1,2.4l-5.3,2.8l0.1,2.8l-2.2,3l-2.5,3.6l-4,0.1l-3.2-2.9h-5.5l-2-2
	l-0.5-3.6l-3-4.4l-0.4-2.4l0.9-3.2l-2.2-3.2l2-2.5l-1.2-1.2l4.4-4.1l4.5-1.2l1.6-1.5L498,40l-3.4,1.2l-1.6,0.5l-2.6,0.6l-2.6-1.2
	l1.1-2.3l1.8-1.7h2.4l4.6,0.8l-3.3-2l-1.6-1.2l-2.8,0.5l-1.6-0.9l4.4-2.9l-0.8-1.2l-0.7-2.2l-0.9-3.3l-2.2-1.3l0.8-1.2l-5-1.9
	l-4.8-0.1l-6.4,0.1l-5.8,0.1l-2-0.9l-2.4-1.9l6.7-0.9l4.8-0.1l-9.2-0.8l-4-1.2l1.3-1.2l9.8-1.3l9.4-1.5l1.7-1.1l-5-0.9l2.9-1.1
	l9.1-1.8l3.3-0.3l0.1-1.2l5.6-0.7l6.7-0.3l6.6-0.1l1.7,0.8l6.6-1.3l4.4,0.9l2.8,0.1l4,0.8l-4.2-1.3L528.8,2.4z"/>
<path class="st3" d="M378.6,232.9l0.5-0.7h2.7l2,1.1l0.9-0.1l0.4,1.4h2l-0.3,1.2l1.5,0.1l1.6,1.5l-1.5,1.6l-1.6-0.9l-1.6,0.3l-1-0.3
	l-0.8,0.8l-1.3,0.3l-0.4-1.1l-1.2,0.7l-1.7,2.6l-0.8-0.7l-0.1-1.1l0.3-1.1l-0.8-1.2l0.9-0.8l0.4-1.5L378.6,232.9z"/>
<path class="st3" d="M668,217.9l-11.7,7.7l-9.9,7.8l-4.9,1.7l-3.8,0.4l-0.1-2.5l-1.6-0.7l-2.1-1.1l-0.8-2l-11.6-8.6l-11.6-8.8
	l-12.7-9.7l0.1-0.8l0,0v-5l5.6-2.9l3.4-0.7l2.8-1.1l1.3-2l4-1.6l0.1-2.9l2-0.4l1.6-1.5l4.4-0.7l0.7-1.6l-0.9-0.8l-1.2-4.2l-0.1-2.4
	l-1.2-2.7l3.2-2.1l3.6-0.7l2.1-1.7l3.2-1.2l5.5-0.7l5.4-0.4l1.7,0.7l3-1.6h3.4l1.5,0.9l2.2-0.3l-0.7,2l0.7,3.8l-0.7,3.3l-2,2.2
	l0.3,2.9l2.9,2.4v1.1l2.1,1.6l1.6,7.2l1.2,3.6l0.3,1.9l-0.5,3.2l0.3,1.9l-0.4,2.3l0.4,2.4l-1.3,1.7l2.1,2.9l0.1,1.7l1.2,2.2l1.6-0.8
	l2.8,1.9L668,217.9z"/>
<path class="st3" d="M344.1,325.5l1.8-3l-0.8-1.7l-1.3,1.9l-2.1-1.8l0.7-1.2l-0.7-3.6l1.2-0.7l0.7-2.4l1.3-2.6l-0.1-1.6l1.9-0.9
	l2.5-1.6l3.4,2.4l0.7-0.1l0.8,1.7l3,0.5l1.1-0.7l1.7,1.3l1.5,1.1l0.5,2.9l-1.1,2.6l-3.8,4.2l-4.1,1.6l-2.1,3.5l-0.5,2.6l-2,1.7
	l-1.6-2.1l-1.5-0.4l-1.5,0.3l-0.1-1.5l1.1-0.9L344.1,325.5z"/>
<path class="st3" d="M753.9,223.9H713l-0.6-14.9l-0.8-14.2l-1.2-3.2l0.7-2.5l-0.7-1.7l1.1-1.9l4.5-0.1l3.3,1.1l3.4,1.2l1.6,0.7
	l2.5-1.3l1.3-1.1l2.9-0.4l2.5,0.5l1.1,2l0.7-1.3l2.8,0.9l2.6,0.3l1.6-0.9l2.8,6.8l-0.8,1.6l-0.4,3l-0.8,2.1l-0.8,0.7l-1.2-1.3
	l-1.7-1.7l-2.8-5.7l-0.4,0.4l1.7,4.1l2.5,4.1l3,6.2l1.3,2.1l1.3,2.2l3.3,4.4l-0.7,0.8l0.3,2.5l4.2,3.6L753.9,223.9z"/>
<path class="st1" d="M774.9,261.7l-1.2-1.3l-1.6-2.4l-1.6-1.2l-0.9-1.5l-3.2-1.6H764l-0.9-0.9l-2,1.1L759,252l-1.1,2.9l-4.1-0.8
	l-0.4-1.6l1.3-5.8l0.1-2.6l1-1.3l2.5-0.7l1.6-2.3l2.4,4.6l1.1,3.7l2,2l5,3.7l2,2.2l2,2.4l1.2,1.3l1.7,1.2l-0.9,0.9L774.9,261.7z"/>
<path class="st8" d="M597.7,144.5l0.3-2.8l-1.2-1.7l4.6-2.9l3.8,0.8h4.4l3.3,0.7l2.6-0.3l5.2,0.1l1.3,1.6l5.8,1.7l1.2-0.8l3.6,1.7
	l3.7-0.5l0.3,2.4l-3,2.6l-4.1,0.8l-0.3,1.3l-2,2.1l-1.3,3.3l1.3,2.2l-2,1.7l-0.7,2.6l-2.5,0.8l-2.4,3l-4.1,0.1l-3.2-0.1l-2.1,1.5
	l-1.3,1.5l-1.6-0.3l-1.2-1.5l-0.8-2.2l-3.2-0.7l-0.1-1.3l1.2-1.5l0.5-1.1l-1-1.2l0.9-2.6l-1.2-2.4l1.3-0.3l0.3-1.9l0.5-0.7l0.1-3
	l1.5-1.1l-0.8-2l-1.8-0.1l-0.7,0.5h-1.8l-0.7-2l-1.5,0.5L597.7,144.5z"/>
<path class="st8" d="M696.6,83.1v-2.2l-1.1,0.5l-2-1.3l-0.7-2.1l3.5-1.1l3.4-0.5L703,77l2.9-0.1l0.5,0.7l-1.6,2.1l1.6,3.4l-1,1.2
	H703l-2.7-1.5l-1.3-0.4L696.6,83.1z"/>
<path class="st1" d="M764,253.7h2.4l3.2,1.6l0.9,1.5l1.6,1.2l1.6,2.4l1.2,1.3l-1.2,1.7l-1,1.9l0.3,1.2l0.1,1.2h2l0.8-0.3l0.8,0.7
	l-0.7,1.5l1.3,2.3l1.5,1.9l1.3,1.5l11.6,4.8h2.9l-9.7,11.9l-4.6,0.1l-3,2.9h-2.2l-0.9,1.3h-2.4l-1.5-1.4l-3.2,1.6l-1.1,1.7l-2.4-0.4
	l-0.8-0.4l-0.8,0.1l-1.1-0.1l-4.5-3.3H754l-1.2-1.3v-2.3l-1.8-0.7l-2.1-4.4l-1.7-0.9l-0.7-1.6l-1.7-2l-2.2-0.3l1.2-2.2l1.8-0.1
	l0.5-1.2l-0.1-3.6l0.9-4.2l1.6-1.1l0.3-1.6l1.5-3l2.1-2l1.2-4l0.4-3.5l4.1,0.8l1.1-2.9l2.1,1.9l2-1.1L764,253.7z"/>
<path class="st4" d="M699.9,43l0.3,2.4l4.5,2.3l-1.7,2.7l4,4l-1.1,2.9l3,2.7l-0.5,2.4l4.6,2.4l-0.5,1.9l-2.1,2.1l-5,4.6l-5,0.3
	l-4.7,1.3l-4.5,0.8l-2-2l-2.8-1.2v-3.6l-1.8-3.3l0.9-2.1l2.1-2.1l5.4-3.8l1.6-0.8l-0.5-1.5l-4-1.7l-1.2-1.3l-1.1-5.3l-4.4-2.2
	l-3.8-1.8L681,42l3.2,1.8l3.3-0.1l2.9,0.8l2.1-1.5l0.7-2.5l3.7-1.2l3.6,1.3L699.9,43z"/>
<path class="st3" d="M1246.7,381.1l0.9,1.2l-1,2l-2.2,0.7l-1.8-0.5l0.1-1.7l1.6-1.5l1.6,0.5L1246.7,381.1z M1250.7,379l-2.4,0.8
	l-0.1-1.5l2-0.8l1-0.3l2.4-1.2l-0.4,1.9L1250.7,379z M0.7,377.8l-0.3,0.1L0,376.1l0.7-0.3V377.8z"/>
<path class="st6" d="M657.5,143.4l-0.9,3l-1.5-0.8l-0.9-2.6l0.7-1.5l2-1.6L657.5,143.4z M644.2,114.5l0.7,0.3h0.9l1.5,0.9l4.5,0.8
	l-1.4,2.7L650,122l-0.8,0.7l-1.5-0.4l0.1,1.1l-2.1,2.1v1.7l1.5-0.5l1,1.7v1.1l0.9,1.4l-1.1,1.2l0.9,3l1.7,0.5l-0.3,1.7l-2.8,2.2
	l-6.4-1.1l-4.6,1.2l-0.4,2.4l-3.7,0.5l-3.6-1.7l-1.2,0.8L622,140l-1.3-1.6l1.7-2.4l0.7-7.8l-3.2-4.1l-2.4-2l-4.6-1.4l-0.3-2.8l4-0.9
	l5.2,1.1l-0.9-4.4l2.9,1.6l7.1-3l0.9-3.2l2.6-0.7l0.4,1.3h1.5l1.5,1.6l2.1,1.9l1.6-0.4L644.2,114.5z"/>
<path class="st8" d="M434.8,302.5l0.9-1.7l0.3-1.7l0.7-1.7l-1.3-2.4l-0.1-2.8l1.9-3.5l1.2,0.5l2.6,0.9l3.6,3.3l0.5,1.7l-2.2,3.6
	l-1.2,2.9l-1.3,1.6l-1.7,0.3l-0.4-1.1l-0.8-0.3l-1.1,1.2L434.8,302.5z"/>
<path class="st3" d="M665.8,327.7l-3.6-4l-2.4-3.3l-2.1-4.1l0.1-1.5l0.8-1.2l0.9-2.9l0.7-2.9l1.2-0.3h5.2l-0.1-4.8l1.7-0.3l2.1,0.5
	l2.1-0.5l0.4,0.3l-0.3,1.7l1,2l2.7-0.3l0.8,0.8l-1.5,4.6l1.6,2.4l0.4,3l-0.4,2.6l-1,2l-3.2-0.3l-1.8-1.9l-0.3,1.7l-2.4,0.5l-1.2,0.9
	l1.3,2.6L665.8,327.7z"/>
<path class="st8" d="M608.4,97.8l-2.2-0.8l-1.8,0.1l0.8-2.1l-0.5-2l2.4-0.1l3.2,2.2L608.4,97.8z M618.1,79.9L615,84l3-0.5h3l-0.8,3
	l-2.6,3.3l3,0.3l0.3,0.4l2.5,4.4l2,0.7l1.8,4.4l0.9,1.4l3.6,0.8l-0.3,2.4l-1.5,1.3l1.2,2l-2.7,2l-4.1-0.1l-5.2,1.1l-1.5-0.7
	l-2.1,1.7l-2.8-0.4l-2.1,1.4l-1.6-0.8l4.5-4l2.8-0.8l0,0l-4.8-0.7l-0.8-1.6l3.2-1.2l-1.6-2l0.7-2.5l4.4,0.3l0,0l0.5-2.1l-2-2.4l0,0
	l-3.6-0.7l-0.7-1.1l1.1-1.7l-0.9-1.1l-1.6,1.9v-3.6l-1.5-2l1.2-3.8l2.4-3l2.2,0.4L618.1,79.9z"/>
<path class="st5" d="M760.6,145.8l0.1-1.6l-1.3-2.8l-2.1-1.5l-1.9-0.4l-1.3-1.2l0.3-0.5l2.8,0.7l4.9,0.7l4.8,1.9l0.7,0.8l1.8-0.7
	l3.2,0.8l1.3,1.7l2.1,0.9l-0.7,0.5l2,2.1l-0.4,0.4l-1.7-0.1l-2.7-1.2l-0.7,0.7l-4.4,0.7l-3.4-2L760.6,145.8z"/>
<path class="st2" d="M630.5,288.1l-5.6,2.4l-1.9,1.3l-3.2,1.2l-3.2-1.2l0.1-1.6l-1.5-3.3l0.9-4.6l1.5-3.3l-0.9-5.7l-0.5-2.9l0.1-2.4
	l6.1-0.1l1.6,0.3l1.1-0.7l1.7,0.4l-0.3,1.2l1.5,2.1v2.9l0.3,3l0.9,1.5l-0.8,3.6l0.3,2l0.9,2.6L630.5,288.1z"/>
<path class="st1" d="M597.2,281l-1.1-0.1l-0.7,1.7l-1-0.1l-0.7-0.8l0.3-1.6l-1.5-2.5l-0.9,0.5h-0.8l-0.9,0.3v-1.5l-0.5-1.1l0.1-1.1
	l-0.7-1.7l-1.1-1.5H585l-0.8,0.8h-1l-0.5,0.9l-0.4,1.1l-2,1.9l-1.5-2.4l-1.3-1.6l-0.9-0.5l-0.9-0.8l-0.3-1.7l-0.5-0.9l-1.1-0.7
	l1.6-2l1,0.1l0.9-0.7h0.8l0.5-0.5l-0.3-1.3l0.4-0.4l0.1-1.5l1.6,0.1l2.5,0.9l0.8-0.1l0.3-0.4l2,0.3l0.4-0.1l0.3,1.5h0.5l0.9-0.5
	l0.5,0.1l1.1,0.9l1.5,0.4l0.9-0.9l1.2-0.5l0.8-0.5l0.8,0.1l0.7,0.8l0.4,1.2l1.5,1.6l-0.7,1.1l-0.1,1.3l0.7-0.4l0.5,0.5l-0.3,1.2
	l1.1,1.1l-0.7,0.4l-0.3,1.3l0.8,1.6l0.8,3.2l-1.3,0.5l-0.3,0.5l0.3,0.8l-0.3,1.7L597.2,281z"/>
<path class="st1" d="M567.9,259.2l0.4-1.7l3.8-0.1l0.8-0.9h1.2l1.3,0.9h1l1.2-0.7l0.7,1.2l-1.5,0.8h-1.5l-1.5-0.8l-1.3,0.9h-0.7
	l-0.8,0.5L567.9,259.2z"/>
<path class="st1" d="M573.8,267.6l-1.8-1.7l-1.5-0.3l-0.8-1.1v-0.7l-1.1-0.8l-0.1-0.8l1.8-0.7l1.2,0.1l0.9-0.5l6.5,0.1l-0.1,1.5
	l-0.4,0.4l0.3,1.3l-0.5,0.5h-0.8l-1,0.7l-1.1-0.1L573.8,267.6z"/>
<path class="st3" d="M660.2,307.8l-0.7-0.7l1.2-4.5l5.7,0.1l0.1,4.8h-5.2L660.2,307.8z"/>
<path class="st8" d="M705.2,169l2,1.3l2.5-0.1l2.5,0.3v0.7l1.7-0.5l-0.3,1.2l-4.8,0.4v-0.7l-4.1-0.8L705.2,169z M711,148.8l-2-0.1
	l-1.7-0.4l-3.8,1.1l2.5,2.1l-1.6,0.7h-1.8l-1.8-2l-0.5,0.9l0.9,2.3l1.8,2l-1.2,0.8l2,1.9l1.7,1.2l0.3,2.2l-3.2-1.1l1.2,2l-2.1,0.4
	l1.6,3.6H701l-2.8-1.7l-1.5-3.2l-0.8-2.6l-1.5-1.9l-1.9-2.3l-0.3-1.2l1.3-1.9v-1.3l1.1-0.5v-1.1l2.1-0.4l1-0.8h1.8l0.4-0.7l0.7-0.1
	l2.4,0.1l2.4-1.1l2.5,1.3l2.9-0.4l-0.3-1.9l1.7,0.9l-0.8,2.5L711,148.8z"/>
<path class="st7" d="M312.1,256.9l-1.7-0.7l-2.1-0.1l-1.6-0.8l-1.7-1.6l0.3-1.2l0.5-0.9l-0.4-0.8l2-3.3h4.5l0.3-1.3l-0.5-0.3
	l-0.4-0.8l-1-0.9l-1.2-1.3h1.6l0.3-2.2h6.5l-0.4,3.2l-0.8,4.5h1l1.1,0.7l0.3-0.5l1,0.5l-1.8,1.5l-1.7,1.2l-0.3,0.7l0.1,0.8l-0.8,1.1
	l-0.9,0.3l0.1,0.4l-0.7,0.5l-1.3,0.9L312.1,256.9z"/>
<path class="st3" d="M416.9,278.4l2.2,1.5l2.1,2.5l0.1,2.1l1.2,0.1l1.9,1.9l1.5,1.5l-0.7,3.6l-2.2,1.1l0.1,0.9l-0.7,2.1l1.6,2.8h1.1
	l0.4,2.2l2.1,3.6l-0.8,0.1l-2-0.4l-1.2,1.1l-1.6,0.8L421,306l-0.4,0.8l-1.7-0.3l-2.2-1.9l-0.1-1.9l-0.9-2l0.7-3.5l0.9-1.3l-0.7-1.9
	l-1.2-0.7l0.4-1.7l-0.8-0.9l-1.7,0.1l-2.4-3l1-1.1l-0.1-1.9l2.2-0.7l0.9-0.7l-1.2-1.6l0.4-1.5L416.9,278.4z"/>
<path class="st9" d="M321.6,259.8l-0.5-1.2l-1.1-0.4l0.4-1.6l-0.4-0.4l-0.8-0.3l-1.5,0.4l-0.1-0.5l-1-0.5l-0.7-0.8l-0.9-0.4l0.8-1.1
	l-0.1-0.8l0.3-0.7l1.7-1.2l1.8-1.5l0.3,0.1l0.9-0.7l0.9-0.1l0.3,0.4l0.7-0.3l1.6,0.4l1.6-0.1l1.2-0.4l0.4-0.5l1,0.3l0.8,0.3l0.9-0.1
	l0.8-0.3l1.5,0.5h0.7l0.9,0.8l0.9,0.9l1.2,0.5l0.8,1.2l-1.2-0.1l-0.5,0.5l-1.2,0.5H333l-0.8,0.5l-0.7-0.1l-0.5-0.7l-0.4,0.1
	l-0.5,0.9h-0.4l-0.1,0.8l-1.3,1.1l-0.7,0.5l-0.4,0.5l-0.9-0.8l-0.9,1.1l-0.7-0.1l-0.9,0.1v2h-0.5l-0.5,0.9L321.6,259.8z"/>
<path class="st5" d="M685.9,128.6l0.9,1.6l1,1.1l-1,1.5l-1.5-0.8h-2.2l-2.8-0.7l-1.5,0.1l-0.5,0.8l-1.3-0.9l-0.5,1.6l1.7,1.9
	l0.8,1.3l1.6,1.5l1.3,0.8l1.3,1.7l2.9,1.5l-0.3,0.7l-3.2-1.5l-1.8-1.4l-3-1.2l-2.9-2.8l0.7-0.4l-1.6-1.6l-0.1-1.3l-2.1-0.7l-0.9,1.7
	l-0.9-1.3v-1.5l2.2,0.1l0.5-0.7l1.2,0.7l1.2,0.1l-0.1-1.2l1-0.4l0.3-1.5l2.4-1.1l1.1,0.4l2.4,1.7l2.8,0.8L685.9,128.6z"/>
<path class="st1" d="M378.6,232.9v2.2l-0.4,1.5l-0.9,0.8l0.8,1.2l-0.3,1.1l-2.2-0.7l-1.6,0.3l-2.1-0.3l-1.7,0.7l-1.8-1.2l0.5-1.3
	l3,0.5l2.6,0.4l1.3-0.9l-1.5-1.7l0.3-1.6l-2.1-0.5l0.9-1.2l2.1,0.3L378.6,232.9z"/>
<path class="st5" d="M677.3,124.9l0.9-2.5l-0.7-0.8h1.7l0.1-1.6l1.6,0.9l1.2,0.5l2.5-0.5l0.3-0.8l1.2-0.1l1.5-0.5l0.4,0.3l1.3-0.5
	l0.7-0.9l0.9-0.3l3.4,1.2l0.7-0.4l1.9,1.1l0.4,1.1l-1.8,0.8l-1.2,2.6l-1.6,2.6l-2.5,0.8l-1.8-0.3l-2.4,1.1l-1.1,0.7l-2.8-0.8
	l-2.4-1.7l-1.1-0.4l-0.8-1.3L677.3,124.9z"/>
<path class="st3" d="M1049.9,352.8h-1.5l-4.4-2.8l3.3-0.8l1.7,1.2l1.2,1.3L1049.9,352.8z M1065.4,347.4l0.3,0.8v1.2l-2.6,3l-3,0.8
	l-0.4-0.4l0.4-1.3l1.7-2.5L1065.4,347.4z M1040.8,344.2l1.2,1.1l2.1-0.3l0.8,1.7l-4.1,0.8l-2.5,0.5l-1.8-0.1l1.3-2.3h2L1040.8,344.2
	z M1058.4,344.2l-0.8,2.3l-5.3,1.1l-4.6-0.4l0.1-1.5l2.8-0.9l2.1,1.2l2.4-0.3L1058.4,344.2z M1008.5,338.9l6.7,0.4l0.8-1.6l6.5,1.9
	l1.1,2.7l5.3,0.8l4.1,2.3l-4.1,1.6l-3.8-1.6l-3.2,0.1l-3.6-0.4l-3.2-0.7l-4.1-1.6l-2.5-0.4l-1.5,0.5l-6.3-1.6l-0.5-1.7l-3.2-0.3
	l2.7-3.8l4.2,0.3l2.8,1.5l1.5,0.4L1008.5,338.9z M1100.4,336.6l-2,2.8l-0.1-3l0.7-1.5l0.8-1.3l0.8,1.2L1100.4,336.6z M1074.8,325.6
	l-1.5,1.3l-2.4-0.7l-0.7-1.7l3.6-0.3L1074.8,325.6z M1086.2,324.2l1.1,3l-2.8-1.6l-3-0.4l-2,0.3l-2.4-0.1l0.9-2.1l4.4-0.1
	L1086.2,324.2z M1123.3,322.2l-0.7,13.1l-1,13l-2.8-3.3l-3.6-0.8l-0.9,1.2l-4.5,0.1l1.8-3.3l2.2-1.1l-0.5-4.4l-1.6-3.3l-6.6-3.5
	l-2.8-0.3l-5.2-3.7l-1.1,1.9l-1.5,0.4l-0.7-1.5v-1.7l-2.5-2l3.8-1.5l2.5,0.1l-0.3-1.1h-5.2l-1.5-2.4l-3-0.8l-1.5-2l4.8-0.9l1.7-1.3
	l5.7,1.7l0.5,1.5l0.8,6.5l3.6,2.4l3.2-4.2l4.1-2.5h3l3,1.5l2.5,1.5L1123.3,322.2z M1067.9,306.2l-2.8,4l-2.6,0.8l-3.4-0.8l-5.8,0.3
	l-3,0.5l-0.5,3l3,3.5l2-1.7l6.6-1.3l-0.4,1.7l-1.4-0.5l-1.6,2.4l-3.2,1.5l3.2,5.2l-0.7,1.3l2.9,4.6l-0.1,2.6l-2,1.2l-1.3-1.5
	l1.8-3.2l-3.4,1.5l-0.8-1.1l0.5-1.6l-2.5-2.2l0.4-4l-2.4,1.2l0.1,4.8l-0.1,5.7l-2.2,0.5l-1.5-1.2l1.2-3.7l-0.4-3.8h-1.5l-1.1-2.6
	l1.6-2.6l0.5-3.2l1.8-6.1l0.8-1.6l2.9-2.9l2.8,1.1l4.5,0.7l4-0.3l3.4-2.9L1067.9,306.2z M1080.1,307.4l-0.1,3.5l-1.8-0.4l-0.5,2.5
	l1.5,2.1l-1.1,0.4l-1.3-2.5l-1.1-5.2l0.7-3.2l1.1-1.5l0.3,2.2l2.1,0.4L1080.1,307.4z M1013,303.8l0.5,2.8l2.5,2.2l2.2-0.8l2.2,0.3
	l2-2.1l1.7-0.3l3.3,1.1l2.9-0.8l1.7-5.6l1.3-1.5l0.9-4.5h4.1l3,0.7l-1.9,3.6l2.8,3.8l-0.7,1.9l4.1,3.7l-4.2,0.4l-1.2,2.8l0.3,3.6
	l-3.4,2.8l-0.3,4l-1.6,6.1l-0.4-1.5l-4.1,1.9l-1.3-2.5l-2.5-0.1l-1.7-1.3l-4.2,1.5l-1.2-2l-2.2,0.3l-2.9-0.5l-0.4-5.3l-1.7-1.1
	l-1.7-3.5l-0.5-3.6l0.4-3.6L1013,303.8z M998.9,335.2l-4,0.1l-2.8-3.3l-4.4-3.3l-1.4-2.4l-2.5-3.3l-1.7-2.9l-2.5-5.6l-3.2-3.5
	l-1.1-3.3l-1.3-3.2l-3.2-2.5l-2-3.5l-2.8-2.2l-3.8-4.4l-0.4-2l2.4,0.1l5.4,0.8l3.3,3.9l2.8,2.8l2,1.6l3.4,4.4h3.6l3,2.8l2.1,3.3
	l2.7,1.9l-1.5,3.2l2.1,1.5l1.2,0.1l0.5,2.8l1.2,2.2l2.6,0.3l1.7,2.5l-1.1,5L998.9,335.2z"/>
<path class="st3" d="M884.8,170l4.8,4.6l0.5,3.3l1.8,2l0.4,2l-2.5-0.5l2,4.5l3.8,2.5l5.3,2.8l-1.7,1.7l-0.5,3.8l3.6,1.5l3.6,2
	l4.9,2.2l4.8,0.5l2.2,2l2.8,0.4l4.2,0.9l2.9-0.1v-1.6l-0.9-2.5v-1.7l1.8-0.8l0.9,3.2l0.3,0.8l3.3,1.5l2.1-0.5l2.9,0.3l2.8-0.1
	l-0.3-2.5l-1.7-1.3l2.7-0.4l2.5-3.1l3.3-2.5l3,0.9l2-1.6l2.2,2.5l-0.8,1.6l3.8,0.7l0.5,1.5l-0.9,0.8l0.8,2.4l-2.7-0.8l-3.8,2.8
	l0.7,2.3l-1.3,3.3l0.1,2l-0.9,3.3l-2.9-0.9l0.5,4.1l-0.5,1.3l0.7,1.7l-1.6,0.9l-2.8-6.4l-0.9,0.1l-0.3,2.5l-2.1-2.1l0.7-2.3l1.6-0.3
	l0.9-3.3l-2-0.7h-3.2l-3.4-0.5L934,208l-1.6-0.3l-3-1.7l-0.8,2.8l2.9,2.1l-2,1.5l-0.5,1.5l2.4,1.1l-0.3,2.4l1.6,3l1,3.3l-0.3,1.5
	l-2.4-0.1l-4.1,0.9l0.5,2.9l-1.5,2.4l-4.7,2.8l-3.3,4.6l-2.4,2.5l-3.1,2.6l0.3,1.9l-1.6,0.9l-3,1.5l-1.6,0.3l-0.8,3l1.2,5.2l0.5,3.3
	l-1.2,3.7l0.4,6.9l-1.8,0.1l-1.3,3l1,1.3l-3.2,1.2l-1.1,2.6L899,280l-3.4-3.7l-2-5.7l-1.6-4l-1.3-1.8l-2.1-3.9l-1.3-5l-0.8-2.5
	l-3.6-5.4l-2.2-7.8l-1.6-5l-0.5-4.9l-1-3.7l-4.8,2.2l-2.5-0.5l-5-4.8l1.5-1.5l-1.2-1.6l-4.4-3.3l2-2.8h7.5l-1.2-3.3l-2.1-2.1l-0.9-3
	l-2.5-1.7l3.2-4.2l4,0.3l2.8-4.1l1.5-4.1l2.4-4l-0.7-2.9l2.3-2.3l-3.2-2l-1.7-2.8l-2.1-3.4l1.2-1.7l5.3,0.9l3.6-0.5L884.8,170z"/>
<path class="st8" d="M608.4,97.8l0.4,2.8l-2.4,3.3l-5.5,2.4l-4.2-0.7l2.8-4l-1.4-3.8l4.2-3l2.4-1.7l0.5,2l-0.8,2.1l1.8-0.1
	L608.4,97.8z"/>
<path class="st5" d="M804.1,163.1l2.8-0.7l1.8-2.4l2.2,0.1l1.3-0.7l2.4,0.3l4.1,2.1l2.7,0.4l4.6,3.6l2.4,0.1l1,3.3l-0.3,4.9
	l-0.4,2.9l1.6,0.7l-1,2.1l1.7,3.2l0.8,2.6l2.6,0.7l0.7,2.5l-2.4,3.6l2,2.1l1.7,2.5l3.4,1.7l0.7,3.5l1.7,0.7l0.5,1.9l-4.6,2.1
	l-0.7,4.6l-6.6-1.2l-3.8-0.9l-4-0.5l-2-4.9l-1.7-0.8l-2.7,0.8l-3.2,1.9l-4.4-1.3l-3.7-3l-3.4-1.1l-2.7-3.9l-3.2-5.3l-1.7,0.7
	l-2.4-1.3l-1,1.5l-2.1-2l-0.3-2.1h-1.1l0.1-2.9l-2.2-3.1l-4.4-2.2l-2.9-3.7l0.4-3.2l1.5-1.3l-0.7-2.4L777,168l-2.9-4.8l-2.4-3.2
	l0.5-1.2l-1.9-4.7l2-1.1l0.8,1.5l2,1.9l2.4,0.5l1.2-0.1l3.3-2.9l1.1-0.3l1.2,1.2l-0.7,1.9l2.4,2.1l0.8-0.1l1.6,2.9l3.3,0.8l2.6,2
	l4.8,0.7l4.9-1.1L804.1,163.1z"/>
<path class="st5" d="M777,168l2.4,1.2l0.7,2.4l-1.5,1.3l-0.4,3.2l2.9,3.7l4.4,2.2l2.2,3l-0.1,2.9h1.1l0.3,2.1l2.1,2l-2-0.1l-2.4-0.3
	l-2,3.7l-6.3-0.3l-10.5-8.1l-5.3-2.8l-4.2-1.1l-2-4.9l6.9-4.1l0.7-4.8l-0.8-2.9l1.7-1.1l1.2-2.5l1.3-0.5l4,0.5l1.3,0.9l1.5-0.7
	L777,168z"/>
<path class="st10" d="M588.6,52l-0.9,2.2l2.8,2.4l-3.8,2.7l-8.1,2.4l-2.5,0.7l-3.4-0.5l-7.4-1.1l2.9-1.6l-5.4-1.7l4.8-0.7l0.1-1.1
	l-5.4-0.8l2.2-2.3l4.1-0.5l3.7,2.4l4.4-2l3.2,1.1l4.5-1.9L588.6,52z"/>
<path class="st6" d="M746.5,181.1l-0.4,1.2l-1.3-0.5l-0.4,2.6l0.9,0.4l-0.8,0.7l-0.1,0.9l1.6-0.5l0.3,1.6l-1.2,6.3l-2.8-6.8l0.8-1.3
	l-0.3-0.3l0.8-1.9l0.3-3l0.4-1.1h1.2l0.3-0.7l0.9-0.1l0.1,1.7l-0.3,0.5L746.5,181.1z"/>
<path class="st8" d="M677.6,159l-0.9,3.2l0.5,1.2l-0.5,2.1l-2.6-1.6l-1.7-0.4l-4.6-2l0.3-2.1l4,0.4l3.3-0.4L677.6,159z M656.6,147.1
	l2,2.8l-0.3,5.3l-1.5-0.3l-1.3,1.3l-1.2-1.1l-0.3-4.8l-0.9-2.2l1.8,0.1L656.6,147.1z M670,126.2l-0.3,2l0.9,1.7l-2.6-0.7l-2.4,1.5
	l0.3,2l-0.4,1.1l1.2,2l3.2,2l1.7,3.3l3.8,3.2h2.5l0.8,0.8l-0.8,0.8l3,1.5l2.4,1.2l2.9,2.1l0.4,0.7l-0.4,1.5l-2-1.9l-2.9-0.7
	l-1.2,2.5l2.5,1.5l-0.3,2.1l-1.3,0.3l-1.6,3.5l-1.3,0.3l-0.1-1.2l0.7-2.1l0.7-0.9l-1.4-2.2l-1.2-2l-1.3-0.5l-1.1-1.7l-2.1-0.7
	l-1.5-1.6l-2.5-0.3l-2.5-1.9l-3.2-2.5l-2.2-2.2l-1.2-4l-1.6-0.4l-2.6-1.3l-1.5,0.5l-1.7,1.9l-1.3,0.3l0.3-1.7l-1.7-0.5l-0.9-3
	l1.1-1.2l-0.9-1.4v-1.1l1.5,0.8l1.5-0.1l1.7-1.3l0.5,0.5l1.6-0.1l0.5-1.5l2.4,0.4l1.3-0.7l0.2-1.5l2,0.5l0.3-0.7l3-0.7l0.8,1.3
	L670,126.2z"/>
<path class="st3" d="M357.7,237.8l2.2,0.4l1.8,0.9l0.4,1.2h-2.5l-1,0.7l-1.9-0.7l-1.8-1.5l0.5-0.9l1.5-0.3L357.7,237.8z"/>
<path class="st3" d="M746.1,182.3l0.4-1.2l4,1.6l6-4.4l2,4.9l-0.5,0.7l-6.5,2l3.7,4l-1.1,0.7l-0.4,1.3l-2.5,0.5l-0.7,1.5l-1.3,1.2
	l-3.8-0.5l-0.3-0.7l1.2-6.4l-0.3-1.6l0.3-1.1L746.1,182.3z"/>
<path class="st6" d="M1075.4,175.2l1.1,1.3l-0.9,2.5l-1.8-1.3l-1.3,0.9v2.4l-2.7-1.2l-0.7-1.9l0.8-2.4l2.1,0.4l0.5-1.6L1075.4,175.2
	z M1090.6,163.3l0.4,3.2l1.6,2l-0.4,2.8l-3.3,2l-5.8,0.1l-2.7,4.6l-2.9-1.6l-1.4-2.9l-5.4,0.8l-3.2,2h-3.8l4.6,2.9l0.5,6.9l-1.6,1.6
	l-2.2-1.5l-0.5-3.7l-2.6-1.1l-2.4-2.8l2.6-1.2l0.7-2.5l2.4-2.1l1.2-2.8l6.1-1.2l4,0.9v-7.2l3.2,2l2.8-4.1l1.1-1.5l-0.7-4.9l-3.2-4.5
	l-0.1-2.5l3-0.7l5,5.4l1.7,3.3l-0.8,4L1090.6,163.3z M1083.4,135.5l2.8,0.8l1.1-1.7l3.8,4.5l-4.1,1.1l-0.1,4l-6.9-2.8l1.1,4.4h-3.6
	l-2.9-3.8l-0.4-3l3.3-0.3l-2.8-5.4l-1.2-3l6.6,4.1L1083.4,135.5z"/>
<path class="st8" d="M854.4,142.9l-1.6,0.8l-3.3,2.8l-0.7,2.8h-1.2l-1.5-1.9l-4.1-0.1l-1.6-3.2h-1.6l-0.9-4l-4.8-2.9l-5.3,0.3
	l-3.6,0.7l-4.1-3.6l-3-1.5l-5.7-2.9l-0.7-0.3l-7.5,2.3l4,14.6l-1.6,0.3l-3-3.2l-2.6-1.1l-3.4,0.8l-1.1,1.3l-0.4-0.9l0.4-1.7
	l-0.9-1.3l-4.1-1.3l-2.3-3.6l-2-1.1l-0.4-1.2l3.2,0.4l-0.7-2.9l2.5-0.7l2.9,0.5l-0.4-3.7l-1.1-2.5l-3,0.3l-2.9-0.9l-3.2,1.7
	l-2.8,0.8l-1.7-0.7l-0.1-2l-2.7-2.6l-2.2,0.1l-3.3-2.6l1-2.9l-1-0.8l1.3-4.2l3.7,2.2l-0.4-2.9l5-4.1l4.8-0.1l7.5,2.7l4,1.6l2.8-1.6
	l4.8-0.1l4.6,2l0.4-1.2l4.4,0.3l0-1.8l-5.8-2.7l2.1-1.9l-0.9-1.1l2.5-0.9l-3.2-2.7l0.9-1.3l10.6-1.3l1.1-0.9l6.7-1.3l1.8-1.6
	l5.7,0.8l2.8,4l2.7-0.9l4.4,1.2l0.8,2.1l2.6-0.3l5.8-3.6l-0.5,1.2l5.2,2.9l11.4,9.8l0.7-2l5.3,2.1l3.8-0.9l2,0.7l2.5,2.2l2.5,0.8
	l2.1,1.6l3.7-0.5l2.8,2.4l-1.2,2.5l-2.4,0.4l1.6,4l-1,1.7l-6.8-1.3l0.7,7l-1.2,0.9l-5.7,1.6l5.5,6.8l-1.8,1.1l1.1,2.2l-2.1-0.5
	l-2.2-1.5l-4.8-0.4l-5.4-0.1l-0.9,0.4l-5.2-1.6l-1.6,0.8l0.3,2.2l-5.7-1.3l-1.8,0.5L854.4,142.9z"/>
<path class="st1" d="M773.3,318.6l-2.5,1.6l-0.9,1.6l-1.3,0.4L768,325l-1.2,1.6l-0.7,2.6l-1.5,1.3l-5-4l-0.1-2.4l-12.7-8.1l-0.7-0.4
	v-4.2l1.1-1.7l1.7-2.5l1.2-2.9l-1.6-4.6l-0.4-2l-1.7-2.8l2.1-2.4l2.4-2.6l1.8,0.7v2.3l1.2,1.3h2.5l4.5,3.3l1.1,0.1l0.8-0.1l0.8,0.4
	l2.4,0.4l1.1-1.7l3.2-1.6l1.5,1.3h2.4l-3,4.5l0.1,14.6L773.3,318.6z"/>
<path class="st5" d="M854.4,142.9l0.3-1.7l1.8-0.5l5.7,1.3l-0.3-2.2l1.6-0.8l5.2,1.6l0.9-0.4l5.4,0.1l4.8,0.4l2.2,1.5l2.1,0.5
	l-0.1,0.9l-4.4,2.1l-0.5,1.6l-4,0.4l-0.4,2.5l-3.7-0.5l-2,0.8l-2.5,1.9l0.8,0.9l-0.7,0.9l-6,0.7l-4.5-1.3l-3.4,0.3l-0.3-2.3l3.7,0.7
	l0.8-1.2l2.6,0.4l3.3-2.9l-4.5-2l-2,0.9l-2.9-1.4l2-2.7L854.4,142.9z"/>
<path class="st2" d="M985.7,263l-1.2-4.8l1.8-3.3l4.4-0.8l3.3,0.7l3.2,1.5l1.2-2.6l3.3,1.5l1.1,2.6l0.1,4.8l-5.5,3l1.7,2.4l-3.7,0.4
	l-2.9,1.6l-2.9-0.7l-1.6-2L985.7,263z"/>
<path class="st4" d="M1046.2,157.5l5.2,4.6l2.1,2.6l2.1,4.5l-0.3,2.2l-2.7,0.8l-2,1.6l-2.9,0.4l-1.3-2.3l-0.7-2.9l-3.3-4.1l2.1-0.7
	l-3.8-3.4v-0.4l1.6,0.1l0.4-1.7l2.2-0.3l1.2-0.3L1046.2,157.5z"/>
<path class="st10" d="M789,192l0.9,1.7l-0.1,0.9l1.5,3.1l-2.5,0.1l-1.1-2l-3-0.4l2-3.7L789,192z"/>
<path class="st8" d="M994,254.8l0.9-1.9l-0.3-3.5l-3.2-3.5l-0.8-4l-3.2-3.2l-2.6-0.3l-0.5,1.3l-2,0.1l-1.1-0.7l-3.4,2.4l-0.5-3.6
	l0.3-4.2l-2.4-0.1l-0.7-2.4l-1.6-1.3l0.4-1.5l2.7-2.5l0.4,0.9h1.8l-1.2-4.5l1.6-0.5l2.7,3.1l2.1,3.7h4.2l1.9,3.5l-2,1.1l-0.8,1.5
	l4.5,2.4l3.6,4.8l2.8,3.4l3,2.8l1.2,2.9l-0.1,4l-3.3-1.5l-1.2,2.6L994,254.8z"/>
<path class="st5" d="M746.6,178.7l-0.9,0.1l-0.3,0.7h-1l0.8-3.2l1.3-2.9v-0.1l1.6,0.3l0.7,1.6l-1.6,1.5L746.6,178.7z"/>
<path class="st1" d="M599.7,294.3l-0.9,0.1l-3.7-2l-3.2-3l-2.9-2.1l-2.4-2.6l0.8-1.2l0.3-1.2l1.6-2.1l1.6-2h0.8l0.9-0.5l1.5,2.5
	l-0.3,1.6l0.7,0.8l1,0.1l0.7-1.7l1.1,0.1l-0.1,1.2l0.3,2l-0.8,1.7l1.1,1.1l1.1,0.3l1.6,1.7v1.6l-0.3,0.5L599.7,294.3z"/>
<path class="st8" d="M678,220.5l-2.5,1.5l-2-2.3l-5.4-1.7l-1.6-2.5l-2.8-1.9l-1.6,0.8l-1.2-2.2l-0.1-1.7l-2.1-2.9l1.3-1.7l-0.4-2.4
	l0.4-2.3l-0.3-1.9l0.5-3.2l-0.3-1.9l-1.2-3.6l1.7-0.9l0.1-1.7l-0.4-1.6l2.2-1.6l1-1.2l1.6-1.2l0.1-3l4,1.3l1.3-0.4l2.9,0.7l4.5,1.9
	l1.7,3.6l3,0.8l4.9,1.6l3.7,2l1.6-1.1l1.5-1.7l-0.9-3.2l0.9-1.9l2.2-1.9l2.4-0.5l4.5,0.8l1.3,1.7h1.2l1.2,0.7l3.3,0.5l0.9,1.3
	l-1,1.8l0.7,1.7l-0.7,2.5l1.2,3.2l0.8,14.2l0.7,14.9l0.3,7.9h-4v1.7l-14-7.7l-14-7.7L678,220.5z"/>
<path class="st9" d="M914.1,281.7l-0.4,4.2l-1.5,1.1l-3,0.9l-1.8-3.1l-0.9-5.7l1.3-6.5l2.5,2.1l1.7,2.9L914.1,281.7z"/>
<path class="st1" d="M725,427.5l1.2,1.2l-1.2,2l-0.7,1.3l-2,0.7l-0.7,1.2l-1.3,0.4l-2.2-3l2-2.5l1.8-1.6l1.7-0.8L725,427.5z"/>
<path class="st3" d="M694,96.1l-0.3-0.9l0.1-1.1l-1.5-0.7l-3.2-0.7l-1.1-3l3.2-1.2l4.9,0.3l2.9-0.4l0.5,0.8l1.6,0.3l3,1.7l0.7,1.7
	l-2.2,1.2l-0.4,2.1l-2.9,1.4h-2.9l-0.9-1.2L694,96.1z"/>
<path class="st5" d="M645.3,112.2l0.5,0.9v1.7h-0.9l-0.7-0.3l0.3-2.3L645.3,112.2z"/>
<path class="st5" d="M688.1,89.8l-0.3-2.9l1.1-2.2l2.5-1.3l2.8,2.8l2.2-0.1l0.1-2.8l2.4-0.7l1.3,0.4l2.7,1.5h2.4l1.6,0.8l0.5,1.8
	l1.5,2.3l-2.9,1.5l-1.7,0.5l-3-1.7l-1.6-0.3l-0.5-0.8l-2.9,0.4l-4.9-0.3L688.1,89.8z"/>
<path class="st3" d="M619.6,171.1l1.2,2.7l0.1,2.4l1.2,4.2l0.9,0.8l-0.7,1.6l-4.4,0.7l-1.6,1.5l-2,0.4l-0.1,2.9l-4,1.6l-1.3,2
	l-2.8,1.1l-3.4,0.7l-5.6,2.9v5h-15l2.5-2.2l5-2.6l1.7-1.2l2.9-3.3l-0.7-4.9l1.3-3.4l0.5-2.1l2.2-2.6l3.4-1.9l2.5-1.7l2.2-4.1
	l1.2-2.4h2.4l2,1.7l3.2-0.4l3.4,0.9H619.6z"/>
<path class="st3" d="M709.2,119.6l0.7-0.5l2-0.4l2.4,1.2l1.3,0.1l1.6,1.1v1.3l1.2,0.7l0.7,1.6l1.3,1.1l-0.1,0.5l0.7,0.4l-0.8,0.3
	l-1.8-0.1l-0.4-0.5l-0.7,0.4l0.3,0.7l-0.7,1.2l-0.3,1.3l-0.8,0.5l-0.8-1.9l0.1-1.6l-0.4-1.7l-2.1-2.4l-1.2-1.6l-1.2-1.2L709.2,119.6
	z"/>
<path class="st1" d="M800.1,361.6l0.8,1.7l0.8,2.6l0.3,4.8l0.8,1.9l-0.5,2l-0.7,1.2l-1-2.4l-0.7,1.2l0.4,2.9l-0.4,1.7l-1,0.9
	l-0.4,3.3l-1.7,4.8l-2.1,5.4l-2.7,7.6l-1.8,5.6l-1.8,4.6l-2.9,0.9l-3.2,1.7l-1.9-1.1l-2.6-1.3l-0.8-2.1v-3.6l-1.1-3.2V400l0.8-2.9
	l1.6-0.7l0.1-1.3l1.8-3l0.5-2.5l-0.8-1.9l-0.4-2.5l-0.1-3.7l1.5-2.3l0.5-2.5l1.7-0.1l2-0.8l1.3-0.8h1.6l2.1-2.2l3-2.5l1.1-2
	l-0.3-1.7l1.5,0.5l2-2.8l0.3-2.4l1.2-1.9L800.1,361.6z"/>
<path class="st5" d="M320.5,237.8h-0.7l-1.6,2.5l-0.7-0.5l-0.4,0.3v0.5h-6.5l-0.3,2.2h-1.6l1.2,1.3l1,0.9l0.4,0.8l0.5,0.3l-0.3,1.3
	h-4.4l-2,3.3l0.4,0.8l-0.5,0.9l-0.3,1.2l-3.4-4.4l-1.7-1.3l-2.6-1.1l-2,0.4l-3,1.5l-1.7,0.4l-2.4-1.1l-2.5-0.8l-3-1.9L280,245
	l-3.7-1.9l-2.6-1.9l-0.7-1.1l-2-0.3l-3.3-1.3l-1.2-1.7l-3.3-2.4l-1.3-2.5l-0.5-1.9l1.2-0.4l-0.1-1.2l0.9-1.1l0.3-1.3l-0.9-1.9v-1.6
	l-0.8-2l-2.4-4l-2.9-3.1l-1.2-2.5l-2.5-1.6l-0.4-1.1l1.1-2.4l-1.6-0.9l-1.4-2l-0.1-2.8l-1.7-0.4l-1.5-2.1l-1.1-1.9l0.1-1.3l-0.9-2.9
	l-0.3-3l0.5-1.6l-1.9-1.6l-1.2,0.1l-1.6-1.1l-1.1,1.6v2l-0.7,2.9l0.7,1.7l1.7,2.8l0.3,0.9l0.4,0.3l0.1,1.3h0.7v2.5l0.7,1.1l0.4,1.5
	l1.7,2l0.1,3.7l0.7,1.7l0.5,1.9l-0.1,2.1l1.6,0.1l1.1,1.9l0.9,1.7l-0.3,0.8l-1.7,1.5h-0.5l-0.5-2.5l-1.9-2.3l-2-1.9l-1.6-1.1
	l0.7-2.9v-2.1l-1.3-1.3l-1.8-1.7l-0.7,0.5l-0.5-1.1l-1.9-1.1l-1.4-2.3l0.4-0.3l1.3,0.1l1.6-1.5l0.7-1.7l-1.9-2.8l-1.6-1.1l-0.5-2.5
	l-0.4-2.6l-0.5-3.2l-0.1-3.6l4-0.3l4.4-0.5l-0.5,0.8l4.4,2l6.7,2.8h9.4l0.5-1.7h5.8l0.8,1.5l1.3,1.3l1.5,1.7l0.5,2.1l0.3,2.1
	l1.5,1.2l2.5,1.2l2.9-3l2.8-0.1l2,1.6l1.1,2.8l0.7,2.2l1.5,2.2l0.1,2.9l0.5,1.9l2.4,1.2l2.2,0.9l1.3-0.1l-2,3.4l-1.1,2.9l-1.2,5.3
	l-0.7,2l0.3,2.2l0.8,1.9l0.3,3.2l1.9,2.9l0.4,2.2l1.2,2l3.4,1.1l1.2,1.7l3.3-1.2l2.7-0.4l2.6-0.7l2.4-0.7l2.4-1.7l1.2-2.2l0.7-3.3
	l0.8-1.2l2.5-1.1l3.7-0.9l3,0.1l2.2-0.4l0.7,0.9l-0.4,1.9l-2.1,2.3l-1.2,2.5l0.5,0.7l-0.8,1.7l-1.2,3l-0.8-0.9L320.5,237.8z"/>
<path class="st5" d="M693,144.6h0.4v-0.8l1.8-0.7l0.7-0.1l1.2-0.3h1.5l1.7,1.2l0.5,2.6l-0.7,0.1l-0.4,0.7h-1.8l-1,0.8l-2.1,0.4
	l-1.5-0.9l-0.7-1.7L693,144.6z"/>
<path class="st1" d="M584.4,253.3l1.2-0.7l0.5-2.4l1.2-0.1l2.4,1.2l2-0.8l1.3,0.3l0.5-0.9h14l0.8-2.9l-0.5-0.4l-1.6-17.2l-1.5-17.4
	h5.2l11.6,8.8l11.6,8.6l0.8,2l2.1,1.1l1.6,0.7l0.1,2.5l3.8-0.4v9.3l-1.8,2.7l-0.3,2.5l-3.2,0.5l-4.6,0.4l-1.3,1.5l-2.2,0.1h-2.3
	l-0.9-0.8l-1.8,0.5l-3.3,1.7l-0.7,1.2l-2.6,1.9l-0.5,1.1l-1.5,0.8l-1.7-0.5l-0.9,0.9l-0.5,2.8l-2.8,3.3v1.3l-0.9,1.7l0.3,2.2
	l-1.5,0.7l-0.8,0.5l-0.5-1.7l-1.1,0.4l-0.7-0.1l-0.7,1.2h-2.7l-0.9-0.7l-0.5,0.4l-1.1-1.1l0.3-1.2l-0.5-0.5l-0.7,0.4l0.1-1.3
	l0.7-1.1l-1.5-1.6l-0.4-1.2l-0.7-0.8l-0.8-0.1l-0.8,0.5l-1.2,0.5l-0.9,0.9l-1.5-0.4l-1.1-0.9l-0.5-0.1l-0.9,0.5h-0.5l-0.3-1.5
	l0.3-1.3l-0.3-1.5l-1.3-1.2l-0.7-2.3L584.4,253.3z"/>
<path class="st2" d="M972.4,272l-0.5-2.9l0.8-3l-1.3-2.4l-0.1-4.4l-1.6-2l-1.7-4.8l-1.2-5.2l-2-3.3l-2,2.1l-3.6,2.8l-2-0.4l-2.4-0.9
	l0.7-4.9l-1.2-3.7l-3.4-4.6l0.3-1.5l-2.1-0.5l-2.9-3.2l-0.6-3.3l1.3,0.7l-0.4-2.9l1.6-0.9l-0.7-1.7l0.5-1.3l-0.5-4.1l2.9,0.9
	l0.9-3.3l-0.1-2l1.3-3.3l-0.7-2.3l3.8-2.8l2.6,0.7l-0.8-2.4l0.9-0.8l-0.5-1.5l1.8-0.4l1.7,2.4l1.7,0.9l0.8,3l0.5,3.3l-2.5,3.5
	l0.3,4.6l3.6-0.7l1.5,3.7l2.2,0.8l-0.4,3.3l2.8,1.5l1.6,0.8l2.4-1.2l0.4,1.7l-2.6,2.6l-0.4,1.5l-1.8,0.9l-1.9,1.7l-2.4,0.3l-0.9,4.2
	l-1.3,0.8l2.1,3.5l2.7,2.9l1.7,2.7l-0.8,3.4l-1.2,0.8l1.1,2l2.6,3.2l0.7,2.2l0.1,1.9l1.7,3.6l-1.6,3.7L972.4,272z"/>
<path class="st8" d="M690,141.3l-1.3,2l0.4,1.2l-0.7-0.3l-1-1.3l-1.5-0.8l0.3-0.7l0.3-2.1l1.1-0.9l0.5-0.4l0.9,0.7l0.5,0.5l1.1,0.4
	l1.3,0.9l-0.3,0.3l-0.5,0.9l-0.8,0.4L690,141.3z"/>
<path class="st3" d="M896.4,115.5l2.9-0.8l4.1-3.3l3.7-1.7l3.3,1.2h3.2l3,1.9l3.2,0.1l4.9,0.9l1.5-2.6l-2.5-2.2l0.9-4l4.2,1.6l3,0.4
	l4.1,0.9l2.6,2.9l5.2,1.6l2.5-0.7l3.6-0.5l3.3,0.5l4.1,1.9l3,2h2.9l4.2,0.5l2.2-0.9l3.6-0.7l2.8-2.7l2.1,0.4l2.5,1.3l3.4-0.4
	l0.3,2.9l0.3,4l1.7,1.6l1.5-0.5l3.4,0.5l1.5-1.3l3.3,1.2l4.5,2.8l0.4,1.3l-2.6-0.4l-4.2,0.5l-1.6,1.1l-0.8,2.6l-4,1.4l-2,2.1
	l-3.7-0.8l-2-0.4l-0.3,2.5l1.8,1.6l1.2,1.2l-1.6,1.3l-1.2,2.1l-3,1.5l-4.6,0.1l-4.6,1.3l-2.6,2.1l-2.1-1.2h-3.8L953,142l-3.4-0.5
	l-4,0.5l-7-0.9l-3.6,0.1l-2.9-2.4l-3-3.6l-2.2-0.5l-4.9-2.4l-4.5-0.5l-4.1-0.7l-1.8-1.7l-0.8-4.6l-3.6-3.1l-5.2-1.5l-3.6-2.1
	L896.4,115.5z"/>
<path class="st2" d="M747.8,357.8l2.6-0.3l4.2,1.1l0.9-0.4l2.4-0.1l1.3-1.2h2.1l3.8-1.5l2.9-2.4l0.5,1.9l-0.4,4l0.4,3.5l-0.1,6.2
	l0.5,2l-1.2,2.9l-1.5,2.8l-2.4,2.4l-3.3,1.6l-4,1.9l-4.1,4.4l-1.5,0.7l-2.5,2.9l-1.5,0.9l-0.5,2.8l1.5,3l0.5,2.4v1.2l0.7-0.3l-0.3,4
	l-0.7,1.9l0.7,0.7l-0.5,1.6l-1.6,1.5L744,411l-4.2,2.2l-1.6,1.5l0.1,1.7l0.9,0.3l-0.5,2h-2.5l-0.1-1.7l-0.4-1.9l-0.3-1.3l0.9-4.5
	l-0.8-2.9l-1.2-5.6l3.8-4.5l1.1-2.9l0.5-0.4l0.5-2.2l-0.5-1.2l0.3-3l0.9-2.8l0.1-5l-1.7-1.4l-1.7-0.3l-0.7-0.9l-1.6-0.9l-2.9,0.1
	l-0.1-1.5l-0.3-2.9l10.7-3.3l2,2l0.9-0.4l1.3,1.1l0.1,1.6l-0.8,1.9l0.1,2.8l2.2,2.5l1.2-2.8l1.5-0.9v-5l-1.5-2.9l-1.2-1.3l-1.2,0.1
	l-0.8-5.3L747.8,357.8z"/>
<path class="st2" d="M584.4,253.3l-2.2-2.8l-2.1-2.9l-2.2-1.1l-1.7-1.2l-1.9,0.1l-1.7,0.8l-1.7-0.3l-1.2,1.2l-0.3-2.1l0.9-2l0.5-3.7
	l-0.3-4l-0.4-2l0.4-2l-0.8-1.9l-1.8-1.7l0.8-1.3h13.6l-0.7-5.8l0.9-2l3.3-0.4v-10.1l11.2,0.3l0.1-6.1l12.7,9.7h-5.2l1.5,17.4
	l1.6,17.2l0.5,0.4l-0.8,2.9h-14l-0.5,0.9l-1.3-0.3l-2,0.8l-2.4-1.2l-1.2,0.1l-0.5,2.4L584.4,253.3z"/>
<path class="st1" d="M747.8,357.8l-1.1,3l0.8,5.3l1.2-0.1l1.2,1.3l1.5,2.9v5l-1.5,0.9l-1.2,2.8l-2.2-2.5l-0.1-2.8l0.8-1.9l-0.1-1.6
	l-1.3-1.1l-0.9,0.4l-2-2l-1.8-0.9l1.2-3.7l1.2-1.5l-0.5-3.3l0.8-3.2l0.7-1.2l-0.9-3.3l-1.6-1.9l3.4,0.8l0.7,1.1l1.2,1.9L747.8,357.8
	z"/>
<path class="st8" d="M985.8,286.9l0.9,0.4l2.1,2.4l1.6,2.8l0.4,2.6l-0.3,1.9l0.3,1.3l0.4,2.4l1.3,1.1l1.5,3.6l0.1,1.1l-0.5,0.4
	l-1.5,0.5l-0.5-0.3l-3.6-3l-4.2-3.2l-0.5-2.1l-2.1-2.6l-0.7-3.3l-1.3-2.1l0.3-2.9l-0.9-1.7l0.7-0.7l2.9,1.7l0.4,2l2.2-0.4
	L985.8,286.9z M1041.6,295.2l-3-0.7h-4.1l-0.9,4.5l-1.3,1.5l-1.7,5.6l-2.9,0.8l-3.3-1.1l-1.7,0.3l-2,2.1l-2.2-0.3l-2.2,0.8l-2.5-2.2
	l-0.5-2.8l2.5,1.5l2.8-0.8l0.7-3.3l1.5-0.8l4.1-0.9l2.5-3l1.6-2.5l1.7,2l0.7-1.3l1.7,0.1V292l0.1-2l2.5-2.8l1.6-3.2h1.5l1.8,2
	l0.3,1.7l2.4,1.2l3,1.2l-0.1,1.6l-2.4,0.1l0.7,2L1041.6,295.2z"/>
<path class="st7" d="M682.4,426.1l-2.4-3l-1.3-2.9l-0.5-3.9l-0.8-2.9l-1.1-6.2l0.1-4.8l-0.4-2.1l-1.3-1.7l-1.7-3.3l-1.7-4.8
	l-0.8-2.5l-2.7-3.8l-0.3-3l1.7-0.8l2.1-0.7l2.2,0.1l2,1.7l0.5-0.3l14.1-0.1l2.4,1.9l8.3,0.7l6.5-1.7l2.9-0.8l2.2,0.1l1.3,0.9v0.4
	l-2,0.8h-1.1l-2.2,1.6l-1.3-1.6l-5.4,1.3l-2.5,0.1l-0.5,14.3l-3.4,0.1l-0.4,11.7l-0.7,14.7l-3.2,2.1l-1.7,0.3l-2.1-0.8l-1.6-0.3
	l-0.5-1.7l-1.2-1.1L682.4,426.1z"/>
<path class="st4" d="M1199.2,396.1l2.2,2.4l1.3,1.9l-1.6,1.1l-1.6-1.2l-2-1.7l-1.7-2.1l-1.5-2.8l-0.1-1.5l1.5,0.1l1.6,1.3l1.2,1.3
	L1199.2,396.1z"/>
<path class="st1" d="M634.4,264.1l0.1-2.8l-4.1-0.9l-0.1-1.9l-2-2.7l-0.4-1.9l0.3-1.9l2.2-0.1l1.3-1.5l4.6-0.4l3.2-0.5l0.3-2.5
	l1.8-2.7v-9.3l4.9-1.7l9.9-7.8l11.6-7.7l5.4,1.7l2,2.3l2.5-1.5l0.9,6.1l1.3,1.1l0.1,1.3l1.5,1.3L681,232l-1.1,8.1l-0.1,5.3l-4.4,3.7
	l-1.5,5.3l1.6,1.5v2.5l2.2,0.1l-0.4,1.9l-0.9,0.3l-0.1,1.3h-0.7l-2.4-4.4l-0.8-0.1l-2.8,2.2l-2.7-1.2l-2-0.3l-0.9,0.7l-2.1-0.1
	l-2,1.6l-1.9,0.1l-4.2-2l-1.6,0.9l-1.9-0.1l-1.3-1.5l-3.4-1.5l-3.8,0.4l-0.8,0.9l-0.5,2.2l-1.1,1.6l-0.1,3.6l-2.8-2.2h-1.2
	L634.4,264.1z"/>
<path class="st1" d="M656.7,292.7l-3.6,1.5l-1.5-0.3l-1.3,0.9l-2.8-0.1l-1.8-2.4l-1.2-2.9l-2.5-2.6h-5.7l0.1-6.4l-0.1-2.6l0.7-2.5
	l1.1-1.2l1.7-2.4l-0.4-1.2l0.8-1.6l-0.8-2.4l0.1-1.3l0.1-3.6l1.1-1.6l0.5-2.2l0.8-0.9l3.8-0.4l3.4,1.5l1.3,1.5l1.9,0.1l1.6-0.9
	l4.2,2l1.9-0.1l2-1.6l2.1,0.1l0.9-0.7l2,0.3l2.7,1.2l2.8-2.2l0.8,0.1l2.4,4.4h0.6l1.5,1.6l-0.4,0.7l-0.1,1.3l-2.9,3l-0.9,2.6l-0.5,2
	l-0.7,0.9l-0.7,2.8l-2,1.7l-0.5,2l-0.7,1.6l-0.4,1.6l-2.4,1.5l-2-1.7l-1.3,0.1l-2.1,2.3l-1.1,0.1l-1.6,3.8L656.7,292.7z"/>
<path class="st7" d="M326.5,267.5l-1.1-1.3l-1.5-1.6l-0.7-1.3l-1.5-1.3l-1.6-1.7l0.4-0.7l0.5,0.7l0.4-0.4l1.1-0.1l0.5-0.9h0.5v-2
	l0.9-0.1l0.7,0.1l0.9-1.1l0.9,0.8l0.4-0.5l0.7-0.5l1.3-1.1l0.1-0.8h0.4l0.5-0.9l0.4-0.1l0.5,0.7l0.7,0.1l0.8-0.5h0.9l1.2-0.5
	l0.5-0.5l1.2,0.1l-0.3,0.4l-0.3,0.8l0.1,1.5l-0.9,1.5l-0.5,1.6l-0.3,1.7l0.1,1.1v1.7l-0.5,0.4l-0.5,1.7l0.1,1.1l-0.8,1.1l0.1,1.1
	l0.5,0.7l-0.9,0.9l-1.1-0.3l-0.5-0.9l-1-0.3l-0.8,0.5l-2.2-1.1L326.5,267.5z"/>
<path class="st8" d="M647.4,99.3l0.5,1.3l-0.5,3.4l-0.8,1.5h-1.7l0.7,4.1l-1.7-0.9l-2-1.7l-2.8,0.8l-2.2-0.3l1.6-1.1l2.4-5.7
	l4.1-1.6L647.4,99.3z"/>
<path class="st10" d="M699.9,43l0.5-2.4l-3.6-1.3l-3.7,1.2l-0.7,2.5l-2.1,1.5l-2.9-0.8l-3.3,0.1L681,42l-1.5,0.8l-1.5,0.1v2.3
	l-5-0.5l-0.4,1.9h-2.5l-1.3,2.5l-2.1,3.8l-3.6,4.9l1,1.2l-0.8,1.3h-2.6l-1.4,3.3l0.7,4.8l1.8,1.9l-0.5,4.2l-2.1,2.5l-1.1,2.1
	l-2.1-2.2l-5.3,4.2l-3.7,0.9l-4.1-1.9l-1.2-4l-1.2-8.4l2.5-2.2l7-3l5-3.6l4.5-4.9l5.5-6.8l4-2.5l6.3-4.2l5.3-1.5l4.2,0.3l3.2-2.8
	l4.6,0.1L697,36l8.6,2.4l-3,0.9l3.3,2.1l-4,1.3L699.9,43z M682.8,15.1l-4.6,1.2l-4.2-0.7l1.3-0.8l-1.6-0.9l4.5-0.5l1.2,1.1
	L682.8,15.1z M667,9.8l7.8,2.1l-5.3,1.1l-0.8,2.1l-1.8,0.7l-0.5,2.4l-2.8,0.1l-5.3-1.8l1.9-1.1l-3.6-0.8l-4.8-2.4l-2-2.3l5.8-1.1
	l1.3,1.1l3.2-0.1l0.7-0.9l3.2-0.1L667,9.8z M682.1,7.8l4.6,0.9l-2.6,1.6l-6.3,0.3l-6.6-0.4l-0.7-0.8l-3.2-0.1l-2.7-1.2l6.5-0.7
	l3.3,0.5l2-0.8L682.1,7.8z"/>
<path class="st1" d="M926.7,200.3v1.7l0.9,2.5v1.6l-2.9,0.1l-4.2-0.9l-2.8-0.4l-2.2-2l-4.8-0.5l-4.9-2.2l-3.6-2l-3.6-1.5l0.5-3.8
	l1.7-1.7l1.2-0.9l3,1.2l4,2.5l2,0.7l1.6,1.9l2.8,0.8l3,1.7l4.1,0.9L926.7,200.3z"/>
<path class="st6" d="M1185.9,475.2l-0.5,1.7l3.4-1.6l-0.3,1.6l-1.3,1.7l-2.5,1.9l-4.5,2.9l-2.9,1.5l-0.3,2h-2.5l-4,1.5l-3,2.6l-5,4
	l-4,1.7l-2.5,1.1h-2.8l-0.9-1.3l-3.2-0.3l0.7-1.5l4-2.9l7.1-3.8l2.6-0.8l3.6-1.5l4.4-2.1l3.4-2l3.7-2.9l2-1.1l2.1-2.2l3.7-1.7
	L1185.9,475.2z M1203.9,456.3l-0.3,4.2l1.7-2.8l0.9,1.2l-1.6,2.9l1.8,1.3l2,0.4l2.9-1.6l1.3,0.5l-3.2,3.4l-2.6,2.4l-2.4-0.1
	l-1.7,1.2l-0.9,1.7l-1.1,0.8l-2.8,2.1l-3.7,2.6l-3.7,1.6l0.3-1.1l-0.9-0.5l4.4-3.2l0.5-2.2l-2.4-1.6l1.1-1.5l3.3-1.3l2.6-3l1.6-2.6
	l0.3-2.6l0.5-0.7l-0.5-1.7l-0.4-3.4l0.3-2.9l1.3-0.3l0.5,2.2l2,0.9L1203.9,456.3z"/>
<path class="st8" d="M811.5,245.2l-1.3-2.8l-3.2-6.6l10-4l1.6-8l-1.8-2.9v-1.6l0.8-1.6l-0.1-1.7l1.6-0.8l-0.7-0.5v-2.6h1.7l1.8,2.8
	l2,1.5l2.7,0.5l2.1,0.7l1.7,2.4l1.1,1.3l1.3,0.4v0.9l-0.9,2.4l-0.5,1.2l-1.3,1.2l-1,2.8l-1.6-0.3l-0.7,1.1l-0.3,2l0.7,2.6l-0.4,0.5
	h-1.6l-2,1.5l-0.1,2l-0.8,0.8h-2.1l-1.3,0.9l0.1,1.6l-1.6,1.2l-2-0.4l-2.2,1.3L811.5,245.2z M819.3,209.1l-0.8-1.5l0.8-1.3l0.5,0.4
	l-0.1,1.6L819.3,209.1z"/>
<path class="st7" d="M874.1,163.3l3,1.9l1.7,3.1l6,1.7l-2.4,3.3l-3.6,0.5l-5.3-0.9l-1.1,1.7l2.1,3.5l1.7,2.8l3.2,2l-2.4,2.2l0.7,2.9
	l-2.4,4l-1.5,4.1l-2.8,4.1l-4-0.3l-3.2,4.2l2.5,1.7l0.9,3l2.1,2.1l1.2,3.3h-7.5l-2,2.8l-2.7-1.1l-1.3-2.9l-3-3l-6.2,0.8h-5.5
	l-4.8,0.7l0.7-4.6l4.6-2.1l-0.5-1.9l-1.7-0.7l-0.7-3.4l-3.4-1.7l-1.7-2.5l-2-2.1l6,2.1l3.3-0.7l2.1,0.5l0.5-0.8l2.4,0.3l4.1-1.6
	l-0.4-3.4l1.5-2.3h2.5l0.1-1.1l2.4-0.5l1.3,0.3l1-1.1l-0.7-2.4l0.9-2.4l2-1.1l-2-2.7l3.2,0.1l0.7-1.5l-0.5-1.5l1.2-1.7l-0.8-2
	l-1.2-1.7l1.5-1.7l3.3-0.8l3.7-0.5l1.5-0.7L874.1,163.3z"/>
<path class="st5" d="M353.2,282.9l-1.2-1.2l-0.7-2.1l0.9-1.1l-0.8-0.3l-0.7-1.3l-1.7-1.1l-1.5,0.3l-0.8,1.3l-1.5,1.1l-0.8,0.1
	l-0.4,0.8l1.6,2.1l-1.1,0.5l-0.5,0.7l-1.6,0.1l-0.5-2.4l-0.5,0.7l-1.1-0.1l-0.7-1.7l-1.5-0.3l-0.9-0.4H336l-0.1,0.9l-0.4-0.7
	l0.3-0.8l0.3-0.8v-0.8l0.5-0.4l-0.8-0.7l0.1-1.6l1.3-0.3l1.2,1.3l-0.1,0.9l1.5,0.1l0.4-0.3l0.8,0.9l1.9-0.3l1.5-1.1l2.2-0.8l1.2-1.2
	l2,0.3l-0.1,0.4l1.8,0.1l1.6,0.7l1.1,1.2l1.3,1.2l-0.5,0.5l0.8,2.4l-0.8,1.2l-1.1-0.4L353.2,282.9z"/>
<path class="st3" d="M385.1,382.1l-0.8,2.1l-1.7,0.9l-3.7-2.3l-0.4-1.6l-7.3-4.1l-6.8-4.4l-2.8-2.4l-1.7-3.3l0.4-1.2l-3.3-5.2
	l-4-7.4l-3.7-8l-1.6-1.9l-1.2-2.9l-2.9-2.7l-2.5-1.6l1.1-1.7l-1.8-3.8l1.1-2.8l2.6-2.5l0.5,1.6l-1.1,0.9l0.1,1.5l1.5-0.3l1.5,0.4
	l1.6,2.1l2-1.7l0.5-2.6l2.1-3.5l4.1-1.6l3.8-4.2l1.1-2.6l-0.5-2.9l0.9-0.4l2.4,1.9l1.2,1.8l1.6,1.1l2.1,4.2l2.6,0.4l1.9-1.1l1.3,0.8
	l2.1-0.4l2.8,1.9l-2.2,4.1l1.1,0.1l1.9,2.1l-3.2-0.2l-0.4,0.7l-2.9,0.8l-4,2.6l-0.1,1.9l-0.9,1.4l0.5,2.1l-2.1,1.2v1.6l-0.8,0.8
	l1.6,3.6l2,2.4l-0.7,1.7l2.4,0.3l1.5,2.1l3,0.1l2.8-2.4l0.1,6.1l1.6,0.4l2-0.7l3.4,6.5l-0.7,1.3v2.8l0.1,3.5l-1.2,2l0.8,1.5
	l-0.7,1.3l1.7,3.5L385.1,382.1z"/>
<path class="st9" d="M1070.4,278.1l0.5,2.6l0.4,2.2l-0.9,3.7l-1.6-4.1l-1.5,2l1.3,3l-0.9,1.9l-4.2-2.4l-1.2-2.9l0.9-1.9l-2.4-1.9
	l-0.9,1.6l-1.7-0.1l-2.5,2.2l-0.7-1.2l1.2-3.3l2.1-1.2l1.8-1.5l1.3,1.7l2.7-1.1l0.4-1.7l2.5-0.1l-0.5-3l3,1.9l0.4,2L1070.4,278.1z
	 M1061.4,270.7l-1.2,1.3l-0.8,2.5l-1.1,1.2l-2.4-2.8l0.7-1.1l0.7-1.2l0.3-2.5l1.8-0.3l-0.3,2.6l2.1-3.8L1061.4,270.7z M1042.5,274.6
	l-4.4,3.8l1.4-2.8l2.4-2.5l1.8-2.8l1.5-4l0.9,3.3l-2.1,2.1L1042.5,274.6z M1053.4,264.2l2.2,1.3h2.2l0.1,1.6l-1.4,1.7l-2.1,1.2
	l-0.4-1.9l0.1-2L1053.4,264.2z M1065.9,263.2l1.4,4.5l-2.8-1.1l0.1,1.3l1.2,2.5l-1.6,0.8l-0.4-2.8l-1-0.1l-0.9-2.5l2.1,0.4l-0.1-1.6
	l-2.5-3l3.3,0.1L1065.9,263.2z M1051.6,259.6l-0.5,3.4l-1.7-2l-2.2-3l3,0.1L1051.6,259.6z M1047.6,237.8l2.2,1.2l0.9-1.1l0.5,0.9
	l-0.3,1.7l1.6,2.9l-0.4,3.3l-1.8,1.3v3.2l1.2,3.2l2,0.4l1.4-0.4l4.6,2.1l-0.1,2.2l1.3,0.9l-0.1,1.9l-2.9-2l-1.6-2.1l-0.8,1.5
	l-2.5-2.4l-3,0.7l-1.8-0.9v-1.6l0.9-1.1l-1.2-0.9l-0.3,1.5l-2-2.2l-0.8-1.9l-0.7-3.7l1.6,1.2l-0.7-6.2l0.5-3.6H1047.6z"/>
<path class="st2" d="M1174.6,339.1l-1.1,0.4l-1.4-1.6l-1.3-2.5l-0.5-3l0.5-0.4l0.3,1.2l1.1,0.9l1.4,2.5l1.6,1.3L1174.6,339.1z
	 M1161.3,333.7l-1.9,0.4l-0.7,1.1l-2,0.9l-1.8,1.1l-1.8-0.1l-2.8-1.1l-2-1.2l0.4-1.2l3.1,0.5l2-0.3l0.7-1.9l0.5-0.1l0.3,2.1l2-0.3
	l1-1.5l2.2-1.4l-0.3-2.3l2.1-0.1l0.7,0.7l-0.3,2.3L1161.3,333.7z M1121.6,348.2l1-13l0.7-13.1l6,2.8l6.3,2.3l2.4,2.1l1.8,2l0.3,2.4
	l5.8,2.4l0.7,2.1l-3.3,0.5l0.5,2.6l2.9,2.6l2,4.2l2-0.1l-0.3,1.7l2.7,0.7l-1.2,0.8l3.6,1.6l-0.5,1.2l-2.4,0.3l-0.8-1.1l-2.9-0.4
	l-3.4-0.5l-2.5-2.6l-1.7-2.1l-1.6-3.6l-4.4-1.7l-3,1.2l-2.2,1.3l0.1,2.9l-2.9,1.3l-1.8-0.7L1121.6,348.2z M1165.6,329.8l-1.2,1.1
	l-0.5-2.4l-0.7-1.6l-1.6-1.3l-1.8-1.6l-2.5-1.2l0.9-1.1l2,1.2l1.1,0.8l1.4,1.1l1.3,1.6l1.3,1.3L1165.6,329.8z"/>
<path class="st8" d="M672.3,108.4l-1.5-2.5l0.1-1.3l-0.9-2l-1.2-1.3l0.8-1.1l-0.9-2l2-1.1l4.4-1.7l3.6-1.3l3,0.7l0.4,0.9h2.8
	l3.7,0.4h5.4l1.6,0.4l0.9,1.2l0.4,1.7l1,1.4l0.1,1.5l-1.6,0.8l1.2,1.7l0.3,1.7l2,3.3l-0.3,1.2l-1.5,0.4l-2.4,3.2l1.1,1.7l-0.7-0.1
	l-3.2-1.6l-2.1,0.7l-1.5-0.4l-1.7,0.8l-1.7-1.3l-1.2,0.4l-0.3-0.1l-1.6-2l-2.2-0.1l-0.4-1.3l-2.1-0.4l-0.4,1.1l-1.7-0.8l0.1-1.1
	l-2.4-0.4L672.3,108.4z"/>
<path class="st8" d="M396.8,237.8l1.7,0.3l0.7,0.8l-1.1,1.1h-2.6l-2,0.1v-1.7l0.5-0.7L396.8,237.8z"/>
<path class="st7" d="M1045.6,142.5l0.8,0.7l-1.3-0.3l-0.7,1.3l-0.1,1.3l1.7,2.9l-1.2,0.8l-0.3,0.8l-0.5,1.2l-1.9,0.5l-0.8,1.1
	l0.8,1.7l-0.3,0.5l1.7,0.7l2.6,1.7v0.9l-1.2,0.3l-2.2,0.3l-0.4,1.7l-1.6-0.1v0.4l-2-0.8v0.8l-0.8,0.3l-0.5-0.7l-0.9-0.4l-1.2-0.7
	v-1.7l0.5-0.5l-0.7-0.7l-0.1-2.1l-0.5-0.7l-2.1-0.5l-2.1-1.1l1.3-2.5l2.4-2.1l0.7-2.8l2.2,1.2l2.9,0.1l-1.7-2l4-1.7v-2.3
	L1045.6,142.5z"/>
<path class="st8" d="M597.7,144.5l1.2-1.1l1.5-0.5l0.7,2h1.8l0.7-0.5l1.8,0.1l0.8,2l-1.5,1.1l-0.1,3.1l-0.5,0.7l-0.3,1.9l-1.3,0.3
	l1.2,2.4l-0.9,2.6l1,1.2l-0.5,1.1l-1.2,1.5l0.1,1.3l-1.3,1.1l-1.7-0.5l-1.7,0.4l0.7-3l-0.3-2.5l-1.5-0.4l-0.7-1.5l0.3-2.6l1.5-1.3
	l0.3-1.7l0.8-2.4l-0.1-1.6l-0.5-1.5L597.7,144.5z"/>
<path class="st6" d="M410.7,400.8l0.9-4.8l-0.1-2.1l1.3-3.6l6-1.2l3.2,0.1l3.4,2l0.3,1.2l1.2,2.2l0.3,5.4l3.7,0.8l1.3-0.8l2.4,1.1
	l0.8,1.2l0.7,3.7l0.5,1.5l1.3,0.3l1.2-0.7l1.3,0.6l0.3,2.2l-0.3,2.4l-0.4,2.2l-0.3,3.6l-2.6,3l-2.7,0.7l-3.8-0.7l-3.6-1.1l2.5-6.1
	l-0.7-1.7l-3.7-1.6l-4.5-2.9l-2.9-0.7L410.7,400.8z"/>
<path class="st10" d="M801.1,212.8l-0.5-2.8l0.7-2.1l0.9-0.5l1.2,1.3l0.3,2.4l-0.5,2.2l-0.9,0.3L801.1,212.8z"/>
<path class="st5" d="M697.3,120.9l1.2-0.8l2,0.4h2l1.6,0.9l0.9-0.5l2.2-0.4l0.7-0.9h1.3l0.9,0.4l1.2,1.2l1.2,1.6l2.1,2.4l0.4,1.7
	l-0.1,1.6l0.8,1.9l1.5,0.7l1.5-0.7l1.5,0.7l0.3,1.1l-1.5,0.8l-0.9-0.3l-0.3,4.8l-1.8-0.5l-2.5-1.3l-3.7,0.9l-1.5,0.9l-4.6-0.1
	l-2.5-0.7l-1.2,0.3l-1.2-1.6l-0.7-0.7l0.7-0.7l-0.8-0.5l-0.9,0.9l-2-1.2l-0.4-1.6l-2-0.9l-0.5-1.3l-1.9-1.5l2.5-0.8l1.6-2.6l1.2-2.6
	L697.3,120.9z"/>
<path class="st8" d="M1063.5,109.8l8.6,6.9l-5.6-1.3l2.2,5.7l6,4l1.8,2.6l-4-2.2v3l-2.9-3.3l-2.4-3.8l-3.4-4.2l-1.4-2.9l-4-5.2
	l-4.9-3.7l-4.2-5.3l1.2-1.7l-2.8-1.7l0.8-0.5l3,2.5l4.4,3.7l3,3.7L1063.5,109.8z M694,96.1h-5.4l-3.7-0.4l0.5-1.6l3.8-1.3l3.2,0.7
	l1.5,0.7l-0.1,1.1L694,96.1z M166.4,51.4l0.5,0.9l3-2.5l6.4,0.5l0.5,3.2l-4.8,1.6l-4.8,0.3l-4.9,3.4l-2.1,0.8l-2.4-0.1l-0.3-1.2
	l-2.1-1.1l1.5-1.5l-1.8-0.7l-3.7,0.5l0.4-1.3l2.4-1.2l-4.4,0.8l-1.2,1.6l-3.7,1.6l20.8-13.8l2.2,2.5l1.7,3.4L166.4,51.4z
	 M1077.8,37.1l-2.5,0.1l-2.1-1.1l0.8-1.3L1077.8,37.1z M179.4,36.9l-3.6,0.3l3.8-2.3l0.5-0.1h2.1l2,0.9l-0.9,0.4L179.4,36.9z
	 M975.8,29.3l-3.6,0.1l-5.5-0.4l-0.7-0.1l0.5-1.3l2.5-0.3l5.3,1.2L975.8,29.3z M983.9,23.5l-0.8,1.2l-4.2-0.3l-6.3-1.2l-1.1-1.1
	l5.2,0.5L983.9,23.5z M968.1,22l1.7,2.2l-8.9-0.1l-2.8,0.8l-7.8-2l-2-2.1l2.1-0.7l6.3,0.1L968.1,22z M771.2,37.5l-1.3,0.3l-8.5-0.4
	l-1.5-1.6L755,35l-1.2-1.7l2.1-0.8l-1-1.7l3.4-2.8l-2.5-0.4l4.2-2.7l-1.6-1.5l4.4-1.6l6.3-2l7.3-0.5l3.2-1.2l4.1-0.4l2.7,1.2
	l-0.8,0.9l-7.1,1.6l-6.2,1.5l-5.4,2.9l-1.7,3.2l-2.1,3l2,2.7L771.2,37.5z M1044.4,140.4h1.5l-2.4-4.6l-2.9-3.4l1.7-1.3l4.4,0.7
	l-0.4-3.9l-1.8-4.2l0.3-1.5l-0.8-3.4l-4.4,1.1l-1.6,1.6h-4.8l-3.7-3.7l-5.5-2.8l-6.2-1.2l-3.8-3.8l-2.8-2.3l-2.4-1.7l-4.8-3.8
	l-3.7-1.4l-5.3-1.1l-4,0.1l-3.2,0.7l-1.1,1.9l2.4,0.9l1.6,2.1l-0.8,1.2v4.1l1.2,1.7l-2.7,2.4l-4.5-1.5l-3.4,0.4l-2.5-1.3l-2.1-0.4
	l-2.8,2.7l-3.6,0.7l-2.2,0.9l-4.2-0.5h-2.9l-3-2l-4.1-1.9l-3.3-0.5l-3.6,0.5l-2.5,0.7l-5.2-1.6l-2.4-2.9l-4.1-0.9l-3-0.4l-4.2-1.6
	l-0.9,4l2.5,2.2l-1.5,2.7l-4.9-0.9l-3.2-0.1l-3-1.9h-3.2l-3.3-1.2l-3.7,1.7l-4.1,3.3l-2.9,0.8l-1,0.3l-2.8-2.4l-3.7,0.5l-2.1-1.6
	l-2.5-0.8l-2.5-2.2l-2-0.7l-3.8,0.9l-5.3-2.1l-0.7,2l-11.4-9.8l-5.2-2.9l0.5-1.2l-5.8,3.6l-2.6,0.3l-0.8-2.1l-4.4-1.2l-2.7,0.9
	l-2.8-4l-5.7-0.8l-1.9,1.6l-6.7,1.3l-1.1,0.9L809,97.3l-0.9,1.3l3.2,2.7l-2.5,0.9l0.9,1.1l-2.1,1.9l5.8,2.7l-0.1,1.8l-4.4-0.3
	l-0.4,1.2l-4.6-2l-4.8,0.1l-2.8,1.6l-4-1.6l-7.5-2.7l-4.8,0.1l-5,4.1l0.4,2.9l-3.7-2.2l-1.3,4.2l1,0.8l-1,2.9l3.3,2.6l2.2-0.1
	l2.7,2.6l0.1,2l1.7,0.7l-0.8,2.3l-2.9,0.7l-2.2,4.1l3.7,3.7l0.3,2.6l4.6,4.6l-1.6,1.6l-0.4,1.1l-1.5-0.3l-2.8-2.4l-0.9-0.1l-2.1-0.9
	l-1.3-1.7l-3.2-0.8l-1.8,0.7l-0.7-0.8l-4.8-1.9l-4.9-0.7l-2.8-0.7l-0.3,0.5l-4.8-3.3l-3.8-1.6l-3.2-2.2l2.2-0.7l2-3.3l-2.1-1.5
	l4.4-1.6l-0.3-0.9l-2.7,0.7l-0.3-1.7l1.3-1.1l3-0.3l0.1-1.3l-1.1-2.1l0.8-2.1l-0.3-1.1l-4.8-1.3H743l-2.2-1.7l-2.2,0.5l-4.1-1.3
	l-0.1-0.8l-1.3-1.6l-2.5-0.3l-0.5-1.2l0.7-0.7l-2.4-2.2l-3,0.4l-0.9-0.1l-0.7,0.8l-1.1-0.1l-1.2-2.4l-1.1-1.3l0.5-0.4l2.5,0.1
	l0.9-0.8l-1.1-1l-2.1-0.7v-0.7l-1.3-0.7l-2.4-2.5l0.4-1.1l-0.5-1.7l-3-0.9l-1.5,0.5l-0.7-0.9l-3.2-0.9l-1.5-2.3l-0.5-1.8l-1.6-0.8
	l1.1-1.2l-1.6-3.4l1.5-2.1l-0.5-0.7l2.8-2l-3.2-1.7l5-4.6l2.1-2.1l0.5-1.9l-4.7-2.4l0.5-2.4l-3-2.7l1.1-2.9l-4-4l1.7-2.7l-4.5-2.2
	l-0.3-2.4l2-0.3l4-1.3l2.4-1.2l4.8,2l7.3,0.8l11,3.8l2.5,1.7l0.9,2.2l-2.2,1.9l-4,0.9L716,50.9l-1.8,0.4l5,2.5l0.7,1.6l1.2,3.7
	l3.7,1.1l2.4,0.9l-0.1-1.7l-2.1-1.6l1.3-1.3l7.1,2.3l2-0.9l-2.6-2.5l5.1-3.5l2.4,0.3l2.9,1.2l0.7-2.4l-2.9-2.1l0.5-2l-2.7-2.1
	l7.5,1.1l2.2,2l-3,0.4l0.7,1.9l2.5,1.2l3.8-0.8l-0.3-2.1l4.8-1.6l7.6-2.9l2,0.1l-1.6,2l3.4,0.4l1.3-1.2h4.8l3-1.5l4,2l1.8-2.3
	l-3.7-1.9l0.7-1.2l8.1,1.1l4.1,1.1l11.6,3.9l0.7-1.7l-3.7-1.9l-0.5-0.7l-3.3-0.4V40l-3-2.5l-0.7-1.1l2.6-2.9l-0.4-3l1.3-0.5l7.1,0.8
	l1.7,1.8l-0.4,2.5l2.2,1.1l2.4,2.4l2.4,4.5l4.1,2.1l0.4,2.2l-2.2,4.9l3.3,0.5l0.4-1.2l2.4-0.9l-0.4-1.7l1.2-1.6l-2.8-2l-0.3-2.2
	l-2.9-0.3l-1.8-1.8l-0.3-3.4l-5-2.7l2.7-2.3l-2.2-2.3l1.2-0.1l2.7,1.9l1.3,3l3,0.7l-2.8-2.4l3.2-1.3l4.9-0.1l6.1,1.9l-4.3-2.6
	l-3-3.5l3.7-0.7l5.8,0.1l4.9-0.4l-3.4-1.6l0.9-2.1l2.5-0.1l3.1-1.4l5.7-0.4l-0.1-0.8l5.8-0.4L853,21l3.3-1.8l4.4,0.1l-0.9-1.3
	l0.7-1.3l3.8-1.2l5.2,1.1l-2.2,0.7l5.8,0.5l2.5,1.5l1.2-0.8h6.9l7.1,1.6l3.3,1.1l1.6,1.6l-1.5,0.9l-4.2,1.7l-0.8,0.9l3.6,0.5
	l4.5,0.8l1.5-0.7l3.6,2l0.1-0.8l3.3-0.5l8.3,0.5l2.3,1.6l10.8,0.4l-3-2.4l6,0.5h3.8l6.1,1.7l3.7,2l0.3,1.3l6.3,2.6l5.5,1.3l-1.8-3.5
	l5.8,1.5l3-0.9l6.2,1.1l0.5-0.9l4.8,0.5l-6-3l1.3-1.5l25.1,2.1l5,2l10,2.5l9.3-0.7l5.8,0.5l4.1,1.3l3.3,2.5l4.5,0.9l2.5-0.7l4.4-0.1
	l5.7,0.7l4.4-0.4l8.9,3l1.6-1.1l-5.3-2.3l-1.2-1.5l9.5,0.9l5-0.1l9.8,1.6l5.8,1.5l20.8,13.8l0,0l-1.3,1.5l-3.8-0.3l5.2,2l5.7,2.9
	l2.5,0.9l2.4,1.5l0.7,0.9l-6.2-0.8l-4.1,2.8l-1.8,0.4l-1.1,2.5l-1.2,2.3l1.1,1.7l-7.2-2.5l-3.8,2.8l-2.9-1.3l-0.8,1.6l-4.5-0.5
	l2,2.4l0.8,3.6l1.7,1.6l4.2,0.8l5.7,5.4l-2.6,0.1l2.1,3.2l2.9,1.6l-3,2l3.3,4.2l-3.6,0.9l2.9,4l-1.1,3.6l-3.6-2.7l-6.6-5.6
	l-10.1-8.5l-4-5.2l0.1-2.2l-1.7-1.7l3.4-0.8l-0.1-4.8l0.4-3.7l1.6-2.9l-4.1-5l-2.9,0.3l2,2.9l-2.2,4l-7.6-4.5l-5.7,1.2l-0.1,6.1
	l4.9,2.2l-5.3,0.9l-4,0.4l-2.6-2.6l-5-0.5l-1.6,1.8l-9.2-0.7l-8.2,1.1l-2.3,7.3l-3,8.8l5,0.5l3.6,2.4l3.6,0.8l0.3-1.8l3.4,0.3
	l7.9,4.2l2.9,3.2l0.9,3.8l3.4,4.6l3.2,6.1l-0.7,5.7l0.9,2.6l-1.2,4.6l-1.3,4.5l-0.5,2.4l-2.9,2.2l-2,0.1l-3.2-2l-2.5,2.9l0.3,1.3
	l-0.8-0.7L1044.4,140.4z M863.5,13.8l-11.2,1.1l-0.8-3.7l1.3-0.4l2,0.3l7.8,1.6L863.5,13.8z M737.7,7.6l-2.7,0.3l-1.8,0.3v0.4
	l-2.4,0.4l-2.7-0.7l0.7-0.8H724l4-0.5h3.3l0.8,0.7l0.9-0.7l1.7-0.4l3.6,0.7L737.7,7.6z M849.9,12.1l-4.5,0.4l-7.3-0.8l-5-1.1
	l-4.2-2.1l-3.6-0.4l3.3-1.9l4-0.5l5.8,1.3l8.6,2.5L849.9,12.1z"/>
<path class="st1" d="M733.9,316.3l1.5,2.2l-0.3,2.4l-1.1,0.5l-1.8-0.3l-1.1,2.2l-2.1-0.3l0.3-2.2l0.5-0.3l0.1-2.4l1.1-1.2l0.8,0.5
	L733.9,316.3z"/>
<path class="st1" d="M582.2,201.5h15.1l-0.1,0.8l-0.1,6.1l-11.2-0.3v10.2l-3.3,0.4l-0.9,2l0.7,5.8h-13.6l-0.8,1.3l0.3-1.7l0.1-1.9
	l1.5-1.1l1.2-2.1l-0.3-1.3l1.3-2.9l2-2.5l1.1-0.5l1.1-2.4l0.1-2.1l1.3-2.6l2.2-1.5l1.3-2.3l0.5-1.1L582.2,201.5z"/>
<path class="st4" d="M775.7,246.4l-0.5-1.7l-1.1-1.2l-0.4-1.6l-1.8-1.5l-2.1-3.3l-1.2-3.3l-2.5-2.6l-1.6-0.7l-2.5-3.8l-0.7-2.8v-2.4
	l-2.2-4.4l-1.7-1.6l-1.9-0.8l-1.3-2.4l0.1-0.8l-1-2.1l-1.1-0.9l-1.6-2.9l-2.4-3.3l-1.9-2.7h-1.7l0.3-2.3l0.1-1.3l0.3-1.6l3.8,0.5
	l1.3-1.2l0.7-1.5l2.5-0.5l0.4-1.3l1.1-0.7l-3.7-4l6.5-2l0.5-0.7l4.2,1.1l5.3,2.8l10.4,8.1l6.3,0.3l3,0.4l1.1,2l2.5-0.1l1.7,3.4
	l1.7,0.9l0.8,1.3l2.5,1.7l0.4,1.7l-0.3,1.3l0.5,1.3l1.2,1.1l0.5,1.3l0.7,0.9l1.1,0.8l0.9-0.3l0.8,1.6l0.3,0.9l1.6,4l10.6,2.1
	l0.5-0.9l1.8,2.9l-1.6,8l-10,4l-9.9,1.6l-3,1.7l-2.2,4.2l-1.6,0.7l-0.9-1.3l-1.3,0.1l-3.4-0.4l-0.7-0.4l-4,0.1l-0.9,0.4l-1.5-1.1
	l-0.8,2l0.4,1.6L775.7,246.4z"/>
<path class="st2" d="M745.9,274l-0.5-0.1v-2l-0.4-1.3l-1.8-1.6l-0.5-2.9l0.4-2.9l-1.7-0.3l-0.1,0.8l-2.1,0.3l0.9,1.2l0.3,2.4
	l-1.9,2.1l-1.7,2.9l-1.7,0.4l-3-2.3l-1.3,0.8l-0.2,1.2l-1.8,0.7l-0.1,0.9h-3.4l-0.5-0.9l-2.5-0.1l-1.2,0.8l-1.1-0.4l-1.8-2.4
	l-0.5-1.1l-2.5,0.5l-0.9,1.9l-0.9,3.6l-1.2,0.8l-1.1,0.4l-0.3-0.1l-1.2-1.2l-0.3-1.2l0.5-1.7v-1.6l-2.1-2.5l-0.4-1.7v-0.9l-1.3-1.2
	l-0.2-2.3l-0.8-1.5l-1.2,0.1l0.4-1.5l0.8-1.6l-0.4-1.7l1.1-1.2l-0.7-0.9l0.8-2.5l1.6-2.9l2.9,0.3l-0.7-15.8v-1.7h4l-0.3-8h40.8
	l1.3,3.8l-0.7,0.8l0.7,4.1l1.6,4.8l1.5,0.9l1.8,1.5l-1.6,2.3l-2.5,0.7l-1,1.3l-0.1,2.6l-1.3,5.8l0.4,1.6l-0.4,3.5l-1.2,4l-2.1,2
	l-1.5,3l-0.3,1.6l-1.6,1.1l-0.9,4.2L745.9,274z"/>
<path class="st1" d="M745.9,274l0.1,3l-0.5,1.2l-1.8,0.1l-1.2,2.2l2.2,0.3l1.7,2l0.7,1.6l1.7,0.9l2.1,4.4l-2.4,2.6l-2.1,2.4
	l-2.1,1.9h-2.5l-2.8,0.9l-2.2-0.9l-1.5,1.1l-3.2-2.7l-0.8-1.7l-2,0.9l-1.6-0.3l-0.9,0.7l-1.6-0.5l-2.2-3.3l-0.5-1.2l-2.7-1.6
	l-0.9-2.4l-1.5-1.7l-2.5-2.1v-1.3l-2-1.6l-2.4-1.6l1.1-0.4l1.2-0.8l0.9-3.6l0.9-1.9l2.5-0.5l0.5,1.1l1.8,2.4l1.1,0.4l1.2-0.8
	l2.5,0.1l0.5,0.9h3.5l0.1-0.9l1.8-0.7l0.3-1.2l1.3-0.8l3,2.3l1.7-0.4l1.7-2.9l1.8-2.1l-0.3-2.4L739,264l2.1-0.3l0.1-0.8l1.7,0.3
	l-0.4,2.9l0.5,2.9l1.8,1.6l0.4,1.3v2L745.9,274z"/>
<path class="st2" d="M568.4,257.5l-1.3-3l-1.7-1.5l1.6-0.8l1.7-2.8l0.9-2.1l1.2-1.2l1.7,0.3l1.7-0.8l1.9-0.1l1.7,1.2l2.2,1.1
	l2.1,2.9l2.2,2.8l0.1,2.5l0.7,2.3l1.3,1.2l0.3,1.5l-0.3,1.3l-0.4,0.1l-2-0.3l-0.3,0.4l-0.8,0.1l-2.5-0.9l-1.6-0.1l-6.5-0.1l-0.9,0.5
	l-1.2-0.1l-1.8,0.7l-0.5-3.2l3.2,0.1l0.8-0.5h0.7l1.3-0.9l1.5,0.8h1.6l1.5-0.8l-0.7-1.2l-1.2,0.7h-1l-1.3-0.9H573l-0.8,0.9
	L568.4,257.5z"/>
<path class="st1" d="M1195,353.7l0.8,1.3h-2.4l-1.1-2.4l2,0.9L1195,353.7z M1190.9,351.3h-1.5l-2.1-0.4l-0.7-0.5l0.4-1.6l2.2,0.5
	l1.1,0.9L1190.9,351.3z M1193.9,350.2l-0.7,0.7l-2.2-3.5l-0.5-2.4h1.2l1.1,3.2L1193.9,350.2z M1188.1,345.1v0.8l-2.5-1.6l-1.8-1.5
	l-1.2-1.3l0.5-0.4l1.6,0.9l2.7,1.9L1188.1,345.1z M1180.1,341.2l-0.7,0.1l-1.4-0.9l-1.3-1.6l0.3-0.7l2,1.7L1180.1,341.2z"/>
<path class="st1" d="M586.6,284.6l-0.9-0.3l-2.5-1.6l-1.9-2.1l-0.5-1.5l-0.5-2.9l2-1.9l0.4-1.1l0.5-0.9h1l0.8-0.8h2.8l1.1,1.5
	l0.7,1.7l-0.1,1.1l0.5,1.1v1.5l0.9-0.3l-1.6,2l-1.6,2.1l-0.3,1.2L586.6,284.6z"/>
<path class="st9" d="M320,258.2l-0.5,0.9h-2l-1.2-0.4L315,258l-2-0.3l-0.9-0.8l0.1-0.7l1.3-0.9l0.7-0.5l-0.1-0.4l0.9-0.3l0.9,0.4
	l0.7,0.8l1,0.5l0.1,0.5l1.5-0.4l0.8,0.3l0.4,0.4L320,258.2z"/>
<path class="st1" d="M794.6,279.9h-2.9l-11.6-4.8l-1.3-1.5l-1.5-1.8l-1.3-2.2l0.7-1.5l1.3-2.1l1.1,0.8l0.8,1.6l1.6,1.7h1.8l3.2-1.1
	l3.8-0.4l3-1.3l1.7-0.3l1.2-0.7l2-0.1l0,0l1.2-0.1l1.6-0.5l1.8-0.4l1.6-1.5h1.3l0.1,1.2l-0.3,2.2l0.1,2.1l-0.7,1.5l-0.9,4.4
	l-1.5,4.4l-2.1,5.2l-2.9,5.8l-2.9,4.5l-4,5.4l-3.6,3.2l-5.2,4l-3.3,3l-3.8,4.9l-0.8,2.1l-0.8,0.9l-2.1-3.3l-0.1-14.6l3-4.5l0.9-1.3
	h2.2l3-2.9l4.6-0.1L794.6,279.9z"/>
<path class="st8" d="M698.6,135.2l-0.7,0.9l0.5,1.3l1.7,1.7l-1.2,1.3l-0.4,1.2l0.4,0.5l-0.4,0.5h-1.5l-1.2,0.3l-0.1-0.3l0.4-0.5
	l0.3-0.9h-0.4l-0.8-0.7l-0.5-0.3l-0.4-0.5l-0.7-0.3l-0.5-0.5l-0.5,0.1l-0.4,1.3l-0.7,0.3l0.3-0.3l-1.3-0.9l-1.1-0.4l-0.5-0.5
	L688,138l0.7-0.1l0.4-1.9l-1.7-1.6l0.7-1.7h-1.2l1-1.5l-1-1.1l-0.9-1.6l2.4-1.1l1.8,0.3l1.8,1.5l0.5,1.3l2,0.9l0.4,1.6l2,1.2
	l0.9-0.9l0.8,0.5l-0.7,0.7L698.6,135.2z"/>
<path class="st5" d="M425.9,287.9l4.1,0.8l0.4-0.8l2.9-0.3l3.7,1.1l-1.9,3.5l0.1,2.8l1.3,2.4l-0.7,1.7l-0.3,1.9l-0.9,1.6l-2-0.8
	l-1.7,0.4l-1.5-0.4l-0.3,1.2l0.5,0.8l-0.3,0.8l-2-0.3l-2.1-3.6l-0.4-2.2H424l-1.6-2.8l0.7-2.1l-0.1-0.9l2.2-1.1L425.9,287.9z"/>
<path class="st8" d="M684.6,114.7l0.3,0.1l1.2-0.4l1.7,1.3l1.7-0.8l1.5,0.4l2.1-0.7l3.2,1.6l-0.8,0.9l-0.4,1.6l-0.7,0.4l-3.4-1.2
	l-0.9,0.3l-0.7,0.9l-1.3,0.5l-0.4-0.3l-1.5,0.5l-1.2,0.1l-0.3,0.8l-2.5,0.5l-1.2-0.5l-1.6-0.9l-0.5-1.3l0.3-0.5l0.4-0.8h1.3l1-0.4
	v-0.4l0.5-0.1l0.1-0.9l0.7-0.1l0.4-0.7L684.6,114.7z"/>
<path class="st8" d="M670,126.2l2.5,0.4l1.6-0.9l2.7-0.1l0.5-0.7l0.5,0.1l0.8,1.3l-2.4,1.1l-0.3,1.5l-1,0.4l0.1,1.2l-1.2-0.1
	l-1.2-0.7l-0.5,0.7l-2.2-0.1l0.8-0.3l-0.9-1.7L670,126.2z"/>
<path class="st10" d="M658.1,79.1l1.1-2.1l2.1-2.5l0.5-4.2l-1.8-1.9l-0.6-4.8l1.5-3.3h2.6l0.8-1.3l-1.1-1.2l3.6-4.9l2.1-3.8l1.3-2.5
	h2.5l0.4-1.9l5,0.5V43l1.5-0.1l3.8,1.7l4.4,2.2l1.2,5.3l1.2,1.3l-4.5,1.1l-2.1,2.4l0.8,2.2l-3.8,2.8l-4.8,3l-1.3,5.2l2.2,2.5l2.9,2
	l-2,4.1l-2.9,0.9l-0.3,6.2l-1.3,3.4l-3.6-0.3l-1.3,2.9l-3.4,0.1l-1.2-3.4l-2.8-4.2L658.1,79.1z"/>
<path class="st2" d="M736.3,418.6l-0.8,1.9l-2.1,0.4l-1.8-2.1v-1.5l1.1-1.5l0.4-1.2l1-0.3l1.7,0.7l0.4,1.9L736.3,418.6z"/>
<path class="st3" d="M756.4,178.3l-6,4.4l-4-1.6V181l0.3-0.5l-0.1-1.7l0.5-2.1l1.6-1.5l-0.7-1.6l-1.6-0.3l-0.7-3l0.7-1.6l0.8-0.9
	l0.7-0.8v-2.2l1.1,0.8l3.6-1.2l1.8,0.8h2.6l3.6-1.5h1.8l3.6-0.7l-1.2,2.5l-1.7,1.1l0.8,2.9l-0.7,4.8L756.4,178.3z"/>
<path class="st1" d="M677.4,260.4l0.4-1.9l-2.2-0.1v-2.5l-1.6-1.5l1.5-5.3l4.4-3.7l0.1-5.3l1.1-8.1l0.8-1.7l-1.4-1.3l-0.1-1.3
	l-1.3-1.1l-0.9-6.1l3.3-2.2l14,7.7l14,7.7l0.7,15.8l-2.9-0.3l-1.6,2.9l-0.8,2.5l0.7,0.9l-1.1,1.2l0.4,1.7l-0.8,1.6l-0.4,1.5l1.2-0.1
	l0.8,1.5l0.1,2.4l1.3,1.2v0.9l-2.2,0.7l-1.7,1.6l-2.5,4.4l-3.3,1.9l-3.3-0.3l-1,0.4l0.4,1.5l-1.8,1.3l-1.5,1.6l-4.4,1.6l-0.9-0.9
	l-0.5-0.1l-0.7,1.1l-2.9,0.3l0.5-1.1l-1.2-2.8l-0.4-1.6l-1.6-0.7l-2.1-2.4l0.8-1.9l1.6,0.4l0.9-0.3h2l-2-3.6l0.1-2.7l-0.3-2.6
	L677.4,260.4z"/>
<path class="st1" d="M633.4,287.3l-2.9,0.8l-0.8-1.3l-0.9-2.6l-0.3-2l0.8-3.6l-0.9-1.5l-0.3-3v-2.9l-1.5-2.1l0.3-1.2h3l-0.5,2.1
	l1.2,1.2l1.2,1.5l0.1,1.9l0.7,0.9l-0.1,9.1L633.4,287.3z"/>
<path class="st5" d="M985.7,263l-3.3-1.7h-2.9l0.1-3h-3l0.1,4.4l-1.4,5.8l-0.9,3.6l0.5,2.8l2.2,0.1l1.7,3.7l0.8,3.4l2.1,2.3l2.1,0.5
	l1.8,2l-1,1.7l-2.2,0.4l-0.4-2l-2.9-1.7l-0.7,0.7l-1.5-1.6l-0.7-1.9l-2-2.2l-1.8-2l-0.4,2.4l-0.9-2.2l0.3-2.5l0.7-3.8l1.5-4.1
	l1.6-3.7l-1.7-3.6l-0.1-1.9l-0.7-2.2l-2.6-3.2l-1.1-2l1.2-0.8l0.8-3.4l-1.7-2.7l-2.7-2.9l-2.1-3.5l1.3-0.8l0.9-4.2l2.4-0.3l1.9-1.7
	l1.8-0.9l1.6,1.3l0.7,2.4l2.4,0.1l-0.3,4.2l0.5,3.6l3.4-2.4l1.1,0.7l2-0.1l0.5-1.3l2.6,0.3l3.2,3.2l0.8,4l3.2,3.5l0.3,3.5l-0.9,1.9
	l-3.3-0.7l-4.4,0.8l-1.8,3.3L985.7,263z"/>
<path class="st3" d="M857,151l-0.8,1.2l-3.7-0.7l0.3,2.3l3.4-0.3l4.5,1.3l6-0.7l1.8,3.7l0.9-0.4l2.2,0.9l0.4,1.6l1.1,2.2h-3.3
	l-2.4-0.4l-1.6,1.9l-1.3,0.4l-0.9,0.8l-1.6-1.3l-0.7-3.3l-1-0.1v-1.3l-2-0.8l-1.1,1.3l0.1,1.6l-0.4,0.7l-2-0.1l-0.5,1.9l-1.3-0.8
	l-2.1,1.3l-1.1-0.5l0.8-4l-1.4-3l-2.6-0.9l0.4-1.7l2.7,0.1l1-2.1l0.3-2.6l4-0.9l-0.1,1.9l0.8,1.2L857,151z"/>
<path class="st8" d="M829.5,169.3l-1-3.3l-2.4-0.1l-4.6-3.6l-2.7-0.4l-4.1-2.1l-2.4-0.3l-1.3,0.7l-2.2-0.1l-1.8,2.4l-2.8,0.7
	l-1.1-2.8l-0.4-4.1l-2.9-1.4l0.3-2.7l-2.3-0.3v-3.3l3.3,0.9l2.5-1.2l-2.9-2.4l-1.5-2.2l-2.4,0.9l0.4,2.9l-1.6-2.5l1.1-1.3l3.4-0.8
	l2.5,1.1l3,3.2l1.6-0.3h3.6l-1.1-2l2.5-1.5l2-2.2l4.9,2.1l1.2,3.2l1.5,0.8l3.4-0.3l1.3,0.8l2.6,4.1l4.4,2.6l2.7,1.9l4,2l4.8,1.7
	l0.5,2.4l-1.1-0.1l-1.8-1.1l-0.1,1.5l-2.6,0.8l0.1,3.2l-1.6,1.2l-2.5,0.7l-0.3,1.7l-2.4,0.5L829.5,169.3z"/>
<path class="st8" d="M410.7,268.9l2-0.5l0.8,0.1l-0.4,2.9l-2.9,0.4l-0.7-0.3l1.2-1.2L410.7,268.9z"/>
<path class="st3" d="M658.8,190.6l-1.6-7.2l-2.1-1.6v-1.1l-2.9-2.4l-0.3-2.9l2-2.2l0.7-3.3l-0.7-3.8l0.7-2l3.4-1.6l2.4,0.4v2.1
	l2.8-1.5l0.3,0.7l-1.6,2v1.9l1.2,0.9l-0.3,3.6l-2.1,2l0.7,2.1l1.7,0.1l0.9,1.9l1.3,0.7l-0.1,3.1l-1.6,1.2l-1,1.2l-2.2,1.6l0.4,1.6
	l-0.1,1.7L658.8,190.6z"/>
<path class="st5" d="M760.6,145.8l3.4-0.1l3.4,2l0.8,1.3v2l2.7,0.9l1.5,1.2l-2,1.1l1.8,4.6l-0.5,1.2l2.4,3.2l-1.5,0.7l-1.3-0.9
	l-4-0.5l-1.3,0.5l-3.6,0.7h-1.8l-3.6,1.5h-2.6l-1.8-0.8l-3.6,1.2l-1.1-0.8v2.2l-0.7,0.8l-0.8,0.9l-1.4-1.8l1.1-1.5l-2,0.3l-2.9-0.9
	l-2,2.4l-4.9,0.4l-2.9-2.1l-3.6-0.1l-0.7,1.6l-2.2,0.5l-3.4-2.1l-3.6,0.1l-2.2-4l-2.6-2.2l1.2-3l-2.2-2l3.2-3.7l5-0.3l0.9-2.9
	l6.2,0.5l3.6-2.6l3.6-1.1l5.3-0.1l6.1,2.8l4.9,1.6l3.7-0.7l2.8,0.4L760.6,145.8z M711,148.8l0.7-0.5l0.8-2.5l-1.7-0.9l3.2-1.3
	l2.8,0.5l0.5,1.6l3,1.2l-0.5,1.1L716,148l-1.3,1.3l-2.3,2.1l-1.3-1.9L711,148.8z"/>
<path class="st4" d="M1044.6,214.2l-0.7,6.5l-0.9,3.2l-2.5-3.3l-0.9-2.9l1.2-4l2.1-3l1.8,1.2L1044.6,214.2z"/>
<path class="st1" d="M746.2,315.6l0.7,0.4l12.7,8.1l0.1,2.4l5,4l-1.7,4.9l0.1,2.2l2.2,1.5l0.1,1.1l-1,2.4l0.1,1.2l-0.3,2l1.2,2.5
	l1.3,4l1.3,0.8l-2.9,2.4l-3.9,1.4h-2.1l-1.3,1.2l-2.4,0.1l-0.9,0.4l-4.2-1.1l-2.6,0.3l-0.8-5.4l-1.2-1.9l-0.7-1.1l-3.4-0.8l-2-1.2
	l-2.1-0.7l-1.5-0.7l-1.5-0.9l-1.8-5l-2-2.3l-0.7-2.4l0.4-2.1l-0.5-3.7l1.5-0.3l1.3-1.5l1.3-2l0.9-0.9v-1.2l-0.8-0.9l-0.3-1.6
	l1.1-0.5l0.3-2.4l-1.5-2.2l1.3-0.4h3.8L746.2,315.6z"/>
<path class="st1" d="M733.9,316.3l-2.1,1.3l-0.8-0.5v-2.9l0.8-1.6l0.3-3.2l0.7-1.9l1.5-2.1l1.3-1.1l1.1-1.3l-1.3-0.7l0.1-4.6
	l1.5-1.1l2.2,0.9l2.8-0.9h2.5l2.1-1.9l1.7,2.8l0.4,2l1.6,4.6l-1.2,2.9l-1.7,2.5l-1.1,1.7v4.2l-7.1,0.3h-3.8L733.9,316.3z"/>
<path class="st5" d="M722.5,104.6l1.1,0.1l0.7-0.8l0.9,0.1l3-0.4l2.4,2.2l-0.7,0.7l0.5,1.2l2.5,0.3l1.3,1.6l0.1,0.8l4.1,1.3l2.2-0.5
	l2.2,1.7h1.8l4.8,1.3l0.3,1.1l-0.8,2.1l1.1,2.1l-0.1,1.3l-3,0.3l-1.3,1.1l0.3,1.7l-2.5,0.3l-1.7,1.3l-2.9,0.1l-2.5,1.5l0.7,2.5
	l1.7,0.9l3.2-0.3l-0.4,1.5l-3.3,0.7l-4,2.3l-1.9-0.8l0.4-1.9l-3.7-1.2l0.5-0.7l2.8-1.3l-1-0.9l-5-0.9l-0.5-1.5l-2.8,0.4l-0.8,2.2
	L720,131l-1.5-0.7l-1.5,0.7l-1.5-0.7l0.8-0.5l0.3-1.3l0.7-1.2l-0.3-0.7l0.7-0.4l0.4,0.5l1.8,0.1l0.8-0.3l-0.7-0.4l0.1-0.5l-1.3-1.1
	l-0.7-1.6l-1.2-0.7V121l-1.6-1.1l-1.3-0.1l-2.4-1.2l-2,0.4l-0.7,0.5h-1.3l-0.7,0.9l-2.2,0.4l-0.9,0.5l-1.6-0.9h-2l-2-0.4l-1.2,0.8
	l-0.4-1.1l-1.8-1l0.4-1.6l0.8-0.9l0.7,0.1l-1.1-1.7l2.4-3.2l1.5-0.4l0.3-1.2l-2-3.3l1.5-0.1l1.5-1.1h2.2l3.2,0.3l3.4,0.9h2.5
	l1.2,0.5l1.1-0.7l0.9,0.9l2.6-0.1l1.3,0.4l-0.1-2l0.7-0.8L722.5,104.6z"/>
<path class="st5" d="M432,432.6l2.1-0.4l4,3l1.2-0.1l3.8,2.6l3,2.1l2.4,2.8l-1.2,1.9l1.3,2.2l-1.1,2.5l-3.3,2.2l-2.6-0.8l-1.7,0.4
	l-3.3-1.7l-2.2,0.1l-2.5-2.1l-0.1-2.6l0.5-0.9l-0.8-4l0.3-4.1L432,432.6z"/>
<path class="st4" d="M87.8,235.4l-0.7,0.8l-0.8-0.7l0.4-1.1l-0.3-1.5l0.3-0.5l0.8-0.5v-0.8l0.3-0.4h0.3l1.1,0.7l0.7,0.4l0.4,0.5
	l0.5,1.5l-0.1,0.1l-1.6,0.9L87.8,235.4z M87.4,229.2l-1.2,0.4l-0.4-0.9l-0.4-0.3v-0.3l0.5-0.4l1.1,0.4l0.8,0.7L87.4,229.2z
	 M85.6,227.1l-0.3,0.5l-1.7-0.1l0.3-0.5L85.6,227.1z M82.7,226.6l-0.3,0.2l-0.3-0.1l-1.2-0.1l-0.1-0.9l-0.1-0.1l1.1-0.5l0.3,0.3
	L82.7,226.6z M77.5,223.9l-0.5,0.4l-1.1-0.7l0.3-0.4l0.7-0.4l0.8,0.1L77.5,223.9z M415,131.6l0.1,1.3l-4,1.9l-3.7,1.3l-3.7,1.2
	l-2.5,2.4l-0.8,0.9l-0.7,2l0.4,2.1l1.2,0.1l0.1-1.5l0.8,0.9l-0.7,1.1l-2.4,0.7h-1.6l-2.5,0.7l-1.5,0.1l-2,0.3l-3,1.1l5-0.7l0.7,0.7
	l-4.9,1.2h-2l0.1-0.4l-1.3,1.1l0.9,0.1l-1.6,2.9l-3.3,3l0.1-1.1l-0.7-0.1l-0.8-1.1v2.1l0.7,0.8l-0.4,1.5l-1.5,1.6l-2.8,3.2l-0.3-0.1
	l1.7-2.8l-1.2-1.5l0.7-3.3l-1.2,1.7v2.5l-2-0.7l1.8,1.3l-0.9,3.7l0.8,0.3v1.5l-0.5,4l-2.9,2.9l-3.8,1.2l-2.8,2.4l-1.7,0.3l-2,1.5
	l-0.9,1.3l-4.2,2.6l-2.3,1.9l-2.1,2.4l-1.2,2.8v2.8l0.4,3.5l0.9,2.8l-0.3,1.7l0.7,4.6l-0.5,2.8l-0.4,1.5l-1.2,2.5l-1.2,0.5l-1.6-0.5
	l-0.3-1.7l-1.2-0.9l-1.2-3.5l-0.9-3l-0.3-1.6l1.2-2.6l-0.5-2.3l-1.8-3.3l-1.2-0.5l-3.8,1.7l-0.5-0.1l-1.2-1.9l-2-1.1l-3.8,0.5
	l-2.9-0.4l-2.6,0.3l-1.6,0.5l0.4,1.1l-0.5,1.7l0.5,0.8l-0.7,0.5l-1.2-0.7l-1.5,0.8l-2.4-0.1l-2.1-2.1l-3,0.5l-2.2-0.9l-2.1,0.3
	l-3,0.9l-3.8,2.9l-3.8,1.7l-2.2,2l-1.2,1.7l-0.7,2.8l-0.3,2l0.4,1.3l-1.3,0.1l-2.2-0.9l-2.4-1.2l-0.5-1.9l-0.1-2.9l-1.5-2.2
	l-0.7-2.2l-1.1-2.8l-2-1.6L280,193l-2.9,3l-2.6-1.2l-1.5-1.2l-0.3-2.1l-0.5-2.1l-1.5-1.7l-1.3-1.3l-0.8-1.5h-5.8l-0.5,1.7H253
	l-6.7-2.8l-4.4-2l0.5-0.8l-4.4,0.5l-4,0.3l0.3-2.1l-1.3-2.3l-1.4-0.5l0.1-1.1l-1.9-0.3l-0.7-1.1l-3-0.4l-0.5-0.7l0.5-2.1l-1.6-4
	l-0.3-5.6l0.5-0.9l-0.8-1.3l-0.9-3.3l1.2-3.3l-0.7-2.1l2.4-3.3l1.7-3.4l0.8-2.9l3.3-3.7l2.5-3.6l2.5-3.6l2.8-5.3l1.1-3.3l0.3-1.9
	l0.9-0.8l3.6,1.3l-0.7,3.7l1.5-1.1l1.4-3.2l1.1-3.2h85.2l0.8-1.5h1.1l-0.5,2.1l0.5,0.7l2.1,0.3l2.8,0.5l2.5,1.2l2.8-0.4l3.3,0.9h1
	l3.2-1.1l2.2,1.3l2.4,1.6l2,1.3l1.8,1.2l-0.1,1.1l0.7,0.4l-0.4,0.4h0.8l0.8-0.4l-0.3,0.9l0.4,0.7h0.8l0.3,0.5l-0.7,0.7l2.5,1.9
	l-0.7,3.6l-0.8,3.4l-1.9,2.2l-2.2,2.3l-1.2,1.3l-0.3,0.4l0.1,0.5l0.9,0.7h0.8l4.5-2.1l3.4-0.7l4.9-1.9l0.3-0.4l0.1-1.2l-0.3-0.8
	l1.7-0.7h6.1l1.6-1.6l0.5-0.2l4.4-2.8l1.7-0.8h10.6l0.7-0.9l1.1-0.3l1.6-0.7l1.7-1.7l2-3.1l3.4-2.9l0.7,1.1l2.4-0.7l0.9,1.1
	l-1.9,5.3L415,131.6z M184.9,85.6l-4.4,1.5L180,86l1.4-1.7l4-1.3l2.1-0.5l1.7,0.3v1.2L184.9,85.6z M160.5,75.3l-2.4,0.5l-0.9-0.7
	l-0.5-0.9l3.4-0.7l1.9,0.3L160.5,75.3z M161.4,61.4l0.8,0.7l2.1-0.4l1.1,0.9l2,0.5l-0.7,0.3l-3,0.8l-1.1-0.8l-0.3-0.7l-2.6,0.3
	l-0.3-0.3L161.4,61.4z M236.1,76.6l0.1,2.4l4.8-2.1l4-1.2l-0.4,2l0.5,1.5l1.1,1.7l-0.8,2.7l-0.8,4.2l2.8,2.4l-1.9,2.4l-3.2,1.7
	l-0.4-1.3l-1.7-1.2l2-3.3l-0.9-3l1.6-3.4l-2.6-0.4l-4.4-0.1l-2.4-1.1l-2.1-3.8l-2-0.7l-3.6-1.3l-4.2,0.3l-3.7-1.6l-1.6-1.6l-4,0.8
	l-2.2,2.5l-1.7,0.3l-4.1,0.8l-3.8,1.2l-4,0.8l2-2.2l5.2-3.6l4.2-1.1l0.3-0.9l-5.8,2l-4.5,2.5l-7,2.5l0.1,1.8l-5.6,2.6l-4.8,1.6
	l-4.1,1.1l-2.5,1.7l-6.6,1.8l-2.8,1.9l-5,1.6l-1.7-0.4l-3.8,1.1l-4.4,1.3l-3.8,1.3l-6.2,1.1l0.3-0.7l5.2-1.7l4.1-1.2l5.3-2.1
	l4.1-0.4l3-1.5L168,86l1.4-0.8l3.4-1.3l3.7-2.8l3.8-2.2l-4.5,1.2l-0.3-0.7l-3,1.3l0.3-1.8l-2.2,1.3l1.1-1.8l-4.6,1.4h-1.7l2.2-2.1
	l2.1-1.3l-0.3-1.3l-4.5,0.7l-0.3-1.7l-0.9-0.9l2.5-2l-0.3-1.6l3.7-2l4.8-2.1l3.3-1.7l2.5-0.3l1.2,0.5l4.4-1.7l1.6,0.3l3.4-1.1
	l1.6-1.5l-0.7-0.7l3.7-1.3h-1.7l-3.8,0.8l-1.9,0.8l-1.1-0.8l-4.4,0.4l-2.8-0.9l0.8-1.3l-0.7-2.1l5.7-1.5l8.2-1.6h2.2l-2.8,1.7
	l5.8-0.1l0.7-2.2l-1.5-1.3L199,48l-0.4-1.5l-2-1.2l4-1.7l4.6-0.1l5.6-1.5l2.9-1.7l4.9-1.6l3-0.4l7-1.5l1.9,0.3l6.5-1.7l2.8,0.7
	l-0.4,1.5l2.1-0.7l4,0.3l-1.3,0.8l3,0.5l3-0.4l4,1.1l4.4,0.4l1.4,0.4l4-0.5l2.6,0.9l2.1,0.5l0,0l-15.2,12.7l-22.2,20.3l2.6,0.1
	l1.7,0.9L236.1,76.6z"/>
<path class="st3" d="M845.5,162.4L845,160l-4.8-1.7l-4-2l-2.7-1.9l-4.3-2.6l-2.6-4.1l-1.3-0.8l-3.4,0.3l-1.5-0.8l-1.2-3.2l-4.9-2.1
	l-2,2.2l-2.5,1.5l1.1,2h-3.6l-4-14.6l7.5-2.2l0.7,0.3l5.7,2.9l3,1.5l4.1,3.6l3.6-0.7l5.3-0.3l4.8,2.9l0.9,4h1.6l1.6,3.2l4.1,0.1
	l1.5,1.9h1.2l0.7-2.8l3.3-2.8l1.6-0.8l1.2,0.4l-2,2.7l2.9,1.5l2-0.9l4.5,2l-3.3,2.9l-2.6-0.4l-1.3,0.1l-0.8-1.2l0.1-1.9l-4,0.9
	l-0.3,2.6l-1,2.1l-2.7-0.1l-0.4,1.7l2.6,0.9l1.5,3.1l-0.8,4l-2.6-0.8L845.5,162.4z"/>
<path class="st5" d="M377.1,264.8l-0.1,0.9l-2.1,0.5l1.1,1.7l-0.3,2.1l-1.6,2.2l1,3.2l1.6-0.3l0.9-2.8l-1.1-1.5v-3l4.5-1.6l-0.4-1.9
	l1.3-1.3l1.1,2.8l2.5,0.1l2.1,2.3l0.1,1.3h3l3.8-0.4l1.9,1.7l2.6,0.5l2.1-1.2v-1.1l4.4-0.3h4.2l-3,1.2l1.2,1.9l2.8,0.3l2.5,2
	l0.4,3.2h1.9l1.3,0.9l-2.8,2.2l-0.4,1.5l1.2,1.6l-0.9,0.7l-2.2,0.7l0.1,1.9l-1,1.1l2.4,3l0.4,1.2l-1.3,1.5l-4,1.5l-2.6,0.7l-0.9,0.9
	l-2.8-0.9l-2.7-0.5l-0.7,0.4l1.6,0.9l-0.3,2.8l0.5,2.5l2.9,0.3l0.1,0.9l-2.5,1.1l-0.4,1.7l-1.5,0.7l-2.6,0.9l-0.7,1.2l-2.8,0.3
	l-1.8-2.2l-1.1-4l-0.9-1.3l-1.3-0.9l1.8-2l-0.1-0.9l-0.9-1.2l-0.7-2.6l0.4-2.8l0.8-1.5l0.8-2.1l-1.3-0.6l-2,0.4l-2.5-0.1l-1.5,0.4
	l-2.4-3.5l-2-0.5l-4.5,0.4l-0.8-1.3l-0.9-0.4v-0.8l0.4-1.5l-0.1-1.6l-0.8-0.9l-0.3-1.9l-1.8-0.3l1.1-2.4l0.7-2.8l1.1-1.5l1.5-1.2
	l0.9-2L377.1,264.8z"/>
<path class="st5" d="M999.5,225.6l-4,3.4l-2.2,3.7l-0.4,2.8l3.3,4.2l4.1,5.2l3.4,2.5l2.5,3.2l2.5,7.4l0.3,7l-2.7,2.7l-3.8,2.5
	l-2.5,3.5l-4.2,3.7l-1.5-2.7l0.8-2.6l-2.8-2.2l2.9-1.6l3.7-0.4l-1.7-2.4l5.5-3l-0.1-4.8l-1.1-2.6l0.1-4l-1.2-2.9l-3-2.8l-2.8-3.4
	l-3.6-4.8l-4.5-2.4l0.8-1.5l2-1.1l-1.9-3.4h-4.2l-2.1-3.7l-2.7-3l1.7-1h2.8l3.3-0.4l2.5-2.1l2,1.5l3.2,0.8L994,223l2,1.6
	L999.5,225.6z"/>
<path class="st1" d="M1210.8,377.7l-1.2,0.5l-0.8-1.9l0.4-1.1L1210.8,377.7z M1209.5,371.5v3.3l-0.8-0.5l-0.8,0.3l-0.3-1.2l0.5-3
	L1209.5,371.5z"/>
<path class="st1" d="M811.5,245.2l-2.4,1.1l-0.5,1.7v1.5l-3.4,1.6l-5.4,1.9l-3,2.9l-1.5,0.1l-1.1-0.1l-2,1.6l-2.2,0.8l-2.9,0.1
	l-0.8,0.3l-0.8,1.1l-0.8,0.3l-0.5,1.1l-1.7-0.1l-1.2,0.5l-2.4-0.1l-1.1-2.4v-2.1l-0.5-1.2l-0.9-2.9l-1.1-1.7l0.7-0.1l-0.4-1.9
	l0.4-0.8l-0.3-1.7l1.5-1.3l-0.4-1.6l0.8-2l1.5,1.1l0.9-0.4l4-0.1l0.7,0.4l3.4,0.4l1.3-0.1l0.9,1.3l1.6-0.7l2.2-4.2l3-1.7l9.9-1.6
	l3.2,6.6L811.5,245.2z"/>
<path class="st8" d="M682.4,426.1l1.7-2l1.2,1.1l0.5,1.7l1.6,0.3l2.1,0.8l1.7-0.3l3.2-2.1l0.7-14.7l0.9,0.5l1.8,3.8l-0.4,2.4
	l0.7,1.5l2.5-0.4l1.7-1.7l1.7-1.3l0.9-1.9l1.7-0.9l1.5,0.5l1.6,1.1l2.8,0.3l2.1-0.9l0.5-1.3l0.7-1.9l1.8-0.4l1-1.5l1.3-2.6l3.2-3
	l5-2.9l1.5,0.1l1.6,0.7l1.2-0.5l1.8,0.4l1.3,5.6l0.8,2.9l-0.9,4.5l0.3,1.3l-1.7-0.7l-1,0.3l-0.4,1.2l-1.1,1.5v1.5l1.8,2.1l2.1-0.4
	l0.8-1.9h2.5l-1,2.9l-0.7,3.3l-0.9,1.9l-2.5,2l-0.7,0.7l-1.7,2l-1.1,2l-2.1,2.9l-4.2,4.1l-2.6,2.3l-2.7,1.9l-3.7,1.6l-1.7,0.1
	l-0.5,1.2l-2-0.7l-1.7,0.8l-3.6-0.8l-2,0.5l-1.5-0.3l-3.4,1.6l-2.9,0.7l-2.2,1.5L692,451l-1.3-1.5h-1.1l-1.3-1.9l-0.3,0.5l-0.4-1.1
	l0.1-2.2l-0.9-2.8l1.2-0.7v-3l-2-3.7l-1.5-3.5l0,0L682.4,426.1z M725.1,427.5l-1.3-1.2l-1.7,0.8l-1.8,1.6l-2,2.5l2.2,3.1l1.3-0.4
	l0.7-1.2l2-0.7l0.7-1.3l1.2-2L725.1,427.5z"/>
<path class="st9" d="M741.7,348.6l1.6,1.9l0.9,3.3l-0.7,1.2l-0.8,3.2l0.5,3.3l-1.2,1.5l-1.2,3.7l1.8,0.9l-10.7,3.3l0.3,2.9l-2.6,0.5
	l-2.1,1.6l-0.4,1.3l-1.3,0.4l-3.2,3.2l-2,2.6l-1.2,0.1l-1.1-0.5l-3.8-0.4l-0.7-0.3v-0.4l-1.3-0.9l-2.2-0.1l-2.9,0.8l-2.2-2.4
	l-2.2-3.3l0.5-12.7h7.3l-0.3-1.3l0.5-1.5l-0.5-1.9l0.4-2l-0.3-1.2h1.2l0.1,1.3l1.6-0.1l2.2,0.4l1.2,1.7l2.8,0.7l2.1-1.3l0.8,2.1
	l2.7,0.5l1.2,1.7l1.5,2.3h2.7l-0.1-4.4l-1,0.8l-2.4-1.6l-0.9-0.7l0.5-4.1l0.8-4.6l-0.8-1.9l1.1-2.5l0.9-0.4l4.8-0.8l1.3,0.5l1.5,0.9
	l1.5,0.7l2.1,0.7L741.7,348.6z"/>
<path class="st2" d="M734.3,400.8l-1.8-0.4l-1.2,0.5l-1.6-0.7l-1.5-0.1l-2.1-1.7l-2.7-0.7l-0.9-2.5l0.1-1.5l-1.5-0.4l-3.8-4.4
	l-0.9-2.4l-0.7-0.7l-1.2-3.2l3.8,0.4l1.1,0.5l1.2-0.1l2-2.6l3.2-3.2l1.3-0.4l0.4-1.3l2.1-1.6l2.6-0.5l0.1,1.5l2.9-0.1l1.6,0.9
	l0.7,0.9l1.7,0.3l1.7,1.3l-0.1,5l-0.9,2.8l-0.3,3l0.5,1.2l-0.5,2.2l-0.5,0.4l-1.1,2.9L734.3,400.8z"/>
<path class="st9" d="M541.9,252.4l-0.1,0.1h-0.3l-0.3-0.4l0.1-0.1l0.4-0.3l0.1,0.1l0.1,0.3L541.9,252.4z M545.9,251.4h-0.1l-0.1-0.3
	v-0.3l0.1-0.3h0.3l0.1,0.3v0.4L545.9,251.4z M545,251.9l-0.3,0.4l-0.4-0.1l-0.5-0.7v-0.3l0.1-0.3v-0.4h0.3v0.2l0.5,0.5L545,251.9z
	 M547,246.9l0.4,0.1h0.1l0.3,0.1v0.4l-0.1,0.3l-0.4,0.1H547l-0.1-0.1l0.3-0.5L547,246.9z M543,245.4l0.1,0.1l-0.1,0.1l-0.5-0.1h-0.1
	L542,246l-0.3-0.5v-0.1l0.1-0.1l0.4,0.1L543,245.4z M547.1,245.3l-0.1,0.1l-0.1-0.3l-0.1-0.4l0.3-0.1h0.1V245.3z M540.2,244.6
	l-0.5,0.1l-0.3-0.1l0.1-0.3l0.4-0.1l0.3,0.3V244.6z M539.2,244.1l-0.4,0.1l-0.1-0.1v-0.3l-0.1-0.1v-0.1l0.8-0.4h0.4l0.1,0.4
	l-0.1,0.1L539.2,244.1z"/>
<path class="st1" d="M779.9,361.1l-0.4,0.1l-0.1-0.3v-0.1h0.3L779.9,361.1z M782.3,360.2l0.3,0.5v0.4l-0.1,0.1l-0.1-0.1l-0.3-0.3
	l-0.7-0.4h0.7v-0.1l0.1-0.1H782.3z M778.8,359.4v0.1l-0.5-0.4l-0.3-0.3l0.1-1.3l0.1-0.1l0.1-0.1l0.1,0.1v0.9l0.3,0.5l0.1,0.4
	L778.8,359.4z"/>
<path class="st5" d="M825.9,393.7l-0.3,0.1h-0.5l-0.3-0.3l0.1-0.1v-0.3l0.1-0.5l0.3-0.1l0.3-0.1V392l0.3-0.1l0.3-0.1l0.3,0.4
	l0.1,0.5v0.5l-0.3,0.1l-0.1,0.3L825.9,393.7z"/>
<path class="st8" d="M822.2,330.6v0.3H822v-0.3l-0.3-0.1l-0.1-0.3l0.3-0.1L822.2,330.6z"/>
<path class="st10" d="M799.9,208.4l-0.1,0.3l-0.1-0.1l-0.3-0.5v-0.3l-0.3-0.7l0.1-0.1h0.4l-0.1,0.1l0.3,0.3L799.9,208.4z"/>
<path class="st9" d="M885.2,298.9H885v-0.3h0.3v0.3H885.2z M885.4,295.2h-0.1V295h0.1V295.2z"/>
<path class="st5" d="M1214.7,313.9l0.1-0.1l0.1,0.1v0.1h-0.3V313.9z"/>
<path class="st7" d="M28.2,368h-1.1l-0.5-0.3h-0.1l-0.4-0.3l-0.3-0.3l0.3-0.1h0.5l0.9,0.3l0.1,0.3h0.1l0.3,0.1L28.2,368z
	 M24.6,365.6l0.5,0.4l0.3,0.5l-0.3,0.5l-0.3-0.1l-0.5,0.1l-0.1-0.1l-0.9-0.8l-0.3-0.3h0.4l0.7-0.1L24.6,365.6z"/>
<path class="st6" d="M993.6,306.8l-1.5,0.5l-0.5-0.3l0.3-0.9l0.3-0.1h0.4l0.5,0.1h0.3v0.3L993.6,306.8z"/>
<path class="st7" d="M23,397l0.1,0.5l-0.3-0.3l-0.1-0.1L23,397z M22,396.5l0.1-0.1l0.1,0.1l-0.1,0.3l-0.1-0.1l-0.7-0.3l0.1-0.1h0.3
	L22,396.5z M23.4,386.3l-0.1,0.3l-0.3-0.3l0.1-0.3l0.3,0.1l0.1,0.1H23.4z"/>
<path class="st5" d="M412.2,243.7l-0.1,0.3l-0.4-0.1l-0.1-0.1v-0.1l0.3-0.3l0.5,0.3v0.1H412.2z M412.2,241.5v0.1l-0.4-0.1l0.1-0.5
	l0.3,0.1V241.5z"/>
<path class="st5" d="M418.8,259.6h-0.1l-0.4-0.1v-0.8h0.3l0.4,0.7L418.8,259.6z"/>
<path class="st3" d="M413.1,250.8l-0.4,0.1v-0.7l-0.3-0.5l0.1-0.3v-0.1l0.5,0.1l0.1,0.3v0.7L413.1,250.8z"/>
<path class="st3" d="M410.7,263.8l-0.1-0.1l0.1-0.3l0.3-0.5l0.3,0.1l-0.3,0.7L410.7,263.8z"/>
<path class="st5" d="M409.3,243.4l-0.1,0.1l-0.1-0.1l0.1-0.3l0,0l0.1,0.1V243.4z M409,243l-0.3-0.3l-0.3-0.1l-0.1-0.1v-0.1l0.1-0.1
	l0.3,0.3l0.1,0.3h0.1V243z"/>
<path class="st5" d="M414,256.6l-0.3,0.4l-0.3-0.3v-0.5l0.3-0.4l0.1-0.3l0.1-0.1l0.1,0.4L414,256.6z"/>
<path class="st9" d="M413,259.3h-0.1l-0.3-0.3v-0.4l0.3-0.1l0.1-0.1h0.1v0.7L413,259.3z"/>
<path class="st5" d="M674.9,168.5v0.1h-0.4l-0.3-0.1V168l0.7,0.4L674.9,168.5z"/>
<path class="st2" d="M72.4,303.7l0.1,0.1l0.3,0.1l0,0l0,0v0.1h-0.1v0.3l0.1,0.1h0.1l0.1,0.1l0,0v0.1h0.3v0.1h-0.4v-0.1h-0.1
	l-0.4-0.1h-0.1v-0.1l-0.1-0.1h-0.3v-0.3H72v0.1l0,0v0.1h0.3l0.1,0.1l0,0v-0.1h-0.1v-0.1h0.1v0.1h0.1v-0.1h-0.1v-0.1h0.1l0,0l0,0v0.1
	l0,0l0.1-0.1l0,0V304h-0.2l-0.1-0.1h-0.1v-0.1l0,0v0.1h-0.1v-0.1L72.4,303.7L72.4,303.7z"/>
<path class="st2" d="M650.2,310.1l0.4,0.5l-0.3,0.7l-0.5,0.4l-0.3-0.7l0.1-0.4L650.2,310.1z"/>
<g>
	<line class="st11" x1="181.4" y1="666.7" x2="181.4" y2="640.2"/>
	<line class="st11" x1="270.9" y1="666.7" x2="270.9" y2="662.1"/>
	<line class="st11" x1="360.4" y1="666.7" x2="360.4" y2="640.2"/>
	<line class="st11" x1="449.9" y1="666.7" x2="449.9" y2="662.1"/>
	<line class="st11" x1="539.4" y1="666.7" x2="539.4" y2="640.2"/>
	<line class="st11" x1="628.9" y1="666.7" x2="628.9" y2="662.1"/>
	<line class="st11" x1="718.4" y1="666.7" x2="718.4" y2="640.2"/>
	<line class="st11" x1="807.9" y1="666.7" x2="807.9" y2="662.1"/>
	<line class="st11" x1="897.4" y1="666.7" x2="897.4" y2="640.2"/>
	<line class="st11" x1="986.9" y1="666.7" x2="986.9" y2="662.1"/>
	<line class="st11" x1="1076.4" y1="666.7" x2="1076.4" y2="640.2"/>
	<rect x="181.4" y="666.7" class="st1" width="89.5" height="15.1"/>
	<rect x="270.9" y="666.7" class="st2" width="89.5" height="15.1"/>
	<rect x="360.4" y="666.7" class="st7" width="89.5" height="15.1"/>
	<rect x="449.9" y="666.7" class="st9" width="89.5" height="15.1"/>
	<rect x="539.4" y="666.7" class="st3" width="89.5" height="15.1"/>
	<rect x="628.9" y="666.7" class="st5" width="89.5" height="15.1"/>
	<rect x="718.4" y="666.7" class="st8" width="89.5" height="15.1"/>
	<rect x="807.9" y="666.7" class="st6" width="89.5" height="15.1"/>
	<rect x="897.4" y="666.7" class="st4" width="89.5" height="15.1"/>
	<rect x="986.9" y="666.7" class="st10" width="89.5" height="15.1"/>
	<text transform="matrix(1 0 0 1 174.4344 653.49)" class="st12 st13">0</text>
	<text transform="matrix(1 0 0 1 252.9444 653.49)" class="st12 st13">250</text>
	<text transform="matrix(1 0 0 1 132.7544 681.79)" class="st14 st15">KWH</text>
	<text transform="matrix(1 -3.665183e-03 3.665183e-03 1 1090.4445 681.79)" class="st14 st15">KWH</text>
	<text transform="matrix(1 0 0 1 342.2844 653.49)" class="st12 st13">500</text>
	<text transform="matrix(1 0 0 1 432.3244 653.49)" class="st12 st13">750</text>
	<text transform="matrix(1 0 0 1 516.4244 653.49)" class="st12 st13">1000</text>
	<text transform="matrix(1 0 0 1 603.1345 653.49)" class="st12 st13">2000</text>
	<text transform="matrix(1 0 0 1 693.4344 653.49)" class="st12 st13">4000</text>
	<text transform="matrix(1 0 0 1 783.1044 653.49)" class="st12 st13">8000</text>
	<text transform="matrix(1 0 0 1 868.1345 653.49)" class="st12 st13">10000</text>
	<text transform="matrix(1 0 0 1 958.1544 653.49)" class="st12 st13">15000</text>
	<text transform="matrix(1 0 0 1 1045.5544 653.44)" class="st12 st13">55000</text>
</g>
</svg>
