<svg xmlns="http://www.w3.org/2000/svg" viewBox="0 0 1294.5 699.95"><defs><style>.cls-1{fill:#eee;}.cls-2{fill:#d3f1bb;}.cls-3{fill:#a3bfa2;}.cls-4{fill:#122755;}.cls-5{fill:#425a6f;}.cls-6{fill:#738c88;}.cls-7{fill:none;}.cls-8{font-size:20px;font-family:SpaceGrotesk-Regular, Space Grotesk;}</style></defs><g id="Layer_1" data-name="Layer 1"><path class="cls-1" d="M800.32,522.28l1.46,1.19,2.77.53-.13.66-1.59,1.85-4.75.13.66-2,1-1.58Z" transform="translate(38.5)"/><path class="cls-1" d="M653.94,162.52l-.4-1.45-.79-.4-.8-1,.53-.93.66-.26.4-1.32.53-.13.53.52.66.27.39.53.53.26.79.66h.4l-.26.93-.4.52.13.27-.66.13-1.85.66v.79Z" transform="translate(38.5)"/><path class="cls-1" d="M706.92,200.05l.26,2.51-.4,1.05-1.58.53.13-.92.79-.66-.92-.4.39-2.64Z" transform="translate(38.5)"/><path class="cls-1" d="M1183.73,305.87l-.13-.13v-.26h.13Zm4.63-5.15.52.26.4-.13h0l-.26.13h-.14l-.52-.13Z" transform="translate(38.5)"/><path class="cls-1" d="M1160.48,308v.13l-.27-.13.14-.14ZM1143.57,302l-.14.13-.26-.13-.13-.26-.13-.14v-.13l.26-.13h.26l.27.4-.13.13Zm-23.65-2.11-.13-.13v-.14h.13Zm.92-.4h-.13v-.13h.13Zm-49-8.32v-.27h.13l.13.14-.13.13Z" transform="translate(38.5)"/><path class="cls-1" d="M1060.07,299.8h-.13l-.14-.27v-.4l.14-.26h.13l.13.4-.13.26Z" transform="translate(38.5)"/><path class="cls-1" d="M1213.33,361.1l.26-.4.26.13-.26.53Zm1.45-2.25.13.13h-.13Zm1.32,3.83h.13v.4l-.39.26v.14l-.14.13v-.53l.27-.4Zm2.11,3.7v.14h0l-.13.26v-.4Zm-11.89,12.42h.53v.27l-.53-.14Zm3.31-20.74-.14-.26h.14Zm-3.31-6.47.14.13.13.13-.13-.13-.27-.13Z" transform="translate(38.5)"/><path class="cls-1" d="M592.24,159.62l.26-.13h.26l.4.13V160l-.79.27-.13-.13v-.53Z" transform="translate(38.5)"/><path class="cls-1" d="M617.6,141.52l-.13.13.27.13v.13l-.14.14-.13.13-.26-.13.13-.14-.13-.26.13-.4Z" transform="translate(38.5)"/><path class="cls-1" d="M611.39,155.13h-.26V155Z" transform="translate(38.5)"/><path class="cls-1" d="M627,154.33l.27-.26.26.13-.13.26h-.26Z" transform="translate(38.5)"/><path class="cls-2" d="M790.28,187.1l3.7,1.45,2.38-.53.26-1.71,2.51-.67,1.59-1.18-.13-3.18,2.64-.79.13-1.45,1.85,1.06,1.06.13,1.85.13,2.64.79,1.06.53,2.11-1.32,1.32.79.53-1.85,2,.14.4-.67-.13-1.58,1.05-1.32,2,.79V178l1,.13.66,3.31,1.59,1.32.92-.79,1.32-.4,1.59-1.85,2.38.4h3.3l.93,1.05-1.72.53-1.45.66-3.7.53-3.31.79-1.45,1.72,1.19,1.72.79,2L824,190.8l.53,1.45-.66,1.45-3.17-.13,2,2.64-2,1.06-.93,2.38.67,2.38-1.06,1.05-1.32-.26-2.38.53-.13,1.06H813l-1.46,2.24.4,3.44-4.1,1.58-2.37-.26-.53.79-2.12-.53-3.3.66-5.94-2.11,2.37-3.57-.66-2.51-2.64-.66-.79-2.64-1.72-3.17,1.06-2.12-1.59-.66.4-2.9Z" transform="translate(38.5)"/><path class="cls-3" d="M671.51,372.72l.26,1.19-.39,2,.52,1.85-.52,1.45.26,1.32h-7.27l-.53,12.68,2.25,3.31,2.25,2.37-6.48,1.72-8.32-.66-2.38-1.85-14.14.13-.52.27-2-1.72-2.24-.13-2.12.66-1.71.79-.27-2.51.53-3.57,1.32-3.56.13-1.72,1.19-3.57.93-1.72,2-2.64,1.19-1.72.4-2.9-.14-2.25-1.05-1.45-.93-2.38-.79-2.51.13-.79,1.06-1.59-.93-3.83-.79-2.64-1.72-2.51.4-.79,1.45-.53h.93l1.32-.4h10.3l.93,3,.92,2.38.8,1.32,1.32,2,2.38-.26,1.05-.53,2,.53.53-1.06.93-2.25,2.11-.13.27-.79H660l-.26,1.45H664l.13,2.51.66,1.46-.53,2.51.13,2.37,1.19,1.46-.26,4.75.92-.26h1.46l2.24-.53Zm-41-20.47-.92-3,1.45-1.72,1.06-.66,1.32,1.32-1.32.93-.53.92-.13,1.72Z" transform="translate(38.5)"/><path class="cls-2" d="M655.65,166.49v1l-1,.53v1.32l-1.32,1.85-.67-.26-.13-.79-1.85-1.32-.39-2v-2.64l.26-1.19-.53-.66-.39-1.19,1.32-2,.26.79.79-.39.8,1,.79.4.4,1.45-.4,1.33.66,1.71Z" transform="translate(38.5)"/><path class="cls-4" d="M764.65,232.55l.53-.27.26,1.19,2.65-.66,2.9.13,2,.14,2.12-2.78,2.38-2.51,1.85-2.51.79,1.45.79,3h-1.72v2.64l.66.53-1.58.8.13,1.71L777.6,237v1.58l-.53.93-10.57-2.11-1.58-4Z" transform="translate(38.5)"/><path class="cls-5" d="M390.76,546.2h-4.89l-3.7-8.59,1.85,1.85,2.77,2.77,4.76,2.38,4.49.93-.53,1.85-2.64.13Zm-18.9-128.42,7,6.47,2.9.66,4.49,2.91,3.7,1.58.66,1.72-2.51,6.08,3.57,1.06,3.83.66,2.64-.66,2.65-3,.26-3.57,1.59-.79,2,2.37.26,3.18-2.64,2.24-2,1.59-3.44,3.83-3.7,5.42-.26,3.17-.26,4.09.79,4-.53.92.13,2.64.27,2,4.88,3.44v2.77l2.51,1.72.14,2-2,5-4.35,2.12-6.35.92-3.7-.39,1.19,2.37.14,2.91,1.18,2-1.58,1.46-3.17.52-3.57-1.45-.92,1.06,1.58,3.83,2.51,1.19,1.45-1.19,1.46,2-2.51,1.32-1.85,2.38.79,4-.13,2.12h-2.91l-1.85,2v2.91l4.1,2.9,3.17.8.13,3.43-2.91,2.25-.26,4.49-2.25,1.58-.52,1.72,2.51,4,2.9,2.24-1.32-.13-3-.66-7.4-.53L369.09,533l-1.19-2.77-1.85.26L364.33,529l-1.85-4.09,1.72-1.72v-2.38l-1.06-2,.4-3.31-.66-5.28L361.69,508l1.06-.79-.8-1.45-1.71-.79.39-1.59-1.85-1.45-2.24-4.63,1-.79-2.11-4.76-.4-4.09-.26-3.57,1.58-1.45-2-3.83-1.05-3.7,1.85-2.51-.8-3.31.93-4-.79-3.7L353.5,461l-3-6.87,1.32-4.1-1.06-3.83.53-3.7,1.72-3.7,2-2.51-1.32-1.58.53-1.19-.93-6.74,3.44-1.85.79-4.23-.53-.92,2.51-3.7,4.63,1.06,2.24,2.9,1.06-3.3,4,.26Z" transform="translate(38.5)"/><path class="cls-6" d="M728.32,165.56l4.36-.66.92,1.06,1.32.66-.52.92,2,1.46-.66,1.19,1.58,1.05,1.59.66.66,2.78-1.19.13-1.72-2.24-.13-.67h-1.45l-1.19-1.05-.66.13-1.46-1.19-2.64-.92v-2Z" transform="translate(38.5)"/><path class="cls-5" d="M1057.43,491.63l2.24,1.32,2.12-.53,3-.79,1.72.27-2.77,4.62-2,1.45-2.51,3.17-.4-1.05-4.1,2.64-.53-.13-1.84-.13.26-3.44,1.32-2.51.4-3.44,1.19-1.85ZM1088.74,384l.79,3.18,2.51-1.59.79,1.72,1.46,1.58-.66,1.72.13,3.44.13,2,.79.53.27,3.43-.8,2,.53,2.78,3.31,2,2,2,2,1.72-.66.92,1.32,2.51.4,4.36,1.58-.92.93,1.72,1-.53-.52,4.23,1.85,2.37,1.18,1.59,1.85,3.17-.13,3.17-.66,2.25-1.06,2.51.4,3.43L1108,444.6l-1.32,1.85-2.38,3.56-.93,2.38-1.85,2.78-3.17,3.7-3.43,1.85-2.64,3.17-2.12,2-2.77,3.43-2.25,2-2.51,2.9-1.85,2.78-.53,1.19-2.64,1.45-3.83.13-3.83,1.59-2.38,1.58-3,1.72-1.72-1.72-1.58-.79,1.71-2-2.24.66-4.49,2.9-2.25-1.05-1.45-.66-1.72-.27-2.51-1.19-.79-2.37.92-3,.13-2-.79-1.58-2.91-.53,2-2,.52-2.91-2.9,2.78-3.3.66,2.77-2.12,1.59-2.37,2.24-1.85.93-3-4.1,3.43-2.77,1.32-2.65,3.17-1.85-1.58,1.06-2.12-.92-2.9-1.06-1.46.92-.92-3.3-2.51h-2.25l-2.51-2-6.21.39-4.88,1.33-4.23,1.45-3.17-.27-4.36,2-3.17.92-1.46,2.12-2,1.58-2.77.13-2.25.27-2.64-.66-2.64.39-2.38.27-2.78,2.11-.92-.26-2.11,1.19-2.12,1.18-2.38-.13h-2.24l-2.51-2.51-1.46-.79.93-2.25,1.85-.52.92-.93.4-1.45,1.45-2.78.4-2.38-.53-4,.26-2.25.8-2.37-.66-2.51.26-1.19-1.06-1.59L976,438l-1.19-3.17v-1.59l1.06,1.72-.27-3.7,1.46,1.06.66,1.59.39-2-.92-3.17-.13-1.32-.53-1.19.79-2.24.93-.93.79-2.11.13-2.25,1.85-2.9-.26,3,2-2.77,3-1.32,2-1.72,2.91-1.45,1.58-.27.93.53,2.9-1.58,2.25-.4.66-.92.92-.27h2l3.83-1.06,2.24-1.85,1.19-2.11,2.38-2,.53-1.59.4-2.24,3-3.31.93,3.44,1.58-.79-.92-1.85,1.32-2,1.45.79.93-3,2.11-1.85,1.06-1.59,1.85-.66.26-1.19,1.46.53.26-1.05,1.59-.53,1.71-.53,2.38,1.85,1.59,2.24,2.11.14,2.25.26-.53-2.11,2.11-3.17,1.72-1.06-.4-1.06,1.85-2.24,2.25-1.46,1.72.53,3-.79.26-2-2.51-1.32,2-.53,2.25.92,1.58,1.59,2.91,1.05,1.06-.39,2,1.19,2.11-1.06,1.32.26.93-.66,1.32,2-1.19,2.11-1.58,1.59-1.19.13.13,1.58-1.19,2-1.59,2v1l2.51,2.25,2.38,1.32,1.59,1.32,2.11,2.38h.93l1.71,1.06.27,1.19,3,1.32,2.64-1.32,1.06-2.12,1-1.85.8-2.11,1.58-3.17-.13-2,.4-1.19-.14-2.25.93-3,.79-.79-.4-1.32,1.19-2.12.93-2.11.26-1.19,1.46-1.45.66,1.85V376l.79.53v1.71l.92,2v2.24Z" transform="translate(38.5)"/><path class="cls-3" d="M640.33,138l-.13,1.59h-1.72l.66.79-.93,2.51-.52.66-2.65.13-1.58.93-2.51-.4-4.63-.93-.79-1.32-3,.66-.26.66-2-.52-1.72-.14v-.39l-.93-.13.14-.14v-.13l-.27-.13.13-.13-.26-.27.4-.39-.27-.53,1.06-.27,1.58,1.06.4-1.06,2.77.27,2.12-.79,1.45.13,1.06.79.26-.66-.66-2.51,1.06-.53,1.06-1.72,2.37,1.19,1.59-1.58,1.06-.27,2.51,1.19,1.45-.13,1.45.66-.26.53Z" transform="translate(38.5)"/><path class="cls-4" d="M738.36,174.81l-2.38-.53-2-1.85-.79-1.45.66-.13,1.19,1.05h1.45l.13.67Zm4-10.57,1.59-1.58,2.11,2.11,2.25,2.77,1.45.14,1.32,1.19-2.64.26v3l-.26,1.45-1.06.93.53,2-.79.13-2.38-2.11.66-1.85-1.19-1.19-1.06.26-3.3,2.91-.66-2.78-1.59-.66-1.58-1.05.66-1.19-2-1.46.52-.92L733.6,166l-.92-1.06.66-.66,2.64,1.19,1.72.13.4-.39-2-2.12.66-.53.93.14,2.77,2.37,1.46.27Z" transform="translate(38.5)"/><path class="cls-2" d="M690.93,347.09l-.27-4.88-.79-1.72,2.12.26,1-2.24,1.85.26.27,1.59.79.92v1.19l-.93.92-1.32,2-1.32,1.45Z" transform="translate(38.5)"/><path class="cls-3" d="M600,125.8l2.78-.8,2,1.72,1.72.92-.27,2.52-.79.13-.27,2.24-2.77-1.85-1.59.4-2.11-1.85-1.45-1.59H595.8l-.39-1.32,2.38-.79Z" transform="translate(38.5)"/><path class="cls-4" d="M597.26,304.16l-2.91.52-.92-2.77.13-9.12-.66-.92-.14-1.85-1.18-1.45-1.19-1.19.53-2.12,1.18-.39.66-1.72,1.72-.4.8-1.19,1.18-1.19h1.19l2.78,2.25-.13,1.32.79,2.38-.79,1.58.39,1.19L599,291.47l-1.05,1.19-.66,2.51.13,2.64Z" transform="translate(38.5)"/><path class="cls-4" d="M577.84,290.68l-2.38-1.06-1.72.27-1.19.92L571,290l-.53-1.32-1.59-.93-.26-2.24.92-1.72v-1.32l2.78-3.31.53-2.77.92-.92,1.72.52,1.45-.79.53-1.06,2.64-1.85.66-1.18,3.31-1.72,1.84-.53.93.79h2.25l-.27,1.85.4,1.85,2,2.64.13,1.85,4.1.93-.13,2.77-.8,1.19-1.72.4-.66,1.72-1.18.39h-3l-1.72-.39-1.06.66-1.58-.27-6.08.13-.13,2.38Z" transform="translate(38.5)"/><path class="cls-4" d="M906.94,241.27l.4,2.9-1.32-.66.66,3.31-1.32-2.12-.4-2-1.06-2-1.71-2.38-3.17-.13.52,1.72-.79,2.11-1.58-.79-.4.79-1.06-.4-1.32-.39L893.33,238l-1.58-3,.26-2.38-2.37-1.06.52-1.45,2-1.46-2.91-2.11.79-2.78,3,1.72,1.59.27.79,2.77,3.43.53h3.17l2,.66-.93,3.3-1.58.27-.66,2.24,2.11,2.12.26-2.51.93-.13Z" transform="translate(38.5)"/><path class="cls-6" d="M659.48,153.14l1.19,1.59,1.19-.27,2.51.67,4.63.13,1.45-.93,3.7-.92,2.51,1.32,1.85.53-1.45,1.58-.8,2.78,1.33,2.24-2.78-.52-3.17,1.32.26,1.85-2.9.39-2.51-1.32-2.38,1.06-2.38-.13-.53-2.65-1.72-1.19.4-.52-.4-.53.4-1.19,1.19-1.32-1.72-1.72-.53-1.32Z" transform="translate(38.5)"/><path class="cls-4" d="M321.53,234.4l-.8.26-.66-2.25L319,231.23l1.05-2.51,1.06.13.79,3.3Zm.79-11.23-3.83.66v-1.46l1.58-.26,2.25.13Zm2.77,0-1,2.9-.53-.53.39-2.11-1.32-1.58.13-.4Z" transform="translate(38.5)"/><path class="cls-5" d="M647.73,150.63h1.19l-.67,1.72,1.72,1.59-.39,1.85-.66.13-.53.39-1.06.93-.26,2.11-2.91-1.45-1.32-1.72-1.32-.79-1.59-1.45-.79-1.32-1.72-1.85.53-1.59,1.32.92.53-.79,1.45-.13,2.78.66h2.24Z" transform="translate(38.5)"/><path class="cls-4" d="M657.37,115.75h2.91l2.9-1.45.4-2.11,2.25-1.19-.66-1.72,1.71-.53,2.91-1.45,3.17.92.66.93,1.45-.53,3,.92.53,1.72-.39,1.06,2.37,2.51,1.32.66v.66l2.12.66,1.06,1.06-.93.79-2.51-.13-.53.39,1.06,1.33,1.19,2.37-2.64.27-.66.79.13,2-1.32-.39-2.65.13-.92-.93-1.06.66-1.19-.52h-2.51l-3.43-.93-3.17-.26h-2.25l-1.45,1-1.46.14-.26-1.72-1.19-1.72,1.59-.79-.14-1.46-1.05-1.45Z" transform="translate(38.5)"/><path class="cls-2" d="M278.45,258.18v-.53l.4-.26.66.52,1.59-2.51h.66l-.13.66h.66l-.14,1.06-.79,1.72.13.66-.52,1.32.26.4-.66,2-.79,1.06-.66.13-.8,1.45h-1.05l.79-4.49Z" transform="translate(38.5)"/><path class="cls-5" d="M356.93,419.76l-2.37.53-2-5.55-2.37-4.49.66-3.84-2-1.71-.66-2.78-2-2.77,1.72-4.23-1.72-3.43.66-1.33-.79-1.45,1.19-2-.13-3.44v-2.77l.66-1.32-3.44-6.48,2.64.4,1.72-.13.79-1.19,2.91-1.59,1.85-1.45,4.49-.79-.26,3,.53,1.58-.13,2.64L363,378.8l4,.66,1.46,1.46,2.38.79,1.45,1.19h2.25l2.11,1.05.26,2.38.8,1.19.13,1.72h-.93l1.59,4.62,6.74.27-.4,2.24.53,1.59,2,1.06,1.06,2.51-.4,3.17-.79,1.71.53,2.25-.93.79-.26-1.19-3.44-2-3.17-.13L374,407.34l-1.32,3.57.13,2.11-.93,4.76-.53-.8-4-.26-1.06,3.3-2.24-2.9-4.63-1.06Z" transform="translate(38.5)"/><path class="cls-2" d="M393.13,449.49l3.7-5.42,3.44-3.83,2-1.59,2.64-2.24-.26-3.18-2-2.37-1.59.79.4-2.25.26-2.37-.26-2.25-1.32-.66-1.19.66-1.32-.26-.53-1.46-.66-3.7-.8-1.19-2.37-1.05-1.33.79-3.69-.79L388,411.7l-1.19-2.25.93-.79-.53-2.25.79-1.71.4-3.17L387.32,399l-2-1.06-.53-1.59.4-2.24-6.74-.27-1.59-4.62h.93l-.13-1.72-.8-1.19-.26-2.38-2.11-1.05h-2.25l-1.45-1.19-2.38-.79L367,379.46l-4-.66-4.09-3.57.13-2.64-.53-1.58.26-3-4.49.79-1.85,1.45-2.91,1.59-.79,1.19-1.72.13-2.64-.4-2,.67-1.59-.4-.13-6.08-2.77,2.38-3-.13L333.42,367l-2.38-.26.66-1.72-2-2.38-1.59-3.56.79-.8v-1.58l2.12-1.19-.53-2.11.92-1.46.14-1.85,4-2.64,2.91-.79.39-.66,3.17.26,1.33-11,.13-1.72-.53-2.25-1.59-1.45V327l2-.66.66.4.13-1.59-2-.39-.14-2.51,6.87.13,1.19-1.32,1.06,1.19.66,2.37.66-.52,1.85,2.11,2.78-.27.66-1.18,2.64-.93,1.45-.66.4-1.72,2.51-1-.13-.93-2.91-.26-.53-2.51.27-2.78-1.59-.92.66-.4,2.64.53,2.78.92.92-.92,2.64-.66,4-1.45,1.32-1.46-.4-1.19,1.72-.13.79.93-.39,1.71,1.19.66.66,1.85-.93,1.32-.66,3.44.93,2,.13,1.85,2.24,1.85,1.72.27.4-.8,1.05-.13,1.59-.79,1.19-1.06,2,.4.79-.14,2,.27.26-.79-.53-.8.27-1.19,1.45.4,1.72-.4,2,.8,1.58.92,1.06-1.19.79.27.4,1.05,1.72-.26,1.32-1.59,1.19-2.9,2.11-3.57,1.19-.26.93,2.24,1.85,7,1.84.67.14,2.64-2.78,3.3,1.19,1.19,6.21.66.13,4,2.65-2.51,4.49,1.32,5.81,2.52,1.72,2.24-.53,2.25,4.1-1.19,6.87,2.11,5.28-.13,5.15,3.3,4.63,4.36,2.64,1.19,3,.13,1.32,1.33,1.32,5,.53,2.37-1.19,6.61-1.72,2.64-4.75,5.55L456,377.61l-2.51,3.44-.79.13-.93,2.91.67,7.4-.67,6.21-.26,2.64-1.06,1.58-.26,5.29L447,412.36l-.4,4.23L444,418.31l-.66,2.37h-3.7l-5.29,1.46L432.11,424,428.28,425l-3.7,3.17-2.51,4-.27,3,.8,2.24-.14,4-.52,2-2.12,2.11-2.77,7-2.51,3.18-2,1.84-.93,3.84-1.85,2.24-1.32-2.24,1.19-1.85-2.38-2.78-3-2.11L400.4,452l-1.19.13-4-3Z" transform="translate(38.5)"/><path class="cls-4" d="M989.25,311.16l1.32-1.59,2.91-2.11-.13,2V312l-1.72-.13-.66,1.32Z" transform="translate(38.5)"/><path class="cls-2" d="M899.54,218.41l1.72,1.32.27,2.51-2.78.13-2.91-.26-2.11.53-3.3-1.46-.27-.79,1.59-3,1.72-.92,2.64.92h1.72Z" transform="translate(38.5)"/><path class="cls-4" d="M689.08,417.12l-5,2.9-3.17,3-1.32,2.64-1.06,1.46-1.85.39L676,429.4l-.53,1.32-2.11.93-2.78-.26L669,430.33l-1.46-.53-1.71.92-.93,1.85-1.72,1.33-1.71,1.71L659,436l-.66-1.45.39-2.38-1.85-3.83-.92-.53.39-11.63,3.44-.13.53-14.27,2.51-.13,5.41-1.32,1.33,1.58,2.24-1.58h1.06l2-.8.66.27,1.19,3.17.66.66.93,2.38,3.83,4.36,1.45.39-.13,1.46.92,2.51,2.65.66Z" transform="translate(38.5)"/><path class="cls-2" d="M641.38,299.53l2.91-.26.66-1.06.53.13.93.93,4.35-1.59,1.46-1.58,1.85-1.33-.4-1.45,1.06-.39,3.3.26,3.3-1.85,2.51-4.36,1.72-1.59,2.25-.66.39,1.72,2.12,2.51v1.59l-.53,1.71.26,1.19,1.19,1.19,2.65,1.72,2,1.59v1.32l2.51,2.11,1.45,1.72.93,2.38,2.64,1.58.53,1.19-1.19.4h-2.25l-2.64-.53-1.32.4-.53.92-1.06.13-1.45-.79-3.83,2-1.59-.4-.53.27-1,2.38-2.65-.66-2.51-.4-2.24-1.45L656.18,309l-1.85,1.32-1.45,2-.27,2.77-2.24-.13-2.38-.66-2.11,2.11-1.85,3.7-.27-1.19-.26-1.85-1.59-1.32-1.32-2-.26-1.45-1.72-2.12.26-1.19-.26-1.58.13-3.17.93-.66Z" transform="translate(38.5)"/><path class="cls-2" d="M388.77,144l2.12.53,3-.14-2.12,1.72-1.19.13-3.43-1.58-.4-1.32,1.59-1.19Zm9-9.91-1.46.13-3.56-1.19-2.25-1.85,1.19-.39,3.7,1.05,2.51,1.59Zm-191,2.38-2,.53-3.83-1.85v-1.33l-1.85-1.32.13-1.19-2.64-.66.4-2.11.92-.79,2.51.79,1.46.53,2.64.39v1.33l.39,1.85,2,1.58ZM417.18,128l-3.17,3.3,2.38-1.18,1.85.79-1.46,1.32,2.38,1.06,1.72-.93,2.64,1.19-1.72,2.77,2.38-.66-.26,2.12.39,2.38-2.24,3.43-1.46.13-1.85-.66,1.59-3.17-.79-.53-4.49,3.31-1.85-.14,2.64-1.71-2.64-1.06-3.44.26-5.94-.13-.14-1.06,2.38-1.45L405,136.36l3.31-2.24,5.15-6.21L416,125.8l3-1.33,1.45.14-.92,1ZM194.56,115.23h0l3.17-.27-4.49,4.36.13,3h-1.19l-.39-1.85.39-1.72-.53-1.19.8-1.58,1.18-1.32Zm175.06-30-2.25,2-1.06-.4-.13-1.06.27-.26,1.71-1.06,1.19.13Zm-6.08-2-4.49,2H357.2v-1l3.17-1.59h3.7ZM361.69,73,361,74.4l1.72-.53.92.93L365.79,76,368.16,77l-.79,1.72,2.11-.26,1.19,1.19-3,1L363.94,80l-.53-1.59-3.83,1.85-5.16,1.85.4-2.11-3.83.4,3.57-1.72,2.24-2.78,3-3.3Zm27.88-5.15-3,.13.39-1.72,2.38-1.85,2.64-.53,1.46.93-.93,1.45-.53.53Zm-46.24-6.74-2.65,1.19-2.51-1.06-2.38.4-2.24-1.46,3.17-1.05,3-1.46,1.85.93,1.05.66.14.66Zm32.76,88.52-1.32-2.25,1.85-5.28-.93-1.06-2.37.66-.66-1.06-3.44,2.91-2,3-1.72,1.72-1.58.66-1.06.26-.66.92H351.65l-1.72.8-4.36,2.77-.53.27-1.58,1.58h-6.08l-1.72.66.27.8-.14,1.18-.26.4-4.89,1.85-3.43.66-4.5,2.11h-.79l-.92-.66-.13-.52.26-.4,1.19-1.32,2.24-2.25,1.85-2.24.8-3.44.66-3.57-2.51-1.85.66-.66-.27-.52H325l-.4-.67.27-.92-.79.4h-.8l.4-.4-.66-.4.13-1-1.85-1.19-2-1.32-2.38-1.59-2.24-1.32-3.18,1.06h-1.05l-3.31-.93-2.77.4-2.51-1.19-2.77-.53-2.12-.26-.53-.66.53-2.12h-1.06l-.79,1.45H209.62l-3.43-3.83-1.06-1.58-4.36-1.59.92-3.43,2.12-2.38-2.51-1.59,2-3L202,114.3l1.58-2,3.17-1.72,1.85-2.38-2.77-2.37.79-4.23.8-2.64-1.06-1.72-.53-1.46.4-2-4,1.19-4.75,2.12-.14-2.38L196.94,93l-1.72-.93L192.58,92l22.19-20.21L230,59.08l3.7.79,2.11,1.58,2.25.4,4-1.45,4.36-1.06,3.3.4,5.42-1.46,5.15-.79.13,1.32,2.78-.79,2.38-1.59,1.32.4.92,3,5.95-2.25-2.51,2.51,3.7-.53L277,58.55l2.78.26,2.37,1.32,4.76,1.32,2.91.53,2.77-.26,1.72,1.72L289,65.15l4,.8,7.4-.4,2.77-.66.93,2.11,4.36-1.72-1.33-1.45,2.78-1.19,3.3-.13,2.38-.4,1.32.8.93,1.85,3-.27,3.3,1.59,4.49-.53h3.7l1.45-2.11,2.78-.53,3,1.05L337,67.27l3.83-2.78,2.12.13,3.83-3.43-.92-2L344,57.75l3.56-3.56,5-2.38,2.78.53,1.32,1.45.13,3.7-3.57,1.59,4.1.66-2.64,3.43,5.41-2.64,1.46,2.24-2.64,2.51.79,2.25,4.49-2.38,4.1-3,2.9-3.56,3.31.26,3.43.4,2.25,1.71-1.06,1.72L376,64.36l.53,1.85L375,67.93l-6.73,2.38-4.1.52-2-1-2,1.71-4.63,2.91L353.76,76l-4.89,2.37-4,.27-3.17,1.45-1.85,2.38-3.57.4L331,85.76l-6,4.1-3,2.77L319,97l3.69.53-.92,3.44-.53,2.9,4.49-.79,4.36,1.59,2.12,1.45,1,1.72,3,1,2.25,1.59,4.76.26,2.9.4L344,114.3l-1.06,3.83.13,4.23,2.64,3.7,2.91-1.32,3.57-3.83,1.32-6.08-1.06-2,5.68-1.72,4.63-2.64,2.9-2.64,1.06-2.52-.26-3-1.85-2.78L370,93.69l.66-3.3,2.38-5.68,2.38-.8,4.23.93,2.64.39,2.77-.92,1.85,1.19,2.25,2.11.13,1.32,4.76.27-1.59,3L391,96.86l2.38.66,1.06,2.12,5-2,4.62-4.09,2.64-1.72.66,3.3L409,99.77l1.32,4.49-2.11,2.38,3,2.11,1.72,2.12,4.36.92,1.45,1.19v3.3l2.12.4.66,1.45-1.19,4.36L417.71,124l-2.64,1.32-5.55,1.32-4.89,3.17-5.29.66-6.21-.79-4.62-.14-3.3.27-3.57,2.77-4.49,1.72-6.34,5.15L365.92,143l2.9-.66,6.87-5,7.53-3.3,4.76-.4,2.12,2-3.84,2.64-.39,4.1v2.91l3.56,2,5.29-.53,4.49-4.36-.66,2.77,1.59,1.46-4.63,2.51-7.66,2.38-3.7,1.58-4.36,2.78-2.38-.27.93-3.3,6.6-3.3-5.15.13ZM310.16,48l-2.9,1.45,6.47-.92,1.59,1.58,4.62-1.58,1.06.92-1.32,3.3,2.64-1.45,1.85-3.3,2.64-.4,1.85.53L330,49.43l-1.72,3-1.58,2.38,2.64,1.58L332.49,58l-1.72,1.45-4.36.27.53,1.32-2,1.19-4.23-.53-3.56-.93-3.18.27-5.81,1.19-7,.39-4.89.4.13-1.59-2.51-.92-2.64.39-.4-2.64,2-.39,4.49-.53,3.43.13,4-.66-4.1-.66-5.68.26-3.44-.13V55.11l7.27-1.32h-4L291.53,53l4.89-2.51,3.17-1.19,8.86-2Zm24.58-1.06L330.38,49l-1.46-2.24,1.33-.4,3.43-.13ZM402.12,48l-.53.92-2.51-.13h-2.51l-3,.4L393,48.9l-1.32-1.58,1.06-1.19,1.32-.27,5.28.4Zm-24.71-.13.13,2,4.5-2.65,7.26-1.32,1.46,3.31-2.12,2.11,5.68-.92,3.31-1.19,4.22,1.58,2.25,1.59-.66,1.32,5-.66,1.19,2.11,5.28,1.19,1.32,1.45.53,3-5.68,1.59,4.76,2.24,3.7.8,2.11,3,4,.26-2.12,2.38-6.74,4.09-2.51-1.45L412,70.31l-3.7.52-1.46,2,1.72,2,2.78,1.58.52.93v3.56l-2.24,2.52-2.91-.93-5.28-2.91,2.24,3.17,1.72,2.12-.26,1.32-6.74-1.45-4.76-2.12-2.24-1.72,1.45-1.05-3-1.85-2.91-1.59-.52.93-8.06.66-1.59-1.32,3.44-2.51,5-.14,5.68-.39-.13-1.19,2-1.85,5.55-3.3.13-1.46-.27-1.19-2.9-1.71-4.36-1.06,2.11-.93-1.19-2.11-2.11-.13-1.19-1.19-2.11,1.06-4.89.39-8.72-.79-4.49-.92-3.7-.53-1.19-1.06,4-1.59H363.8l2.12-3.3,4.36-2.9,3.7-1.19,7-.93ZM346.1,45.6l2.25.66,4.62-.4-.26.93L349,48.37l2.24,1.32-3.17,2.91-5.28,1.32-2.12-.26-.53-1.32-3.56-2.51,1.05-.93,4.63.4-.66-2.12Zm14,3.43-4.88,2.38-2.65-.13,1.19-2.77,1.59-1.59,2.51-1.32,3.3-.93,4.89.14,3.83.79-6.21,2.77Zm-71.87,4.5-8.45,1.58.39-1.45-3.56-1.72,2.64-1.32,4.62-2.38,4.76-2.11.26-1.85,8.72-.53,2.51.66,5.95.13,1.19.93.92,1.32-4,.79-8.59,2.25-5.81,2.24ZM365.92,42l-2.51,1.19-3.31-.13-2-.93,2.78-1.32,4.22-.79.93,1.06Zm-5.68-5.28.26,1.45-1.72,1.59L355.22,42,351,42.3l-2.12-.53L351,40.05l-4.1.26,2.64-2.37,2.38.13L356.67,37l3,.13Zm-24.31,1.58-.53,1.06,2.77-.53,2.25.13-1.32,1.59L335.93,42l-8.59.4-7.66,1.45H316l.92-1.06,6.61-1.32-11.23.4-2.51-.53,7.13-3,3.44-.79,5.15.92,1.85,1.85,3.83.27.26-2.91L335,36.62l2,.26Zm34.48-2.64,1.45.93h4.49l.93.92-1.72,1.19,2,.66.8.79,3,.13,3.17.27,4.36-.66,5-.27,3.56.14L399,41l-.53,1.32-2.25.79-4.09.66-2.78-.4-7.26.53h-4.89l-3.57-.39-5.28-.93.92-1.72,1.32-1.58-.92-1.32-4.36-.27-1.72-.92,2.38-1.32Zm-47-1.59-3.57,2.25-3.3,1.06-2.38.13-6.08,1.19-4.36.53-2.25-.66h0l7.14-2.25,7.53-2,3.43.13Zm50.33.27-1,.13-4.1-.13.4-.93,4.49.14,1.06.52Zm-36.46-.53-5.42.93-2.11-.93,3.17-.92,3.7-.4,2.64.53Zm4.89-2.64-3.57.66h-3.7l.66-.4,3.44-.92,1,.13Zm28.93,1.58-4,.66-1.06-.66.4-1.05,1.32-1.19h2.77l1.06.26,1.45.93Zm-8.46-.66L362,33.31l-3.3-.39L356.14,32l-4.89-.13,3.31-.79-1.72-.66,1.45-1.19,3.7.39,4.62,1.06Zm33.69-3.83,1.59.93-4,.79-6.74,2.11-4.1.27-4.36-.4-.92-1.19,1.32-1.06,2.77-.66h-4.09l-1.19-.92.13-1.32,3-1.19L382.3,25l2.51-.27-.13-.52,5.15-.14.93,1.33,3,.52,2.91.53Zm49.15-8.72,5.29.27,4.23.26,3.17.66-.66.53-6.08,1.06-5.55.52-2.51.53h4.76L441.62,25l-4.23.66-5.81,2.25-5,.39-2,.66-7,.27,2.64.39-2,.4.39,1.45-3,1.06-4.36.79L409,34.5l-4,.79-.39.66,4.09-.13-.66.8-7.92,1.84-5.29-.92-7.27.53-3-.4-4.23-.13,1.19-1.45,5-.66,1.19-2.12,1.58-.26,4.76,1.32L393,32.52l-3-.66,3-1.06,4.76-.66,1.72-1.06-1.72-1,.66-1.46,5.81.14,1.46.26,4.49-.92-4.63-.27-7.79.13L395,25.12l-.52-1.06L393,23.27l.53-.79,3.83-.53h2.51l4.63-.4,4.22-.92,2.51.13,1.46.66,3-1.19,3.3-.39,4-.27,6.48-.13.79.26,6.47-.39,4.36.13Z" transform="translate(38.5)"/><path class="cls-2" d="M617.47,140.33l.27.53-.4.39-.13.4.13.26-.13.14.26.13.13-.13.93.13v.39l1.72.14-.14,1.58-1.32.66-2.38-.39-.52,1.45-1.59.13-.53-.53-1.72,1.32-1.45.14-1.45-.8-1.06-1.71-1.45.52v-1.71l2.11-2.12-.13-1.05,1.45.39.8-.66h2.64l.66-.79Z" transform="translate(38.5)"/><path class="cls-6" d="M382.17,537.61l3.7,8.59h4.89l-.27,1.58-2,1.19-1.45-.13-2-.4-2.64-1.05-3.3-.53-4.62-2.12-4-2.11-6.08-4.23,2.78.79,5.42,2.51,4.49,1.46.79-1.72-.26-2.64,2.11-1.59ZM356.93,419.76l.53.92-.79,4.23-3.44,1.85.93,6.74-.53,1.19,1.32,1.58-2,2.51-1.72,3.7-.53,3.7,1.06,3.83-1.32,4.1,3,6.87,1.06.66.79,3.7-.93,4,.8,3.31-1.85,2.51,1.05,3.7,2,3.83-1.58,1.45.26,3.57.4,4.09,2.11,4.76-1,.79,2.24,4.63,1.85,1.45-.39,1.59,1.71.79.8,1.45-1.06.79,1.19,2.25.66,5.28-.4,3.31,1.06,2v2.38l-1.72,1.72,1.85,4.09,1.72,1.45,1.85-.26,1.19,2.77,2.24,2.25,7.4.53,3,.66-2.64-.13-1.06,1.05L376,538.67l1.06,3.56-1.19.13-4-1.32-4.49-2.64h0l-4.76-2.11-2.11-2.51-.13-2.25L357.86,529l-3.17-6.61-.13-3.69,2.11-3-5.15-1.06,1.71-3.57-1.32-6.47L356,506l-1.19-8.19-2.51-1.06.66,4.89-2.11-.53-.93-5.68-1.19-7.26.66-2.65-2.11-4-1.45-4.49,1.32-.13.39-6.35.66-6.34.14-5.94-2-6.08.27-3.17-1.32-5,1.19-4.76-.53-7.79v-8.19l.13-9L345,407.87l-1.32-5.68,1.72-.93.79-2.11,2,2.77.66,2.78,2,1.71-.66,3.84,2.37,4.49,2,5.55Z" transform="translate(38.5)"/><path class="cls-5" d="M970.1,254.74l-2.78,1.85-3-1.19-.66-3.43,1.45-1.85,3.57-1.06,2,.13,1.06,1.46-1.19,1.71ZM984.5,132.8l5.55,2.77,3.69,3.7h4.76l1.59-1.58,4.36-1.06.79,3.43-.27,1.46,1.85,4.23.4,3.83-4.36-.66-1.72,1.32,2.91,3.43,2.38,4.63H1005l1.19,2.11-3.43-2.38v2.25l-4,1.72,1.71,2-2.9-.13-2.25-1.19-.66,2.77-2.38,2.11L991,170.05l-4,1.19-1.46,1.85-3,1.06.8-1.85L982,170.85l1.19-2.64-2.78-2.12-2.11,1.32L976,170.19l-.79,2.64-3.17.13-.8,1.85,3,2.64,2.91.66.92,1.85,3.18,1.19,2.37-2.9,3.57,1.58,2.25.13,1.45,2-4.23,1.18-.66,2.12-2.24,2-.66,2.77,4.49,2.25,2.9,3.83,3.31,3.7,3.43,3,1.06,3-1.85,1.06L998.1,209l2.38,1.19.53,3.3v3.17l-1.72.4L998,221.32l-1.45,5.28-2.11,4.76-4,3.7-4.09,3.3-3.84.4-1.71,1.85-1.46-1.33-1.58,2-4.49,2-3.44.66-.53,4.23-1.85.13L966,245.36l.53-1.45-4.76-1.32-1.58.66-3.57-1.06-2-1.58.13-2.25-3.17-.79-2-1.46-2.51,2.12-3.31.39H941l-1.72,1.06-1.58.53,1.19,4.49h-1.85l-.4-.92-.4-1.72-2.38,1.19-1.58-.79L929.54,241l.39-3.3-2.24-.79-1.46-3.7-3.57.66-.26-4.63,2.51-3.43-.53-3.3-.79-3-1.72-.93-1.72-2.38-1.84.4-3.84-.66.8-1.59L913,211.8l-2,1.59-3-.93L904.7,215l-2.51,3-2.65.4-1.71-1.06h-1.72l-2.64-.92-1.72.92-1.59,3-.92-3.17-1.85.79-4.1-.39-4.09-.93-3-1.71-2.78-.8-1.58-1.85-2-.66-4-2.51-3-1.19-1.19.93-5.29-2.78-3.83-2.51-2-4.49,2.51.53-.4-2-1.85-2-.53-3.31-4.75-4.62-6-1.72-1.72-3-3-1.85-.93-1.05-1.06-2.25-.39-1.59-2.25-.92-.92.4-1.85-3.7.66-.93-.79-.92,2.51-1.85,2-.8,3.7.53.39-2.51,4-.39.53-1.59,4.35-2.11.14-.93-1.06-2.24,1.85-1.06-5.55-6.74,5.68-1.58L847,148l-.66-7,6.74,1.32,1.06-1.72-1.59-4,2.38-.4,1.19-2.51,1-.26,2,2.64,3.56,2.11,5.16,1.46,3.56,3,.8,4.62,1.85,1.72,4.09.66,4.49.53,4.89,2.38,2.25.52,3,3.57,2.9,2.38,3.57-.13,7,.92,4-.53,3.43.53,5.81,2.38h3.84l2.11,1.19,2.64-2.11,4.63-1.33,4.62-.13,3-1.45,1.19-2.12,1.58-1.32L942,153.8l-1.85-1.58.27-2.51,2,.39,3.7.8,2-2.12,4-1.45.79-2.64,1.58-1.06,4.23-.53,2.64.4-.39-1.32-4.49-2.78-3.31-1.19-1.45,1.33-3.44-.53-1.45.53L945,138l-.26-4-.27-2.91,4.5,1.45,2.77-2.37-1.19-1.72v-4.1l.79-1.19L949.75,121l-2.38-.93,1.06-1.85,3.17-.66,4-.13,5.29,1.06,3.7,1.45,4.75,3.83,2.38,1.72,2.78,2.25,3.83,3.83Z" transform="translate(38.5)"/><path class="cls-4" d="M577.7,309.18l-1.58.13-2.51-.79h-2.25l-4.09.66-2.51,1.18-3.44,1.46-.66-.13.26-3.17.27-.53V306.4l-1.59-1.72-1.05-.26-1.06-1.06.79-1.72-.26-2,.13-1.19h.53l.26-1.71-.26-.8.26-.52,1.32-.53-.79-3.17-.79-1.59.26-1.32.66-.4.53-.39.93.66h2.64l.66-1.19.66.13,1.06-.4.53,1.72.79-.53,1.45-.66,1.59.93L571,290l1.58.79,1.19-.92,1.72-.27,2.38,1.06.92,5.68-1.45,3.3-.93,4.63,1.46,3.3Z" transform="translate(38.5)"/><path class="cls-6" d="M633.72,320.14l-.39-.26-2.12.53-2.11-.53-1.72.26L621.7,320l.53-3.17-1.46-2.64-1.58-.66-.66-1.72-.93-.66V310.1l.93-2.77,1.58-3.84,1.06-.13,2.11-2.24,1.33-.14,2,1.72,2.38-1.45.39-1.59.66-1.58.53-2,2-1.72.66-2.78.66-.92.53-2,.93-2.65,2.9-3,.14-1.33.39-.66-1.45-1.58.13-1.32.93-.27,1.45,2.65.26,2.64-.13,2.64,2,3.57h-2l-.92.26-1.59-.39-.79,1.85,2.11,2.37,1.59.66.39,1.59,1.19,2.77-.53,1.06-1.71,4.1-.93.66-.13,3.17.26,1.58-.26,1.19,1.72,2.12.26,1.45,1.32,2,1.59,1.32.26,1.85.27,1.19-.14,2.12-2.9-.93-2.78-1.06Z" transform="translate(38.5)"/><path class="cls-2" d="M697.4,320.41l-1,1.32-1.33,1-1.45,2.12-.66,1.85-.26,3.17-.8,1.58v2.91l-1.05,1.19-.14,2.38-.52.26-.27,2.25.79,1.72.27,4.88.53,3.57-.4,2.11.66,2.38,2,2.25,1.85,5-1.32-.53-4.75.79-.93.4-1.06,2.51.8,1.85-.8,4.62-.52,4.1.92.66,2.38,1.59,1.06-.8.13,4.36h-2.64l-1.46-2.24L686.17,378l-2.64-.53-.79-2.11-2.12,1.32-2.77-.66-1.19-1.72-2.25-.4-1.58.14-.13-1.33h-1.19l-1.59-.26-2.24.53h-1.46l-.92.26.26-4.75L664.37,367l-.13-2.37.53-2.51-.66-1.46-.13-2.51h-4.23l.26-1.45H658.3l-.27.79-2.11.13-.93,2.25-.53,1.06-2-.53-1.05.53-2.38.26-1.32-2-.8-1.32-.92-2.38-.93-3h-10.3l-1.32.4h-.93l-1.45.53-.53-1.19.93-.53.13-1.72.53-.92,1.32-.93.92.4,1.19-1.46h1.85l.27,1.19,1.32.66,2.11-2.51,2-2,.93-1.19-.14-3.3,1.59-3.83,1.59-2.12,2.37-2,.4-1.19.13-1.45.53-1.45-.26-2.25.52-3.57.67-2.37,1.05-2.12.13-2.51.27-2.77,1.45-2,1.85-1.32,2.91,1.46,2.24,1.45,2.51.4,2.65.66,1-2.38.53-.27,1.59.4,3.83-2,1.45.79,1.06-.13.53-.92,1.32-.4,2.64.53h2.25l1.19-.4,2.24,3.3,1.59.53.92-.66,1.59.27,2-.93.79,1.72,3.17,2.64-.13,4.63Z" transform="translate(38.5)"/><path class="cls-5" d="M633.46,348.15l-1.32-1.32-1.06.66-1.45,1.72L626.72,345l2.77-2.25-1.32-2.64,1.19-.92,2.38-.53.26-1.72,1.85,1.85L637,339l1.06-2,.4-2.64-.4-3L636.5,329l1.45-4.62-.79-.79-2.65.26-1-2,.26-1.72,4.49.13,2.78,1.06,2.9.93.14-2.12,1.85-3.7,2.11-2.11,2.38.66,2.24.13-.13,2.51-1.05,2.12-.67,2.37-.52,3.57.26,2.25-.53,1.45-.13,1.45-.4,1.19-2.37,2-1.59,2.12L643.89,340l.14,3.3-.93,1.19-2,2L639,348.94l-1.32-.66-.27-1.19h-1.85l-1.19,1.46Z" transform="translate(38.5)"/><path class="cls-2" d="M322.45,329.79,321,328.73l-1.72-1.32-1.06.66-3-.53-.79-1.72-.66.13-3.43-2.37-.53-1.19,1.32-.27-.13-2,.92-1.45,1.72-.27,1.45-2.51,1.46-2.11-1.19-.93.66-2.37-.66-3.57.79-1.06-.4-3.43-1.32-2.12.53-2,1.06.4.79-1.19-.79-2.38.53-.53h1.71l2.78-2.77,1.45-.4.13-1.32.93-3.3,2.11-1.85,2.12-.13.39-.8,2.64.27,2.91-2,1.45-.93,1.85-1.85,1.19.27.93,1-.8,1.32-2.37.66-.93,2-1.45,1.18-1.06,1.46-.66,2.77-1.06,2.38,1.85.27.27,1.84.79.93.13,1.58-.39,1.46v.79l.92.4.79,1.32,4.5-.4,2,.53,2.38,3.44,1.45-.4,2.51.13,2-.39,1.32.66-.79,2.11-.79,1.45-.4,2.78.66,2.64.93,1.19.13.92-1.85,2,1.32.92.92,1.32,1.06,4-.66.52-.66-2.37-1.06-1.19-1.19,1.32-6.87-.13.14,2.51,2,.39-.13,1.59-.66-.4-2,.66v2.91l1.59,1.45.53,2.25-.13,1.72-1.33,11-1.85-2.11-1-.14,2.24-4.09-2.77-1.85-2.11.4-1.33-.8-1.85,1.06-2.64-.4-2.11-4.22-1.59-1.06-1.19-1.85-2.37-1.85Z" transform="translate(38.5)"/><path class="cls-2" d="M296.69,296.36l-1.85-.92-.66-.8.39-.66v-.92l-.92-.93-1.32-.79-1.19-.53-.13-1.19-.93-.66.13,1.19-.79.93-.66-1.19-1.19-.4-.4-.79.14-1.19.53-1.19-.93-.66.79-.66.66-.53,2.25,1.06.79-.53,1.06.26.53.93,1.05.26.93-.92.66,2.24,1.32,1.59,1.45,1.72-1.32.26-.13,1.59.79.66-.52.39v.79l-.27.8Z" transform="translate(38.5)"/><path class="cls-4" d="M305,236.77l2.91.27h2.77l3,1.32,1.19,1.59,3.17-.53,1.19.92,2.51,2.51,2,1.72H325l2,.79-.39,1.19,2.51.13,2.37,1.59-.52.92-2.38.53-2.25.27-2.38-.4-5,.4,2.65-2.25-1.33-.92-2.24-.27-1.06-1.19-.53-2.24-2,.13-3-1.06-.92-.92-4.36-.53-1.19-.79,1.45-1.06-3.3-.13-2.78,2-1.45.13-.66.93-1.72.52-1.45-.39,2-1.32.93-1.46,1.71-.79,1.85-.79,2.65-.4Z" transform="translate(38.5)"/><path class="cls-4" d="M696.35,189.08h.13l.39-.92h2.38l2.91-1.19-2.11,1.71.39.8.13.26-3.17,1.59-1.71-.53-.93-1.59Z" transform="translate(38.5)"/><path class="cls-6" d="M640.06,136.1l-1.45-.66-1.45.13-2.51-1.19-1.06.27L632,136.23,629.63,135l-1.85-1.71-1.72-.93-.4-1.58-.66-1.19,2.25-.8,1-.92,2.12-.79.66-.8.79.53,1.32-.39,1.59,1.18,2.38.4L637,129.1l1.72.79.4-1.06,2.11.4.4,1.32,2.24.13,1.59,2h-.92l-.4.66-.66.13-.13.92-.53.13v.4l-1.06.4h-1.32Z" transform="translate(38.5)"/><path class="cls-6" d="M616.94,111.66l.13,1.45,3,.93v1.32l3-.66,1.59-1.06,3.43,1.45,1.46,1.19.92,2-.79,1.06,1.19,1.32.92,2-.13,1.33,1.45,2.51-1.32.39-.79-.53-.66.8-2.12.79-1,.92-2.25.8.66,1.19.4,1.58,1.72.93,1.85,1.71-1.06,1.72-1.06.53.66,2.51-.26.66-1.06-.79-1.45-.13-2.12.79-2.77-.27-.4,1.06-1.58-1.06-1.06.27-3.3-1.19-.66.79h-2.64l.39-2.77,1.45-2.65-4.49-.79-1.45-.92v-1.72l-.53-.92.27-2.52-.67-4.09h1.72l.79-1.45.53-3.44-.53-1.32.53-.79,2.38-.14.66.8,1.85-1.85-.66-1.46-.26-2.11,2.24.53Z" transform="translate(38.5)"/><path class="cls-4" d="M738.23,278.52l.92,1.19v1.72l-2,.93,1.59,1.05-1.33,2.12-.79-.66-.79.26h-2l-.13-1.19-.27-1.19,1.06-1.85,1.19-1.72,1.58.27Z" transform="translate(38.5)"/><path class="cls-2" d="M624.87,109.28l-1.59,3-3.17-2.11-.52-1.46,4.22-1.32Zm-7.93,2.38-1.85.66-2.24-.53-1.32-2.11-.27-3.83.4-.93.79-1.19,2.51-.26.93-.93,2.24-1.05v1.84l-.79,1.19.53,1.06,1.58.53-.66,1.45-.92-.39L616,109.81Z" transform="translate(38.5)"/><path class="cls-3" d="M489.84,20.76l7.93-1.45,7.14.13,3.17-.79,7.4-.27,16.38.27,12.29,1.85-4.1.92-8.19.13-11.36.14.79.52L529,22l6.08.79,4.36-.79,1.45.92-2.77,1.46,5.68-.93,10.57-.92,6.21.39,1.05,1.06-9.11,1.85-1.32.53-7.14.53,5,.13-3,2-2.24,1.85L543,34.1,545.2,36l-3.56.14-4,.92,3.83,1.59v2.64l-2.64.26,2.51,2.65-5.28.26,2.37,1.32-.92,1.06-3.57.53h-3.43l2.64,2.24-.26,1.32-4.63-1.32-1.45.93,3.17.79,2.77,2,.4,2.64-4.62.67L527,55.24l-2.64-1.85.26,2.25-3.3,1.72,6.6.13,3.44.13-7.4,2.91-7.66,2.77-7.8,1.06h-2.9l-3,1.32-4.63,3.7-6.34,2.38-1.85.13-3.83.93-4.09.79-2.91,2.11L478,78.23l-2.11,2.38-5.28,2.78.13,2.77-2.25,3-2.51,3.57-4,.13L458.8,90h-5.55l-2-2-.53-3.57-3-4.36-.4-2.38.93-3.17L446,71.36l2-2.51-1.19-1.19,4.36-4.09,4.5-1.19,1.58-1.46,1.72-2.64-3.44,1.19-1.58.53-2.51.53-2.64-1.19,1.05-2.25,1.85-1.71H454l4.62.79-3.3-2L453.78,53l-2.78.53-1.58-.93,4.36-2.91-.8-1.18-.66-2.25L451.4,43l-2.25-1.32.79-1.19-5-1.85-4.75-.14-6.34.14-5.82.13-2-.93L423.65,36l6.74-.92,4.76-.13L426,34.1l-4-1.18,1.32-1.19,9.78-1.32L442.55,29l1.71-1.05-5-.93,2.91-1.06,9.12-1.71,3.3-.27.13-1.19,5.55-.66,6.74-.26,6.6-.13,1.72.79,6.61-1.32,4.36.92,2.77.13,4,.8-4.23-1.32Z" transform="translate(38.5)"/><path class="cls-4" d="M339.76,250.52l.53-.67h2.64l2,1.06.93-.13.39,1.45h2l-.26,1.19,1.45.13L351,255l-1.46,1.58-1.58-.92-1.59.26-1.05-.26-.8.79-1.32.26-.39-1.05-1.19.66L339.89,259l-.79-.66-.13-1.06.26-1.05-.79-1.19.92-.8.4-1.45Z" transform="translate(38.5)"/><path class="cls-4" d="M629,235.59l-11.63,7.66L607.43,251l-4.89,1.72-3.83.4-.13-2.51L597,250l-2.11-1.06-.79-2-11.63-8.59-11.63-8.72L558.15,220l.13-.8h0v-5l5.55-2.9,3.44-.66,2.77-1.06,1.32-2,4-1.59.13-2.91,2-.39,1.58-1.46,4.36-.66.67-1.58-.93-.79L581.93,194l-.13-2.38L580.61,189l3.17-2.12,3.57-.66,2.11-1.71,3.17-1.19,5.55-.66,5.42-.4,1.72.66,3-1.59h3.44l1.45.93,2.25-.26-.66,2,.66,3.83-.66,3.3-2,2.25.26,2.9,2.91,2.38v1.06l2.11,1.58,1.59,7.14,1.19,3.57.26,1.85-.53,3.17.27,1.85-.4,2.24.4,2.38-1.32,1.72,2.11,2.9.13,1.72L623,232l1.59-.79,2.77,1.85Z" transform="translate(38.5)"/><path class="cls-3" d="M305.28,342.73l1.84-3-.79-1.72L305,339.83l-2.11-1.72.66-1.19-.66-3.57,1.19-.66.66-2.38,1.32-2.64-.13-1.58,1.85-.93,2.51-1.58,3.43,2.37.66-.13.79,1.72,3,.53,1.06-.66,1.72,1.32,1.45,1.06.53,2.9-1.06,2.65-3.83,4.22-4.1,1.59-2.11,3.43-.53,2.65-2,1.71-1.58-2.11-1.46-.4-1.45.27-.13-1.46,1.05-.92Z" transform="translate(38.5)"/><path class="cls-4" d="M714.71,241.53H673.89l-.66-14.8-.8-14.13-1.19-3.17.66-2.51-.66-1.72,1.06-1.85,4.49-.13,3.31,1.05,3.43,1.19,1.59.66,2.51-1.32,1.32-1.05,2.9-.4,2.51.53,1.06,2,.66-1.32,2.78.92,2.64.27,1.58-.93,2.78,6.74-.79,1.59-.4,3-.79,2.12-.8.66-1.19-1.32-1.71-1.72-2.78-5.68-.39.4,1.71,4.09,2.51,4.1,3,6.21,1.32,2.11,1.33,2.25,3.3,4.36-.66.79.26,2.51,4.23,3.57Z" transform="translate(38.5)"/><path class="cls-4" d="M735.72,279.18l-1.19-1.32-1.59-2.37-1.58-1.19-.93-1.46-3.17-1.58h-2.38l-.92-.93-2,1.06-2.12-1.85-1.05,2.91-4.1-.8-.4-1.58,1.33-5.81.13-2.65,1.05-1.32,2.51-.66,1.59-2.24L723.3,262l1.06,3.7,2,2,5,3.7,2,2.25,2,2.37,1.19,1.33,1.72,1.18-.93.93Z" transform="translate(38.5)"/><path class="cls-6" d="M558.68,162.39l.26-2.77-1.19-1.72,4.63-2.91,3.83.8h4.36l3.3.66,2.64-.27,5.16.13L583,157.9l5.81,1.72,1.19-.8,3.57,1.72,3.7-.53.26,2.38-3,2.64-4.09.8-.27,1.32-2,2.11-1.32,3.31,1.32,2.24-2,1.72-.66,2.64L583,180l-2.38,3-4.1.13-3.17-.13-2.11,1.46-1.32,1.45-1.59-.27-1.19-1.45-.79-2.24-3.17-.67L563,180l1.19-1.45.53-1.06-1.06-1.19.92-2.64-1.19-2.38,1.33-.26.26-1.85.53-.66.13-3,1.45-1.06-.79-2-1.85-.13-.66.53H562l-.66-2-1.45.53Z" transform="translate(38.5)"/><path class="cls-4" d="M657.5,101.22V99l-1,.52-2-1.32-.66-2.11L657.24,95l3.43-.53,3.17.66,2.91-.13.53.66-1.59,2.12,1.59,3.43-1.06,1.19h-2.38L661.2,101l-1.32-.4Z" transform="translate(38.5)"/><path class="cls-2" d="M724.88,271.26h2.38l3.17,1.58.93,1.46,1.58,1.19,1.59,2.37,1.19,1.32-1.19,1.72-1.06,1.85.27,1.19.13,1.19h2l.79-.26.79.66-.66,1.45,1.33,2.25,1.45,1.85,1.32,1.45,11.63,4.75h2.9l-9.64,11.9-4.63.13-3,2.9h-2.25l-.93,1.33h-2.37l-1.46-1.33-3.17,1.59-1,1.72-2.38-.4-.8-.4-.79.14-1.06-.14-4.49-3.3h-2.51l-1.19-1.32v-2.25l-1.85-.66-2.11-4.36-1.72-.92-.66-1.59-1.72-2-2.24-.26,1.19-2.25,1.85-.13.53-1.19-.14-3.57.93-4.22,1.58-1.06.27-1.59,1.45-3,2.11-2,1.19-4,.4-3.44,4.1.8,1.05-2.91,2.12,1.85,2-1.06Z" transform="translate(38.5)"/><path class="cls-2" d="M660.81,61.19l.26,2.38,4.49,2.24-1.72,2.65,4,4-1.06,2.91,3,2.64-.53,2.38,4.63,2.37-.53,1.85-2.12,2.12-5,4.62-5,.27-4.62,1.32-4.49.79-2-2-2.77-1.19V87l-1.85-3.3.93-2.11,2.11-2.12,5.42-3.83,1.58-.79L655,73.34l-4-1.71-1.19-1.32L648.65,65l-4.36-2.25-3.83-1.71,1.45-.8L645.08,62l3.31-.13,2.9.79,2.12-1.45.66-2.51,3.7-1.19,3.56,1.32Z" transform="translate(38.5)"/><path class="cls-6" d="M1207.12,398.22l.92,1.19-1.06,2-2.24.66-1.85-.52.13-1.72,1.59-1.45,1.58.52Zm4-2.11-2.38.79-.13-1.45,2-.79,1.06-.27,2.38-1.19-.4,1.85ZM-37.84,394.92l-.26.13-.4-1.85.66-.26Z" transform="translate(38.5)"/><path class="cls-2" d="M618.4,161.34l-.93,3-1.45-.79-.93-2.64.66-1.45,2-1.59Zm-13.22-28.81.66.27h.93l1.45.92,4.49.79-1.45,2.65-.39,2.77-.8.66-1.45-.39.13,1.05-2.11,2.12v1.71l1.45-.52,1.06,1.71v1.06l.92,1.45L609,150l.92,3,1.72.53-.27,1.72-2.77,2.24-6.34-1.05-4.63,1.19-.39,2.37-3.7.53L590,158.82l-1.19.8L583,157.9l-1.32-1.59,1.71-2.37.67-7.8-3.18-4.09-2.37-2-4.63-1.45-.26-2.77,4-.93,5.15,1.06-.92-4.36,2.91,1.58,7.13-3,.92-3.18,2.65-.66.39,1.32h1.46l1.45,1.59,2.11,1.85,1.59-.4Z" transform="translate(38.5)"/><path class="cls-6" d="M395.91,319.88l.92-1.72.27-1.72.66-1.72-1.32-2.37-.14-2.78,1.85-3.43,1.19.53,2.65.92,3.56,3.3.53,1.72L404,316.18l-1.19,2.9-1.32,1.59-1.72.26-.4-1.05-.79-.27-1.06,1.19Z" transform="translate(38.5)"/><path class="cls-5" d="M626.72,345l-3.57-4-2.38-3.31-2.11-4.09.13-1.46.8-1.18.92-2.91.66-2.91,1.19-.26h5.15l-.13-4.76,1.72-.26,2.11.53,2.12-.53.39.26-.26,1.72,1,2,2.65-.26.79.79L636.5,329l1.58,2.38.4,3-.4,2.64L637,339l-3.17-.26L632,336.92l-.26,1.72-2.38.53-1.19.92,1.32,2.64Z" transform="translate(38.5)"/><path class="cls-6" d="M569.38,115.89l-2.25-.8-1.85.14.8-2.12-.53-2,2.38-.13,3.17,2.24Zm9.78-17.84-3.17,4.1,3-.53h3l-.79,3-2.64,3.3,3,.26.26.4,2.51,4.36,2,.66,1.85,4.36.93,1.45,3.56.8-.26,2.37-1.58,1.19,1.18,2-2.64,2-4.09-.14-5.16,1.06-1.45-.66-2.11,1.72-2.78-.4-2.11,1.46-1.59-.8,4.49-4,2.78-.79h0l-4.76-.66-.79-1.59,3.17-1.19-1.58-2,.66-2.51,4.36.26h0l.52-2.11-2-2.38h0l-3.56-.66-.66-1.06,1-1.71-.92-1.06-1.59,1.85V106.9l-1.45-2,1.19-3.83,2.38-3,2.24.4Z" transform="translate(38.5)"/><path class="cls-2" d="M721.45,163.71l.13-1.58-1.32-2.78-2.11-1.45-1.85-.4L715,156.31l.27-.52,2.77.66,4.89.66,4.76,1.85.66.79,1.85-.66,3.17.79,1.32,1.72,2.11.92-.66.53,2,2.12-.4.39-1.72-.13-2.64-1.19-.66.66-4.36.66-3.44-2Z" transform="translate(38.5)"/><path class="cls-5" d="M591.44,305.48l-5.55,2.37-1.84,1.33-3.18,1.18-3.17-1.18.14-1.59-1.46-3.3.93-4.63,1.45-3.3-.92-5.68-.53-2.91.13-2.38,6.08-.13,1.58.27,1.06-.66,1.72.39-.27,1.19,1.46,2.12v2.9l.26,3,.92,1.45-.79,3.57.27,2,.92,2.65Z" transform="translate(38.5)"/><path class="cls-3" d="M558.15,298.47l-1.06-.13-.66,1.72-1-.13-.67-.8.27-1.58L553.53,295l-.93.53h-.79l-.93.26v-1.45l-.53-1.06.14-1.06-.66-1.71-1.06-1.46H546l-.79.8h-1.05l-.53.92-.4,1.06-2,1.85-1.45-2.38-1.33-1.59-.92-.52-.93-.8-.26-1.71-.53-.93-1.06-.66,1.59-2,1.06.13.92-.66h.79l.53-.53-.26-1.32.4-.4.13-1.45,1.58.13L544,280l.8-.13.26-.4,2,.26.4-.13.26,1.45h.53l.93-.52.52.13,1.06.92,1.45.4.93-.93,1.19-.52.79-.53.79.13.66.79.4,1.19,1.45,1.59-.66,1.05-.13,1.32.66-.39.53.53-.26,1.19,1.05,1.05-.66.4-.26,1.32.79,1.59.79,3.17-1.32.53-.26.52.26.8-.26,1.71Z" transform="translate(38.5)"/><path class="cls-4" d="M529,276.67l.4-1.71,3.83-.14.79-.92h1.19l1.32.92h1.06l1.19-.66.66,1.19-1.45.8h-1.59l-1.45-.8-1.32.93h-.66l-.8.53Z" transform="translate(38.5)"/><path class="cls-4" d="M534.76,285.13l-1.84-1.72-1.46-.26-.79-1.06v-.66l-1.06-.79-.13-.79,1.85-.67,1.19.14.92-.53,6.48.13-.13,1.45-.4.4.26,1.32-.53.53h-.79l-.92.66-1.06-.13Z" transform="translate(38.5)"/><path class="cls-5" d="M621.17,325.16l-.66-.66L621.7,320l5.68.13.13,4.76h-5.15Z" transform="translate(38.5)"/><path class="cls-5" d="M666.09,186.83l2,1.33,2.51-.14,2.51.27V189l1.72-.53-.26,1.19-4.76.39v-.66l-4.1-.79Zm5.81-20.21-2-.13-1.72-.4-3.83,1.06,2.51,2.11-1.58.66h-1.85l-1.85-2-.53.93.93,2.24,1.84,2-1.18.8,2,1.85,1.71,1.18.27,2.25-3.17-1.06,1.19,2-2.12.39,1.59,3.57h-2.25l-2.77-1.72-1.45-3.17-.8-2.64-1.45-1.85-1.85-2.25-.26-1.19,1.32-1.85v-1.32l1-.53v-1l2.12-.4,1.05-.79h1.85l.4-.66.66-.13,2.38.13,2.38-1.06L669,164.9l2.9-.39-.26-1.85,1.72.92-.8,2.51Z" transform="translate(38.5)"/><path class="cls-3" d="M273.3,274.43l-1.72-.66-2.11-.13-1.58-.8-1.72-1.58.26-1.19.53-.93-.4-.79,2-3.3H273l.26-1.32-.53-.27-.39-.79-1.06-.92-1.19-1.33h1.59l.26-2.24h6.47l-.39,3.17-.79,4.49h1.05l1.06.66.26-.53,1.06.53L278.85,268l-1.72,1.19-.26.66.13.8-.79,1-.93.27.14.39-.66.53-1.33.93Z" transform="translate(38.5)"/><path class="cls-4" d="M378.07,295.83l2.25,1.45,2.11,2.52.13,2.11,1.19.13,1.85,1.85,1.46,1.45-.66,3.57L384.15,310l.13.92-.66,2.12,1.59,2.77h1.05l.4,2.25,2.11,3.56-.79.14-2-.4-1.19,1.06-1.59.79-1.05.13-.4.8-1.72-.27L377.81,322l-.13-1.85-.93-2,.66-3.44.93-1.32-.66-1.85-1.19-.66.39-1.71-.79-.93-1.72.13-2.38-3,1.06-1-.13-1.85,2.25-.66.92-.66-1.19-1.59.4-1.45Z" transform="translate(38.5)"/><path class="cls-3" d="M282.81,277.34l-.52-1.19-1.06-.4.4-1.59-.4-.39-.79-.27-1.46.4-.13-.53-1.06-.53-.66-.79-.92-.4.79-1-.13-.8.26-.66,1.72-1.19,1.85-1.45.27.13.92-.66.92-.13.27.4.66-.27,1.59.4,1.58-.13,1.19-.4.4-.53,1.05.27.8.26.92-.13.79-.27,1.46.53h.66l.92.8.93.92,1.19.53.79,1.19-1.19-.13-.53.52-1.19.53h-.92l-.8.53-.66-.13-.52-.66-.4.13-.53.93h-.4l-.13.79L289.42,273l-.66.52-.4.53-.92-.79-.93,1.06-.66-.14-.92.14v2h-.53l-.53.92Z" transform="translate(38.5)"/><path class="cls-3" d="M646.8,146.54l.93,1.58,1,1.06-1,1.45-1.46-.79H644l-2.78-.66-1.45.13-.53.79-1.32-.92-.53,1.59,1.72,1.85.79,1.32,1.59,1.45,1.32.79,1.32,1.72,2.91,1.45-.27.66-3.17-1.45-1.85-1.45-3-1.19-2.9-2.78.66-.39-1.59-1.59-.13-1.32-2.12-.66-.92,1.72-.92-1.32v-1.46l2.24.14.53-.67,1.19.67,1.19.13-.13-1.19,1-.4.27-1.45,2.37-1.06,1.06.4,2.38,1.72,2.77.79Z" transform="translate(38.5)"/><path class="cls-4" d="M339.76,250.52v2.24l-.4,1.45-.92.8.79,1.19-.26,1.05-2.25-.66-1.59.27-2.11-.27-1.72.66-1.72-1.19.53-1.32,3,.53,2.64.4,1.33-.93L335.66,253l.27-1.59-2.12-.53.93-1.19,2.11.27Z" transform="translate(38.5)"/><path class="cls-3" d="M638.21,142.84l.93-2.51-.66-.79h1.72l.13-1.59,1.58.92,1.19.53,2.51-.53.27-.79,1.19-.13,1.45-.53.4.27,1.32-.53.66-.93.92-.26,3.44,1.19.66-.4,1.85,1.06.39,1.05-1.85.8-1.19,2.64L653.54,145l-2.51.8-1.85-.27-2.38,1.06-1.06.66-2.77-.79-2.38-1.72-1.06-.4-.79-1.32Z" transform="translate(38.5)"/><path class="cls-4" d="M1010.52,370h-1.45l-4.36-2.77,3.3-.8,1.72,1.19,1.19,1.32Zm15.46-5.42.27.8v1.19l-2.65,3-3,.8-.39-.4.39-1.32,1.72-2.51Zm-24.57-3.17,1.19,1.06,2.11-.26.79,1.71-4.09.8-2.51.52-1.85-.13,1.32-2.24h2Zm17.57,0-.79,2.25-5.29,1.06-4.62-.4.13-1.45,2.77-.93,2.12,1.19,2.38-.26Zm-49.81-5.28,6.74.39.79-1.58,6.48,1.85,1.05,2.64,5.29.79,4.09,2.25L989.52,364l-3.83-1.58-3.18.13-3.56-.39-3.17-.67-4.1-1.58-2.51-.4-1.45.53-6.34-1.58-.53-1.72-3.17-.27,2.64-3.83,4.23.27,2.77,1.45,1.45.4Zm91.82-2.25-2,2.78-.13-3,.66-1.46.79-1.32.8,1.19Zm-25.63-11-1.45,1.32-2.38-.66-.66-1.72,3.57-.27Zm11.36-1.46,1.06,3-2.77-1.58-3-.4-2,.26-2.38-.13.92-2.11,4.36-.13Zm37.13-2-.66,13.08-1.06,12.95-2.77-3.3-3.57-.8-.92,1.19-4.5.13,1.85-3.3,2.25-1.06-.53-4.36-1.58-3.3-6.61-3.43L1063,347l-5.15-3.7-1,1.85-1.46.4-.66-1.46v-1.71l-2.51-2,3.83-1.46,2.51.13-.26-1h-5.15l-1.46-2.38-3-.79-1.45-2,4.76-.92,1.71-1.32,5.69,1.72.52,1.45.8,6.47,3.56,2.38,3.17-4.23,4.1-2.51h3l3,1.46,2.51,1.45Zm-55.36-16-2.77,4-2.65.79-3.43-.79-5.81.26-3,.53-.53,3,3,3.43,2-1.71,6.61-1.32-.4,1.71-1.45-.53-1.59,2.38-3.17,1.46,3.17,5.15-.66,1.32,2.91,4.62-.14,2.65-2,1.19-1.32-1.46,1.85-3.17-3.43,1.45-.8-1.05.53-1.59-2.51-2.24.4-4-2.38,1.19.13,4.76-.13,5.68-2.25.53-1.45-1.19,1.19-3.7L1008,343h-1.45l-1.06-2.64,1.59-2.65.53-3.17,1.85-6.08.79-1.58,2.91-2.91,2.77,1.06,4.49.66,4-.26,3.43-2.91Zm12.16,1.19-.14,3.44-1.85-.4-.52,2.51,1.45,2.12-1.06.39-1.32-2.51-1.06-5.15.67-3.17,1-1.45.27,2.24,2.11.4Zm-67-3.56.53,2.77,2.51,2.25,2.25-.8,2.24.27,2-2.12,1.71-.26,3.31,1.06,2.9-.8,1.72-5.54,1.32-1.46.93-4.49h4.09l3,.66-1.85,3.57,2.78,3.83-.67,1.85,4.1,3.7-4.23.39-1.19,2.78.27,3.57L998,335.07l-.26,4-1.59,6.08-.39-1.45-4.1,1.85L990.31,343l-2.51-.13-1.72-1.33L981.85,343l-1.19-2-2.24.26-2.91-.53-.39-5.28-1.72-1.06L971.68,331l-.53-3.57.4-3.57Zm-14.13,31.31-4,.13-2.77-3.3-4.36-3.31L947,343.53l-2.51-3.31-1.71-2.9-2.51-5.55-3.17-3.44L936,325l-1.32-3.17-3.17-2.51-2-3.44-2.78-2.24-3.83-4.36-.4-2,2.38.13,5.42.79,3.3,3.83,2.78,2.78,2,1.58,3.43,4.36h3.57l3,2.78,2.11,3.3,2.64,1.85-1.45,3.17,2.11,1.45,1.19.14.53,2.77,1.19,2.25,2.64.26,1.59,2.51-1.06,5Z" transform="translate(38.5)"/><path class="cls-5" d="M845.51,187.76l4.75,4.62.53,3.31,1.85,2,.4,2-2.51-.53,2,4.49,3.83,2.51,5.29,2.78-1.72,1.72-.53,3.83L863,215.9l3.56,2,4.89,2.25,4.76.53,2.25,2,2.77.39,4.23.93,2.9-.13v-1.59l-.92-2.51V218l1.85-.79.92,3.17.27.79,3.3,1.46,2.11-.53,2.91.26,2.78-.13-.27-2.51-1.72-1.32,2.65-.4,2.51-3,3.3-2.52,3,.93,2-1.59,2.25,2.51-.8,1.59,3.84.66.52,1.45-.92.8.79,2.37-2.64-.66-3.83,2.78.66,2.24-1.32,3.31.13,2-.93,3.3-2.9-.92.53,4.09-.53,1.32.66,1.72-1.59.93-2.77-6.34-.93.13-.26,2.51-2.11-2.12.66-2.24,1.58-.27.93-3.3-2-.66h-3.17l-3.43-.53-.79-2.77-1.59-.27-3-1.72-.79,2.78,2.91,2.11-2,1.46-.52,1.45,2.37,1.06-.26,2.38,1.58,3,1.06,3.31-.26,1.45-2.38-.13-4.1.92.53,2.91-1.45,2.38-4.63,2.77-3.3,4.63-2.38,2.51-3.17,2.64.27,1.85-1.59.92-3,1.46-1.58.26-.8,3L867.7,274l.53,3.31L867,281l.4,6.87-1.85.14-1.32,3,1.06,1.32-3.18,1.19-1,2.64-1.32,1.19-3.44-3.7-2-5.68-1.59-4-1.32-1.85-2.11-3.83-1.32-5-.79-2.51-3.57-5.42-2.25-7.79-1.58-5-.53-4.89-1.06-3.7-4.76,2.38-2.51-.53-5-4.76,1.46-1.45-1.19-1.58-4.36-3.31,2-2.77h7.53l-1.19-3.3-2.11-2.12-.93-3-2.51-1.71,3.17-4.23,4,.26,2.77-4.09,1.46-4.1,2.37-4-.66-2.91,2.38-2.25-3.17-2-1.72-2.77-2.11-3.44,1.19-1.71,5.28.92,3.57-.53Z" transform="translate(38.5)"/><path class="cls-6" d="M569.38,115.89l.4,2.77L567.4,122l-5.55,2.38-4.23-.66,2.78-4-1.46-3.83,4.23-3,2.38-1.72.53,2-.8,2.12,1.85-.14Z" transform="translate(38.5)"/><path class="cls-4" d="M764.92,180.89l2.77-.66,1.85-2.38,2.25.13,1.32-.66,2.37.27,4.1,2.11,2.64.4,4.63,3.56,2.38.14,1,3.3L790,192l-.4,2.9,1.59.66-1.06,2.12,1.72,3.17.79,2.64,2.64.66.66,2.51-2.37,3.57,2,2.11,1.71,2.51,3.44,1.72.66,3.44,1.72.66.53,1.85L799,224.62l-.66,4.62-6.6-1.19-3.84-.92-4-.53-2-4.89-1.72-.79-2.64.79-3.17,1.85-4.36-1.32-3.7-3-3.44-1-2.77-3.84L757,209l-1.72.66-2.38-1.32-1,1.45-2.12-2-.26-2.11H748.4l.13-2.91-2.24-3-4.36-2.24-2.91-3.7.4-3.17,1.45-1.33-.66-2.37-2.38-1.19L734.92,181l-2.37-3.17.52-1.19L731.23,172l2-1.06.79,1.45,2,1.85,2.38.53,1.19-.13,3.3-2.91,1.06-.26,1.19,1.19-.66,1.85,2.38,2.11.79-.13,1.58,2.91,3.31.79,2.64,2,4.75.66,4.89-1.06Z" transform="translate(38.5)"/><path class="cls-5" d="M737.83,185.78l2.38,1.19.66,2.37-1.45,1.33-.4,3.17,2.91,3.7,4.36,2.24,2.24,3-.13,2.91h1.06l.26,2.11,2.12,2-2-.13-2.37-.26-2,3.7-6.34-.27-10.44-8.06L723.43,202,719.2,201l-2-4.89,6.87-4.09.66-4.76-.79-2.91,1.72-1,1.19-2.51,1.32-.53,4,.53,1.32.92,1.45-.66Z" transform="translate(38.5)"/><path class="cls-2" d="M549.56,70.17l-.92,2.25,2.77,2.38-3.83,2.64-8.06,2.38-2.51.66L533.58,80l-7.4-1.06,2.9-1.58-5.41-1.72,4.75-.66.14-1.06-5.42-.79,2.24-2.25,4.1-.52,3.7,2.37,4.36-2,3.17,1.06,4.49-1.85Z" transform="translate(38.5)"/><path class="cls-4" d="M707.31,198.86l-.39,1.19-1.33-.53-.39,2.64.92.4-.79.66-.13.92,1.58-.53.27,1.59-1.19,6.34-2.78-6.74.8-1.32-.27-.26.8-1.85.26-3,.4-1.06h1.18l.27-.66.92-.13.14,1.72-.27.52Z" transform="translate(38.5)"/><path class="cls-6" d="M638.48,176.79l-.93,3.17.53,1.19-.53,2.12-2.64-1.59-1.72-.4-4.62-2,.26-2.11,4,.4,3.3-.4Zm-21-11.76,2,2.78-.26,5.28-1.45-.26-1.33,1.32-1.18-1.06-.27-4.75-.92-2.25,1.85.13ZM631,144.16l-.27,2,.93,1.72L629,147.2l-2.38,1.45.26,2-.39,1.06,1.18,2,3.18,2,1.71,3.31,3.83,3.17h2.51l.8.79-.8.79,3,1.46,2.38,1.19,2.91,2.11.39.66-.39,1.45-2-1.85-2.91-.66-1.19,2.51,2.51,1.46-.26,2.11-1.32.26-1.59,3.44-1.32.26-.13-1.19.66-2.11.66-.92-1.46-2.25-1.18-2-1.33-.53-1.05-1.72-2.12-.66-1.45-1.58-2.51-.27-2.51-1.85-3.17-2.51-2.25-2.24-1.19-4-1.58-.39-2.64-1.32-1.46.52L612.71,155l-1.32.27.27-1.72-1.72-.53-.92-3,1.05-1.19-.92-1.45v-1.06l1.45.8,1.45-.14,1.72-1.32.53.53,1.59-.13.52-1.45,2.38.39,1.32-.66.14-1.58,2,.52.26-.66,3-.66.79,1.32Z" transform="translate(38.5)"/><path class="cls-5" d="M318.88,255.4l2.25.4,1.85.92.4,1.19h-2.51l-1.06.66-1.85-.66-1.85-1.45.53-.92,1.45-.27Z" transform="translate(38.5)"/><path class="cls-4" d="M706.92,200.05l.39-1.19,4,1.58,5.94-4.36,2,4.89-.53.66-6.47,2,3.7,4-1.06.66-.39,1.32-2.51.53-.66,1.45L710,212.73l-3.83-.53-.26-.66,1.19-6.34-.27-1.59.4-1.05Z" transform="translate(38.5)"/><path class="cls-5" d="M1036,193l1.06,1.32-.93,2.51-1.84-1.32-1.33.93v2.38l-2.64-1.19-.66-1.85.79-2.38,2.12.4.53-1.59Zm15.2-11.89.39,3.17,1.59,2-.4,2.77-3.3,2-5.81.13-2.65,4.63-2.9-1.59-1.46-2.9-5.41.79-3.17,2h-3.84l4.63,2.91.53,6.87-1.59,1.58-2.24-1.45-.53-3.7-2.65-1.06-2.37-2.77,2.64-1.19.66-2.51,2.38-2.11,1.19-2.78,6.07-1.19,4,.93v-7.14l3.17,2,2.77-4.09,1.06-1.46-.66-4.88-3.17-4.5L1040,165l3-.66,5,5.42,1.71,3.3-.79,4ZM1044,153.41l2.77.79,1.06-1.72,3.83,4.5-4.09,1.05-.14,4-6.87-2.78,1.06,4.36H1038l-2.9-3.83-.4-3,3.3-.26-2.77-5.42-1.19-3,6.61,4.1Z" transform="translate(38.5)"/><path class="cls-4" d="M815.12,160.81l-1.58.79-3.31,2.77-.66,2.78h-1.19l-1.45-1.85-4.1-.13L801.25,162h-1.59l-.92-4-4.76-2.9-5.28.26-3.57.66-4.1-3.57L778,151l-5.69-2.91-.66-.26-7.53,2.24,4,14.54-1.59.26-3-3.17L761,160.67l-3.43.8-1.06,1.32-.4-.93.4-1.71-.93-1.33-4.09-1.32-2.25-3.56-2-1.06-.39-1.19,3.17.4-.66-2.91,2.51-.66,2.9.53-.39-3.7-1.19-2.51-3,.26-2.91-.92L744,143.9l-2.77.79-1.72-.66-.13-2-2.65-2.65-2.24.14-3.3-2.65,1-2.9-1-.8,1.32-4.22,3.7,2.24-.4-2.9,5-4.1,4.76-.13,7.53,2.64,4,1.59,2.77-1.59,4.76-.13,4.63,2,.39-1.19,4.36.26.13-1.84-5.81-2.65,2.11-1.85-.92-1,2.51-.93-3.17-2.64.92-1.32L780.37,114l1.06-.93,6.74-1.32,1.85-1.58,5.68.79,2.77,4,2.65-.92,4.36,1.19.79,2.11,2.64-.26,5.81-3.57-.52,1.19,5.15,2.9,11.36,9.78.66-2,5.29,2.11,3.83-.92,2,.66,2.51,2.24,2.51.8,2.11,1.58,3.7-.53,2.78,2.38-1.19,2.51-2.38.4,1.59,4L853,142.31,846.3,141l.66,7-1.19.93-5.68,1.58,5.55,6.74-1.85,1.06,1.06,2.24-2.12-.53-2.24-1.45-4.76-.4-5.42-.13-.92.4-5.15-1.59-1.59.8.27,2.24-5.69-1.32-1.85.53Z" transform="translate(38.5)"/><path class="cls-2" d="M734.13,335.86l-2.51,1.59L730.7,339l-1.32.4-.53,2.78-1.19,1.58-.66,2.64-1.46,1.32-5-4-.13-2.38-12.68-8.06-.66-.39v-4.23L708.1,327l1.72-2.51,1.19-2.91L709.43,317l-.4-2-1.72-2.78,2.12-2.37,2.37-2.65,1.85.66v2.25l1.19,1.32h2.51l4.49,3.3,1.06.14.79-.14.8.4,2.38.4,1-1.72,3.17-1.59,1.46,1.33h2.37l-3,4.49.13,14.53Z" transform="translate(38.5)"/><path class="cls-2" d="M815.12,160.81l.26-1.72,1.85-.53,5.69,1.32-.27-2.24,1.59-.8,5.15,1.59.92-.4,5.42.13,4.76.4,2.24,1.45,2.12.53-.14.93-4.35,2.11-.53,1.59-4,.39-.39,2.51-3.7-.53-2,.8-2.51,1.85.79.92-.66.93-5.95.66L817,171.38l-3.43.26-.27-2.25,3.7.66.79-1.18,2.65.39,3.3-2.9-4.49-2-2,.93-2.9-1.45,2-2.65Z" transform="translate(38.5)"/><path class="cls-5" d="M946.31,280.51l-1.18-4.76,1.84-3.3,4.36-.8,3.31.66,3.17,1.46,1.19-2.64,3.3,1.45,1.06,2.64.13,4.76-5.55,3,1.72,2.37-3.7.4-2.91,1.59-2.9-.66-1.59-2Z" transform="translate(38.5)"/><path class="cls-5" d="M1006.82,175.34,1012,180l2.11,2.65,2.11,4.49-.26,2.24-2.64.8-2,1.58-2.91.4-1.32-2.25-.66-2.9-3.3-4.1,2.11-.66-3.83-3.44v-.39l1.58.13.4-1.72,2.25-.26,1.18-.27Z" transform="translate(38.5)"/><path class="cls-4" d="M749.85,209.69l.93,1.72-.13.92,1.45,3-2.51.13-1.06-2-3-.39,2-3.7Z" transform="translate(38.5)"/><path class="cls-3" d="M954.64,272.31l.92-1.85L955.3,267l-3.17-3.44-.8-4-3.17-3.17-2.64-.26-.53,1.32-2,.13L942,257l-3.43,2.38L938,255.8l.26-4.23-2.37-.13-.66-2.38-1.59-1.32.4-1.45,2.64-2.51.4.92h1.85l-1.19-4.49,1.58-.53,2.64,3,2.12,3.7h4.23l1.85,3.43-2,1.06-.79,1.45,4.49,2.38,3.57,4.76,2.77,3.43,3,2.78,1.19,2.91-.13,4-3.3-1.45-1.19,2.64Z" transform="translate(38.5)"/><path class="cls-4" d="M707.44,196.48l-.92.13-.27.66h-1l.79-3.17,1.32-2.91v-.13l1.59.27.66,1.58L708,194.36Z" transform="translate(38.5)"/><path class="cls-4" d="M560.66,311.69l-.92.13-3.7-2-3.17-3L550,304.68,547.58,302l.79-1.19.27-1.19,1.58-2.11,1.59-2h.79l.93-.53,1.45,2.51-.27,1.58.67.8,1,.13.66-1.72,1.06.13-.13,1.19.26,2-.79,1.72,1.06,1.06,1.05.26,1.59,1.72V308l-.27.53Z" transform="translate(38.5)"/><path class="cls-4" d="M638.87,238.1l-2.51,1.45-2-2.25L629,235.59l-1.59-2.51-2.77-1.85L623,232l-1.19-2.25-.13-1.72-2.11-2.9,1.32-1.72-.4-2.38.4-2.24-.27-1.85.53-3.17-.26-1.85-1.19-3.57,1.71-.93.14-1.71-.4-1.59,2.25-1.58,1.05-1.19,1.59-1.19.13-3,4,1.32,1.33-.4,2.9.66,4.49,1.85,1.72,3.57,3,.79,4.89,1.59,3.7,2,1.58-1.06,1.46-1.71-.93-3.17.93-1.85,2.24-1.85,2.38-.53,4.49.79,1.32,1.72h1.19l1.19.66,3.31.53.92,1.32-1.06,1.85.66,1.72-.66,2.51,1.19,3.17.8,14.13.66,14.8.26,7.93h-4v1.72l-14-7.67-14-7.66Z" transform="translate(38.5)"/><path class="cls-5" d="M874.84,299.13l-.4,4.23L873,304.42l-3,.92-1.72-3.17-.92-5.68,1.32-6.47,2.51,2.11,1.72,2.91Z" transform="translate(38.5)"/><path class="cls-2" d="M685.91,444.46l1.19,1.19-1.19,2-.66,1.32-2,.66-.66,1.19-1.33.39-2.24-3,2-2.51,1.85-1.58,1.72-.79Z" transform="translate(38.5)"/><path class="cls-2" d="M654.86,114.17l-.26-.93.13-1-1.45-.66-3.18-.66-1.05-3,3.17-1.19,4.89.26,2.9-.39.53.79,1.59.26,3,1.72.66,1.72-2.25,1.19-.4,2.11-2.9,1.45h-2.91l-.92-1.18Z" transform="translate(38.5)"/><path class="cls-2" d="M606.24,130.16l.53.92v1.72h-.93l-.66-.27.27-2.24Z" transform="translate(38.5)"/><path class="cls-6" d="M649.05,107.83l-.27-2.91,1.06-2.25,2.51-1.32,2.77,2.78,2.25-.13.13-2.78,2.38-.66,1.32.4,2.64,1.45h2.38l1.59.79.53,1.85,1.45,2.25-2.91,1.45-1.71.53-3-1.72-1.59-.26-.53-.79-2.9.39-4.89-.26Z" transform="translate(38.5)"/><path class="cls-5" d="M580.61,189l1.19,2.64.13,2.38,1.19,4.23.93.79-.67,1.58-4.36.66-1.58,1.46-2,.39-.13,2.91-4,1.59-1.32,2-2.77,1.06-3.44.66-5.55,2.9v5H543.22l2.51-2.24,5-2.65,1.72-1.18,2.91-3.31-.67-4.89L556,201.5l.52-2.11,2.25-2.65,3.44-1.85,2.51-1.71,2.24-4.1,1.19-2.38h2.38l2,1.72,3.17-.4,3.44.93Z" transform="translate(38.5)"/><path class="cls-4" d="M670.05,137.55l.66-.52,2-.4,2.37,1.19,1.33.13L678,139v1.32l1.19.66.66,1.58,1.32,1.06-.13.53.66.4-.79.26-1.85-.13-.4-.53-.66.4.27.66-.66,1.19-.27,1.32-.79.53-.79-1.85.13-1.59-.4-1.72-2.11-2.38-1.19-1.58L671,138Z" transform="translate(38.5)"/><path class="cls-6" d="M761,378.8l.79,1.72.8,2.64.26,4.76.79,1.85-.52,2-.66,1.19-1.06-2.38-.66,1.19.39,2.91-.39,1.71-1.06.93-.4,3.3-1.71,4.76-2.12,5.41-2.64,7.54-1.85,5.54-1.85,4.63-2.91.92L743,431.12l-1.85-1.06-2.51-1.32-.79-2.11v-3.57l-1.06-3.17V417l.8-2.9,1.58-.66.13-1.32,1.85-3,.53-2.51-.79-1.85-.4-2.51-.13-3.7,1.45-2.25.53-2.51,1.72-.13,2-.79,1.32-.8h1.59l2.11-2.24,3-2.51,1.06-2-.27-1.72,1.46.53,2-2.78.26-2.38,1.19-1.85Z" transform="translate(38.5)"/><path class="cls-5" d="M281.76,255.4h-.66l-1.59,2.51-.66-.52-.4.26v.53H272l-.26,2.24h-1.59l1.19,1.33,1.06.92.39.79.53.27-.26,1.32h-4.49l-2,3.3.4.79-.53.93-.26,1.19-3.44-4.36L261,265.58l-2.65-1.06-2,.4-3,1.45-1.72.4-2.37-1.06-2.51-.79-3-1.85-2.51-.53-3.7-1.85-2.64-1.85-.66-1.06-2-.26-3.3-1.32-1.19-1.72-3.3-2.38-1.32-2.51-.53-1.85,1.19-.4-.13-1.18.92-1.06.26-1.32-.92-1.85v-1.59l-.79-2-2.38-4-2.91-3-1.19-2.51-2.51-1.59-.39-1,1.05-2.38-1.58-.93-1.45-2-.14-2.77-1.71-.4-1.46-2.11-1.05-1.85.13-1.33-.93-2.9-.26-3,.53-1.59L205,203.35l-1.19.13-1.59-1.06L201.17,204v2l-.66,2.91.66,1.72,1.71,2.77.27.92.39.27.14,1.32h.66v2.51l.66,1.06.39,1.45,1.72,2,.13,3.7.66,1.72.53,1.85-.13,2.11,1.59.13,1.05,1.85.93,1.72-.27.79-1.71,1.46h-.53l-.53-2.51L207,233.47l-2-1.85-1.59-1.05.66-2.91v-2.12l-1.32-1.32-1.85-1.71-.66.52-.53-1.05-1.85-1.06-1.45-2.25.4-.26,1.32.13,1.58-1.45.66-1.72-1.85-2.91-1.58-1.05-.53-2.51-.4-2.64-.53-3.18-.13-3.56,4-.27,4.36-.53-.53.8,4.36,2,6.74,2.77h9.38l.52-1.71H230l.79,1.45,1.32,1.32,1.45,1.72.53,2.11.27,2.12,1.45,1.18,2.51,1.19,2.91-3,2.77-.14,2,1.59,1.06,2.77.66,2.25,1.45,2.25.14,2.9.53,1.85,2.37,1.19,2.25.93,1.32-.14-2,3.44-1.06,2.9-1.19,5.29-.66,2,.27,2.25.79,1.85.26,3.17,1.85,2.9.4,2.25,1.19,2,3.43,1.06,1.19,1.72,3.31-1.19,2.64-.4,2.64-.66,2.38-.66,2.38-1.72,1.19-2.24.66-3.31.79-1.19,2.51-1.05,3.7-.93,3,.13,2.24-.39.66.92L288,246l-2.12,2.38-1.19,2.51.53.66-.79,1.72-1.19,3-.79-.93Z" transform="translate(38.5)"/><path class="cls-6" d="M653.94,162.52h.39v-.79l1.85-.66.66-.13,1.19-.27h1.45l1.72,1.19.53,2.65-.66.13-.4.66h-1.85l-1.05.79-2.12.4-1.45-.93-.66-1.71Z" transform="translate(38.5)"/><path class="cls-6" d="M545.33,270.86l1.19-.66.53-2.38,1.19-.13,2.38,1.19,2-.79,1.32.26.53-.92h14l.79-2.91-.53-.4L567.13,247l-1.45-17.31h5.15l11.63,8.72L594.09,247l.79,2L597,250l1.59.66.13,2.51,3.83-.4V262l-1.85,2.64-.26,2.51-3.17.53-4.63.4-1.32,1.45-2.24.13h-2.25l-.93-.79-1.84.53-3.31,1.72-.66,1.18-2.64,1.85-.53,1.06-1.45.79-1.72-.52-.92.92-.53,2.77-2.78,3.31v1.32l-.92,1.72.26,2.24-1.45.66-.79.53-.53-1.72-1.06.4-.66-.13-.66,1.19h-2.64l-.93-.66-.53.39-1.05-1.05.26-1.19-.53-.53-.66.39.13-1.32.66-1.05L557,282.09l-.4-1.19-.66-.79-.79-.13-.79.53-1.19.52-.93.93-1.45-.4-1.06-.92-.52-.13-.93.52h-.53l-.26-1.45.26-1.32-.26-1.45-1.32-1.19-.66-2.25Z" transform="translate(38.5)"/><path class="cls-6" d="M933,289.49l-.53-2.91.79-3-1.32-2.37-.13-4.36-1.58-2-1.72-4.75-1.19-5.15-2-3.31-2,2.12-3.57,2.77-2-.4-2.38-.92.66-4.89-1.19-3.7L911.43,252l.27-1.45-2.11-.53-2.91-3.17-.66-3.31,1.32.66-.4-2.9,1.59-.93-.66-1.72.53-1.32-.53-4.09,2.9.92.93-3.3-.13-2,1.32-3.31-.66-2.24,3.83-2.78,2.64.66-.79-2.37.92-.8-.52-1.45,1.84-.4,1.72,2.38,1.72.93.79,3,.53,3.3-2.51,3.43.26,4.63,3.57-.66,1.46,3.7,2.24.79-.39,3.3,2.77,1.46,1.58.79,2.38-1.19.4,1.72L934,246.29l-.4,1.45-1.85.93-1.85,1.71-2.38.27-.92,4.22-1.32.8,2.11,3.43,2.64,2.91,1.72,2.64-.79,3.44-1.19.79,1.06,2L933.5,274l.66,2.25.13,1.85,1.72,3.56-1.59,3.7Z" transform="translate(38.5)"/><path class="cls-3" d="M650.9,159.22l-1.32,2,.39,1.19-.66-.26-1.06-1.32-1.45-.8.27-.66.26-2.11,1.06-.93.53-.39.92.66.53.53,1.06.39,1.32.93-.27.26-.53.93-.79.39Z" transform="translate(38.5)"/><path class="cls-4" d="M857.13,133.46l2.91-.79,4.1-3.31,3.7-1.72,3.3,1.19h3.17l3,1.85,3.17.14,4.89.92,1.45-2.64-2.51-2.25.93-4,4.22,1.58,3,.4,4.1.93,2.38,2.9,5.15,1.59,2.51-.66,3.57-.53,3.3.53,4.09,1.85,3,2h2.91l4.23.53,2.24-.93,3.57-.66,2.78-2.64,2.11.4,2.51,1.32,3.43-.4.27,2.91.26,4,1.72,1.59,1.45-.53,3.44.53,1.45-1.33,3.31,1.19,4.49,2.78.39,1.32-2.64-.4-4.23.53-1.58,1.06-.79,2.64-4,1.45-2,2.12-3.7-.8-2-.39-.27,2.51L942,153.8l1.19,1.19-1.58,1.32-1.19,2.12-3,1.45-4.62.13-4.63,1.33-2.64,2.11-2.11-1.19h-3.84l-5.81-2.38-3.43-.53-4,.53-7-.92-3.57.13-2.9-2.38-3-3.57-2.25-.52-4.89-2.38-4.49-.53-4.09-.66-1.85-1.72-.8-4.62-3.56-3-5.16-1.46-3.56-2.11Z" transform="translate(38.5)"/><path class="cls-2" d="M708.63,375l2.65-.26,4.22,1.05.93-.39,2.38-.14,1.32-1.18h2.11l3.83-1.46,2.91-2.38.53,1.85-.4,4,.4,3.43-.13,6.21.52,2-1.19,2.91-1.45,2.78-2.38,2.37-3.3,1.59-4,1.85-4.1,4.36-1.45.66-2.51,2.91-1.46.92-.52,2.77,1.45,3,.53,2.38v1.19l.66-.26-.27,4-.66,1.85.66.66-.52,1.59-1.59,1.45L704.93,428l-4.22,2.25-1.59,1.45.13,1.72.93.26-.53,2h-2.51L697,433.9l-.4-1.85-.26-1.33.92-4.49-.79-2.9-1.32-5.55,3.83-4.49,1.06-2.91.52-.4.53-2.24-.53-1.19.27-3,.92-2.78.13-5-1.71-1.32-1.72-.26-.66-.93-1.59-.92-2.9.13-.13-1.45-.27-2.91,10.7-3.3,2,2,.93-.4,1.32,1.06L708,389l-.79,1.84.13,2.78,2.25,2.51,1.19-2.77,1.45-.93v-5l-1.45-2.91-1.19-1.32-1.19.13-.79-5.28Z" transform="translate(38.5)"/><path class="cls-6" d="M545.33,270.86l-2.24-2.77L541,265.18l-2.24-1.06L537,262.93l-1.85.14-1.72.79-1.71-.27-1.19,1.19-.27-2.11.93-2,.53-3.7-.27-4-.39-2,.39-2-.79-1.85-1.85-1.72.79-1.32h13.61l-.66-5.81.92-2,3.31-.4V225.81l11.23.26.13-6.07,12.68,9.64h-5.15L567.13,247l1.59,17.17.53.4-.79,2.91h-14l-.53.92-1.32-.26-2,.79-2.38-1.19-1.19.13-.53,2.38Z" transform="translate(38.5)"/><path class="cls-2" d="M708.63,375l-1,3,.79,5.28,1.19-.13,1.19,1.32,1.45,2.91v5l-1.45.93-1.19,2.77-2.25-2.51-.13-2.78L708,389l-.13-1.59-1.32-1.06-.93.4-2-2-1.85-.93,1.19-3.7,1.19-1.45-.53-3.3.8-3.17.66-1.19-.93-3.31-1.58-1.85,3.43.8.66,1.05,1.19,1.85Z" transform="translate(38.5)"/><path class="cls-4" d="M946.45,304.29l.92.39,2.11,2.38,1.59,2.78.4,2.64-.27,1.85.27,1.32.39,2.38,1.32,1.05,1.46,3.57.13,1.06-.53.4-1.45.52-.53-.26-3.57-3-4.23-3.17-.52-2.11-2.12-2.65-.66-3.3L939.84,308l.26-2.91-.92-1.72.66-.66,2.91,1.72.39,2,2.25-.4Zm55.75,8.32-3-.66h-4.09l-.93,4.49-1.32,1.46-1.72,5.54-2.9.8-3.31-1.06-1.71.26-2,2.12-2.24-.27-2.25.8-2.51-2.25-.53-2.77,2.51,1.45,2.78-.79.66-3.31,1.45-.79,4.1-.92,2.51-3,1.58-2.51,1.72,2,.66-1.32,1.72.13v-2.51l.13-2,2.51-2.78,1.59-3.17H999l1.85,2,.26,1.72,2.38,1.19,3,1.19-.13,1.59-2.38.13.66,2Z" transform="translate(38.5)"/><path class="cls-2" d="M643.23,443l-2.37-3-1.33-2.9-.52-3.84-.8-2.9-1.05-6.21.13-4.76-.4-2.11-1.32-1.72-1.72-3.3-1.71-4.76-.8-2.51-2.64-3.83-.26-3,1.71-.79,2.12-.66,2.24.13,2,1.72.52-.27,14.14-.13,2.38,1.85,8.32.66,6.48-1.72,2.9-.79,2.25.13,1.32.93v.39l-2,.8h-1.06l-2.24,1.58-1.33-1.58-5.41,1.32-2.51.13-.53,14.27-3.44.13-.39,11.63-.66,14.66-3.17,2.12-1.72.26-2.12-.79-1.58-.27-.53-1.71L645,441Z" transform="translate(38.5)"/><path class="cls-4" d="M1159.69,413.15l2.24,2.38,1.32,1.85-1.58,1.06-1.59-1.19-2-1.72-1.72-2.11-1.58-2.78-.14-1.45,1.46.13,1.58,1.32,1.19,1.32Z" transform="translate(38.5)"/><path class="cls-4" d="M595.28,281.56l.13-2.77-4.1-.93-.13-1.85-2-2.64-.4-1.85.27-1.85,2.24-.13,1.32-1.45,4.63-.4,3.17-.53.26-2.51,1.85-2.64v-9.25l4.89-1.72,9.91-7.79L629,235.59l5.41,1.71,2,2.25,2.51-1.45.93,6.07,1.32,1.06.13,1.32,1.46,1.32-.8,1.72-1,8.06-.14,5.28-4.36,3.7-1.45,5.29,1.59,1.45v2.51l2.24.13-.39,1.85-.93.27-.13,1.32h-.66l-2.38-4.36-.79-.13-2.78,2.24L628,276l-2-.26-.93.66-2.11-.13-2,1.58-1.85.14L615,276l-1.58.93-1.85-.13-1.33-1.46-3.43-1.45-3.83.4-.79.92-.53,2.25-1.06,1.58-.13,3.57-2.78-2.25h-1.19Z" transform="translate(38.5)"/><path class="cls-4" d="M617.6,310.1,614,311.55l-1.46-.26-1.32.92-2.77-.13-1.85-2.38-1.19-2.9-2.51-2.64h-5.68l.13-6.35-.13-2.64.66-2.51,1.05-1.19,1.72-2.38-.39-1.19.79-1.58-.79-2.38.13-1.32.13-3.57,1.06-1.58.53-2.25.79-.92,3.83-.4,3.43,1.45,1.33,1.46,1.85.13L615,276l4.23,2,1.85-.14,2-1.58,2.11.13.93-.66,2,.26,2.64,1.19,2.78-2.24.79.13,2.38,4.36h.66l1.45,1.58-.39.66-.14,1.33-2.9,3-.93,2.65-.53,2-.66.92-.66,2.78-2,1.72-.53,2-.66,1.58-.39,1.59-2.38,1.45-2-1.72-1.33.14-2.11,2.24-1.06.13-1.58,3.84Z" transform="translate(38.5)"/><path class="cls-3" d="M287.7,285l-1.05-1.32-1.46-1.59-.66-1.32-1.45-1.32-1.59-1.72.4-.66.53.66.39-.39,1.06-.14.53-.92h.53v-2l.92-.14.66.14.93-1.06.92.79.4-.53.66-.52,1.32-1.06.13-.79h.4l.53-.93.4-.13.52.66.66.13.8-.53h.92l1.19-.53.53-.52,1.19.13-.27.39-.26.8.13,1.45-.92,1.45-.53,1.59-.27,1.72.14,1.05v1.72l-.53.4-.53,1.71.13,1.06-.79,1.06.13,1.06.53.66-.93.92-1.05-.26-.53-.93L291.4,285l-.79.53-2.25-1.06Z" transform="translate(38.5)"/><path class="cls-5" d="M608.35,117.34l.53,1.32-.53,3.44-.79,1.45h-1.72l.67,4.09-1.72-.92-2-1.72-2.78.8-2.24-.27,1.58-1.06,2.38-5.68,4.09-1.58Z" transform="translate(38.5)"/><path class="cls-2" d="M660.81,61.19l.52-2.38-3.56-1.32-3.7,1.19-.66,2.51-2.12,1.45-2.9-.79-3.31.13-3.17-1.72-1.45.8-1.45.13v2.25l-5-.53-.4,1.85h-2.51l-1.32,2.51-2.12,3.83L624.08,76l1,1.19-.79,1.32H621.7l-1.45,3.3.66,4.76,1.85,1.85-.53,4.22-2.12,2.51-1.05,2.12L616.94,95l-5.28,4.23-3.7.92-4.1-1.85-1.19-4-1.19-8.45L604,83.65l7-3L616,77l4.49-4.88,5.55-6.74,4-2.51,6.34-4.23,5.29-1.45,4.23.26,3.17-2.77,4.62.13,4.23-.66,8.59,2.38-3,.92,3.3,2.11-4,1.32Zm-17-27.75-4.62,1.19L634.91,34l1.32-.79-1.58-.92,4.49-.53,1.19,1.05Zm-15.85-5.28,7.79,2.11-5.28,1.06-.79,2.11-1.85.66-.53,2.38-2.78.14-5.28-1.85L621,33.71l-3.57-.79-4.76-2.38-2-2.25,5.82-1.06,1.32,1.06,3.17-.13.66-.93,3.17-.13Zm15.06-2,4.62.92L645,28.69l-6.34.26L632,28.56l-.66-.8-3.17-.13-2.64-1.19,6.47-.66,3.31.53,2-.79Z" transform="translate(38.5)"/><path class="cls-2" d="M887.39,218v1.72l.92,2.51v1.59l-2.9.13-4.23-.93-2.77-.39-2.25-2-4.76-.53-4.89-2.25-3.56-2-3.57-1.45.53-3.83,1.72-1.72,1.19-.93,3,1.19,4,2.51,2,.66,1.58,1.85,2.78.8,3,1.71,4.09.93Z" transform="translate(38.5)"/><path class="cls-2" d="M1146.34,492l-.53,1.72,3.44-1.59-.27,1.59-1.32,1.71-2.51,1.85-4.49,2.91-2.91,1.45-.26,2H1135l-4,1.46-3,2.64-5,4-4,1.72-2.51,1.06h-2.77l-.93-1.32-3.17-.27.66-1.45,4-2.91,7.13-3.83,2.64-.79,3.57-1.45,4.36-2.12,3.44-2,3.7-2.91,2-1,2.11-2.25,3.7-1.72Zm18-18.9-.26,4.23,1.71-2.77.93,1.19-1.59,2.9L1167,480l2,.4,2.91-1.58,1.32.52-3.17,3.44-2.64,2.38L1165,485l-1.72,1.18-.92,1.72-1.06.79-2.77,2.12-3.7,2.64-3.7,1.59.26-1.06-.92-.53,4.36-3.17.53-2.25-2.38-1.58,1-1.45,3.31-1.33,2.64-3,1.59-2.65.26-2.64.53-.66-.53-1.72-.4-3.43.27-2.91,1.32-.26.53,2.24,2,.93Z" transform="translate(38.5)"/><path class="cls-4" d="M772.31,262.8,771,260l-3.17-6.61,10-4,1.59-7.93-1.85-2.91V237l.79-1.59-.13-1.71,1.58-.8-.66-.53v-2.64h1.72l1.85,2.78,2,1.45,2.65.53,2.11.66,1.72,2.38,1,1.32,1.33.39v.93l-.93,2.38-.53,1.19L790.81,245l-1.06,2.77-1.58-.26-.66,1.05-.27,2,.66,2.64-.39.53h-1.59l-2,1.45-.13,2-.79.79H780.9l-1.32.93.13,1.58-1.58,1.19-2-.39-2.25,1.32Zm7.8-36.07-.79-1.45.79-1.32.53.4-.13,1.58Z" transform="translate(38.5)"/><path class="cls-5" d="M834.81,181.15l3,1.85,1.72,3,6,1.72-2.38,3.3-3.57.53-5.28-.92-1.19,1.71,2.11,3.44,1.72,2.77,3.17,2-2.38,2.25.66,2.91-2.37,4-1.46,4.1-2.77,4.09-4-.26-3.17,4.23,2.51,1.71.93,3,2.11,2.12,1.19,3.3h-7.53l-2,2.77-2.64-1-1.33-2.91-3-3-6.21.79H803.1l-4.76.66.66-4.62,4.63-2.11-.53-1.85-1.72-.66-.66-3.44-3.44-1.72-1.71-2.51-2-2.11,5.94,2.11,3.3-.66,2.12.53.53-.79,2.37.26,4.1-1.58-.4-3.44,1.46-2.24h2.51l.13-1.06,2.38-.53,1.32.26,1.06-1.05-.67-2.38.93-2.38,2-1.06-2-2.64,3.17.13.66-1.45L824,190.8l1.19-1.72-.79-2-1.19-1.72,1.45-1.72,3.31-.79,3.7-.53,1.45-.66Z" transform="translate(38.5)"/><path class="cls-3" d="M314.39,300.32l-1.19-1.19-.66-2.11.93-1.06-.8-.26-.66-1.32-1.71-1.06-1.46.27-.79,1.32-1.45,1-.8.14-.39.79L307,299l-1.05.53-.53.66-1.59.13-.53-2.37-.53.66-1.05-.14-.66-1.71-1.46-.27-.92-.39h-1.45l-.14.92-.39-.66.26-.79.27-.8V294l.52-.39-.79-.66.13-1.59,1.32-.26,1.19,1.32-.13.92,1.46.13.39-.26.79.92,1.85-.26,1.46-1.06,2.24-.79,1.19-1.19,2,.27-.13.39,1.85.13,1.59.66,1.05,1.19,1.33,1.19-.53.53.79,2.38-.79,1.19-1.06-.4Z" transform="translate(38.5)"/><path class="cls-3" d="M346.23,399.15l-.79,2.11-1.72.93-3.7-2.25-.39-1.58-7.27-4.1-6.74-4.36-2.77-2.38-1.72-3.3.4-1.19-3.31-5.15-4-7.4-3.7-7.93L309,360.7l-1.18-2.9-2.91-2.65-2.51-1.58,1.06-1.72L301.58,348l1.05-2.78,2.65-2.51.52,1.59-1.05.92.13,1.46,1.45-.27,1.46.4,1.58,2.11,2-1.71.53-2.65,2.11-3.43,4.1-1.59,3.83-4.22,1.06-2.65-.53-2.9.93-.4,2.37,1.85,1.19,1.85,1.59,1.06,2.11,4.22,2.64.4,1.85-1.06,1.33.8,2.11-.4,2.77,1.85-2.24,4.09,1,.14L342,346.3l-3.17-.26-.39.66-2.91.79-4,2.64-.14,1.85-.92,1.46.53,2.11-2.12,1.19v1.58l-.79.8,1.59,3.56,2,2.38-.66,1.72,2.38.26,1.45,2.12,3,.13,2.77-2.38.13,6.08,1.59.4,2-.67,3.44,6.48-.66,1.32v2.77l.13,3.44-1.19,2,.79,1.45-.66,1.33,1.72,3.43Z" transform="translate(38.5)"/><path class="cls-5" d="M1031,295.57l.53,2.64.4,2.25-.93,3.7-1.58-4.1-1.46,2,1.32,3-.92,1.85-4.23-2.38-1.19-2.91.93-1.84-2.38-1.85-.93,1.58-1.71-.13-2.51,2.24-.66-1.18,1.19-3.31L1019,296l1.85-1.45,1.32,1.72,2.64-1.06.4-1.72,2.51-.13-.53-3,3,1.85.4,2Zm-9-7.4-1.19,1.32L1020,292l-1.06,1.19-2.38-2.78.66-1.05.66-1.06.27-2.51,1.85-.26-.27,2.64,2.12-3.83ZM1003.13,292l-4.36,3.83,1.45-2.77,2.38-2.51,1.85-2.78,1.45-4,.92,3.3-2.11,2.12ZM1014,281.69l2.24,1.33h2.25l.13,1.58-1.45,1.72-2.11,1.19-.4-1.85.13-2Zm12.55-1.05,1.45,4.49-2.77-1.06.13,1.32,1.19,2.51-1.59.8-.39-2.78-1.06-.13-.92-2.51,2.11.4-.13-1.59-2.51-3,3.3.13Zm-14.27-3.57-.53,3.44-1.71-2-2.25-3,3,.13Zm-4-21.67,2.24,1.19.93-1,.53.92-.27,1.72,1.59,2.9-.4,3.31-1.85,1.32v3.17l1.19,3.17,2,.4,1.46-.4,4.62,2.11-.13,2.25,1.32.93-.13,1.84-2.91-2-1.58-2.11-.8,1.45-2.51-2.38-3,.66-1.85-.92v-1.59l.93-1.05-1.19-.93-.26,1.46-2-2.25-.79-1.85-.66-3.7,1.59,1.19-.66-6.21.52-3.57Z" transform="translate(38.5)"/><path class="cls-4" d="M1135.11,356.34l-1.06.4-1.45-1.59-1.32-2.51-.53-3,.53-.39.26,1.19,1.06.92,1.45,2.51,1.59,1.32Zm-13.34-5.41-1.85.39-.66,1.06-2,.92-1.85,1.06-1.85-.13-2.78-1.06-2-1.19.4-1.19,3,.53,2-.26.66-1.85.53-.13.26,2.11,2-.26,1.06-1.46,2.11-1.45-.26-2.25,2.11-.13.66.66-.26,2.25Zm-39.64,14.53,1.06-12.95.66-13.08,5.94,2.78,6.35,2.24,2.37,2.12,1.85,2,.27,2.38,5.81,2.37.66,2.12-3.3.53.53,2.64,2.9,2.64,2,4.23,2-.13-.27,1.71,2.65.66-1.19.8,3.56,1.58-.52,1.19-2.38.27-.8-1.06-2.9-.4-3.44-.53-2.51-2.64-1.71-2.11-1.59-3.57-4.36-1.72-3,1.19-2.24,1.32.13,2.91-2.91,1.32-1.85-.66Zm44-18.37-1.19,1.06-.53-2.38-.66-1.58-1.59-1.32-1.85-1.59-2.51-1.19.93-1.06,2,1.19,1.06.8,1.45,1.05,1.32,1.59,1.32,1.32Z" transform="translate(38.5)"/><path class="cls-4" d="M633.19,126.46,631.74,124l.13-1.33-.92-2-1.19-1.32.79-1.06-.92-2,2-1,4.36-1.72,3.56-1.32,3,.66.4.92h2.77l3.7.4h5.42l1.59.4.92,1.18.4,1.72,1.05,1.45.14,1.46-1.59.79,1.19,1.72.26,1.72,2,3.3-.27,1.19-1.45.39-2.38,3.18,1.06,1.71-.66-.13-3.17-1.58-2.12.66-1.45-.4-1.72.79-1.72-1.32-1.19.4-.26-.13-1.59-2-2.24-.13-.4-1.32-2.11-.4-.4,1.06L637,129.1l.14-1.06-2.38-.4Z" transform="translate(38.5)"/><path class="cls-4" d="M358,255.4l1.72.27.66.79-1.06,1.06h-2.64l-2,.13v-1.72l.53-.66Z" transform="translate(38.5)"/><path class="cls-3" d="M1006.16,160.41l.8.66-1.32-.26-.67,1.32-.13,1.32,1.72,2.91-1.19.79-.26.79-.53,1.19-1.85.53-.79,1.06.79,1.71-.27.53,1.72.66,2.64,1.72v.92l-1.18.27-2.25.26-.4,1.72-1.58-.13v.39l-2-.79v.79l-.8.27-.53-.66-.92-.4-1.19-.66V175.6l.53-.52-.66-.67-.13-2.11-.53-.66-2.12-.53L991,170.05l1.32-2.51,2.38-2.11.66-2.77,2.25,1.19,2.9.13-1.71-2,4-1.72V158Z" transform="translate(38.5)"/><path class="cls-6" d="M558.68,162.39l1.19-1,1.45-.53.66,2h1.85l.66-.53,1.85.13.79,2-1.45,1.06-.13,3-.53.66-.26,1.85-1.33.26,1.19,2.38-.92,2.64,1.06,1.19-.53,1.06L563,180l.13,1.32-1.32,1.06-1.72-.53-1.72.4.66-3-.26-2.51-1.45-.4-.66-1.45.26-2.64,1.45-1.32.27-1.72.79-2.38-.13-1.58-.53-1.46Z" transform="translate(38.5)"/><path class="cls-2" d="M371.86,417.78l.93-4.76-.13-2.11,1.32-3.57,5.94-1.19,3.17.13,3.44,2,.26,1.19L388,411.7l.27,5.42,3.69.79,1.33-.79,2.37,1.05.8,1.19.66,3.7.53,1.46,1.32.26,1.19-.66,1.32.66.26,2.25-.26,2.37-.4,2.25-.26,3.57-2.65,3-2.64.66-3.83-.66-3.57-1.06,2.51-6.08L390,429.4l-3.7-1.58-4.49-2.91-2.9-.66Z" transform="translate(38.5)"/><path class="cls-4" d="M761.88,230.43l-.53-2.77.66-2.12.92-.52,1.19,1.32.27,2.38-.53,2.24-.93.27Z" transform="translate(38.5)"/><path class="cls-3" d="M658.16,138.87l1.19-.79,2,.4h2l1.58.92.93-.53,2.24-.39.66-.93h1.32l.93.4,1.19,1.19,1.19,1.58,2.11,2.38.4,1.72-.13,1.59.79,1.85,1.45.66,1.45-.66,1.46.66.26,1.05-1.45.8-.93-.27-.26,4.76-1.85-.53-2.51-1.32-3.7.92-1.45.93-4.63-.13-2.51-.67-1.19.27-1.19-1.59-.66-.66.66-.66-.79-.53-.92.93-2-1.19-.4-1.59-2-.92-.53-1.32L651,145.75l2.51-.8,1.58-2.64,1.19-2.64Z" transform="translate(38.5)"/><path class="cls-5" d="M1024.13,127.78l8.59,6.87-5.55-1.32,2.25,5.68,5.94,4,1.85,2.64-4-2.24v3l-2.91-3.31-2.38-3.83-3.43-4.23-1.46-2.9-4-5.16-4.89-3.7L1010,118l1.18-1.72-2.77-1.71.79-.53,3,2.51,4.36,3.7,3,3.7ZM654.86,114.17h-5.42l-3.7-.4.53-1.58,3.83-1.32,3.18.66,1.45.66-.13,1ZM127.71,69.64l.53.93,3-2.51,6.35.53.53,3.17-4.76,1.58-4.76.27L123.74,77l-2.11.8-2.38-.14L119,76.51l-2.12-1.05L118.33,74l-1.85-.66-3.7.53.39-1.32,2.38-1.19-4.36.8L110,73.74l-3.7,1.59,20.75-13.74,2.24,2.51L131,67.53ZM1038.4,55.38l-2.51.13-2.11-1.06.79-1.32Zm-897.74-.27-3.57.27,3.83-2.25.53-.13h2.11l2,.92-.92.4Zm795.75-7.53-3.57.13-5.55-.39-.66-.14.53-1.32,2.51-.26L935,46.79Zm8.05-5.81L943.67,43l-4.23-.27L933.1,41.5l-1.05-1,5.15.53Zm-15.72-1.46,1.72,2.25-8.85-.13-2.78.79-7.79-2-2-2.11,2.11-.67,6.34.14ZM732,55.77,730.7,56l-8.46-.4-1.45-1.59-4.89-.79-1.19-1.72,2.11-.79L715.77,49l3.43-2.77-2.51-.4,4.23-2.64-1.59-1.45,4.36-1.59,6.35-2,7.26-.53,3.17-1.19,4.1-.39,2.64,1.19-.79.92-7.14,1.59-6.21,1.45-5.41,2.91-1.72,3.17-2.11,3,2,2.64ZM1005,158.3h1.46l-2.38-4.63-2.91-3.43,1.72-1.32,4.36.66-.4-3.83-1.85-4.23.27-1.46-.79-3.43-4.36,1.06-1.59,1.58h-4.76l-3.69-3.7-5.55-2.77-6.21-1.19-3.83-3.83-2.78-2.25-2.38-1.72L964.55,120l-3.7-1.45-5.29-1.06-4,.13-3.17.66-1.06,1.85,2.38.93,1.58,2.11-.79,1.19v4.1l1.19,1.72L949,132.53l-4.5-1.45-3.43.4-2.51-1.32-2.11-.4-2.78,2.64-3.57.66-2.24.93-4.23-.53h-2.91l-3-2-4.09-1.85-3.3-.53-3.57.53-2.51.66L899,128.7l-2.38-2.9-4.1-.93-3-.4-4.22-1.58-.93,4,2.51,2.25-1.45,2.64-4.89-.92-3.17-.14-3-1.85h-3.17l-3.3-1.19-3.7,1.72-4.1,3.31-2.91.79-1,.26-2.78-2.38-3.7.53-2.11-1.58-2.51-.8-2.51-2.24-2-.66-3.83.92-5.29-2.11-.66,2-11.36-9.78-5.15-2.9.52-1.19-5.81,3.57-2.64.26-.79-2.11L801.12,114l-2.65.92-2.77-4-5.68-.79-1.85,1.58-6.74,1.32-1.06.93-10.57,1.32-.92,1.32,3.17,2.64-2.51.93.92,1-2.11,1.85,5.81,2.65-.13,1.84-4.36-.26-.39,1.19-4.63-2-4.76.13-2.77,1.59-4-1.59-7.53-2.64-4.76.13-5,4.1.4,2.9-3.7-2.24-1.32,4.22,1,.8-1,2.9,3.3,2.65,2.24-.14,2.65,2.65.13,2,1.72.66-.8,2.24-2.9.66-2.25,4.1,3.7,3.7.26,2.64,4.63,4.63-1.59,1.58-.39,1.06-1.46-.27-2.77-2.37-.93-.14-2.11-.92-1.32-1.72-3.17-.79-1.85.66-.66-.79-4.76-1.85-4.89-.66-2.77-.66-.27.52-4.75-3.3-3.83-1.58-3.17-2.25,2.24-.66,2-3.3-2.11-1.46,4.36-1.58-.26-.93-2.65.66-.26-1.71,1.32-1.06,3-.27.13-1.32L710,135.44l.8-2.11-.27-1.06L705.73,131h-1.85l-2.25-1.72-2.25.53-4.09-1.32-.13-.8-1.32-1.58-2.51-.26-.53-1.19.66-.66-2.38-2.25-3,.4-.92-.14-.66.8-1.06-.14-1.19-2.37-1.06-1.33.53-.39,2.51.13.93-.79-1.06-1.06-2.12-.66v-.66l-1.32-.66-2.37-2.51.39-1.06-.53-1.72-3-.92-1.45.53-.66-.93-3.17-.92-1.45-2.25-.53-1.85-1.59-.79,1.06-1.19-1.59-3.43,1.59-2.12-.53-.66,2.78-2-3.31-1.72,5-4.62,2.12-2.12.53-1.85-4.63-2.37.53-2.38-3-2.64,1.06-2.91-4-4,1.72-2.65-4.49-2.24-.26-2.38,2-.27,4-1.32,2.38-1.19,4.76,2,7.26.79,11,3.83,2.51,1.72.92,2.24-2.24,1.85-4,.93-12.55-2.64-1.85.39L680,72l.66,1.59,1.19,3.7,3.7,1,2.38.93-.13-1.72L685.64,76,687,74.67l7.13,2.24,2-.92-2.64-2.51L698.59,70l2.38.27,2.91,1.18.66-2.37L701.63,67l.53-2-2.64-2.11L707.05,64l2.24,2-3,.39.67,1.85,2.51,1.19,3.83-.79L713,66.47l4.76-1.58L725.41,62l2,.13-1.58,2,3.43.39,1.32-1.19h4.76l3-1.45,4,2,1.85-2.24-3.7-1.85.66-1.19,8.06,1.05,4.1,1.06,11.63,3.83.66-1.72-3.7-1.85-.53-.66-3.3-.39V58.28l-3-2.51-.66-1.05L757,51.81l-.4-3,1.32-.53,7.14.79,1.72,1.85-.4,2.51,2.24,1.06L771,56.83l2.38,4.49,4.1,2.12.39,2.24-2.24,4.89,3.3.53.4-1.19,2.37-.93-.39-1.71,1.19-1.59-2.78-2-.26-2.25-2.91-.26-1.85-1.85-.26-3.3-5-2.65,2.77-2.24-2.24-2.25,1.18-.13,2.65,1.85,1.32,3,3,.66-2.78-2.38,3.17-1.32,4.89-.13,6.08,1.85-4.36-2.65-3-3.43,3.7-.66,5.81.13,4.89-.4-3.43-1.58.92-2.11,2.51-.14,3.17-1.45,5.68-.4-.13-.79,5.81-.4,2.78.8,3.3-1.72,4.36.13-.92-1.32L821.2,35,825,33.84l5.15,1.06-2.24.66,5.81.53,2.51,1.45,1.19-.79h6.87l7.13,1.58,3.31,1.06L856.34,41l-1.45.92-4.23,1.72-.79.92,3.56.53,4.5.79,1.45-.66,3.57,2,.13-.79,3.3-.53,8.33.53L877.08,48l10.84.39-3-2.37,5.94.52h3.84l6.07,1.72,3.7,2,.27,1.32L911,54.19l5.55,1.32-1.85-3.44,5.81,1.46,3-.93,6.21,1.06.53-.93,4.75.53-5.94-3,1.32-1.45,25.1,2.11,5,2,10,2.51,9.25-.66,5.82.52,4.09,1.33L993,59.08l4.49.92,2.51-.66,4.36-.13,5.69.66,4.36-.4,8.85,3,1.58-1.06-5.28-2.24-1.19-1.46,9.51.93,5-.13,9.78,1.58,5.81,1.46,20.74,13.74h0l-1.32,1.45-3.83-.27,5.15,2,5.69,2.9,2.51.93,2.37,1.45.66.93-6.21-.8-4.09,2.78-1.85.39-1.06,2.51L1066,91.84l1.06,1.72-7.13-2.51-3.84,2.77-2.9-1.32-.79,1.59-4.5-.53,2,2.38.79,3.56,1.72,1.59,4.22.79,5.68,5.42-2.64.13,2.12,3.17,2.9,1.59-3,2,3.31,4.23-3.57.92,2.91,4-1.06,3.57-3.57-2.64-6.6-5.55-10-8.45-4-5.16.13-2.24-1.71-1.72,3.43-.79-.13-4.76.4-3.7,1.58-2.91-4.1-5-2.9.27,2,2.9-2.25,4L1028,86.69l-5.68,1.19-.13,6.07L1027,96.2l-5.29.93-4,.39-2.64-2.64-5-.53-1.59,1.85-9.25-.66L991.1,96.6l-2.24,7.26-3,8.72,5,.53,3.57,2.38,3.56.79.27-1.85,3.43.27,7.93,4.22,2.91,3.18.92,3.83,3.44,4.62,3.17,6.08-.66,5.68.92,2.64-1.19,4.63-1.32,4.49-.53,2.38-2.9,2.24-2,.13-3.17-2-2.51,2.91.27,1.32-.8-.66ZM824.24,32.12,813,33.18l-.8-3.7,1.33-.4,2,.27,7.79,1.58ZM698.59,25.91l-2.64.27-1.85.26v.4l-2.38.39-2.64-.66.66-.79h-4.89l4-.53h3.3l.79.66.93-.66,1.71-.39,3.57.66Zm112,4.5-4.49.39L798.87,30l-5-1.06-4.23-2.11-3.57-.4,3.31-1.85,4-.53,5.81,1.33,8.59,2.51Z" transform="translate(38.5)"/><path class="cls-6" d="M694.76,333.62l1.45,2.24-.26,2.38-1.06.53-1.85-.26-1,2.24-2.12-.26.27-2.25.52-.26.14-2.38,1.05-1.19.8.53Z" transform="translate(38.5)"/><path class="cls-4" d="M736.51,264l-.53-1.72-1.06-1.19-.39-1.58-1.85-1.45-2.12-3.31-1.18-3.3-2.51-2.64-1.59-.66-2.51-3.83-.66-2.78v-2.38l-2.25-4.36-1.71-1.58-1.85-.8L715,230l.14-.8-1.06-2.11-1.06-.92-1.58-2.91L709,220l-1.85-2.65h-1.72l.27-2.24.13-1.32.26-1.59,3.83.53,1.33-1.19.66-1.45,2.51-.53.39-1.32,1.06-.66-3.7-4,6.47-2,.53-.66,4.23,1.06,5.28,2.77,10.44,8.06,6.34.27,3,.39,1.06,2,2.51-.13,1.72,3.44,1.71.92.8,1.32,2.51,1.72.39,1.72-.26,1.32.53,1.32,1.19,1.06.53,1.32.66.92,1,.8.93-.27.79,1.59.27.92,1.58,4,10.57,2.11.53-.93,1.85,2.91-1.59,7.93-10,4L757.91,255l-3,1.71L752.63,261l-1.59.66-.92-1.32-1.32.13-3.44-.39-.66-.4-4,.13-.93.4-1.45-1.06-.79,2,.39,1.59Z" transform="translate(38.5)"/><path class="cls-3" d="M706.78,291.47l-.53-.13v-2l-.39-1.32L704,286.45l-.53-2.91.4-2.9-1.72-.27-.13.8-2.12.26.93,1.19.26,2.38-1.85,2.11L697.53,290l-1.71.39-3-2.24-1.32.79-.27,1.19-1.85.66-.13.93h-3.43l-.53-.93-2.51-.13-1.19.79-1.06-.39-1.85-2.38-.53-1.06-2.51.53-.92,1.85-.93,3.57-1.19.79-1,.39-.27-.13-1.19-1.19-.26-1.19.53-1.71V289l-2.12-2.51-.39-1.72v-.92l-1.32-1.19-.14-2.38-.79-1.45-1.19.13.4-1.45.79-1.59-.39-1.72,1.05-1.18-.66-.93.79-2.51,1.59-2.91,2.91.27-.66-15.72v-1.72h4l-.26-7.93h40.82l1.32,3.83-.66.8.66,4.09,1.59,4.76,1.45.92,1.85,1.46-1.59,2.24-2.51.66-1.05,1.32-.13,2.65-1.33,5.81.4,1.58-.4,3.44-1.19,4L711,281l-1.45,3-.27,1.59-1.58,1.06-.93,4.22Z" transform="translate(38.5)"/><path class="cls-4" d="M706.78,291.47l.14,3-.53,1.19-1.85.13-1.19,2.25,2.24.26,1.72,2,.66,1.59,1.72.92,2.11,4.36-2.37,2.65-2.12,2.37-2.11,1.85h-2.51l-2.78.93-2.24-.93-1.46,1.06L693,312.48l-.79-1.72-2,.93-1.59-.27-.92.66-1.59-.53-2.24-3.3-.53-1.19-2.64-1.58-.93-2.38-1.45-1.72-2.51-2.11V298l-2-1.59-2.38-1.59,1-.39,1.19-.79.93-3.57.92-1.85,2.51-.53.53,1.06,1.85,2.38,1.06.39,1.19-.79,2.51.13.53.93h3.43l.13-.93,1.85-.66.27-1.19,1.32-.79,3,2.24,1.71-.39,1.72-2.91L701.1,285l-.26-2.38-.93-1.19,2.12-.26.13-.8,1.72.27-.4,2.9.53,2.91,1.85,1.59.39,1.32v2Z" transform="translate(38.5)"/><path class="cls-4" d="M529.35,275l-1.32-3-1.72-1.46,1.58-.79,1.72-2.77.93-2.12,1.19-1.19,1.71.27,1.72-.79,1.85-.14,1.72,1.19,2.24,1.06,2.12,2.91,2.24,2.77.14,2.51.66,2.25,1.32,1.19.26,1.45-.26,1.32-.4.13-2-.26-.26.4-.8.13-2.51-.93-1.58-.13-6.48-.13-.92.53-1.19-.14-1.85.67-.53-3.18,3.17.14.8-.53h.66l1.32-.93,1.45.8h1.59l1.45-.8-.66-1.19-1.19.66h-1.06l-1.32-.92H534l-.79.92Z" transform="translate(38.5)"/><path class="cls-4" d="M1155.46,370.87l.79,1.33h-2.38l-1-2.38,2,.92Zm-4.1-2.37h-1.45l-2.12-.4-.66-.53.4-1.58,2.25.53,1,.92Zm3-1.06-.66.66-2.25-3.43-.52-2.38h1.18l1.06,3.17Zm-5.81-5.15v.79l-2.51-1.59-1.85-1.45-1.19-1.32.53-.4,1.58.93,2.64,1.85Zm-7.93-3.83-.66.13-1.45-.93-1.32-1.58.26-.66,2,1.71Z" transform="translate(38.5)"/><path class="cls-3" d="M547.58,302l-.92-.26-2.51-1.59-1.85-2.11-.53-1.46-.53-2.9,2-1.85.4-1.06.53-.92h1.05l.79-.8h2.78l1.06,1.46.66,1.71-.14,1.06.53,1.06v1.45l.93-.26-1.59,2-1.58,2.11-.27,1.19Z" transform="translate(38.5)"/><path class="cls-2" d="M281.23,275.75l-.53.92h-2l-1.19-.39-1.32-.79-2-.27-.93-.79.13-.66,1.33-.93.66-.53-.14-.39.93-.27.92.4.66.79,1.06.53.13.53,1.46-.4.79.27.4.39Z" transform="translate(38.5)"/><path class="cls-4" d="M755.4,297.28h-2.9l-11.63-4.75-1.32-1.45-1.45-1.85L736.77,287l.66-1.45,1.33-2.12,1,.8.8,1.58,1.58,1.72H744l3.17-1.06,3.83-.4,3-1.32,1.72-.26,1.19-.66,2-.13h0l1.19-.14,1.58-.52,1.85-.4,1.59-1.45h1.32l.13,1.19-.26,2.24.13,2.12-.66,1.45-.92,4.36-1.46,4.36L761.35,302l-2.91,5.81-2.91,4.5-4,5.41L748,320.93l-5.15,4-3.3,3-3.83,4.88-.8,2.12-.79.92-2.11-3.3L731.89,318l3-4.49.93-1.33h2.25l3-2.9,4.63-.13Z" transform="translate(38.5)"/><path class="cls-5" d="M659.48,153.14l-.66.93.53,1.32,1.72,1.72-1.19,1.32-.4,1.19.4.53-.4.52H658l-1.19.27-.13-.27.4-.52.26-.93H657l-.79-.66-.53-.26-.39-.53-.66-.27-.53-.52-.53.13-.4,1.32-.66.26.27-.26-1.32-.93-1.06-.39-.53-.53-.92-.66.66-.13.39-1.85-1.72-1.59.67-1.72h-1.19l1-1.45-1-1.06-.93-1.58,2.38-1.06,1.85.27,1.85,1.45.53,1.32,2,.92.4,1.59,2,1.19.92-.93.79.53-.66.66Z" transform="translate(38.5)"/><path class="cls-6" d="M387.06,305.34l4.09.8.4-.8,2.91-.26,3.69,1.06-1.85,3.43.14,2.78,1.32,2.37-.66,1.72-.27,1.85-.92,1.59-2-.8-1.72.4-1.45-.4-.27,1.19.53.8-.26.79-2-.27L386.66,318l-.4-2.25h-1.05L383.62,313l.66-2.12-.13-.92,2.25-1.06Z" transform="translate(38.5)"/><path class="cls-2" d="M645.48,132.67l.26.13,1.19-.4,1.72,1.32,1.72-.79,1.45.4,2.12-.66,3.17,1.58-.8.93-.39,1.58-.66.4L651.82,136l-.92.26-.66.93-1.32.53-.4-.27-1.45.53-1.19.13-.27.79-2.51.53-1.19-.53-1.58-.92-.53-1.32.26-.53.4-.79h1.32l1.06-.4v-.4l.53-.13.13-.92.66-.13.4-.66Z" transform="translate(38.5)"/><path class="cls-3" d="M631,144.16l2.51.4,1.58-.93,2.65-.13.52-.66.53.13.79,1.32-2.37,1.06-.27,1.45-1,.4.13,1.19-1.19-.13-1.19-.67-.53.67-2.24-.14.79-.26-.93-1.72Z" transform="translate(38.5)"/><path class="cls-2" d="M619.06,97.26l1.05-2.12,2.12-2.51.53-4.22-1.85-1.85-.66-4.76,1.45-3.3h2.64l.79-1.32-1-1.19,3.56-4.89,2.12-3.83,1.32-2.51h2.51l.4-1.85,5,.53V61.19l1.45-.13,3.83,1.71L648.65,65l1.19,5.29L651,71.63l-4.49,1.05-2.12,2.38.8,2.25-3.84,2.77-4.75,3-1.32,5.15,2.24,2.51,2.91,2-2,4.09-2.91.93-.26,6.21L634,107.43l-3.57-.26-1.32,2.9-3.44.14-1.19-3.44-2.77-4.23Z" transform="translate(38.5)"/><path class="cls-6" d="M697.14,435.61l-.79,1.85-2.12.4-1.85-2.11v-1.46l1.06-1.45.4-1.19,1-.26,1.72.66.4,1.85Z" transform="translate(38.5)"/><path class="cls-4" d="M717.22,196.08l-5.94,4.36-4-1.58v-.14l.27-.52-.14-1.72.53-2.12,1.59-1.45-.66-1.58-1.59-.27-.66-3,.66-1.58.79-.93.66-.79v-2.25l1.06.8,3.57-1.19,1.85.79h2.64l3.57-1.45h1.85l3.57-.66-1.19,2.51-1.72,1,.79,2.91-.66,4.76Z" transform="translate(38.5)"/><path class="cls-4" d="M638.35,277.86l.39-1.85-2.24-.13v-2.51l-1.59-1.45,1.45-5.29,4.36-3.7.14-5.28,1-8.06.8-1.72-1.46-1.32-.13-1.32-1.32-1.06-.93-6.07,3.31-2.25,14,7.66,14,7.67.66,15.72-2.91-.27-1.59,2.91-.79,2.51.66.93-1.05,1.18.39,1.72-.79,1.59-.4,1.45,1.19-.13.79,1.45.14,2.38,1.32,1.19v.92l-2.25.66L663.84,287l-2.51,4.36-3.3,1.85-3.3-.26-1.06.39.4,1.45-1.85,1.33-1.46,1.58-4.35,1.59-.93-.93-.53-.13-.66,1.06-2.91.26.53-1.06-1.19-2.77-.39-1.59-1.59-.66-2.11-2.37.79-1.85,1.59.39.92-.26h2l-2-3.57.13-2.64-.26-2.64Z" transform="translate(38.5)"/><path class="cls-2" d="M594.35,304.68l-2.91.8-.79-1.32-.92-2.65-.27-2,.79-3.57-.92-1.45-.26-3v-2.9l-1.46-2.12.27-1.19h3l-.53,2.12,1.19,1.19,1.18,1.45.14,1.85.66.92-.13,9.12Z" transform="translate(38.5)"/><path class="cls-4" d="M946.31,280.51l-3.3-1.72H940.1l.14-3h-3l.13,4.36L936,285.92l-.93,3.57.53,2.77,2.25.14,1.72,3.7.79,3.43,2.11,2.25,2.12.53,1.85,2L945.39,306l-2.25.4-.39-2-2.91-1.72-.66.66-1.45-1.58-.66-1.85-2-2.25-1.85-2-.39,2.38-.79-2.25.26-2.51.66-3.83,1.45-4.1,1.59-3.7-1.72-3.56-.13-1.85L933.5,274l-2.64-3.17-1.06-2,1.19-.79.79-3.44L930.06,262l-2.64-2.91-2.11-3.43,1.32-.8.92-4.22,2.38-.27,1.85-1.71,1.85-.93,1.59,1.32.66,2.38,2.37.13L938,255.8l.53,3.57L942,257l1.06.66,2-.13.53-1.32,2.64.26,3.17,3.17.8,4L955.3,267l.26,3.43-.92,1.85-3.31-.66-4.36.8-1.84,3.3Z" transform="translate(38.5)"/><path class="cls-2" d="M817.76,168.87l-.79,1.18-3.7-.66.27,2.25,3.43-.26,4.49,1.32,5.95-.66,1.85,3.7.92-.4,2.25.92.39,1.59,1.06,2.25h-3.3l-2.38-.4-1.59,1.85-1.32.4-.92.79-1.59-1.32-.66-3.31-1-.13v-1.32l-2-.79L818,177.19l.13,1.58-.4.67-2-.14-.53,1.85-1.32-.79-2.11,1.32-1.06-.53.79-4-1.45-3-2.64-.92.39-1.72,2.65.13,1-2.11.27-2.65,4-.92-.13,1.85.79,1.19Z" transform="translate(38.5)"/><path class="cls-4" d="M790.28,187.1l-1-3.3-2.38-.14-4.63-3.56-2.64-.4-4.1-2.11-2.37-.27-1.32.66-2.25-.13-1.85,2.38-2.77.66-1.06-2.78-.4-4.09-2.9-1.45.26-2.65-2.25-.26v-3.3l3.31.92,2.51-1.19-2.91-2.38L760,161.47l-2.38.92.4,2.91-1.59-2.51,1.06-1.32,3.43-.8,2.51,1.06,3,3.17,1.59-.26h3.56l-1-2,2.51-1.46,2-2.24,4.89,2.11,1.19,3.17,1.45.79,3.43-.26,1.33.79,2.64,4.1,4.36,2.64,2.64,1.85,4,2,4.76,1.72.53,2.38-1.06-.13L803.36,179l-.13,1.45-2.64.79.13,3.18-1.59,1.18-2.51.67-.26,1.71-2.38.53Z" transform="translate(38.5)"/><path class="cls-4" d="M371.86,286.32l2-.53.8.13-.4,2.91-2.91.4-.66-.27,1.19-1.19Z" transform="translate(38.5)"/><path class="cls-4" d="M619.72,208.37l-1.59-7.14L616,199.65v-1.06l-2.91-2.38-.26-2.9,2-2.25.66-3.3-.66-3.83.66-2,3.43-1.59,2.38.4v2.11l2.78-1.45.26.66-1.58,2v1.85l1.18.92-.26,3.57-2.11,2,.66,2.12,1.71.13.93,1.85,1.32.66-.13,3-1.59,1.19-1.05,1.19-2.25,1.58.4,1.59-.14,1.71Z" transform="translate(38.5)"/><path class="cls-6" d="M721.45,163.71l3.43-.13,3.44,2,.79,1.32v2l2.64.92,1.46,1.19-2,1.06,1.84,4.62-.52,1.19,2.37,3.17-1.45.66-1.32-.92-4-.53-1.32.53-3.57.66h-1.85l-3.57,1.45h-2.64l-1.85-.79-3.57,1.19-1.06-.8v2.25l-.66.79-.79.93-1.45-1.85,1.06-1.46-2,.27-2.9-.93-2,2.38-4.89.4-2.91-2.12-3.57-.13-.66,1.59-2.24.53L682.34,183l-3.57.13-2.24-4-2.64-2.25,1.18-3-2.24-2,3.17-3.69,5-.27.92-2.91,6.21.53,3.57-2.64,3.57-1.06,5.28-.13,6.08,2.78,4.89,1.58,3.7-.66,2.77.4Zm-49.55,2.91.66-.53.8-2.51-1.72-.92,3.17-1.32,2.78.52.52,1.59,3,1.19-.53,1.05-3.7.14-1.32,1.32-2.37,2.11-1.33-1.85Z" transform="translate(38.5)"/><path class="cls-4" d="M1005.24,231.89l-.66,6.47-.93,3.17-2.51-3.3-.92-2.91,1.19-4,2.11-3,1.85,1.19Z" transform="translate(38.5)"/><path class="cls-5" d="M707.05,333l.66.39,12.68,8.06.13,2.38,5,4-1.71,4.89.13,2.25,2.24,1.45.14,1.06-1.06,2.38.13,1.19-.26,2,1.19,2.51,1.32,4,1.32.79-2.91,2.38-3.83,1.46h-2.11l-1.32,1.18-2.38.14-.93.39-4.22-1.05-2.65.26-.79-5.42-1.19-1.85-.66-1.05-3.43-.8-2-1.18-2.11-.67-1.45-.66-1.46-.92-1.85-5-2-2.25-.66-2.38.4-2.11-.53-3.57,1.45-.26,1.32-1.45,1.32-2,.93-.92v-1.19l-.79-.92-.27-1.59,1.06-.53.26-2.38-1.45-2.24,1.32-.4h3.83Z" transform="translate(38.5)"/><path class="cls-2" d="M694.76,333.62l-2.11,1.32-.8-.53V331.5l.8-1.58.26-3.17.66-1.85,1.45-2.12,1.33-1,1-1.32-1.32-.66.13-4.63,1.46-1.06,2.24.93,2.78-.93h2.51l2.11-1.85L709,315l.4,2,1.58,4.62-1.19,2.91L708.1,327l-1.05,1.72V333l-7.14.26h-3.83Z" transform="translate(38.5)"/><path class="cls-3" d="M683.4,122.62l1.06.14.66-.8.92.14,3-.4,2.38,2.25-.66.66.53,1.19,2.51.26,1.32,1.58.13.8,4.09,1.32,2.25-.53,2.25,1.72h1.85l4.75,1.32.27,1.06-.8,2.11,1.06,2.11-.13,1.32-3,.27-1.32,1.06.26,1.71-2.51.27-1.71,1.32-2.91.13-2.51,1.45.66,2.51,1.72.93,3.17-.26-.4,1.45-3.3.66-4,2.25-1.84-.8.39-1.85-3.7-1.19.53-.66,2.78-1.32-1.06-.92-5-.93-.53-1.45-2.78.4-.79,2.24-2.11,2.78-1.46-.66-1.45.66-1.45-.66.79-.53.27-1.32.66-1.19-.27-.66.66-.4.4.53,1.85.13.79-.26-.66-.4.13-.53-1.32-1.06-.66-1.58-1.19-.66V139L676.4,138l-1.33-.13-2.37-1.19-2,.4-.66.52h-1.32l-.66.93-2.24.39-.93.53-1.58-.92h-2l-2-.4-1.19.79-.39-1.05-1.85-1.06.39-1.58.8-.93.66.13-1.06-1.71,2.38-3.18,1.45-.39.27-1.19-2-3.3,1.46-.14,1.45-1H664l3.17.26,3.43.93h2.51l1.19.52,1.06-.66.92.93,2.65-.13,1.32.39-.13-2,.66-.79Z" transform="translate(38.5)"/><path class="cls-2" d="M393.13,449.49l2.12-.4,4,3,1.19-.13,3.83,2.64,3,2.11,2.38,2.78-1.19,1.85,1.32,2.24-1.06,2.51-3.3,2.25-2.64-.79-1.72.39-3.3-1.72-2.25.14L393,464.28l-.13-2.64.53-.92-.79-4,.26-4.09Z" transform="translate(38.5)"/><path class="cls-5" d="M49.23,253l-.66.79-.79-.66.39-1.06-.26-1.45.26-.53.8-.53v-.79l.26-.4h.26l1.06.66.66.4.4.53.53,1.45-.14.13-1.58.93Zm-.4-6.21-1.19.39-.39-.92-.4-.27v-.26l.53-.4,1.06.4.79.66ZM47,244.7l-.26.53L45,245.1l.27-.53Zm-2.9-.53-.27.27-.26-.13-1.19-.14-.13-.92-.14-.13,1.06-.53.27.26Zm-5.16-2.64-.52.4-1.06-.66.26-.4.66-.4.8.14Zm337.17-91.95.13,1.32-4,1.85-3.7,1.32-3.7,1.19-2.51,2.38-.79.92-.66,2,.39,2.12,1.19.13.13-1.45.8.92-.66,1.06-2.38.66h-1.59l-2.51.66-1.45.13-2,.26-3,1.06,5-.66.66.66-4.89,1.19h-2l.13-.4-1.32,1.06.93.13L346.76,171l-3.3,3,.13-1.06-.66-.13-.79-1.06v2.12l.66.79-.4,1.45L341,177.72l-2.78,3.17-.26-.13,1.72-2.78-1.19-1.45.66-3.3-1.19,1.71v2.51l-2-.66,1.85,1.32-.93,3.7.79.27v1.45l-.52,4-2.91,2.91-3.83,1.19L327.6,194l-1.71.26-2,1.46L323,197l-4.23,2.64-2.38,1.85-2.11,2.38-1.19,2.77v2.78l.4,3.43.92,2.78-.26,1.71.66,4.63-.53,2.77-.4,1.46-1.19,2.51-1.19.52-1.58-.52-.27-1.72-1.18-.93-1.19-3.43-.93-3-.26-1.59,1.19-2.64-.53-2.24-1.85-3.31-1.19-.53L299.86,211l-.53-.13L298.14,209l-2-1.06-3.83.53-2.91-.4-2.64.27-1.59.53.4,1-.53,1.72.53.79-.66.53-1.19-.66-1.45.8-2.38-.14-2.12-2.11-3,.53-2.25-.93-2.11.27-3,.92-3.83,2.91-3.84,1.72-2.24,2L256.26,220l-.66,2.77-.27,2,.4,1.32-1.32.14-2.25-.93-2.37-1.19-.53-1.85-.14-2.9-1.45-2.25-.66-2.25L246,212.07l-2-1.59-2.77.14-2.91,3-2.51-1.19-1.45-1.18-.27-2.12-.53-2.11-1.45-1.72L230.76,204l-.79-1.45h-5.82l-.52,1.71h-9.38l-6.74-2.77-4.36-2,.53-.8-4.36.53-4,.27.27-2.12-1.32-2.24-1.46-.53.13-1.06-1.85-.26-.66-1.06-3-.4-.53-.66.53-2.11-1.59-4-.26-5.55.52-.93-.79-1.32-.92-3.3,1.19-3.3-.66-2.12,2.37-3.3,1.72-3.44.79-2.9,3.31-3.7,2.51-3.57,2.51-3.57,2.77-5.28,1.06-3.3.26-1.85.93-.8,3.56,1.32-.66,3.7,1.46-1,1.45-3.17,1.06-3.18H295.1l.79-1.45H297l-.53,2.12.53.66,2.12.26,2.77.53,2.51,1.19,2.77-.4,3.31.93h1.05l3.18-1.06,2.24,1.32,2.38,1.59,2,1.32,1.85,1.19-.13,1,.66.4-.4.4h.8l.79-.4-.27.92.4.67h.79l.27.52-.66.66,2.51,1.85-.66,3.57-.8,3.44L324.56,158l-2.24,2.25-1.19,1.32-.26.4.13.52.92.66h.79l4.5-2.11,3.43-.66,4.89-1.85.26-.4.14-1.18-.27-.8,1.72-.66h6.08l1.58-1.58.53-.27,4.36-2.77,1.72-.8h10.57l.66-.92,1.06-.26,1.58-.66,1.72-1.72,2-3,3.44-2.91.66,1.06,2.37-.66.93,1.06-1.85,5.28ZM146.2,103.73l-4.36,1.45-.52-1.05,1.45-1.72,4-1.32,2.12-.53,1.71.26V102Zm-24.31-10.3-2.37.52-.93-.66-.53-.92,3.44-.66,1.85.26Zm.8-13.88.79.66,2.11-.39,1.06.92,2,.53-.66.27-3,.79-1.05-.79-.27-.67-2.64.27-.26-.27Zm74.64,15.2.14,2.38L202.22,95l4-1.19-.4,2,.53,1.46L207.38,99l-.8,2.64-.79,4.23,2.77,2.37-1.85,2.38-3.17,1.72-.39-1.32-1.59-1.19,2-3.3-.92-3L204.2,100l-2.51-.26-4.36-.13L195,98.58l-2.12-3.83-2-.66-3.57-1.32-4.22.26-3.7-1.59-1.59-1.58-4,.79-2.25,2.51-1.72.27-4.09.79-3.83,1.19-4,.79,2-2.25,5.16-3.56,4.23-1.06.26-.92-5.81,2-4.63,2.51-7,2.51.13,1.85-5.55,2.64L142,101.49l-4.1,1.05-2.51,1.72-6.61,1.85L126,108l-5,1.58-1.72-.39-3.83,1.06-4.36,1.32-3.83,1.32L101,113.9l.26-.66,5.16-1.71,4.09-1.19,5.29-2.12,4.09-.39,3-1.46,6.48-2.24,1.45-.8,3.43-1.32,3.7-2.77L141.84,97l-4.49,1.19-.26-.66-3,1.32.26-1.85-2.24,1.32,1.05-1.85-4.62,1.46h-1.72L129,95.8l2.11-1.32-.26-1.32-4.49.66-.27-1.72-.92-.92,2.51-2-.27-1.59,3.7-2,4.76-2.11,3.3-1.72,2.51-.26,1.19.52,4.36-1.71,1.59.26,3.43-1.06L153.87,78l-.66-.66,3.7-1.32h-1.72l-3.83.79-1.85.79-1.06-.79-4.36.4-2.77-.93.79-1.32-.66-2.11,5.68-1.46,8.19-1.58h2.25l-2.78,1.71,5.82-.13.66-2.24-1.46-1.32.53-1.59-.4-1.45-2-1.19,4-1.72,4.62-.13,5.55-1.46L175,58.55,179.89,57l3-.39,7-1.46,1.85.27,6.47-1.72,2.77.66-.39,1.45,2.11-.66,4,.27-1.32.79,3,.53,3-.4,4,1.06,4.36.39,1.46.4,4-.53,2.64.93,2.12.53h0l-15.2,12.68L192.58,92l2.64.13,1.72.93Z" transform="translate(38.5)"/><path class="cls-4" d="M806.27,180.23l-.53-2.38L801,176.13l-4-2-2.64-1.85L790,169.66l-2.64-4.1-1.33-.79-3.43.26-1.45-.79L780,161.07,775.09,159l-2,2.24-2.51,1.46,1,2h-3.56l-4-14.54,7.53-2.24.66.26L778,151l3,1.45,4.1,3.57,3.57-.66,5.28-.26,4.76,2.9.92,4h1.59l1.58,3.17,4.1.13,1.45,1.85h1.19l.66-2.78,3.31-2.77,1.58-.79,1.19.39-2,2.65,2.9,1.45,2-.93,4.49,2-3.3,2.9-2.65-.39-1.32.13-.79-1.19.13-1.85-4,.92-.27,2.65-1,2.11-2.65-.13-.39,1.72,2.64.92,1.45,3-.79,4-2.64-.79Z" transform="translate(38.5)"/><path class="cls-6" d="M338.3,282.22l-.13.93-2.11.53,1.06,1.71-.27,2.12-1.58,2.24,1.05,3.18,1.59-.27.92-2.77-1.05-1.46v-3l4.49-1.58-.4-1.85,1.32-1.32,1.06,2.77,2.51.13,2.11,2.25.14,1.32h3l3.83-.39,1.85,1.71,2.64.53,2.11-1.19v-1l4.36-.27h4.23l-3,1.19,1.19,1.85,2.77.26,2.52,2,.39,3.17h1.85l1.32.92-2.77,2.25-.4,1.45,1.19,1.59-.92.66-2.25.66.13,1.85-1.06,1,2.38,3,.4,1.19L373.45,311l-4,1.45-2.64.66-.92.92-2.78-.92-2.64-.53-.66.4,1.59.92-.27,2.78.53,2.51,2.91.26.13.93-2.51,1-.4,1.72-1.45.66-2.64.93-.66,1.18-2.78.27-1.85-2.11-1.06-4-.92-1.32-1.32-.92,1.85-2-.13-.92-.93-1.19-.66-2.64.4-2.78.79-1.45.79-2.11-1.32-.66-2,.39-2.51-.13-1.45.4-2.38-3.44-2-.53-4.5.4-.79-1.32-.92-.4v-.79l.39-1.46-.13-1.58-.79-.93-.27-1.84-1.85-.27,1.06-2.38.66-2.77,1.06-1.46,1.45-1.18.93-2Z" transform="translate(38.5)"/><path class="cls-5" d="M960.19,243.25l-4,3.43-2.24,3.7-.4,2.78,3.3,4.23,4.1,5.15,3.43,2.51,2.51,3.17,2.51,7.4.27,7-2.64,2.64-3.83,2.51-2.51,3.44-4.23,3.7L955,292.26l.8-2.64-2.78-2.24,2.91-1.59,3.7-.4L957.94,283l5.55-3-.13-4.76-1.06-2.64.13-4-1.19-2.91-3-2.78-2.77-3.43-3.57-4.76-4.49-2.38.79-1.45,2-1.06-1.85-3.43h-4.23l-2.12-3.7-2.64-3,1.72-1.06h2.77l3.31-.39,2.51-2.12,2,1.46,3.17.79-.13,2.25,2,1.58Z" transform="translate(38.5)"/><path class="cls-4" d="M1171.31,394.79l-1.19.53-.79-1.85.4-1.06Zm-1.32-6.21v3.3l-.79-.53-.79.27-.27-1.19.53-3Z" transform="translate(38.5)"/><path class="cls-4" d="M772.31,262.8l-2.37,1.06-.53,1.72V267L766,268.62l-5.41,1.84-3,2.91-1.46.13-1-.13L753,275l-2.24.79-2.91.13-.79.27-.79,1.05-.8.27-.52,1-1.72-.13-1.19.53-2.38-.13-1.06-2.38V274.3l-.52-1.19-.93-2.91-1.06-1.72.66-.13-.39-1.85.39-.79-.26-1.72,1.45-1.32-.39-1.59.79-2,1.45,1.06.93-.4,4-.13.66.4,3.44.39,1.32-.13.92,1.32,1.59-.66,2.24-4.23,3-1.71,9.91-1.59L771,260Z" transform="translate(38.5)"/><path class="cls-4" d="M643.23,443l1.72-2,1.19,1.06.53,1.71,1.58.27,2.12.79,1.72-.26,3.17-2.12.66-14.66.92.53,1.85,3.83-.39,2.38L659,436l2.51-.4,1.71-1.71,1.72-1.33.93-1.85,1.71-.92,1.46.53,1.58,1.06,2.78.26,2.11-.93.53-1.32.66-1.85,1.85-.39,1.06-1.46,1.32-2.64,3.17-3,5-2.9,1.45.13,1.59.66,1.19-.53,1.85.4,1.32,5.55.79,2.9-.92,4.49.26,1.33-1.72-.66-1,.26-.4,1.19-1.06,1.45v1.46l1.85,2.11,2.12-.4.79-1.85h2.51l-1.06,2.91-.66,3.3-.92,1.85-2.51,2-.66.66-1.72,2-1.06,2-2.11,2.9-4.23,4.1-2.51,2.38-2.64,1.85-3.7,1.58-1.72.14-.53,1.18-2-.66-1.72.8-3.57-.8-2,.53-1.45-.26-3.44,1.58-2.9.66-2.25,1.46-1.45.13-1.32-1.45H650.5l-1.32-1.85-.26.53-.4-1.06.13-2.25-.92-2.77,1.19-.66v-3l-2-3.7-1.45-3.44h0Zm42.68,1.45-1.32-1.18-1.72.79L681,445.65l-2,2.51,2.24,3,1.33-.39.66-1.19,2-.66.66-1.32,1.19-2Z" transform="translate(38.5)"/><path class="cls-2" d="M702.56,365.85l1.58,1.85.93,3.31-.66,1.19-.8,3.17.53,3.3L703,380.12l-1.19,3.7,1.85.93-10.7,3.3.27,2.91-2.65.53-2.11,1.58-.4,1.32-1.32.4L683.53,398l-2,2.64-1.19.13-1.06-.52-3.83-.4-.66-.27v-.39l-1.32-.93-2.25-.13-2.9.79-2.25-2.37-2.25-3.31.53-12.68h7.27l-.26-1.32.52-1.45-.52-1.85.39-2-.26-1.19h1.19l.13,1.33,1.58-.14,2.25.4,1.19,1.72,2.77.66,2.12-1.32.79,2.11,2.64.53,1.19,1.72,1.46,2.24h2.64l-.13-4.36-1.06.8-2.38-1.59-.92-.66.52-4.1.8-4.62-.8-1.85,1.06-2.51.93-.4,4.75-.79,1.32.53,1.46.92,1.45.66,2.11.67Z" transform="translate(38.5)"/><path class="cls-6" d="M695.16,417.78l-1.85-.4-1.19.53-1.59-.66-1.45-.13L687,415.4l-2.65-.66-.92-2.51.13-1.46-1.45-.39L678.25,406l-.93-2.38-.66-.66-1.19-3.17,3.83.4,1.06.52,1.19-.13,2-2.64,3.17-3.17,1.32-.4.4-1.32,2.11-1.58,2.65-.53.13,1.45,2.9-.13,1.59.92.66.93,1.72.26,1.71,1.32-.13,5-.92,2.78-.27,3,.53,1.19-.53,2.24-.52.4L699,413.29Z" transform="translate(38.5)"/><path class="cls-4" d="M502.92,269.94l-.13.13h-.26l-.27-.4.14-.13.39-.26.13.13.14.26Zm4-1.06h-.13l-.14-.26v-.27l.14-.26H507l.13.26v.4Zm-.93.53-.26.39-.4-.13-.53-.66v-.26l.14-.27v-.39h.26v.26l.53.53Zm2-5,.4.13h.13l.27.13v.4l-.13.26-.4.13h-.27l-.13-.13.27-.53Zm-4-1.46.13.14-.13.13-.53-.13h-.13l-.26.39-.27-.53v-.13l.13-.13.4.13Zm4.1-.13-.14.13-.13-.26-.13-.4.26-.13h.14Zm-6.87-.66-.53.13-.27-.13.14-.26.39-.13.27.26Zm-.93-.53-.39.14-.14-.14v-.26l-.13-.13v-.14l.79-.39h.4l.13.39-.13.14Z" transform="translate(38.5)"/><path class="cls-4" d="M740.74,378.27l-.4.14-.13-.27V378h.26Zm2.38-.92.26.53v.39l-.13.14-.13-.14-.27-.26-.66-.4h.66v-.13l.13-.13Zm-3.44-.79v.13l-.53-.4-.26-.26.13-1.32.13-.14.13-.13.14.13v.93l.26.53.13.39Z" transform="translate(38.5)"/><path class="cls-5" d="M786.71,410.77l-.26.14h-.53l-.26-.27.13-.13v-.26l.13-.53.27-.13.26-.14v-.39l.26-.13.27-.14.26.4.14.53v.53l-.27.13-.13.26Z" transform="translate(38.5)"/><path class="cls-4" d="M783,347.89v.26h-.27v-.26l-.26-.14-.13-.26.26-.13Z" transform="translate(38.5)"/><path class="cls-4" d="M760.69,226.07l-.13.27-.14-.13-.26-.53v-.27l-.27-.66.14-.13h.39l-.13.13.27.27Z" transform="translate(38.5)"/><path class="cls-4" d="M845.9,316.31h-.13v-.26H846v.26Zm.27-3.7H846v-.26h.13Z" transform="translate(38.5)"/><path class="cls-4" d="M1175.14,331.24l.14-.13.13.13v.13h-.27Z" transform="translate(38.5)"/><path class="cls-5" d="M-10.36,385.14h-1.05l-.53-.26h-.13l-.4-.26-.26-.27.26-.13h.53l.92.26.14.27h.13l.26.13Zm-3.56-2.37.53.39.26.53-.26.53-.27-.13-.53.13-.13-.13-.92-.8-.27-.26h.4l.66-.13Z" transform="translate(38.5)"/><path class="cls-4" d="M954.24,324.11l-1.45.52-.53-.26.26-.93.27-.13h.39l.53.13H954v.27Z" transform="translate(38.5)"/><path class="cls-4" d="M-15.51,414.08l.13.53-.26-.27-.13-.13Zm-1.06-.53.14-.13.13.13-.13.26-.14-.13-.66-.26.14-.13h.26Zm1.46-10.17-.13.26-.27-.26.13-.27.27.13.13.14Z" transform="translate(38.5)"/><path class="cls-4" d="M373.32,261.22l-.14.26-.39-.13-.13-.13v-.14l.26-.26.53.26v.14Zm0-2.12v.13l-.4-.13.13-.53.27.14Z" transform="translate(38.5)"/><path class="cls-4" d="M379.92,277.07h-.13l-.4-.13v-.79h.27l.39.66Z" transform="translate(38.5)"/><path class="cls-5" d="M374.24,268.35l-.4.13v-.66l-.26-.53.13-.26v-.13l.53.13.13.26V268Z" transform="translate(38.5)"/><path class="cls-4" d="M371.86,281.3l-.13-.13.13-.27.27-.53.26.14-.26.66Z" transform="translate(38.5)"/><path class="cls-4" d="M370.41,261l-.13.13-.13-.13.13-.26h0l.13.13Zm-.26-.39-.27-.27-.26-.13-.14-.13v-.13l.14-.14.26.27.13.26h.14Z" transform="translate(38.5)"/><path class="cls-4" d="M375.17,274.16l-.27.4-.26-.26v-.53l.26-.4.13-.26.14-.13.13.39Z" transform="translate(38.5)"/><path class="cls-5" d="M374.11,276.81H374l-.27-.27v-.39L374,276l.13-.13h.13v.66Z" transform="translate(38.5)"/><path class="cls-4" d="M635.84,186.31v.13h-.4l-.26-.13v-.53l.66.39Z" transform="translate(38.5)"/><path class="cls-4" d="M33.77,321.07l.13.13.27.13v0h0v.13H34v.27l.13.13h.13l.13.13h0v.13h.27v.14h-.4v-.14h-.13l-.4-.13h-.13v-.13l-.13-.13h-.27v-.27h.14v.13h0v.14h.26l.13.13h0v-.13h-.13v-.14h.13v.14h.13v-.14h-.13v-.13h.13v0h0v.13h0l.14-.13h0v-.13H33.9l-.13-.13h-.13v-.13h0v.13h-.13v-.13h.26Z" transform="translate(38.5)"/><path class="cls-4" d="M611.13,327.41l.4.53-.27.66-.53.39-.26-.66.13-.39Z" transform="translate(38.5)"/><line class="cls-7" x1="219.41" y1="684.88" x2="219.41" y2="658.52"/><line class="cls-7" x1="398.24" y1="684.88" x2="398.24" y2="680.36"/><line class="cls-7" x1="577.08" y1="684.88" x2="577.08" y2="658.52"/><line class="cls-7" x1="755.91" y1="684.88" x2="755.91" y2="680.36"/><line class="cls-7" x1="934.75" y1="684.88" x2="934.75" y2="658.52"/><line class="cls-7" x1="1113.58" y1="684.88" x2="1113.58" y2="680.36"/><rect class="cls-2" x="219.41" y="684.88" width="178.83" height="15.07"/><rect class="cls-3" x="398.24" y="684.88" width="178.83" height="15.07"/><rect class="cls-6" x="577.08" y="684.88" width="178.83" height="15.07"/><rect class="cls-5" x="755.91" y="684.88" width="178.83" height="15.07"/><rect class="cls-4" x="934.75" y="684.88" width="178.83" height="15.07"/><text class="cls-8" transform="translate(208.03 671.7)">0%</text><text class="cls-8" transform="translate(382.88 671.7)">20%</text><text class="cls-8" transform="translate(561.64 671.7)">40%</text><text class="cls-8" transform="translate(739.93 671.7)">60%</text><text class="cls-8" transform="translate(918.39 671.7)">80%</text><text class="cls-8" transform="translate(1097.38 671.7)">100%</text></g><g id="Layer_4" data-name="Layer 4"><rect class="cls-7" x="38.5" width="0.6" height="0.55"/><rect class="cls-7" x="1293.89" width="0.6" height="0.55"/></g></svg>