<svg xmlns="http://www.w3.org/2000/svg" viewBox="0 0 1294.17 700.09"><defs><style>.cls-1{fill:#122755;}.cls-2{fill:#425a6f;}.cls-3{fill:#d3f1bb;}.cls-4{fill:#a3bfa2;}.cls-5{fill:#738c88;}.cls-6{fill:none;}.cls-7{font-size:20px;font-family:SpaceGrotesk-Regular, Space Grotesk;}</style></defs><g id="Layer_2" data-name="Layer 2"><path class="cls-1" d="M790.39,187l3.7,1.45,2.38-.52.26-1.72,2.51-.66,1.59-1.19-.13-3.18,2.64-.79.13-1.45,1.85,1.05,1.06.14,1.85.13,2.64.79,1,.53,2.12-1.32,1.32.79.53-1.85,2,.13.39-.66-.13-1.58,1.06-1.33,2,.8v1.32l1.06.13.66,3.31,1.58,1.32.93-.8,1.32-.39,1.58-1.85,2.38.39H834l.93,1.06-1.72.53-1.45.66-3.7.53-3.3.79-1.46,1.72,1.19,1.72.79,2-1.18,1.72.52,1.46-.66,1.45-3.17-.13,2,2.64-2,1.06-.92,2.38.66,2.38L819.45,203l-1.32-.27-2.38.53-.13,1.06h-2.51l-1.45,2.25.4,3.43-4.1,1.59-2.38-.26-.52.79-2.12-.53-3.3.66-5.94-2.11,2.37-3.57-.66-2.52-2.64-.66-.79-2.64-1.72-3.17,1.06-2.12-1.59-.66.4-2.91Z" transform="translate(38.17)"/><path class="cls-2" d="M671.65,372.77l.26,1.19-.39,2,.53,1.85-.53,1.45.26,1.32h-7.26L664,393.26l2.25,3.31,2.24,2.38L662,400.67l-8.32-.66-2.38-1.85-14.13.13-.53.26-2-1.72-2.25-.13-2.11.66-1.72.8-.26-2.52.53-3.56,1.32-3.57.13-1.72,1.19-3.57.92-1.72,2-2.65,1.19-1.71.4-2.91-.13-2.25-1.06-1.45-.93-2.38-.79-2.52.13-.79,1.06-1.58-.92-3.84-.8-2.64-1.71-2.51.39-.8,1.46-.53h.92l1.32-.39h10.3l.93,3,.92,2.38.8,1.32,1.32,2,2.37-.26,1.06-.53,2,.53.53-1.06.92-2.25,2.12-.13.26-.79h1.72l-.26,1.45h4.22l.13,2.51.66,1.46-.52,2.51.13,2.38,1.19,1.45-.27,4.76.93-.26h1.45l2.25-.53ZM630.7,352.28l-.92-3,1.45-1.72,1.06-.66,1.32,1.32-1.32.93-.53.93-.13,1.71Z" transform="translate(38.17)"/><path class="cls-1" d="M655.8,166.41v1.05l-1.06.53v1.33l-1.32,1.85-.66-.27-.13-.79-1.85-1.32-.39-2v-2.64l.26-1.19-.53-.66-.4-1.19,1.33-2,.26.79.79-.4.79,1.06.8.4.39,1.45-.39,1.32.66,1.72Z" transform="translate(38.17)"/><path class="cls-3" d="M764.77,232.51l.53-.27.26,1.19,2.64-.66,2.91.13,2,.14,2.11-2.78,2.38-2.51,1.85-2.51.79,1.45.8,3H779.3v2.65l.66.52-1.59.8.14,1.72-.8,1.58v1.59l-.52.92-10.57-2.11-1.59-4Z" transform="translate(38.17)"/><path class="cls-4" d="M391,546.35h-4.88l-3.7-8.59,1.85,1.85,2.77,2.78,4.76,2.38,4.49.92-.53,1.85-2.64.14Zm-18.89-128.5,7,6.48,2.9.66,4.49,2.91,3.7,1.59.66,1.72-2.51,6.08,3.57,1.06,3.83.66,2.64-.66L401,435.3l.27-3.56,1.58-.8,2,2.38.27,3.17-2.65,2.25-2,1.59-3.43,3.83-3.7,5.42-.26,3.18-.27,4.09.79,4-.52.93.13,2.64.26,2,4.89,3.44v2.78l2.51,1.71.13,2-2,5-4.36,2.12-6.34.92-3.7-.39,1.19,2.37.13,2.91,1.19,2-1.58,1.45-3.17.53-3.57-1.46-.92,1.06,1.58,3.84,2.51,1.19,1.45-1.19,1.46,2L382.39,500l-1.85,2.38.79,4-.13,2.11h-2.91l-1.85,2v2.9l4.1,2.91,3.17.8.13,3.43-2.91,2.25-.26,4.49-2.25,1.59-.52,1.72,2.51,4,2.9,2.24-1.32-.13-3-.66-7.39-.53-2.25-2.25-1.19-2.77-1.85.26-1.71-1.45-1.85-4.1,1.71-1.72V521l-1.05-2,.39-3.31-.66-5.28-1.19-2.25,1.06-.8-.79-1.45-1.72-.79.4-1.59L359,502.07l-2.25-4.63,1.06-.79-2.11-4.76-.4-4.1-.26-3.57,1.58-1.45-2-3.84-1.06-3.7,1.85-2.51-.79-3.31.92-4-.79-3.7-1-.67-3-6.87,1.32-4.1L351,446.28l.53-3.7,1.72-3.71,2-2.51-1.32-1.58.53-1.19-.93-6.75L356.9,425l.79-4.23-.53-.92,2.51-3.7,4.62,1.05,2.25,2.91,1-3.3,4,.26Z" transform="translate(38.17)"/><path class="cls-4" d="M728.45,165.48l4.36-.66.92,1.06,1.32.66-.53.92,2,1.46-.66,1.19,1.59,1.06,1.58.66.66,2.77-1.19.14-1.71-2.25-.13-.66h-1.46L734,170.77l-.66.13-1.45-1.19-2.64-.92v-2Z" transform="translate(38.17)"/><path class="cls-4" d="M1057.47,491.75l2.24,1.33,2.12-.53,3-.8,1.72.27-2.77,4.63-2,1.45-2.51,3.17-.4-1-4.09,2.64-.53-.13-1.85-.13.26-3.44,1.32-2.51.4-3.44,1.19-1.85ZM1088.77,384l.79,3.17,2.51-1.58.8,1.72,1.45,1.58-.66,1.72.13,3.44.13,2,.79.53L1095,400l-.79,2,.52,2.78,3.31,2,2,2,2,1.72-.66.93,1.32,2.51.4,4.36,1.58-.92.93,1.71,1-.52-.53,4.23,1.85,2.38,1.19,1.58,1.85,3.17-.13,3.18-.66,2.24-1.06,2.52.4,3.43-1.45,3.44-1.33,1.85-2.37,3.57-.93,2.38-1.85,2.78-3.17,3.7-3.43,1.85-2.64,3.17-2.12,2-2.77,3.43-2.25,2-2.5,2.9-1.85,2.78-.53,1.19-2.64,1.45-3.83.14-3.83,1.58-2.38,1.59-3,1.72-1.72-1.72-1.58-.79,1.71-2-2.24.66-4.49,2.91-2.25-1.05-1.45-.67-1.72-.26-2.51-1.19-.79-2.38.93-3,.13-2-.8-1.59-2.9-.53,2-2,.53-2.91-2.91,2.78-3.3.66,2.77-2.12,1.59-2.38,2.24-1.85.93-3-4.1,3.44-2.77,1.32-2.64,3.17-1.85-1.58,1.06-2.12-.93-2.91-1-1.45.92-.93-3.3-2.51h-2.25l-2.51-2-6.2.4-4.89,1.32-4.23,1.45-3.17-.26-4.36,2-3.17.93-1.45,2.11-2,1.59-2.78.13-2.24.26-2.64-.66-2.64.4-2.38.26-2.78,2.12-.92-.27-2.11,1.19-2.12,1.19-2.37-.13h-2.25l-2.51-2.51-1.45-.79.92-2.25,1.85-.53.93-.92.39-1.46,1.46-2.78.39-2.37-.53-4,.27-2.25.79-2.38L976.5,444l.26-1.19-1-1.59.39-3.17-1.19-3.17v-1.59L976,435l-.26-3.7,1.45,1.06.66,1.58.4-2-.93-3.17-.13-1.32-.53-1.19.79-2.25.93-.93.79-2.11.13-2.25,1.85-2.91-.26,3,2-2.77,3-1.33,2-1.71,2.9-1.46,1.59-.26.92.53,2.91-1.59,2.25-.4.66-.92.92-.27h2l3.83-1.06,2.25-1.85,1.19-2.11,2.37-2,.53-1.59.4-2.25,3-3.3.92,3.43,1.59-.79-.93-1.85,1.32-2,1.46.79.92-3,2.11-1.85,1.06-1.59,1.85-.66.26-1.19,1.46.53.26-1.06,1.59-.53,1.71-.52,2.38,1.85,1.58,2.24,2.12.14,2.24.26-.52-2.12,2.11-3.17,1.72-1.06-.4-1.05,1.85-2.25,2.24-1.45,1.72.52,3-.79.26-2L1049,374.1l2-.53,2.25.92,1.59,1.59,2.9,1.06,1.06-.4,2,1.19,2.11-1.06,1.32.27.93-.66,1.32,2-1.19,2.11-1.58,1.59-1.19.13.13,1.59-1.19,2-1.59,2v1.06l2.51,2.25,2.38,1.32,1.59,1.32,2.11,2.38h.92l1.72,1.06.27,1.19,3,1.32,2.65-1.32,1-2.11,1.06-1.86.79-2.11,1.59-3.17-.14-2,.4-1.19-.13-2.24.92-3,.8-.8-.4-1.32,1.19-2.11.92-2.12.27-1.19,1.45-1.45.66,1.85v2.51l.79.53v1.72l.93,2v2.25Z" transform="translate(38.17)"/><path class="cls-2" d="M640.48,137.85l-.13,1.59h-1.72l.66.79-.92,2.51-.53.66-2.64.14-1.59.92-2.51-.39-4.62-.93-.79-1.32-3,.66-.27.66-2-.53-1.71-.13v-.4l-.93-.13.13-.13v-.13l-.26-.14.13-.13-.26-.26.39-.4-.26-.53,1.06-.26,1.58,1.05.4-1.05,2.77.26,2.11-.79,1.46.13,1,.79.27-.66-.66-2.51,1.05-.53,1.06-1.72,2.38,1.19,1.58-1.58,1.06-.27,2.51,1.19,1.45-.13,1.45.66-.26.53Z" transform="translate(38.17)"/><path class="cls-3" d="M738.48,174.74l-2.37-.53-2-1.85-.8-1.46.66-.13,1.19,1.06h1.46l.13.66Zm4-10.58,1.58-1.59,2.12,2.12,2.24,2.77,1.45.14,1.32,1.19-2.64.26v3l-.26,1.46-1.06.92.53,2-.79.14-2.38-2.12.66-1.85L744,171.43l-1,.27-3.31,2.9-.66-2.77-1.58-.66-1.59-1.06.66-1.19-2-1.46.53-.92-1.32-.66-.92-1.06.66-.66,2.64,1.19,1.71.13.4-.39-2-2.12.66-.53.92.13L740.6,165l1.45.27Z" transform="translate(38.17)"/><path class="cls-1" d="M691.07,347.13l-.27-4.89-.79-1.72,2.11.26,1.06-2.25,1.85.27.26,1.58.8.93v1.19l-.93.92-1.32,2-1.32,1.45Z" transform="translate(38.17)"/><path class="cls-4" d="M600.19,125.69l2.78-.79,2,1.71,1.72.93-.27,2.51-.79.13-.27,2.25-2.77-1.85L601,131l-2.12-1.85-1.45-1.59H596l-.4-1.32,2.38-.8Z" transform="translate(38.17)"/><path class="cls-3" d="M597.42,304.16l-2.91.53-.92-2.78.13-9.12-.66-.92-.13-1.85-1.19-1.46-1.19-1.19.53-2.11,1.19-.4.66-1.72,1.72-.4.79-1.19,1.19-1.19h1.19l2.77,2.25-.13,1.32.79,2.38-.79,1.59.39,1.19-1.71,2.38-1.06,1.19-.66,2.51.13,2.65Z" transform="translate(38.17)"/><path class="cls-3" d="M578,290.68l-2.37-1.06-1.72.26-1.19.93-1.59-.79-.52-1.33-1.59-.92-.26-2.25.92-1.72v-1.32l2.78-3.3.52-2.78.93-.93,1.72.53,1.45-.79.53-1.06,2.64-1.85.66-1.19,3.3-1.72,1.85-.53.92.8h2.25l-.26,1.85.39,1.85,2,2.64.14,1.85,4.09.93-.13,2.77-.79,1.19-1.72.4-.66,1.72-1.19.4h-3l-1.72-.4-1.05.66-1.59-.26-6.07.13-.14,2.38Z" transform="translate(38.17)"/><path class="cls-3" d="M907,241.23l.4,2.91-1.32-.66.66,3.31-1.32-2.12-.4-2-1-2-1.72-2.38-3.17-.13.53,1.72-.8,2.12-1.58-.8-.4.8-1.05-.4-1.32-.4-1.06-3.3-1.59-3,.27-2.38-2.38-1.06.53-1.45,2-1.46-2.91-2.11.8-2.78,3,1.72,1.59.26.79,2.78,3.44.53h3.17l2,.66-.93,3.3-1.58.27-.66,2.25,2.11,2.11.27-2.51.92-.13Z" transform="translate(38.17)"/><path class="cls-3" d="M659.63,153.05l1.19,1.59,1.19-.26,2.51.66,4.62.13,1.45-.93,3.7-.92,2.51,1.32,1.85.53-1.45,1.59-.79,2.77,1.32,2.25-2.78-.53-3.17,1.32.27,1.85-2.91.4-2.51-1.32-2.38,1.06-2.37-.14-.53-2.64-1.72-1.19.4-.53-.4-.53.4-1.19,1.19-1.32-1.72-1.72L659,154Z" transform="translate(38.17)"/><path class="cls-3" d="M321.76,234.36l-.79.26-.66-2.24-1.06-1.19,1.06-2.52,1.05.14.8,3.3Zm.79-11.24-3.83.66v-1.45l1.59-.27,2.24.14Zm2.78,0L324.27,226l-.53-.53.4-2.11-1.32-1.59.13-.4Z" transform="translate(38.17)"/><path class="cls-4" d="M647.88,150.54h1.18l-.66,1.72,1.72,1.59-.4,1.85-.66.13-.52.4-1.06.92-.26,2.12-2.91-1.46L643,156.1l-1.32-.8-1.59-1.45-.79-1.32-1.72-1.85.53-1.59,1.32.92.53-.79,1.45-.13,2.78.66h2.24Z" transform="translate(38.17)"/><path class="cls-3" d="M657.52,115.64h2.9l2.91-1.45.4-2.12,2.24-1.19-.66-1.72,1.72-.52,2.9-1.46,3.17.93.66.92,1.46-.53,3,.93.53,1.72-.39,1,2.37,2.52,1.33.66V116l2.11.66,1.06,1.06-.93.79-2.51-.13-.53.39,1.06,1.33,1.19,2.38-2.64.26-.66.79.13,2-1.32-.4-2.64.13-.93-.92-1.06.66-1.18-.53h-2.51l-3.44-.93-3.17-.26h-2.24l-1.46,1.06-1.45.13-.26-1.72-1.19-1.72,1.58-.79-.13-1.46-1.06-1.45Z" transform="translate(38.17)"/><path class="cls-1" d="M278.7,258.16v-.53l.4-.27.66.53,1.58-2.51H282l-.13.66h.66l-.13,1.06-.79,1.72.13.66-.53,1.32.27.4-.66,2-.8,1.06-.66.13-.79,1.45h-1.06l.8-4.49Z" transform="translate(38.17)"/><path class="cls-4" d="M357.16,419.84l-2.38.53-2-5.56-2.38-4.49.66-3.83-2-1.72-.66-2.78-2-2.78,1.72-4.23-1.72-3.43.66-1.33-.79-1.45,1.19-2-.13-3.44v-2.78l.66-1.32-3.44-6.48,2.64.4L349,373l.79-1.19,2.91-1.59,1.85-1.45L359,368l-.27,3.05.53,1.58-.13,2.65,4.1,3.56,4,.67,1.45,1.45,2.38.79,1.45,1.19h2.25l2.11,1.06.26,2.38.8,1.19.13,1.72h-.93l1.59,4.63,6.74.26-.4,2.25.53,1.58,2,1.06,1.06,2.51-.4,3.18-.79,1.72.52,2.24-.92.8-.26-1.19-3.44-2-3.17-.13-5.94,1.19L372.88,411l.13,2.12-.93,4.75-.52-.79-4-.26-1,3.3-2.25-2.91-4.62-1.05Z" transform="translate(38.17)"/><path class="cls-1" d="M393.35,449.58l3.7-5.42,3.43-3.83,2-1.59,2.65-2.25-.27-3.17-2-2.38-1.58.8.39-2.25.27-2.38-.27-2.25-1.32-.66-1.19.66-1.32-.26-.53-1.46-.66-3.7-.79-1.19-2.38-1.06-1.32.8-3.7-.8-.26-5.42L387,409.53l.92-.8-.52-2.24.79-1.72.4-3.18-1.06-2.51-2-1.06-.53-1.58.4-2.25-6.74-.26-1.59-4.63H378l-.13-1.72-.8-1.19-.26-2.38L374.73,383h-2.25L371,381.76l-2.38-.79-1.45-1.45-4-.67-4.1-3.56.13-2.65-.53-1.58L359,368l-4.49.8-1.85,1.45-2.91,1.59L349,373l-1.72.13-2.64-.4-2,.66-1.58-.39-.14-6.08-2.77,2.38-3-.14-1.45-2.11-2.38-.27.66-1.71-2-2.38-1.58-3.57.79-.8v-1.58l2.11-1.19-.53-2.12.93-1.45.13-1.85,4-2.65,2.91-.79.39-.66,3.17.26,1.32-11,.14-1.72-.53-2.25-1.59-1.45V327l2-.66.67.4.13-1.59-2-.4-.14-2.51,6.87.13,1.19-1.32,1.06,1.19.66,2.38.66-.53,1.85,2.12,2.77-.27.66-1.19,2.64-.92,1.46-.66.39-1.72,2.51-1.06-.13-.92-2.91-.27-.52-2.51.26-2.78-1.58-.92.66-.4,2.64.53,2.77.93.93-.93,2.64-.66,4-1.45,1.32-1.46-.4-1.19,1.72-.13.79.92-.39,1.72,1.19.66.66,1.86-.93,1.32-.66,3.43.93,2L378,322l2.24,1.85,1.72.26.4-.79,1.05-.13,1.59-.8,1.19-1,2,.39.79-.13,2,.27.27-.8-.53-.79.26-1.19,1.46.4,1.71-.4,2,.79,1.59.93,1.06-1.19.79.26L400,321l1.72-.26L403,319.1l1.19-2.91,2.11-3.57,1.19-.26.93,2.25,1.85,7,1.85.66.13,2.65-2.78,3.3,1.19,1.19,6.21.66.13,4,2.64-2.51,4.5,1.32,5.81,2.51,1.71,2.25-.52,2.25,4.09-1.19,6.87,2.11,5.28-.13,5.15,3.3,4.63,4.37,2.64,1.19,3,.13,1.32,1.32,1.32,5,.53,2.38L464.81,365l-1.72,2.65-4.75,5.55-2.12,4.5-2.51,3.43-.79.13-.92,2.91.66,7.41-.66,6.21-.27,2.64L450.67,402l-.26,5.29-3.17,5.15-.4,4.23-2.64,1.72-.66,2.38h-3.7l-5.28,1.46-2.24,1.85-3.84,1.06-3.69,3.17-2.51,4-.27,3,.79,2.25-.13,4-.53,2L420,445.62l-2.77,7-2.51,3.18-2,1.85-.93,3.83L410,463.73l-1.32-2.25,1.19-1.85-2.38-2.78-3-2.11-3.84-2.65-1.18.14-4-3Z" transform="translate(38.17)"/><path class="cls-3" d="M989.31,311.17l1.32-1.59,2.91-2.11-.13,2V312l-1.72-.13-.66,1.32Z" transform="translate(38.17)"/><path class="cls-1" d="M899.63,218.36l1.71,1.32.27,2.52-2.78.13-2.9-.27-2.11.53-3.31-1.45-.26-.79,1.58-3,1.72-.92,2.64.92h1.72Z" transform="translate(38.17)"/><path class="cls-3" d="M689.22,417.19l-5,2.91-3.17,3-1.32,2.65-1.06,1.45-1.85.4-.66,1.85-.53,1.32-2.11.93-2.77-.27-1.59-1.06-1.45-.53-1.72.93-.92,1.85L663.33,434l-1.72,1.72-2.51.4-.66-1.46.4-2.38L657,428.43l-.93-.53.4-11.63,3.44-.13.52-14.28,2.51-.13,5.42-1.33,1.32,1.59,2.24-1.59H673l2-.79.66.26,1.19,3.18.66.66.93,2.38,3.83,4.36,1.45.4-.13,1.45.92,2.51,2.64.66Z" transform="translate(38.17)"/><path class="cls-1" d="M641.54,299.53l2.9-.26.66-1.06.53.13.92.93,4.36-1.59,1.46-1.58,1.85-1.33-.4-1.45,1.06-.4,3.3.27,3.3-1.85L664,287l1.72-1.58,2.24-.66.4,1.72,2.11,2.51v1.58l-.53,1.72.27,1.19,1.19,1.19,2.64,1.72,2,1.59v1.32l2.51,2.11L680,303.1l.93,2.38,2.64,1.59.53,1.19-1.19.4h-2.25l-2.64-.53-1.32.39-.53.93-1.06.13-1.45-.79-3.83,2-1.58-.4-.53.27L666.63,313l-2.64-.66-2.51-.4-2.25-1.45-2.9-1.46-1.85,1.32-1.45,2-.27,2.77-2.24-.13-2.38-.66L646,316.46l-1.85,3.7-.27-1.19-.26-1.85-1.59-1.33-1.32-2-.26-1.45-1.72-2.12.27-1.19-.27-1.58.13-3.18.93-.66Z" transform="translate(38.17)"/><path class="cls-2" d="M389,143.93l2.11.53,3-.13L392,146.05l-1.19.13-3.43-1.59-.4-1.32,1.59-1.19Zm9-9.91-1.45.13L393,133l-2.24-1.85,1.19-.4,3.7,1.06,2.51,1.59ZM207,136.4l-2,.53-3.83-1.85v-1.33l-1.85-1.32.13-1.19-2.64-.66.4-2.11.92-.8,2.51.8,1.45.52,2.64.4v1.32l.4,1.85,2,1.59Zm210.41-8.46-3.17,3.3,2.38-1.19,1.85.8L417,132.17l2.38,1.05,1.72-.92,2.64,1.19L422,136.27l2.38-.67-.26,2.12.39,2.38-2.24,3.44-1.46.13L419,143l1.59-3.18-.79-.52-4.49,3.3-1.85-.13,2.64-1.72-2.64-1.06L410,140l-5.94-.14-.13-1.05,2.37-1.46-1.05-1,3.3-2.25,5.15-6.22,2.51-2.11,3-1.32,1.45.13-.92,1.06ZM194.83,115.11h0l3.17-.26-4.49,4.36.13,3h-1.19l-.4-1.85.4-1.72-.53-1.19.8-1.58,1.18-1.33Zm175-30-2.25,2-1-.4-.13-1.06.26-.26,1.72-1.06,1.19.13Zm-6.08-2-4.49,2h-1.85v-1l3.17-1.59h3.7Zm-1.85-10.31-.66,1.45,1.72-.53.93.93L366,75.85l2.38,1.06-.8,1.72,2.12-.27,1.19,1.19-3,1.06-3.7-.79-.53-1.59-3.83,1.85-5.15,1.85.4-2.11-3.83.39,3.56-1.72L357,75.72l3-3.31Zm27.87-5.16-3,.14.39-1.72,2.38-1.85,2.64-.53,1.45.92-.92,1.46-.53.53Zm-46.23-6.74-2.64,1.19L338.4,61l-2.37.4L333.78,60,337,58.93l3-1.46,1.85.93,1.05.66.14.66Zm32.76,88.58L375,147.24l1.85-5.29-.92-1.06-2.38.66-.66-1.05-3.44,2.9-2,3-1.72,1.72-1.58.66-1.06.27-.66.92H351.88l-1.72.8-4.36,2.77-.53.27-1.58,1.58h-6.08l-1.72.67.27.79-.13,1.19-.27.4-4.89,1.85-3.43.66L323,163.1h-.79l-.93-.66-.13-.53.26-.39,1.19-1.33L324.8,158l1.85-2.25.79-3.44.66-3.57-2.51-1.85.66-.66-.26-.53h-.79l-.4-.66.26-.92-.79.39h-.79l.39-.39-.66-.4.14-1.06-1.85-1.19-2-1.32-2.38-1.59-2.25-1.32-3.17,1.06h-1.05l-3.31-.93-2.77.4-2.51-1.19-2.77-.53-2.12-.26-.52-.66.52-2.12h-1.05l-.8,1.45H209.89l-3.44-3.83-1-1.59L201,127.41,202,124l2.11-2.38L201.56,120l2-3-1.32-2.77,1.58-2,3.17-1.71,1.85-2.38-2.77-2.38.79-4.23.79-2.65-1.06-1.72-.52-1.45.39-2-4,1.19L197.73,97l-.13-2.38-.39-1.72L195.49,92l-2.64-.13L215,71.62l15.19-12.69,3.7.79L236,61.31l2.24.39,4-1.45,4.36-1.06,3.3.4,5.41-1.46,5.15-.79.14,1.32,2.77-.79,2.38-1.59,1.32.4.92,3L274,57.47,271.44,60l3.7-.53,2.11-1.06,2.77.26L282.4,60l4.76,1.32,2.9.53,2.77-.27,1.72,1.72L289.27,65l4,.79,7.4-.39,2.77-.67.93,2.12,4.35-1.72-1.32-1.45,2.78-1.19,3.3-.14,2.38-.39,1.32.79.92,1.85,3-.26,3.3,1.58,4.49-.52h3.7L334,63.29l2.78-.53,3,1.06-2.65,3.3,3.84-2.77,2.11.13L347,61l-.93-2-1.84-1.45L347.78,54l5-2.38,2.77.53,1.33,1.45.13,3.7-3.57,1.59,4.1.66L354.91,63l5.42-2.65,1.45,2.25-2.64,2.51.79,2.25L364.42,65l4.1-3,2.9-3.57,3.31.26,3.43.4,2.25,1.72-1.06,1.72-3.17,1.72.53,1.85-1.46,1.72-6.73,2.37-4.1.53-2-1-2,1.71-4.62,2.91L354,75.85l-4.89,2.38-4,.26L342,80l-1.85,2.38-3.57.39-5.28,2.91-5.94,4.1-3,2.78-3,4.36,3.7.53-.92,3.44-.53,2.9L326,103l4.36,1.59,2.11,1.45,1.06,1.72,3,1.06,2.25,1.58,4.75.27,2.91.39-2.24,3.18L343.16,118l.13,4.23,2.64,3.7,2.91-1.32,3.56-3.83,1.33-6.08-1.06-2,5.68-1.72,4.62-2.64,2.91-2.64,1.05-2.51-.26-3-1.85-2.77,5.42-3.84.66-3.3,2.37-5.69,2.38-.79,4.23.93,2.64.39,2.77-.92,1.85,1.19,2.25,2.11.13,1.33,4.75.26-1.58,3-1.45,4.63,2.37.66,1.06,2.11,5-2,4.62-4.1L407,91.71l.67,3.31,1.58,4.63,1.32,4.49-2.11,2.38,3,2.12,1.71,2.11,4.36.93,1.45,1.19v3.3l2.12.4.66,1.45-1.19,4.36-2.64,1.46-2.64,1.32-5.55,1.32-4.89,3.18-5.28.66-6.21-.8-4.62-.13-3.3.27-3.57,2.77-4.49,1.72L371,139.31l-4.89,3.57,2.91-.67,6.87-5,7.52-3.3,4.76-.4,2.11,2-3.83,2.65-.39,4.09v2.91l3.56,2,5.29-.53,4.49-4.37-.66,2.78,1.58,1.45L395.73,149l-7.66,2.38-3.7,1.58L380,155.7l-2.38-.27.93-3.3,6.6-3.31L380,149ZM310.4,47.82l-2.9,1.46,6.47-.93,1.58,1.59,4.63-1.59,1.05.93-1.32,3.3,2.64-1.45,1.85-3.31,2.64-.39,1.85.52,1.32,1.33-1.71,3-1.59,2.38,2.64,1.58,3.17,1.59L331,59.32l-4.36.27.53,1.32-2,1.19L321,61.57l-3.57-.92-3.17.26-5.81,1.19-7,.4-4.89.39.14-1.58-2.51-.93-2.65.4-.39-2.65,2-.39,4.49-.53,3.43.13,4-.66-4.1-.66-5.68.26-3.43-.13V55L299,53.64h-4l-3.3-.79,4.89-2.52,3.17-1.19,8.84-2Zm24.57-1-4.36,2.11-1.45-2.25,1.32-.39,3.43-.14Zm67.36,1-.53.93-2.51-.13h-2.51l-3,.39-.53-.26-1.32-1.59L393,46l1.32-.26,5.29.39Zm-24.7-.13.13,2,4.5-2.64,7.26-1.32L391,49l-2.11,2.12,5.68-.93,3.3-1.19,4.23,1.59,2.24,1.59-.66,1.32,5-.66L409.86,55l5.28,1.19,1.32,1.46.53,3-5.68,1.58,4.76,2.25,3.7.79,2.11,3,4,.27L423.73,71,417,75.06l-2.51-1.46-2.24-3.44-3.7.53-1.45,2,1.71,2,2.78,1.59.53.92v3.57l-2.25,2.51L407,82.33l-5.28-2.91,2.25,3.17,1.71,2.12L405.37,86l-6.74-1.46-4.75-2.11-2.25-1.72,1.46-1.06-3-1.85-2.91-1.58-.53.92-8.05.66L377,76.51,380.41,74l5-.13,5.67-.4L391,72.28l2-1.85,5.55-3.31.13-1.45-.26-1.19-2.91-1.72L391.1,61.7l2.12-.92L392,58.66l-2.11-.13-1.19-1.19-2.12,1.06-4.88.4L373,58l-4.49-.92-3.7-.53-1.19-1.06,4-1.59H364l2.11-3.3,4.36-2.91,3.7-1.19,7-.92Zm-31.3-2.25,2.24.66,4.63-.39-.27.92-3.7,1.59,2.25,1.32-3.17,2.91L343,53.77l-2.12-.26-.53-1.32-3.56-2.52,1.06-.92,4.62.39L341.84,47Zm14,3.44-4.89,2.38-2.64-.13L354,48.35l1.58-1.58,2.51-1.33,3.31-.92,4.88.13,3.83.79-6.2,2.78Zm-71.85,4.5L280,55l.4-1.45-3.57-1.72,2.64-1.32,4.63-2.38L288.87,46l.27-1.85,8.71-.53,2.51.66,5.95.14,1.19.92.92,1.32-4,.8-8.59,2.24-5.81,2.25Zm77.66-11.51-2.51,1.19-3.3-.13-2-.92,2.77-1.33,4.23-.79.92,1.06Zm-5.68-5.28.27,1.45L359,39.63l-3.57,2.24-4.22.27-2.12-.53,2.12-1.72-4.1.26,2.64-2.37,2.38.13,4.76-1.06,3,.13Zm-24.3,1.58-.53,1.06,2.77-.53,2.25.13-1.32,1.59-3.17,1.45-8.59.4-7.66,1.45h-3.7l.93-1,6.6-1.33-11.22.4L310,41.21l7.13-3,3.43-.79,5.15.92,1.85,1.85,3.83.27.27-2.91,3.56-1.06,2,.27Zm34.47-2.64,1.45.92h4.5l.92.93-1.72,1.19,2,.66.8.79,3,.13,3.17.27,4.36-.66,5-.27,3.57.14,1.45,1.19-.53,1.32-2.24.79-4.1.66-2.77-.39-7.26.52h-4.89l-3.57-.39-5.28-.93.92-1.72,1.32-1.58-.92-1.32-4.36-.27-1.72-.92,2.38-1.33Zm-47-1.59L320,36.19l-3.3,1.06-2.38.13-6.07,1.19-4.36.53-2.25-.66h0l7.14-2.25,7.53-2,3.43.13Zm50.32.27-1.05.13-4.1-.13.4-.93,4.49.13,1.06.53Zm-36.45-.53-5.42.92L330,33.68l3.17-.93,3.7-.39,2.64.52ZM342.37,31l-3.57.66h-3.7l.66-.39,3.44-.93,1.05.13Zm28.92,1.59-4,.66-1.06-.66.4-1.06L368,30.37h2.77l1.06.27,1.45.92ZM362.84,32l-.66,1.19-3.3-.4-2.51-.92-4.89-.14,3.3-.79-1.72-.66,1.46-1.19,3.7.4,4.62,1.05Zm33.68-3.84,1.59.93-4,.79L387.41,32l-4.1.26L379,31.83,378,30.64l1.32-1.06,2.77-.66H378L376.84,28l.13-1.32,3-1.19,2.51-.66,2.51-.26L384.9,24l5.15-.14.92,1.33,3,.53,2.91.52Zm49.14-8.72,5.28.26,4.23.27,3.17.66-.66.53-6.08,1.06-5.55.52-2.51.53h4.76l-6.47,1.59-4.23.66-5.81,2.25-5,.39-2,.67-7,.26,2.64.4-2,.39.39,1.46-3,1.06-4.35.79-2.25,1.19-4,.79-.4.66,4.1-.13-.66.79-7.93,1.85-5.28-.92-7.27.53-3-.4-4.22-.13,1.19-1.46,5-.66,1.18-2.11,1.59-.27,4.75,1.33-1-1.85-3-.67,3-1.05L398,30l1.72-1.06L398,27.86l.66-1.45,5.82.13,1.45.26,4.49-.92-4.62-.27-7.8.14L395.2,25l-.53-1.06-1.45-.79.53-.79,3.83-.53h2.51l4.62-.4,4.23-.92,2.51.13,1.45.66,3-1.19,3.3-.4,4-.26,6.47-.13.8.26,6.47-.4,4.36.14Z" transform="translate(38.17)"/><path class="cls-5" d="M617.63,140.23l.26.53-.39.4-.14.39.14.27-.14.13.27.13.13-.13.93.13v.4l1.71.13-.13,1.59-1.32.66-2.38-.4-.53,1.46-1.58.13-.53-.53-1.72,1.32-1.45.13-1.45-.79-1.06-1.72-1.45.53v-1.72l2.11-2.11-.13-1.06,1.45.4.79-.67h2.65l.66-.79Z" transform="translate(38.17)"/><path class="cls-5" d="M382.39,537.76l3.7,8.59H391l-.26,1.59-2,1.19-1.46-.13-2-.4-2.64-1.06-3.3-.52-4.62-2.12-4-2.12-6.07-4.23,2.77.8,5.42,2.51,4.49,1.45.79-1.72L377.9,539l2.11-1.59ZM357.16,419.84l.53.92L356.9,425l-3.44,1.85.93,6.75-.53,1.19,1.32,1.58-2,2.51-1.72,3.71-.53,3.7,1.06,3.83-1.32,4.1,3,6.87,1,.67.79,3.7-.92,4,.79,3.31-1.85,2.51,1.06,3.7,2,3.84-1.58,1.45.26,3.57.4,4.1,2.11,4.76-1.06.79,2.25,4.63,1.85,1.45-.4,1.59,1.72.79.79,1.45-1.06.8,1.19,2.25.66,5.28-.39,3.31,1.05,2v2.38l-1.71,1.72,1.85,4.1,1.71,1.45,1.85-.26,1.19,2.77,2.25,2.25,7.39.53,3,.66-2.64-.13-1.06,1.06-2.11,1.32,1.06,3.57-1.19.13-4-1.32-4.49-2.65h0l-4.75-2.11-2.11-2.51-.14-2.25-2.51-2.51-3.17-6.61-.13-3.7,2.12-3-5.16-1.06,1.72-3.57-1.32-6.48,4.09,1.45L355.05,498l-2.51-1.06.66,4.89-2.12-.53-.92-5.68L349,488.32l.66-2.65-2.11-4-1.46-4.5,1.33-.13.39-6.35.66-6.34.13-5.95-2-6.08.27-3.17-1.32-5,1.18-4.76-.52-7.8v-8.19l.13-9-1.06-6.48L344,402.25l1.72-.92.79-2.12,2,2.78.66,2.78,2,1.72-.66,3.83,2.38,4.49,2,5.56Z" transform="translate(38.17)"/><path class="cls-4" d="M970.16,254.72l-2.77,1.85-3-1.19-.66-3.44,1.45-1.85,3.57-1.06,2,.14,1,1.45-1.18,1.72Zm14.4-122,5.54,2.77,3.7,3.7h4.76l1.58-1.58,4.36-1.06.79,3.44-.26,1.45,1.85,4.23.4,3.84-4.36-.67-1.72,1.33,2.91,3.43,2.37,4.63H1005l1.19,2.12-3.44-2.38v2.24l-4,1.72,1.72,2-2.91-.14-2.24-1.19-.66,2.78-2.38,2.11L991,170l-4,1.19L985.61,173l-3,1,.79-1.85-1.32-1.45,1.19-2.64L980.46,166l-2.11,1.32-2.25,2.78-.79,2.64-3.17.14-.79,1.85,3,2.64,2.9.66.93,1.85,3.17,1.19,2.37-2.91,3.57,1.59,2.25.13,1.45,2-4.23,1.19-.66,2.12-2.24,2-.66,2.78,4.49,2.25,2.9,3.83,3.3,3.7,3.44,3,1.06,3-1.85,1.06,1.58,2.12,2.38,1.19.53,3.3v3.17l-1.72.4L998,221.27l-1.45,5.29-2.12,4.76-4,3.7-4.09,3.3-3.83.4-1.72,1.85-1.45-1.32-1.59,2-4.49,2-3.43.66-.53,4.23-1.85.13-1.45-2.91.52-1.45-4.75-1.32-1.59.66-3.56-1.06-2-1.59.13-2.25-3.17-.79-2-1.45-2.51,2.11-3.3.4H941.1l-1.72,1.06-1.58.53,1.19,4.49h-1.85l-.4-.92-.39-1.72L934,243.22l-1.59-.8L929.61,241l.4-3.31-2.25-.79-1.45-3.7-3.57.66-.26-4.63,2.51-3.43-.53-3.31-.79-3-1.72-.93-1.72-2.37-1.85.39-3.83-.66.8-1.59-2.25-2.51-2,1.59-3-.93-3.3,2.52-2.51,3-2.64.39-1.72-1.06h-1.72l-2.64-.92-1.72.92-1.58,3-.93-3.18-1.84.8-4.1-.4-4.09-.93-3-1.71-2.78-.8-1.58-1.85-2-.66-4-2.51-3-1.19-1.19.92-5.28-2.77-3.83-2.51-2-4.5,2.51.53-.39-2-1.85-2-.53-3.3-4.76-4.63L839.66,186l-1.72-3-3-1.85L834,180l-1.06-2.24-.39-1.59-2.25-.93-.92.4-1.85-3.7.66-.93-.79-.92,2.51-1.85,2-.8,3.7.53.39-2.51,4-.39.52-1.59,4.36-2.12.13-.92-1.05-2.25,1.85-1.06-5.55-6.74,5.68-1.59,1.19-.92-.66-7,6.73,1.32,1.06-1.71-1.58-4,2.37-.4,1.19-2.51,1.06-.26,2,2.64,3.57,2.12,5.15,1.45,3.56,3,.8,4.63,1.84,1.72,4.1.66,4.49.53,4.89,2.38,2.24.52,3,3.57L895.8,159l3.56-.13,7,.93,4-.53,3.43.53,5.81,2.38h3.83l2.12,1.19,2.64-2.12,4.62-1.32,4.62-.13,3-1.46,1.19-2.11,1.58-1.32L942,153.72l-1.85-1.59.26-2.51,2,.39,3.7.8,2-2.12,4-1.45.8-2.65,1.58-1.05,4.23-.53,2.64.39-.4-1.32-4.49-2.77-3.3-1.19-1.45,1.32-3.44-.53-1.45.53-1.72-1.59-.26-4-.26-2.91,4.49,1.45,2.77-2.38-1.19-1.72v-4.09l.79-1.19-1.58-2.12-2.38-.93,1.06-1.85,3.17-.66,4-.13,5.28,1.06,3.7,1.45,4.76,3.84,2.37,1.71,2.78,2.25,3.83,3.84Z" transform="translate(38.17)"/><path class="cls-3" d="M577.87,309.18l-1.58.14-2.51-.8h-2.25l-4.09.66-2.51,1.19-3.44,1.46-.66-.13.27-3.18.26-.53v-1.58l-1.58-1.72-1.06-.26-1.06-1.06.79-1.72-.26-2,.13-1.19h.53l.27-1.72-.27-.8.27-.52,1.32-.53-.8-3.18-.79-1.58.27-1.32.66-.4.52-.4.93.66h2.64l.66-1.19.66.14,1.06-.4.53,1.72.79-.53,1.45-.66,1.59.92.52,1.33,1.59.79,1.19-.93,1.72-.26,2.37,1.06.93,5.68-1.46,3.31-.92,4.62L578,307.6Z" transform="translate(38.17)"/><path class="cls-5" d="M633.87,320.16l-.39-.27-2.11.53-2.12-.53-1.72.27-5.67-.13.52-3.18-1.45-2.64-1.58-.66-.66-1.72-.93-.66v-1.06l.93-2.78,1.58-3.83,1.06-.13,2.11-2.25,1.32-.13,2,1.72,2.38-1.46.4-1.58.66-1.59.52-2,2-1.72.66-2.78.66-.92.53-2,.92-2.64,2.91-3,.13-1.32.39-.66-1.45-1.59.13-1.32.93-.27L640,280.5l.26,2.64-.13,2.65,2,3.56h-2l-.92.27-1.59-.4-.79,1.85,2.11,2.38,1.59.66.4,1.59,1.18,2.78-.52,1-1.72,4.1-.93.66-.13,3.18.27,1.58-.27,1.19,1.72,2.12.26,1.45,1.32,2,1.59,1.33.26,1.85.27,1.19-.13,2.11-2.91-.92-2.77-1.06Z" transform="translate(38.17)"/><path class="cls-1" d="M697.54,320.42l-1.06,1.32-1.32,1.06-1.45,2.12-.66,1.85-.27,3.17-.79,1.59v2.91l-1.06,1.19L690.8,338l-.53.27-.26,2.25.79,1.72.27,4.89.53,3.57-.4,2.11.66,2.38,2,2.25,1.85,5-1.32-.53-4.76.8-.92.39-1.06,2.51.8,1.86-.8,4.62-.53,4.1.93.66,2.38,1.59,1.05-.79.14,4.36H689l-1.45-2.25-1.19-1.72-2.64-.53-.79-2.11-2.12,1.32-2.77-.66-1.19-1.72-2.24-.4-1.59.14-.13-1.33h-1.19l-1.58-.26-2.25.53h-1.45l-.93.26.27-4.76-1.19-1.45-.13-2.38.52-2.51-.66-1.46-.13-2.51H659.9l.26-1.45h-1.72l-.26.79-2.12.13-.92,2.25-.53,1.06-2-.53-1.06.53-2.37.26-1.32-2-.8-1.32-.92-2.38-.93-3h-10.3l-1.32.39h-.92l-1.46.53-.53-1.19.93-.53.13-1.71.53-.93,1.32-.93.93.4,1.18-1.45h1.85l.27,1.19,1.32.66,2.11-2.51,2-2,.93-1.19-.13-3.3,1.58-3.84,1.59-2.11,2.37-2,.4-1.19.13-1.46.53-1.45-.26-2.25.52-3.57.66-2.38,1.06-2.11.13-2.52.27-2.77,1.45-2,1.85-1.32,2.9,1.46,2.25,1.45,2.51.4,2.64.66,1.06-2.38.53-.27,1.58.4,3.83-2,1.45.79,1.06-.13.53-.93,1.32-.39,2.64.53h2.25l1.19-.4,2.24,3.3,1.59.53.92-.66,1.59.27,2-.93.79,1.72,3.17,2.64-.13,4.63Z" transform="translate(38.17)"/><path class="cls-4" d="M633.61,348.18l-1.32-1.32-1.06.66-1.45,1.72L626.87,345l2.78-2.25-1.32-2.64,1.19-.93,2.37-.52.27-1.72L634,338.8l3.17.26,1.05-2,.4-2.64-.4-3.05L636.65,329l1.45-4.63-.79-.8-2.64.27-1.06-2,.26-1.72,4.5.13,2.77,1.06,2.91.92.13-2.11,1.85-3.7,2.11-2.12,2.38.66,2.24.13-.13,2.52-1.06,2.11-.66,2.38-.52,3.57.26,2.25-.53,1.45-.13,1.46-.4,1.19-2.37,2-1.59,2.11L644.05,340l.13,3.3-.93,1.19-2,2L639.16,349l-1.32-.66-.27-1.19h-1.85l-1.18,1.45Z" transform="translate(38.17)"/><path class="cls-2" d="M322.69,329.81l-1.46-1.06-1.71-1.32-1.06.66-3-.53-.79-1.72L314,326l-3.44-2.38L310,322.4l1.32-.26-.14-2,.93-1.46,1.72-.26,1.45-2.51,1.45-2.12-1.19-.92.66-2.38-.66-3.57.8-1.06-.4-3.44-1.32-2.11.53-2,1,.4.8-1.19-.8-2.38.53-.53h1.72l2.77-2.77,1.46-.4.13-1.32.92-3.31,2.12-1.85,2.11-.13.4-.79,2.64.26,2.9-2,1.46-.93,1.84-1.85,1.19.27.93,1.05-.79,1.33-2.38.66-.93,2-1.45,1.19-1.06,1.45-.66,2.78L331,292.66l1.85.26.26,1.85.79.93.13,1.59-.39,1.45v.79l.92.4.8,1.32,4.49-.39,2,.52,2.38,3.44,1.45-.39,2.51.13,2-.4,1.32.66-.79,2.12-.8,1.45-.39,2.78.66,2.64.92,1.19.14.93-1.85,2,1.32.93.92,1.32,1.06,4-.66.53-.66-2.38-1.06-1.19-1.19,1.32-6.87-.13.14,2.51,2,.4-.13,1.59-.67-.4-2,.66v2.91l1.59,1.45.53,2.25-.14,1.72-1.32,11-1.85-2.11-1.05-.13,2.24-4.1-2.77-1.85-2.11.39-1.32-.79-1.85,1.06-2.65-.4-2.11-4.23-1.58-1.06L326,331.26l-2.38-1.85Z" transform="translate(38.17)"/><path class="cls-1" d="M296.93,296.36l-1.85-.92-.66-.8.4-.66v-.92l-.93-.93-1.32-.79-1.19-.53-.13-1.19-.92-.66.13,1.19-.8.92-.66-1.19-1.18-.39-.4-.8.13-1.19.53-1.19-.92-.66L288,285l.66-.53,2.24,1.06.8-.53,1.05.27.53.92,1.06.27.92-.93.66,2.25,1.32,1.58,1.46,1.72-1.32.27-.14,1.58.8.67-.53.39v.79l-.27.8Z" transform="translate(38.17)"/><path class="cls-3" d="M305.25,236.74l2.91.26h2.77l3,1.32,1.19,1.59,3.17-.53,1.19.93,2.51,2.51,2,1.72h1.19l2,.79-.4,1.19,2.51.13,2.38,1.59-.53.93-2.38.52-2.24.27-2.38-.4-5,.4,2.64-2.25-1.32-.92-2.25-.27-1.05-1.19-.53-2.25-2,.14-3-1.06-.92-.93-4.36-.53-1.19-.79,1.45-1.06-3.3-.13-2.77,2-1.46.14-.66.92-1.71.53-1.46-.4,2-1.32.93-1.45,1.72-.8,1.84-.79,2.65-.39Z" transform="translate(38.17)"/><path class="cls-3" d="M696.48,189h.13l.4-.92h2.38l2.9-1.19-2.11,1.72.4.79.13.26-3.17,1.59-1.72-.53-.92-1.58Z" transform="translate(38.17)"/><path class="cls-3" d="M640.21,136l-1.45-.66-1.45.13-2.51-1.19-1.06.27-1.58,1.58-2.38-1.19-1.85-1.72-1.72-.92-.39-1.59-.66-1.19,2.24-.79,1.06-.93,2.11-.79.66-.79.8.53,1.32-.4,1.58,1.19,2.38.4-.13,1.05,1.71.8.4-1.06,2.11.4.4,1.32,2.25.13,1.58,2h-.92l-.4.66-.66.14-.13.92-.53.13v.4l-1.06.4h-1.32Z" transform="translate(38.17)"/><path class="cls-4" d="M617.1,111.54l.13,1.46,3,.92v1.33l3-.67,1.58-1,3.44,1.45,1.45,1.19.92,2-.79,1.06,1.19,1.32.93,2-.14,1.32,1.46,2.51-1.32.4-.8-.53-.66.79-2.11.79-1.06.93-2.24.79.66,1.19.39,1.59,1.72.92,1.85,1.72-1.06,1.72-1.05.53.66,2.51-.27.66-1-.79-1.46-.13-2.11.79-2.77-.26-.4,1.05L618.69,140l-1.06.26-3.3-1.19-.66.79H611l.4-2.77,1.45-2.65-4.49-.79-1.45-.92V131l-.53-.93.27-2.51-.66-4.1h1.71l.79-1.45.53-3.44-.53-1.32.53-.79,2.38-.14.66.8,1.85-1.85-.66-1.46-.26-2.11,2.24.52Z" transform="translate(38.17)"/><path class="cls-3" d="M738.35,278.51l.93,1.19v1.72l-2,.93,1.58,1.06-1.32,2.11-.79-.66-.79.26h-2l-.13-1.19-.26-1.19,1-1.85,1.19-1.71,1.59.26Z" transform="translate(38.17)"/><path class="cls-2" d="M625,109.16l-1.59,3-3.17-2.11-.53-1.45,4.23-1.33Zm-7.93,2.38-1.85.66-2.24-.52-1.33-2.12-.26-3.83.4-.93.79-1.19,2.51-.26.92-.93,2.25-1.06v1.86l-.79,1.18.52,1.06,1.59.53-.66,1.46-.93-.4-1.84,2.64Z" transform="translate(38.17)"/><path class="cls-2" d="M490,20.59,498,19.13l7.13.14,3.17-.8,7.4-.26,16.38.26,12.28,1.85-4.09.93-8.19.13-11.36.13.79.53,7.66-.26,6.08.79,4.36-.79,1.45.92-2.77,1.46,5.68-.93,10.56-.92,6.21.39,1.06,1.06-9.12,1.85-1.32.53-7.13.53,5,.13-3,2-2.24,1.85-.8,3.3,2.25,1.85-3.57.13-4,.93,3.83,1.59v2.64l-2.64.26L541.55,44l-5.29.26,2.38,1.33-.92,1.05-3.57.53h-3.43l2.64,2.25-.27,1.32-4.62-1.32-1.45.92,3.17.8,2.77,2,.4,2.64-4.62.67-1.59-1.33-2.64-1.85.26,2.25-3.3,1.72,6.61.13,3.43.13-7.4,2.91-7.66,2.78-7.79,1.06h-2.91l-3,1.32-4.63,3.7-6.34,2.38-1.85.13-3.83.93-4.09.79-2.91,2.11-.92,2.52L476,80.48l-5.28,2.77.13,2.78-2.24,3-2.51,3.57-4,.13L459,89.86h-5.55l-2-2-.53-3.57-3-4.36-.4-2.38.93-3.17-2.25-3.18,2-2.51L447,67.52l4.36-4.1,4.49-1.19,1.58-1.45,1.72-2.65-3.44,1.19-1.58.53-2.51.53L449,59.19,450,56.94l1.85-1.71h2.38l4.62.79-3.3-2L454,52.85l-2.78.53-1.58-.93L454,49.54l-.8-1.19-.66-2.25-.92-3.3-2.25-1.32.8-1.19-5-1.85-4.76-.14-6.34.14-5.81.13-2-.93-2.38-1.85,6.74-.92,4.75-.14-9.11-.79-4-1.19,1.32-1.19,9.77-1.32,9.38-1.45,1.72-1.06-5-.93,2.9-1.05L451.47,24l3.3-.27.13-1.19,5.55-.66,6.74-.26,6.6-.14,1.72.8,6.6-1.32,4.36.92,2.77.13,4,.8L489,21.51Z" transform="translate(38.17)"/><path class="cls-3" d="M340,250.49l.53-.66h2.64l2,1,.92-.13.4,1.46h2l-.26,1.19,1.45.13,1.59,1.45-1.46,1.59-1.58-.93-1.59.27-1-.27-.8.8-1.32.26-.39-1.06-1.19.66L340.12,259l-.79-.66-.13-1.06.26-1.06-.79-1.19.92-.79.4-1.46Z" transform="translate(38.17)"/><path class="cls-3" d="M629.12,235.55l-11.62,7.67-9.91,7.8-4.89,1.71-3.83.4-.13-2.51-1.58-.66L595,248.9l-.79-2-11.62-8.6L571,229.6,558.32,220l.13-.79h0v-5l5.55-2.91,3.44-.66,2.77-1.06,1.32-2,4-1.58.14-2.91,2-.4,1.58-1.45,4.36-.66.66-1.59-.92-.79-1.19-4.23-.13-2.38-1.19-2.65,3.17-2.11,3.56-.66,2.12-1.72,3.17-1.19,5.54-.66,5.42-.4,1.72.66,3-1.59H612l1.45.93,2.25-.27-.66,2,.66,3.83L615,191l-2,2.24.26,2.91,2.91,2.38v1.06l2.11,1.59,1.58,7.14,1.19,3.56.27,1.86-.53,3.17.26,1.85-.39,2.25.39,2.38-1.32,1.71,2.12,2.91.13,1.72,1.19,2.25,1.58-.79,2.77,1.85Z" transform="translate(38.17)"/><path class="cls-2" d="M305.51,342.76l1.85-3-.79-1.72-1.32,1.86-2.11-1.72.66-1.19-.66-3.57,1.19-.66.66-2.38,1.32-2.65-.13-1.58,1.84-.93,2.51-1.59L314,326l.66-.13.79,1.72,3,.53,1.06-.66,1.71,1.32,1.46,1.06.52,2.91-1,2.64-3.83,4.23-4.1,1.59-2.11,3.43-.53,2.65-2,1.72L308,346.86l-1.45-.39-1.45.26-.13-1.45,1.05-.93Z" transform="translate(38.17)"/><path class="cls-3" d="M714.84,241.5H674l-.66-14.81-.79-14.14-1.19-3.18.66-2.51-.66-1.72,1.05-1.85,4.49-.13,3.31,1.06,3.43,1.19,1.59.66,2.5-1.32,1.33-1.06,2.9-.4,2.51.53,1.06,2,.66-1.32,2.77.93,2.64.26,1.59-.92,2.77,6.74-.79,1.58-.4,3.05-.79,2.11-.79.66L702,217.57l-1.72-1.72-2.77-5.68-.4.39,1.72,4.1,2.51,4.1,3,6.21,1.32,2.12,1.32,2.25,3.3,4.36-.66.79L710,237l4.23,3.57Z" transform="translate(38.17)"/><path class="cls-3" d="M735.84,279.18l-1.19-1.33-1.58-2.38-1.59-1.19-.92-1.45-3.17-1.59H725l-.92-.92-2,1.06L720,269.52l-1,2.91-4.1-.79-.39-1.59,1.32-5.81.13-2.65,1.06-1.32,2.5-.66,1.59-2.25,2.38,4.63,1.05,3.7,2,2,5,3.71,2,2.24,2,2.38,1.19,1.32,1.71,1.19-.92.93Z" transform="translate(38.17)"/><path class="cls-4" d="M558.85,162.31l.27-2.78-1.19-1.72,4.62-2.9,3.83.79h4.36l3.3.66,2.64-.26,5.15.13,1.32,1.58,5.82,1.72,1.19-.79,3.56,1.72,3.7-.53.26,2.38-3,2.64-4.1.8-.26,1.32-2,2.11L587,172.49l1.33,2.25-2,1.71-.66,2.65-2.51.79-2.37,3-4.1.13-3.17-.13-2.11,1.46-1.32,1.45-1.59-.26-1.19-1.46-.79-2.25-3.17-.66-.13-1.32,1.19-1.45.53-1.06-1.06-1.19.92-2.64-1.18-2.38,1.32-.27.26-1.85.53-.66.13-3,1.45-1.06-.79-2-1.85-.13-.66.53h-1.85l-.66-2-1.45.53Z" transform="translate(38.17)"/><path class="cls-4" d="M657.65,101.1V98.85l-1.06.53-2-1.32L654,95.94l3.44-1,3.43-.53L664,95l2.91-.13.52.66-1.58,2.11,1.58,3.44-1,1.19H664l-2.64-1.45-1.32-.4Z" transform="translate(38.17)"/><path class="cls-1" d="M725,271.24h2.38l3.17,1.59.92,1.45,1.59,1.19,1.58,2.38,1.19,1.33-1.19,1.71-1,1.85.26,1.19.13,1.19h2l.79-.26.79.66L736.9,287l1.32,2.25,1.45,1.85,1.32,1.46,11.63,4.76h2.9l-9.64,11.89-4.62.14-3,2.91H736l-.93,1.32h-2.38l-1.45-1.32-3.17,1.58L727,315.53l-2.37-.4-.8-.39-.79.13-1.06-.13-4.49-3.31H715l-1.18-1.32v-2.25l-1.85-.66-2.12-4.36-1.71-.93-.66-1.58-1.72-2-2.25-.26,1.19-2.25,1.85-.13.53-1.19-.13-3.57.92-4.23,1.59-1.06.26-1.58,1.45-3,2.12-2,1.19-4,.39-3.44,4.1.79,1-2.91,2.12,1.86,2-1.06Z" transform="translate(38.17)"/><path class="cls-5" d="M661,61l.27,2.38,4.49,2.25L664,68.31l4,4-1.05,2.91,3,2.64-.52,2.38L674,82.59l-.53,1.85-2.11,2.12-5,4.62-5,.27-4.62,1.32-4.5.79-2-2-2.77-1.19V86.82l-1.85-3.3.92-2.12,2.12-2.11,5.41-3.84,1.59-.79-.53-1.45-4-1.72L650,70.16l-1.19-5.28-4.36-2.25-3.83-1.72,1.45-.79,3.17,1.72,3.31-.14,2.9.8L653.56,61l.66-2.51,3.69-1.19,3.57,1.32Z" transform="translate(38.17)"/><path class="cls-5" d="M1207.12,398.29l.92,1.19-1,2-2.25.66-1.85-.53.13-1.72,1.59-1.45,1.58.53Zm4-2.12-2.38.8-.13-1.46,2-.79,1.06-.27,2.38-1.19-.4,1.86ZM-37.51,395l-.26.14-.4-1.86.66-.26Z" transform="translate(38.17)"/><path class="cls-4" d="M618.55,161.25l-.92,3-1.45-.79-.93-2.65.66-1.45,2-1.59Zm-13.21-28.82.67.27h.92l1.45.92,4.49.79-1.45,2.65-.4,2.77-.79.67-1.45-.4.13,1.06-2.11,2.11V145l1.45-.53,1.06,1.72v1.06l.92,1.45-1.05,1.19.92,3,1.72.53-.27,1.72-2.77,2.25-6.34-1.06-4.62,1.19-.4,2.38-3.7.53-3.56-1.72-1.19.79-5.82-1.72-1.32-1.58,1.72-2.38.66-7.8L581,142l-2.38-2L574,138.51l-.26-2.77,4-.93,5.15,1.06-.92-4.36,2.9,1.58,7.13-3,.93-3.17,2.64-.66.4,1.32h1.45l1.45,1.59L601,131l1.58-.4Z" transform="translate(38.17)"/><path class="cls-5" d="M396.12,319.89l.93-1.72.26-1.71.66-1.72-1.32-2.38-.13-2.78,1.85-3.44,1.19.53,2.64.93,3.57,3.3.52,1.72-2.11,3.57L403,319.1l-1.32,1.59L400,321l-.39-1.06-.79-.26-1.06,1.19Z" transform="translate(38.17)"/><path class="cls-4" d="M626.87,345l-3.56-4-2.38-3.31-2.11-4.1.13-1.45.79-1.19.93-2.91.66-2.91,1.19-.26h5.15l-.14-4.76,1.72-.27,2.12.53,2.11-.53.39.27-.26,1.72,1.06,2,2.64-.27.79.8L636.65,329l1.58,2.37.4,3.05-.4,2.64-1.05,2L634,338.8,632.16,337l-.27,1.72-2.37.52-1.19.93,1.32,2.64Z" transform="translate(38.17)"/><path class="cls-4" d="M569.55,115.77,567.3,115l-1.84.13.79-2.11-.53-2,2.38-.13,3.17,2.25Zm9.77-17.84-3.17,4.1,3-.53h3l-.79,3-2.64,3.3,3,.27.27.39,2.51,4.37,2,.66,1.85,4.36.92,1.45,3.57.8-.27,2.38-1.58,1.19,1.19,2-2.64,2-4.1-.13-5.15,1.06-1.45-.66-2.12,1.72-2.77-.4-2.11,1.45-1.59-.79,4.49-4,2.78-.79h0l-4.76-.66-.79-1.59,3.17-1.19-1.59-2,.66-2.51,4.36.26h0l.53-2.11-2-2.38h0l-3.57-.66-.66-1.06,1.06-1.72-.92-1.06-1.59,1.85v-3.57l-1.45-2,1.19-3.83,2.37-3,2.25.39Z" transform="translate(38.17)"/><path class="cls-1" d="M721.58,163.63l.13-1.59-1.32-2.77-2.11-1.46-1.85-.39-1.32-1.19.26-.53,2.77.66L723,157l4.76,1.85.66.8,1.85-.67,3.17.8,1.32,1.72,2.11.92-.66.53,2,2.12-.4.39-1.71-.13-2.64-1.19-.66.66-4.36.66-3.44-2Z" transform="translate(38.17)"/><path class="cls-4" d="M591.61,305.48l-5.55,2.38-1.85,1.32L581,310.37l-3.17-1.19.13-1.58-1.45-3.31.92-4.62,1.46-3.31-.93-5.68-.53-2.91.14-2.38,6.07-.13,1.59.26,1.05-.66,1.72.4-.26,1.19,1.45,2.11v2.91l.26,3,.93,1.45-.79,3.57.26,2,.93,2.64Z" transform="translate(38.17)"/><path class="cls-2" d="M558.32,298.48l-1.05-.14-.66,1.72-1.06-.13-.66-.79.26-1.59L553.7,295l-.92.53H552l-.92.26v-1.45l-.53-1.06.13-1.06-.66-1.72-1.06-1.45h-2.77l-.79.79h-1.06l-.53.93-.39,1.06-2,1.85L540,291.34l-1.32-1.59-.92-.53-.93-.79-.26-1.72-.53-.92-1.06-.67,1.59-2,1.06.13.92-.66h.79l.53-.53-.26-1.32.39-.4.14-1.45,1.58.13,2.51.93.79-.13.27-.4,2,.26.39-.13.27,1.46h.53l.92-.53.53.13,1.06.92,1.45.4.92-.92,1.19-.53.79-.53.8.13.66.79.39,1.19,1.46,1.59-.66,1.06-.14,1.32.66-.4.53.53-.26,1.19,1.06,1.06-.66.4-.27,1.32.79,1.58.8,3.18-1.32.53-.27.52.27.8-.27,1.72Z" transform="translate(38.17)"/><path class="cls-3" d="M529.13,276.66l.4-1.72,3.83-.13.79-.92h1.19l1.32.92h1.06l1.19-.66.66,1.19-1.46.79h-1.58l-1.45-.79-1.32.93h-.67l-.79.53Z" transform="translate(38.17)"/><path class="cls-3" d="M534.94,285.12l-1.85-1.71-1.45-.27-.79-1.06v-.66l-1.06-.79-.13-.79,1.85-.66,1.19.13.92-.53,6.48.13-.14,1.45-.39.4.26,1.32-.53.53h-.79l-.92.66-1.06-.13Z" transform="translate(38.17)"/><path class="cls-4" d="M621.33,325.18l-.66-.66,1.19-4.49,5.67.13.14,4.76h-5.15Z" transform="translate(38.17)"/><path class="cls-4" d="M666.24,186.77l2,1.32,2.51-.13,2.51.26v.66l1.71-.53-.26,1.19-4.76.4v-.66l-4.09-.8Zm5.81-20.23-2-.13-1.72-.4-3.83,1.06,2.51,2.11-1.59.66h-1.85l-1.85-2-.52.93.92,2.24,1.85,2-1.19.79,2,1.85,1.72,1.19.26,2.25L663.59,178l1.19,2-2.11.4,1.58,3.57H662l-2.78-1.72-1.45-3.17-.79-2.65-1.45-1.85-1.85-2.24-.27-1.19,1.32-1.85V168l1.06-.53v-1.05l2.11-.4,1.06-.79h1.85l.4-.66.66-.14,2.37.14,2.38-1.06,2.51,1.32,2.91-.4-.27-1.85,1.72.93-.79,2.51Z" transform="translate(38.17)"/><path class="cls-2" d="M273.55,274.42l-1.72-.67-2.11-.13-1.59-.79-1.71-1.59.26-1.19.53-.92-.4-.8,2-3.3h4.49l.26-1.32-.53-.27-.39-.79-1.06-.93-1.19-1.32H272l.26-2.24h6.47l-.39,3.17-.8,4.49h1.06l1.06.66.26-.53,1.06.53-1.85,1.46-1.72,1.19-.26.66.13.79-.79,1.06-.93.26.13.4-.66.53-1.32.92Z" transform="translate(38.17)"/><path class="cls-3" d="M378.29,295.83l2.25,1.46,2.11,2.51.13,2.11,1.19.14,1.85,1.85,1.45,1.45-.66,3.57L384.37,310l.13.92-.66,2.12,1.59,2.77h1.05l.4,2.25,2.11,3.57-.79.13-2-.39-1.19,1-1.59.8-1.05.13-.4.79-1.72-.26L378,322l-.13-1.85-.93-2,.66-3.43.93-1.32-.66-1.86-1.19-.66.39-1.72-.79-.92-1.72.13-2.37-3,1-1.06-.13-1.85,2.25-.66.92-.66-1.19-1.59.4-1.45Z" transform="translate(38.17)"/><path class="cls-2" d="M283.06,277.32l-.53-1.19-1-.39.39-1.59-.39-.4-.8-.26-1.45.4-.13-.53-1.06-.53-.66-.79-.92-.4.79-1.06-.13-.79.26-.66,1.72-1.19,1.85-1.46.26.14.93-.67.92-.13.26.4L284,266l1.58.4,1.59-.13,1.18-.4.4-.53,1.06.27.79.26.92-.13.8-.26,1.45.52h.66l.92.8.93.92,1.19.53.79,1.19-1.19-.13-.53.53-1.19.53h-.92l-.79.53-.66-.14-.53-.66-.4.14-.53.92h-.39l-.13.79L289.66,273l-.66.53-.39.53-.93-.79-.92,1-.66-.13-.93.13v2h-.52l-.53.92Z" transform="translate(38.17)"/><path class="cls-2" d="M647,146.44l.93,1.59,1,1.06-1,1.45-1.46-.79h-2.24l-2.78-.66-1.45.13-.53.79-1.32-.92-.53,1.59,1.72,1.85.79,1.32,1.59,1.45,1.32.8,1.32,1.71,2.91,1.46-.27.66-3.17-1.45L641.93,157l-3-1.19-2.9-2.78.66-.39-1.59-1.59-.13-1.32-2.11-.66-.93,1.72-.92-1.32V148l2.24.13.53-.66,1.19.66,1.19.14-.13-1.19,1-.4.27-1.45,2.38-1.06,1,.39,2.38,1.72,2.77.8Z" transform="translate(38.17)"/><path class="cls-3" d="M340,250.49v2.24l-.4,1.46-.92.79.79,1.19-.26,1.06-2.25-.66-1.58.26-2.12-.26-1.71.66L329.82,256l.53-1.32,3,.53,2.65.39,1.32-.92L335.89,253l.27-1.59-2.12-.53.93-1.19,2.11.27Z" transform="translate(38.17)"/><path class="cls-3" d="M638.37,142.74l.92-2.51-.66-.79h1.72l.13-1.59,1.58.93,1.19.53,2.51-.53.27-.8,1.19-.13,1.45-.53.39.27,1.33-.53.66-.93.92-.26,3.43,1.19.66-.4,1.85,1.06.4,1.06-1.85.79-1.19,2.64-1.58,2.65-2.51.79-1.85-.26L647,146.44l-1.06.67-2.77-.8-2.38-1.72-1-.39-.8-1.32Z" transform="translate(38.17)"/><path class="cls-3" d="M1010.58,370h-1.46l-4.35-2.78,3.3-.79,1.71,1.19,1.19,1.32Zm15.45-5.42.27.79v1.19l-2.65,3-3,.79-.4-.39.4-1.32,1.71-2.52Zm-24.57-3.18,1.19,1.06,2.12-.26.79,1.72-4.1.79-2.51.53-1.85-.13,1.33-2.25h2Zm17.57,0-.79,2.25-5.29,1.06-4.62-.4.13-1.45,2.78-.93,2.11,1.19,2.38-.26Zm-49.79-5.28,6.73.39.79-1.58,6.48,1.85,1,2.64,5.29.79,4.09,2.25-4.09,1.59-3.83-1.59-3.17.13L979,362.2l-3.17-.66-4.1-1.59-2.5-.4-1.46.53-6.34-1.58-.53-1.72-3.17-.27,2.65-3.83,4.22.26,2.78,1.46,1.45.39Zm91.79-2.25-2,2.78-.13-3,.66-1.45.79-1.32.8,1.19Zm-25.62-11-1.45,1.32-2.38-.66-.66-1.72,3.56-.27Zm11.36-1.46,1,3-2.77-1.58-3-.4-2,.26-2.38-.13.93-2.11,4.36-.14Zm37.11-2-.66,13.09-1,12.95-2.78-3.3-3.56-.8-.93,1.19-4.49.14,1.85-3.31,2.25-1.06L1074,354l-1.59-3.3-6.6-3.44L1063,347l-5.15-3.7-1,1.85-1.46.4-.66-1.45v-1.72l-2.51-2,3.83-1.45,2.51.13-.26-1.06h-5.15l-1.45-2.37-3-.8-1.46-2,4.76-.93,1.72-1.32,5.68,1.72.52,1.45.8,6.48,3.56,2.38,3.17-4.23,4.1-2.51h3l3,1.45,2.51,1.46Zm-55.34-16-2.77,4-2.64.79-3.44-.79-5.81.26-3,.53-.53,3,3,3.44,2-1.72,6.61-1.32-.4,1.72-1.45-.53-1.59,2.38-3.17,1.45,3.17,5.16-.66,1.32,2.91,4.63-.13,2.64-2,1.19-1.32-1.45,1.85-3.18-3.43,1.46-.79-1.06.52-1.59-2.51-2.24.4-4-2.38,1.19.14,4.76-.14,5.68-2.24.53-1.45-1.19,1.18-3.7-.39-3.83h-1.46l-1.05-2.65,1.58-2.64.53-3.17,1.85-6.08.79-1.59,2.91-2.91,2.77,1.06,4.49.66,4-.26,3.43-2.91Zm12.15,1.19-.13,3.44-1.85-.4-.53,2.51,1.46,2.12-1.06.4-1.32-2.52-1.06-5.15.66-3.17,1.06-1.46.26,2.25,2.12.4Zm-67-3.57.52,2.78,2.51,2.25,2.25-.8,2.24.27,2-2.12,1.71-.26,3.31,1.06,2.9-.8,1.72-5.55,1.32-1.45.92-4.5h4.1l3,.66-1.85,3.57,2.77,3.84-.66,1.85,4.09,3.7-4.22.39-1.19,2.78.26,3.57L998,335.1l-.26,4-1.59,6.08-.4-1.45-4.09,1.85L990.37,343l-2.51-.13-1.72-1.33L981.92,343l-1.19-2-2.25.26-2.9-.53-.4-5.29-1.72-1.05L971.74,331l-.52-3.57.39-3.57Zm-14.14,31.33-4,.14-2.77-3.31-4.36-3.3-1.45-2.38-2.51-3.31-1.72-2.91-2.51-5.55-3.17-3.44-1.06-3.3-1.32-3.17-3.17-2.52-2-3.43-2.77-2.25L923,309.32l-.4-2,2.38.14,5.41.79,3.3,3.83,2.78,2.78,2,1.59,3.43,4.36h3.57l3,2.77,2.11,3.31,2.64,1.85-1.45,3.17,2.11,1.46,1.19.13.53,2.78,1.19,2.24,2.64.27,1.59,2.51-1.06,5Z" transform="translate(38.17)"/><path class="cls-3" d="M845.6,187.69l4.76,4.63.53,3.3,1.85,2,.39,2-2.51-.53,2,4.5,3.83,2.51,5.28,2.77L860,210.56l-.53,3.84,3.57,1.45,3.57,2,4.88,2.25,4.76.53,2.24,2,2.78.4,4.22.92,2.91-.13V222.2l-.92-2.52V218l1.84-.8.93,3.18.26.79,3.31,1.45,2.11-.53,2.9.27,2.78-.13-.27-2.52-1.71-1.32,2.64-.39,2.51-3,3.3-2.52,3,.93,2-1.59,2.25,2.51-.8,1.59,3.83.66.53,1.46-.92.79.79,2.38-2.64-.66-3.83,2.77.66,2.25-1.32,3.31.13,2-.93,3.3-2.9-.92.53,4.1-.53,1.32.66,1.72-1.59.92-2.77-6.34-.92.13-.27,2.51L901,235.42l.66-2.25,1.58-.27.93-3.3-2-.66H899l-3.44-.53-.79-2.78-1.59-.26-3-1.72-.8,2.78,2.91,2.11-2,1.46-.53,1.45,2.38,1.06-.27,2.38,1.59,3,1.06,3.3-.27,1.46-2.38-.13-4.09.92.53,2.91-1.46,2.38-4.62,2.78-3.3,4.62-2.38,2.51-3.17,2.65.27,1.85-1.59.92-3,1.46-1.58.26-.79,3,1.18,5.16.53,3.3L867.13,281l.4,6.87-1.85.13-1.32,3,1.06,1.33-3.17,1.19-1.06,2.64-1.32,1.19-3.43-3.7-2-5.69-1.58-4-1.32-1.85-2.11-3.84-1.33-5-.79-2.51-3.56-5.42-2.25-7.8-1.58-5-.53-4.89-1.06-3.7-4.75,2.38-2.51-.53-5-4.76,1.45-1.45-1.19-1.59-4.36-3.3,2-2.78h7.53l-1.19-3.31-2.11-2.11-.92-3-2.51-1.72,3.17-4.23,4,.26,2.77-4.09,1.45-4.1,2.38-4-.66-2.91,2.38-2.24-3.17-2-1.72-2.77-2.11-3.44,1.19-1.72,5.28.93,3.57-.53Z" transform="translate(38.17)"/><path class="cls-4" d="M569.55,115.77l.4,2.78-2.38,3.31L562,124.24l-4.23-.67,2.78-4-1.45-3.84,4.22-3,2.38-1.72.53,2-.79,2.11,1.84-.13Z" transform="translate(38.17)"/><path class="cls-3" d="M765,180.82l2.78-.66,1.85-2.38,2.24.13,1.32-.66,2.38.26,4.1,2.12,2.64.39,4.62,3.57,2.38.14,1,3.3-.26,4.89-.4,2.91,1.59.66-1.06,2.12,1.72,3.17.79,2.64,2.64.66.66,2.52-2.37,3.57,2,2.11,1.71,2.51,3.44,1.72.66,3.44,1.72.66.52,1.85-4.62,2.12-.66,4.62-6.6-1.19-3.83-.92-4-.53-2-4.89-1.71-.8-2.65.8-3.17,1.85-4.35-1.32-3.7-3-3.44-1.06-2.77-3.84L757.11,209l-1.72.66L753,208.32l-1,1.45-2.12-2-.26-2.12h-1.06l.14-2.91-2.25-3-4.36-2.25-2.9-3.7.39-3.17,1.45-1.32-.66-2.38L738,185.71,735.05,181l-2.38-3.17.53-1.19L731.35,172l2-1.06.8,1.46,2,1.85,2.37.53,1.19-.14,3.31-2.9,1-.27,1.19,1.19-.66,1.85,2.38,2.12.79-.14,1.59,2.91,3.3.8,2.64,2,4.75.66,4.89-1.06Z" transform="translate(38.17)"/><path class="cls-3" d="M738,185.71l2.37,1.19.66,2.38-1.45,1.32-.39,3.17,2.9,3.7,4.36,2.25,2.25,3-.14,2.91h1.06l.26,2.12,2.12,2-2-.13-2.38-.27-2,3.7-6.34-.26-10.44-8.06L723.56,202l-4.23-1.06-2-4.89,6.87-4.1.66-4.76-.79-2.91,1.71-1.05,1.19-2.51,1.32-.53,4,.53,1.32.92,1.45-.66Z" transform="translate(38.17)"/><path class="cls-1" d="M549.74,70l-.93,2.25,2.78,2.38-3.83,2.64-8.06,2.38-2.51.66-3.43-.52-7.4-1.06,2.9-1.59-5.41-1.72,4.75-.66.14-1.06-5.42-.79,2.25-2.25,4.09-.53,3.7,2.38,4.36-2,3.17,1.06,4.49-1.85Z" transform="translate(38.17)"/><path class="cls-3" d="M707.45,198.8l-.4,1.19-1.32-.53-.4,2.64.93.4-.8.66-.13.92,1.59-.52.26,1.58L706,211.49l-2.77-6.74.79-1.33-.26-.26.79-1.85.26-3,.4-1.06h1.19l.26-.66.93-.13.13,1.72-.26.52Z" transform="translate(38.17)"/><path class="cls-4" d="M638.63,176.72l-.92,3.17.52,1.19-.52,2.12-2.65-1.59-1.71-.4-4.63-2,.27-2.11,4,.39,3.3-.39Zm-21-11.77,2,2.78-.26,5.29-1.46-.27-1.32,1.32-1.19-1-.26-4.76-.93-2.25,1.85.13Zm13.47-20.88-.26,2,.92,1.72-2.64-.66-2.38,1.45.27,2-.4,1.06,1.19,2,3.17,2,1.72,3.3,3.83,3.17H639l.79.8-.79.79,3,1.46,2.38,1.19,2.91,2.11.39.66-.39,1.46-2-1.86-2.91-.66-1.19,2.52,2.51,1.45-.26,2.11-1.32.27-1.59,3.44-1.32.26-.13-1.19.66-2.11.66-.93L639,171.56l-1.19-2-1.32-.53-1.06-1.72-2.11-.66-1.46-1.58-2.51-.27L626.87,163l-3.17-2.51-2.24-2.25-1.19-4-1.58-.39L616,152.53l-1.45.52-1.72,1.86-1.32.26.27-1.72-1.72-.53-.92-3,1.05-1.19-.92-1.45v-1.06l1.45.79,1.45-.13,1.72-1.32.53.53,1.58-.13.53-1.46,2.38.4,1.32-.66.13-1.59,2,.53.27-.66,3-.66.79,1.32Z" transform="translate(38.17)"/><path class="cls-4" d="M319.12,255.38l2.24.4,1.85.92.4,1.19H321.1l-1.06.66-1.85-.66-1.84-1.45.52-.93,1.46-.26Z" transform="translate(38.17)"/><path class="cls-3" d="M707.05,200l.4-1.19,4,1.58,5.94-4.36,2,4.89-.53.66-6.47,2,3.7,4-1.06.66-.39,1.32-2.51.53-.66,1.46-1.32,1.19-3.83-.53-.27-.66,1.19-6.35-.26-1.58.39-1.06Z" transform="translate(38.17)"/><path class="cls-3" d="M1036.07,193l1.06,1.32-.93,2.51-1.85-1.32-1.32.93v2.38l-2.64-1.19-.66-1.85.79-2.38,2.12.39.52-1.58Zm15.19-11.9.4,3.17,1.58,2-.4,2.77-3.3,2-5.81.13-2.64,4.63-2.91-1.59-1.45-2.91-5.42.79-3.17,2h-3.83l4.63,2.91.53,6.87-1.59,1.59-2.25-1.46-.52-3.7-2.65-1.06-2.37-2.77,2.64-1.19.66-2.51,2.38-2.12,1.19-2.78,6.07-1.19,4,.93v-7.14l3.17,2,2.78-4.09,1-1.46-.66-4.89-3.17-4.5L1040,165l3-.66,5,5.42,1.72,3.31-.8,4ZM1044,153.32l2.78.79,1-1.72,3.84,4.5-4.1,1.06-.13,4-6.87-2.77,1.06,4.36h-3.57l-2.91-3.83-.39-3,3.3-.26-2.77-5.42-1.19-3,6.6,4.1Z" transform="translate(38.17)"/><path class="cls-3" d="M815.23,160.72l-1.59.8-3.3,2.77-.66,2.78h-1.19L807,165.22l-4.1-.13-1.58-3.18h-1.59l-.92-4L794.09,155l-5.28.26-3.57.66-4.09-3.57-3-1.45L772.43,148l-.66-.26L764.24,150l4,14.55-1.58.26-3-3.17-2.51-1.06-3.43.79-1.06,1.33-.4-.93.4-1.72-.92-1.32-4.1-1.32-2.24-3.57-2-1.06-.39-1.19,3.17.4-.66-2.91,2.51-.66,2.9.53-.39-3.7-1.19-2.52-3,.27-2.91-.93-3.17,1.72-2.77.79-1.72-.66-.13-2-2.64-2.64-2.25.13-3.3-2.65,1.06-2.9-1.06-.8,1.32-4.23,3.7,2.25L736,128.2l5-4.1,4.76-.13,7.53,2.64,4,1.59,2.77-1.59,4.76-.13,4.62,2,.4-1.19,4.36.26.13-1.85-5.81-2.64,2.11-1.86-.92-1,2.51-.93L769,116.57l.92-1.32,10.57-1.33,1-.92,6.74-1.32,1.85-1.59,5.68.79,2.77,4,2.64-.93,4.36,1.19.8,2.12L809,117l5.81-3.57-.53,1.19,5.15,2.91,11.36,9.79.66-2,5.29,2.12,3.83-.93,2,.66,2.51,2.25,2.51.79,2.11,1.59,3.7-.53,2.77,2.38L855,136.13l-2.37.4,1.58,4-1.06,1.71-6.73-1.32.66,7-1.19.92-5.68,1.59,5.55,6.74-1.85,1.06,1.05,2.25-2.11-.53-2.24-1.45-4.76-.4-5.41-.13-.93.39-5.15-1.58-1.59.79.27,2.25-5.68-1.32-1.85.52Z" transform="translate(38.17)"/><path class="cls-1" d="M734.26,335.89l-2.51,1.59-.93,1.58-1.32.4-.53,2.78-1.18,1.58-.66,2.65-1.46,1.32-5-4-.13-2.38-12.68-8.06-.66-.4v-4.23l1.06-1.72,1.71-2.51,1.19-2.91L709.56,317l-.4-2-1.71-2.77,2.11-2.38,2.38-2.65,1.85.66v2.25l1.18,1.32h2.51l4.49,3.31,1.06.13.79-.13.8.39,2.37.4,1.06-1.72,3.17-1.58,1.45,1.32h2.38L732,318l.13,14.54Z" transform="translate(38.17)"/><path class="cls-1" d="M815.23,160.72l.26-1.72,1.85-.52L823,159.8l-.27-2.25,1.59-.79,5.15,1.58.93-.39,5.41.13,4.76.4,2.24,1.45,2.11.53-.13.92-4.36,2.12-.52,1.59-4,.39-.39,2.51-3.7-.53-2,.8-2.51,1.85.79.92-.66.93-5.94.66-4.5-1.32-3.43.26-.26-2.24,3.69.66.8-1.19,2.64.39,3.3-2.9-4.49-2-2,.93-2.91-1.46,2-2.64Z" transform="translate(38.17)"/><path class="cls-4" d="M946.38,280.5l-1.18-4.76,1.85-3.31,4.35-.79,3.31.66,3.17,1.45,1.18-2.64,3.31,1.46,1,2.64.14,4.76L958,283l1.72,2.38-3.7.4-2.91,1.58-2.9-.66-1.59-2Z" transform="translate(38.17)"/><path class="cls-3" d="M1006.88,175.26l5.15,4.63,2.11,2.65,2.12,4.49-.27,2.25-2.64.79-2,1.59-2.91.39-1.32-2.24-.66-2.91-3.3-4.1,2.11-.66-3.83-3.44v-.39l1.59.13.39-1.72,2.25-.27,1.19-.26Z" transform="translate(38.17)"/><path class="cls-3" d="M750,209.64l.92,1.72-.13.92,1.45,3-2.51.13-1.05-2-3-.4,2-3.7Z" transform="translate(38.17)"/><path class="cls-2" d="M954.71,272.3l.92-1.85-.26-3.44-3.17-3.43-.8-4-3.17-3.17-2.64-.27-.53,1.32-2,.14L942,257l-3.44,2.37-.53-3.56.27-4.23-2.38-.14-.66-2.38-1.59-1.32.4-1.45,2.64-2.51.4.92H939l-1.19-4.49,1.58-.53,2.65,3,2.11,3.7h4.23l1.85,3.44-2,1-.79,1.46,4.49,2.38,3.57,4.76,2.77,3.43,3,2.78,1.19,2.91-.13,4-3.31-1.46-1.18,2.64Z" transform="translate(38.17)"/><path class="cls-3" d="M707.58,196.42l-.93.13-.26.66h-1.06l.79-3.17,1.33-2.91V191l1.58.26.66,1.59-1.58,1.45Z" transform="translate(38.17)"/><path class="cls-3" d="M560.83,311.7l-.92.13-3.7-2-3.17-3-2.91-2.12-2.37-2.64.79-1.19.26-1.19,1.59-2.12,1.58-2h.8l.92-.53,1.45,2.51-.26,1.59.66.79,1.06.13.66-1.72,1.05.14-.13,1.19.26,2-.79,1.72,1.06,1.06,1.06.26,1.58,1.72V308l-.26.53Z" transform="translate(38.17)"/><path class="cls-3" d="M639,238.06l-2.51,1.45-2-2.24-5.42-1.72L627.53,233l-2.77-1.85-1.58.79L622,229.73l-.13-1.72-2.12-2.91,1.32-1.71-.39-2.38.39-2.25-.26-1.85.53-3.17-.27-1.86-1.19-3.56,1.72-.93.13-1.72-.39-1.59,2.24-1.58,1.06-1.19,1.58-1.19.14-3,4,1.32,1.32-.4,2.91.66,4.49,1.86,1.71,3.56,3,.8,4.89,1.58,3.7,2,1.58-1.06,1.45-1.72-.92-3.17.92-1.85,2.25-1.85,2.38-.53,4.49.79,1.32,1.72H667l1.19.66,3.3.53.92,1.32-1.05,1.85.66,1.72-.66,2.51,1.19,3.18.79,14.14L674,241.5l.26,7.93h-4v1.72l-14-7.67-14-7.67Z" transform="translate(38.17)"/><path class="cls-4" d="M874.93,299.14l-.4,4.23-1.45,1.06-3,.92-1.72-3.17-.92-5.69,1.32-6.47,2.51,2.11L873,295Z" transform="translate(38.17)"/><path class="cls-1" d="M686.05,444.56l1.19,1.19-1.19,2-.66,1.32-2,.66-.66,1.19-1.33.4-2.24-3,2-2.51,1.85-1.59,1.72-.79Z" transform="translate(38.17)"/><path class="cls-2" d="M655,114.06l-.27-.93.14-1.06-1.46-.66-3.17-.66-1-3,3.17-1.19,4.88.26,2.91-.39.53.79,1.58.27,3,1.71.66,1.72-2.24,1.19-.4,2.12-2.91,1.45h-2.9l-.93-1.19Z" transform="translate(38.17)"/><path class="cls-5" d="M606.4,130.05l.53.93v1.72H606l-.67-.27.27-2.25Z" transform="translate(38.17)"/><path class="cls-5" d="M649.2,107.71l-.27-2.91,1.06-2.25,2.51-1.32,2.77,2.78,2.25-.13.13-2.78,2.38-.66,1.32.4,2.64,1.45h2.38l1.58.79.53,1.85,1.45,2.25-2.9,1.46-1.72.52-3-1.71-1.58-.27-.53-.79-2.91.39-4.88-.26Z" transform="translate(38.17)"/><path class="cls-3" d="M580.78,188.88l1.19,2.65.13,2.38,1.19,4.23.92.79-.66,1.59-4.36.66-1.58,1.45-2,.4-.14,2.91-4,1.58-1.32,2-2.77,1.06-3.44.66-5.55,2.91v5H543.4l2.51-2.25,5-2.65,1.71-1.19,2.91-3.3-.66-4.89,1.32-3.44.53-2.11,2.24-2.65,3.44-1.85,2.51-1.72,2.24-4.1,1.19-2.38h2.38l2,1.72,3.17-.39,3.43.92Z" transform="translate(38.17)"/><path class="cls-3" d="M670.2,137.46l.66-.53,2-.4,2.38,1.19,1.32.13,1.58,1.06v1.32l1.19.66.66,1.59,1.32,1.06-.13.53.66.39-.79.27-1.85-.14-.4-.52-.66.39.27.66-.66,1.19-.27,1.32-.79.53-.79-1.85.13-1.58-.4-1.72-2.11-2.38L672.31,139l-1.19-1.19Z" transform="translate(38.17)"/><path class="cls-5" d="M761.07,378.85l.79,1.72.8,2.65.26,4.76.79,1.85-.53,2-.66,1.19-1-2.38-.66,1.19.39,2.91-.39,1.72-1.06.92-.4,3.31-1.71,4.76-2.12,5.42-2.64,7.53L751,423.94l-1.85,4.62-2.9.93-3.17,1.72-1.85-1.06-2.51-1.32-.79-2.12v-3.57L736.9,420v-2.91l.79-2.91,1.59-.66.13-1.32,1.85-3,.53-2.51-.8-1.85-.39-2.52-.13-3.7,1.45-2.24.53-2.52,1.71-.13,2-.79,1.32-.79h1.58l2.11-2.25,3-2.51,1.06-2-.26-1.72,1.45.53,2-2.77.26-2.38,1.19-1.85Z" transform="translate(38.17)"/><path class="cls-3" d="M282,255.38h-.66l-1.58,2.51-.66-.53-.4.27v.53h-6.47L272,260.4h-1.59l1.19,1.32,1.06.93.39.79.53.27-.26,1.32H268.8l-2,3.3.4.8-.53.92-.26,1.19L263,266.88l-1.71-1.32-2.65-1.06-2,.4-3,1.45-1.72.4-2.38-1.06L247,264.9l-3-1.85-2.51-.53-3.69-1.85-2.65-1.85-.66-1.06-2-.27-3.3-1.32L228,254.45l-3.3-2.38-1.32-2.51-.53-1.85,1.19-.4-.13-1.19.92-1.05.27-1.32-.93-1.86v-1.58l-.79-2-2.38-4-2.9-3-1.19-2.51-2.51-1.59-.4-1.06,1.06-2.38-1.59-.92-1.45-2-.13-2.77-1.72-.4-1.45-2.11-1.06-1.85.13-1.33-.92-2.91-.27-3,.53-1.58-1.85-1.59-1.19.13-1.58-1L201.43,204v2l-.66,2.9.66,1.72,1.72,2.78.26.92.4.27.13,1.32h.66v2.51l.66,1.06.4,1.45,1.72,2,.13,3.7.66,1.72.53,1.85-.13,2.11,1.58.14,1.06,1.85.92,1.72-.26.79-1.72,1.45h-.53l-.53-2.51-1.85-2.25-2-1.85-1.58-1.06.66-2.9V225.5L203,224.18l-1.85-1.72-.66.53-.53-1.06-1.85-1.06-1.45-2.24.39-.27,1.32.13L200,217l.66-1.72-1.85-2.91-1.58-1-.53-2.52-.4-2.64-.53-3.17-.13-3.57,4-.27,4.36-.53-.53.8,4.36,2,6.74,2.78h9.38l.53-1.72h5.81L231,204l1.32,1.32,1.45,1.72.53,2.12.27,2.11,1.45,1.19,2.51,1.19,2.9-3,2.78-.13,2,1.59,1.06,2.77.66,2.25,1.45,2.25.13,2.91.53,1.85,2.38,1.19,2.24.92L256,226l-2,3.44L253,232.38l-1.19,5.28-.66,2,.26,2.24.79,1.86.27,3.17,1.85,2.91.39,2.24,1.19,2,3.44,1.05,1.18,1.72,3.31-1.19,2.64-.39,2.64-.66,2.38-.67,2.37-1.71L275,250l.66-3.31.8-1.19,2.51-1.05,3.69-.93,3,.13,2.25-.39.66.92-.4,1.85-2.11,2.38-1.19,2.51.53.67-.79,1.71-1.19,3-.8-.92Z" transform="translate(38.17)"/><path class="cls-4" d="M654.08,162.44h.4v-.79l1.85-.66.66-.14,1.19-.26h1.45l1.72,1.19.53,2.64-.66.14-.4.66H659l-1.06.79-2.11.4-1.45-.93-.66-1.72Z" transform="translate(38.17)"/><path class="cls-5" d="M545.51,270.85l1.19-.66.53-2.38,1.19-.14,2.37,1.19,2-.79,1.32.26.52-.92h14l.79-2.91-.53-.4-1.59-17.18-1.45-17.32H571l11.63,8.72,11.62,8.6.79,2,2.12,1.06,1.58.66.13,2.51,3.83-.4V262l-1.85,2.64-.26,2.51-3.17.53-4.62.4-1.32,1.45-2.25.14H587l-.92-.8-1.85.53-3.3,1.72-.66,1.19-2.64,1.85-.53,1.06-1.45.79-1.72-.53-.93.93-.52,2.78-2.78,3.3v1.32l-.92,1.72.26,2.25-1.45.66-.79.53-.53-1.72-1.06.4-.66-.14-.66,1.19h-2.64l-.93-.66-.52.4-1.06-1.06.26-1.19-.53-.53-.66.4.14-1.32.66-1.06-1.46-1.59-.39-1.19-.66-.79-.8-.13-.79.53-1.19.53-.92.92-1.45-.4-1.06-.92-.53-.13-.92.53h-.53l-.27-1.46.27-1.32-.27-1.45-1.32-1.19-.66-2.25Z" transform="translate(38.17)"/><path class="cls-5" d="M933,289.49l-.52-2.91.79-3L932,281.16l-.13-4.36-1.59-2-1.72-4.76-1.19-5.15-2-3.31-2,2.12-3.56,2.77-2-.39-2.37-.93.66-4.89-1.19-3.7-3.44-4.63.27-1.45-2.11-.53-2.91-3.17-.66-3.31,1.32.66-.4-2.91,1.59-.92-.66-1.72.53-1.32-.53-4.1,2.9.92.93-3.3-.13-2L913,225.5l-.66-2.25,3.83-2.77,2.64.66-.79-2.38.92-.79-.53-1.46,1.85-.39,1.72,2.37,1.72.93.79,3,.53,3.31-2.51,3.43.26,4.63,3.57-.66,1.45,3.7,2.25.79-.4,3.31,2.77,1.45,1.59.8,2.38-1.19.39,1.72-2.64,2.51-.4,1.45-1.84.93L930,250.36l-2.38.26-.93,4.23-1.32.79,2.12,3.44,2.64,2.91,1.72,2.64-.8,3.44-1.19.79,1.06,2,2.64,3.17.66,2.25.14,1.85,1.71,3.57-1.58,3.7Z" transform="translate(38.17)"/><path class="cls-2" d="M651.05,159.14l-1.33,2,.4,1.19-.66-.27-1.06-1.32-1.45-.79.27-.66.26-2.12,1.06-.92.52-.4.93.66.53.53,1.05.4,1.32.92-.26.27-.53.92-.79.4Z" transform="translate(38.17)"/><path class="cls-3" d="M857.23,133.36l2.9-.8,4.1-3.3,3.7-1.72,3.3,1.19h3.17l3,1.85,3.17.13,4.88.93L887,129l-2.51-2.24.92-4,4.23,1.59,3,.39,4.09.93,2.38,2.91,5.15,1.58,2.51-.66,3.57-.53,3.3.53,4.09,1.85,3,2h2.91l4.22.53,2.25-.93,3.56-.66,2.78-2.64,2.11.39,2.51,1.32,3.44-.39.26,2.91.26,4,1.72,1.59,1.45-.53,3.44.53,1.45-1.32,3.3,1.19,4.49,2.77.4,1.32-2.64-.39-4.23.53-1.58,1.05-.8,2.65-4,1.45-2,2.12-3.7-.8-2-.39-.26,2.51,1.85,1.59,1.18,1.19-1.58,1.32-1.19,2.11-3,1.46-4.62.13-4.62,1.32-2.64,2.12-2.12-1.19h-3.83l-5.81-2.38-3.43-.53-4,.53-7-.93-3.56.13-2.91-2.38-3-3.57-2.24-.52-4.89-2.38-4.49-.53-4.1-.66-1.84-1.72-.8-4.63-3.56-3-5.15-1.45L859.21,136Z" transform="translate(38.17)"/><path class="cls-1" d="M708.77,375l2.64-.26,4.22,1.05.93-.39,2.38-.13,1.32-1.19h2.11l3.83-1.46,2.91-2.38.53,1.85-.4,4,.4,3.44-.14,6.21.53,2-1.19,2.91-1.45,2.78L725,395.78l-3.3,1.58-4,1.85-4.1,4.37-1.45.66-2.51,2.91-1.45.92-.53,2.78,1.45,3,.53,2.38v1.19l.66-.27-.26,4-.66,1.85.66.66-.53,1.59L708,426.71l-2.9,1.32-4.23,2.25-1.58,1.46.13,1.71.92.27-.53,2h-2.51l-.13-1.72-.39-1.85-.27-1.32.93-4.49-.8-2.91-1.32-5.56,3.83-4.49,1.06-2.91.53-.4.53-2.24-.53-1.19.26-3,.93-2.78.13-5-1.72-1.33-1.71-.26-.66-.93-1.59-.92-2.91.13-.13-1.45-.26-2.91,10.7-3.31,2,2,.92-.4,1.32,1.06.14,1.58-.8,1.86.14,2.77,2.24,2.51,1.19-2.77,1.45-.93v-5l-1.45-2.91-1.19-1.32-1.19.13-.79-5.29Z" transform="translate(38.17)"/><path class="cls-5" d="M545.51,270.85l-2.24-2.78-2.12-2.91-2.24-1.06-1.72-1.19-1.85.14-1.72.79-1.71-.26-1.19,1.19-.27-2.12.93-2,.53-3.7-.27-4-.39-2,.39-2-.79-1.85L529,245.46l.79-1.32H543.4l-.66-5.82.92-2L547,236V225.77l11.23.26.13-6.08L571,229.6h-5.15l1.45,17.32,1.59,17.18.53.4-.79,2.91h-14l-.52.92-1.32-.26-2,.79-2.37-1.19-1.19.14-.53,2.38Z" transform="translate(38.17)"/><path class="cls-1" d="M708.77,375l-1.06,3,.79,5.29,1.19-.13,1.19,1.32,1.45,2.91v5l-1.45.93-1.19,2.77-2.24-2.51-.14-2.77.8-1.86-.14-1.58-1.32-1.06-.92.4-2-2-1.85-.92,1.19-3.7,1.19-1.46-.53-3.3.79-3.18.66-1.18-.92-3.31-1.59-1.85,3.43.79.66,1.06L708,369.6Z" transform="translate(38.17)"/><path class="cls-3" d="M946.52,304.29l.92.4,2.11,2.38,1.59,2.78.4,2.64-.27,1.85.27,1.32.39,2.38,1.32,1.06,1.46,3.57.13,1.06-.53.39-1.45.53-.53-.26-3.57-3-4.22-3.18-.53-2.11-2.12-2.64-.66-3.31L939.91,308l.27-2.9-.93-1.72.66-.66,2.91,1.72.39,2,2.25-.4Zm55.74,8.33-3-.66h-4.1l-.92,4.5-1.32,1.45-1.72,5.55-2.9.8L985,323.2l-1.71.26-2,2.12-2.24-.27-2.25.8-2.51-2.25-.52-2.78,2.51,1.46,2.77-.8.66-3.3,1.45-.79,4.1-.93,2.51-3,1.58-2.51,1.72,2,.66-1.32,1.72.13v-2.51l.13-2,2.51-2.78,1.58-3.17h1.46l1.85,2,.26,1.72,2.38,1.19,3,1.19-.13,1.58-2.37.14.66,2Z" transform="translate(38.17)"/><path class="cls-1" d="M643.38,443.1l-2.37-3-1.32-2.9-.53-3.84-.79-2.91-1.06-6.21.13-4.76-.4-2.11-1.32-1.72L634,412.3l-1.72-4.76L631.5,405l-2.64-3.83-.27-3,1.72-.8,2.11-.66,2.25.13,2,1.72.53-.26,14.13-.13,2.38,1.85,8.32.66,6.47-1.72,2.91-.79,2.24.13,1.32.92v.4l-2,.79h-1.06L669.67,402l-1.32-1.59-5.42,1.33-2.51.13-.52,14.28-3.44.13-.4,11.63-.66,14.68-3.17,2.11-1.71.27-2.12-.8-1.58-.26-.53-1.72-1.19-1.06Z" transform="translate(38.17)"/><path class="cls-3" d="M1159.7,413.23l2.25,2.38,1.32,1.85-1.59,1.06-1.58-1.19-2-1.72-1.71-2.12-1.59-2.77-.13-1.46,1.45.13,1.59,1.33,1.19,1.32Z" transform="translate(38.17)"/><path class="cls-3" d="M595.44,281.55l.13-2.77-4.09-.93-.14-1.85-2-2.64-.39-1.85.26-1.85,2.25-.14,1.32-1.45,4.62-.4,3.17-.53.26-2.51L602.7,262v-9.26l4.89-1.71,9.91-7.8,11.62-7.67,5.42,1.72,2,2.24,2.51-1.45.92,6.08,1.32,1.06.13,1.32,1.46,1.32-.8,1.72-1,8.07-.13,5.28-4.36,3.71-1.46,5.28,1.59,1.46v2.51l2.24.13-.39,1.85-.93.27-.13,1.32h-.66l-2.38-4.36-.79-.14-2.77,2.25L628.2,276l-2-.26-.92.66-2.11-.13-2,1.58-1.84.14-4.23-2-1.59.93-1.85-.13-1.32-1.46-3.43-1.45-3.83.39-.79.93-.53,2.25L600.72,279l-.13,3.57-2.77-2.25h-1.19Z" transform="translate(38.17)"/><path class="cls-3" d="M617.76,310.11l-3.57,1.45-1.45-.26-1.32.93-2.77-.14-1.85-2.38-1.19-2.9-2.51-2.65h-5.68l.13-6.34-.13-2.65.66-2.51,1.06-1.19,1.71-2.38-.39-1.19.79-1.59-.79-2.38.13-1.32.13-3.57,1.06-1.58.53-2.25.79-.93,3.83-.39,3.43,1.45,1.32,1.46,1.85.13,1.59-.93,4.23,2,1.84-.14,2-1.58,2.11.13.92-.66,2,.26,2.64,1.19,2.77-2.25.79.14,2.38,4.36h.66l1.45,1.59-.39.66-.13,1.32-2.91,3-.92,2.64-.53,2-.66.92-.66,2.78-2,1.72-.52,2-.66,1.59-.4,1.58-2.38,1.46-2-1.72-1.32.13-2.11,2.25-1.06.13-1.58,3.83Z" transform="translate(38.17)"/><path class="cls-2" d="M288,285l-1.06-1.32-1.45-1.59-.66-1.32-1.46-1.32-1.58-1.72.4-.66.52.66.4-.4,1.06-.13.53-.92h.52v-2l.93-.13.66.13.92-1,.93.79.39-.53.66-.53L291,271.9l.13-.79h.39l.53-.92.4-.14.53.66.66.14.79-.53h.92l1.19-.53.53-.53,1.19.13-.26.4-.27.79.13,1.46-.92,1.45-.53,1.59-.26,1.72.13,1.05v1.72l-.53.4-.53,1.72.13,1.05-.79,1.06.13,1.06.53.66-.92.93-1.06-.27-.53-.92-1.05-.27-.8.53-2.24-1.06Z" transform="translate(38.17)"/><path class="cls-3" d="M608.51,117.23l.53,1.32-.53,3.44-.79,1.45H606l.66,4.1-1.72-.93-2-1.71-2.78.79-2.24-.27,1.58-1,2.38-5.69,4.1-1.58Z" transform="translate(38.17)"/><path class="cls-1" d="M661,61l.53-2.38-3.57-1.32-3.69,1.19L653.56,61l-2.12,1.46-2.9-.8-3.31.14-3.17-1.72-1.45.79-1.45.13v2.25l-5-.53-.4,1.85h-2.51l-1.32,2.51L627.8,71l-3.57,4.89L625.29,77l-.79,1.32h-2.64l-1.46,3.31.66,4.76,1.85,1.85-.53,4.23L620.27,95l-1.06,2.11-2.11-2.24-5.28,4.23-3.7.92L604,98.19l-1.18-4-1.19-8.47,2.51-2.24,7-3,5-3.57L620.67,72l5.54-6.75,4-2.51,6.34-4.23,5.28-1.45,4.23.26,3.17-2.78,4.62.14,4.23-.66,8.58,2.38-3,.92,3.31,2.12-4,1.32Zm-17-27.76-4.62,1.19-4.23-.66,1.32-.79-1.58-.93,4.49-.53,1.19,1.06ZM628.06,28l7.8,2.12-5.29,1.06-.79,2.11-1.85.66-.53,2.38-2.77.13-5.28-1.85,1.84-1.06-3.56-.79-4.76-2.38-2-2.25,5.81-1.05L618,28.12l3.17-.13.67-.92,3.17-.14Zm15.06-2,4.62.92-2.64,1.59-6.34.27-6.6-.4-.66-.79-3.17-.14-2.64-1.19,6.47-.66,3.3.53,2-.79Z" transform="translate(38.17)"/><path class="cls-1" d="M887.48,218v1.71l.92,2.52v1.58l-2.91.13-4.22-.92-2.78-.4-2.24-2-4.76-.53-4.88-2.25-3.57-2-3.57-1.45.53-3.84,1.72-1.72,1.19-.92,3,1.19,4,2.51,2,.66,1.58,1.85,2.78.8,3,1.71,4.09.93Z" transform="translate(38.17)"/><path class="cls-1" d="M1146.36,492.15l-.53,1.72,3.44-1.59-.27,1.59-1.32,1.72-2.51,1.85-4.49,2.91-2.91,1.45-.26,2H1135l-4,1.45-3,2.64-5,4-4,1.72-2.51,1.06h-2.78l-.92-1.33-3.17-.26.66-1.45,4-2.91,7.14-3.84,2.64-.79,3.56-1.45,4.36-2.12,3.44-2,3.69-2.91,2-1.06,2.11-2.25,3.7-1.71Zm18-18.9-.26,4.23,1.72-2.78.92,1.19-1.58,2.91,1.84,1.32,2,.4,2.9-1.59,1.32.53L1170,482.9l-2.64,2.38-2.38-.14-1.71,1.19-.93,1.72-1.06.8-2.77,2.11-3.7,2.65-3.7,1.58.27-1.06-.93-.52,4.36-3.18.53-2.24L1153,486.6l1.06-1.46,3.3-1.32,2.64-3,1.59-2.64.26-2.65.53-.66-.53-1.72-.39-3.43.26-2.91,1.32-.27.53,2.25,2,.93Z" transform="translate(38.17)"/><path class="cls-3" d="M772.43,262.78,771.11,260l-3.17-6.61,10-4,1.58-7.93-1.85-2.91V237l.8-1.58-.14-1.72,1.59-.8-.66-.52v-2.65H781l1.85,2.78,2,1.45,2.64.53,2.11.66,1.72,2.38,1.06,1.32,1.32.4v.93l-.93,2.38-.53,1.19-1.32,1.18-1,2.78-1.59-.26-.66,1.05-.26,2,.66,2.64-.4.53H786l-2,1.45-.13,2-.79.79H781l-1.32.93.13,1.58-1.59,1.19-2-.39L774,262.52Zm7.79-36.09-.79-1.45.79-1.33.53.4-.13,1.59Z" transform="translate(38.17)"/><path class="cls-4" d="M834.91,181.08l3,1.85,1.72,3,5.94,1.72L843.23,191l-3.57.53-5.28-.93-1.19,1.72,2.11,3.44,1.72,2.77,3.17,2-2.38,2.24.66,2.91-2.38,4-1.45,4.1-2.77,4.09-4-.26-3.17,4.23,2.51,1.72.92,3,2.11,2.11,1.19,3.31h-7.53l-2,2.78-2.64-1.06L818,230.79l-3-3-6.21.79h-5.54l-4.76.66.66-4.62,4.62-2.12-.52-1.85-1.72-.66-.66-3.44-3.44-1.72-1.71-2.51-2-2.11,5.94,2.11,3.3-.66,2.12.53.52-.79,2.38.26,4.1-1.59-.4-3.43,1.45-2.25h2.51l.13-1.06,2.38-.53,1.32.27,1.06-1.06-.66-2.38.92-2.38,2-1.06-2-2.64,3.17.13.66-1.45-.52-1.46,1.18-1.72-.79-2-1.19-1.72,1.46-1.72,3.3-.79,3.7-.53,1.45-.66Z" transform="translate(38.17)"/><path class="cls-2" d="M314.63,300.33l-1.19-1.19-.66-2.12.92-1.06-.79-.26-.66-1.32-1.72-1.06-1.45.27-.79,1.32-1.45,1-.8.14-.39.79,1.58,2.12-1.05.52-.53.67-1.59.13-.53-2.38-.52.66-1.06-.13-.66-1.72-1.45-.27-.93-.39h-1.45l-.13.92-.4-.66.26-.79.27-.8V294l.53-.39-.8-.67.14-1.58,1.32-.27,1.19,1.33-.14.92,1.46.13.39-.26.79.92,1.85-.26,1.46-1.06,2.24-.79,1.19-1.19,2,.26-.13.4,1.85.13,1.58.66,1.06,1.19,1.32,1.19-.53.53.8,2.38-.8,1.19-1-.4Z" transform="translate(38.17)"/><path class="cls-2" d="M346.46,399.21l-.79,2.12-1.72.92-3.7-2.24-.39-1.59-7.27-4.1L325.86,390l-2.78-2.38-1.72-3.3.4-1.19-3.3-5.16-4-7.4-3.7-7.94-1.59-1.85L308,357.83l-2.9-2.64-2.51-1.59,1.06-1.71-1.85-3.84,1.05-2.77,2.64-2.52.53,1.59-1.05.93.13,1.45,1.45-.26,1.45.39,1.59,2.12,2-1.72.53-2.65,2.11-3.43,4.1-1.59,3.83-4.23,1-2.64-.52-2.91.92-.4,2.38,1.85,1.19,1.85,1.58,1.06,2.11,4.23,2.65.4,1.85-1.06,1.32.79,2.11-.39,2.77,1.85-2.24,4.1,1.05.13,1.85,2.11-3.17-.26-.39.66-2.91.79-4,2.65-.13,1.85-.93,1.45.53,2.12-2.11,1.19v1.58l-.79.8,1.58,3.57,2,2.38-.66,1.71,2.38.27,1.45,2.11,3,.14,2.77-2.38.14,6.08,1.58.39,2-.66,3.44,6.48-.66,1.32v2.78l.13,3.44-1.19,2,.79,1.45-.66,1.33,1.72,3.43Z" transform="translate(38.17)"/><path class="cls-4" d="M1031.05,295.57l.53,2.64.39,2.25-.92,3.7-1.58-4.1-1.46,2,1.32,3-.92,1.85-4.23-2.38-1.19-2.91.93-1.85-2.38-1.85-.92,1.58-1.72-.13-2.51,2.25-.66-1.19,1.19-3.31L1019,296l1.85-1.45,1.32,1.72,2.64-1.06.4-1.72,2.51-.13-.53-3,3,1.85.39,2Zm-9-7.41-1.19,1.33-.79,2.51-1.06,1.19-2.38-2.78.66-1.06.66-1.05.27-2.51,1.85-.27-.27,2.64,2.12-3.83ZM1003.18,292l-4.36,3.83,1.45-2.77,2.38-2.52,1.85-2.77,1.45-4,.93,3.31-2.11,2.11ZM1014,281.69l2.25,1.32h2.24l.13,1.59-1.45,1.71-2.11,1.19-.4-1.85.13-2Zm12.55-1.06,1.45,4.49-2.77-1.05.13,1.32,1.19,2.51-1.59.79-.39-2.77-1.06-.13-.92-2.52,2.11.4-.13-1.59-2.51-3,3.3.14Zm-14.27-3.57-.52,3.44-1.72-2-2.25-3,3,.14Zm-4-21.68,2.25,1.19.92-1.06.53.93-.26,1.72,1.58,2.9-.4,3.31-1.84,1.32v3.17l1.18,3.18,2,.39,1.45-.39,4.62,2.11-.13,2.25,1.32.92-.13,1.86-2.91-2-1.58-2.11-.8,1.45-2.5-2.38-3,.66-1.85-.92V272.3l.92-1.06-1.19-.92-.26,1.45-2-2.25-.79-1.85-.66-3.7,1.58,1.19-.66-6.21.53-3.57Z" transform="translate(38.17)"/><path class="cls-3" d="M1135.13,356.38l-1.05.4-1.46-1.59-1.32-2.51-.53-3,.53-.4.27,1.19,1,.93,1.46,2.51,1.58,1.32ZM1121.79,351l-1.85.4-.66,1.05-2,.93-1.85,1.06-1.85-.13-2.77-1.06-2-1.19.39-1.19,3,.53,2-.27.66-1.85.53-.13.27,2.11,2-.26,1-1.45,2.12-1.46-.27-2.25,2.12-.13.66.66-.27,2.25Zm-39.62,14.54,1-12.95.66-13.09,5.95,2.78,6.34,2.24,2.38,2.12,1.84,2,.27,2.38,5.81,2.38.66,2.12-3.3.52.53,2.65,2.9,2.64,2,4.23,2-.13-.27,1.72,2.64.66-1.19.79,3.57,1.59-.53,1.19-2.38.26-.79-1.05-2.9-.4-3.44-.53-2.51-2.64-1.71-2.12-1.59-3.57-4.36-1.72-3,1.19-2.24,1.33.13,2.9-2.91,1.33-1.84-.67Zm44-18.37-1.19,1.05-.53-2.38-.66-1.58-1.58-1.32-1.85-1.59-2.51-1.19.92-1.06,2,1.19,1,.8,1.45,1.05,1.33,1.59,1.32,1.32Z" transform="translate(38.17)"/><path class="cls-3" d="M633.35,126.35l-1.46-2.51.14-1.32-.93-2-1.19-1.32.79-1.06-.92-2,2-1.06,4.36-1.72,3.57-1.32,3,.66.4.93h2.77l3.7.4H655l1.58.39.93,1.19.39,1.72,1.06,1.45.13,1.46-1.58.79,1.19,1.72.26,1.72,2,3.3-.26,1.19-1.46.4-2.37,3.17,1,1.72-.66-.13-3.17-1.59-2.11.66-1.45-.39-1.72.79-1.72-1.32-1.19.4-.26-.14-1.58-2-2.25-.13-.4-1.32-2.11-.4-.4,1.06-1.71-.8.13-1.05-2.38-.4Z" transform="translate(38.17)"/><path class="cls-3" d="M358.22,255.38l1.71.26.66.8-1,1.05H356.9l-2,.14v-1.72l.53-.66Z" transform="translate(38.17)"/><path class="cls-2" d="M1006.22,160.33l.79.66-1.32-.27L1005,162l-.13,1.33,1.71,2.91-1.18.79-.27.79-.53,1.19-1.85.53-.79,1.06.79,1.72-.26.53,1.72.66,2.64,1.71v.93l-1.19.26-2.25.27-.39,1.72-1.59-.13v.39l-2-.79v.79l-.79.27-.53-.66-.92-.4-1.19-.66v-1.72l.53-.53-.66-.66-.14-2.12-.52-.66-2.12-.53L991,170l1.32-2.52,2.38-2.11.66-2.78,2.24,1.19,2.91.14-1.72-2,4-1.72V158Z" transform="translate(38.17)"/><path class="cls-5" d="M558.85,162.31l1.19-1.06,1.45-.53.66,2H564l.66-.53,1.85.13.79,2-1.45,1.06-.13,3-.53.66-.26,1.85-1.32.27,1.18,2.38-.92,2.64,1.06,1.19-.53,1.06-1.19,1.45.13,1.32L562,182.27l-1.72-.53-1.71.4.66-3-.27-2.51-1.45-.4-.66-1.45.26-2.65,1.46-1.32.26-1.72.79-2.38-.13-1.58-.53-1.46Z" transform="translate(38.17)"/><path class="cls-1" d="M372.08,417.85l.93-4.75-.13-2.12,1.32-3.57,5.94-1.19,3.17.13,3.44,2,.26,1.19,1.19,2.24.26,5.42,3.7.8,1.32-.8,2.38,1.06.79,1.19.66,3.7.53,1.46,1.32.26,1.19-.66,1.32.66.27,2.25-.27,2.38-.39,2.25L401,435.3l-2.64,3.05-2.64.66-3.83-.66-3.57-1.06,2.51-6.08-.66-1.72-3.7-1.59L382,425l-2.9-.66Z" transform="translate(38.17)"/><path class="cls-3" d="M762,230.39l-.53-2.77.66-2.12.92-.53,1.19,1.32.27,2.38-.53,2.25-.93.27Z" transform="translate(38.17)"/><path class="cls-5" d="M658.31,138.78l1.19-.8,2,.4h2l1.59.93.92-.53,2.25-.4.66-.92h1.32l.92.39,1.19,1.19,1.19,1.59,2.11,2.38.4,1.72-.13,1.58.79,1.85,1.45.66,1.46-.66,1.45.66.26,1.06-1.45.8-.92-.27-.27,4.76-1.85-.53-2.51-1.32-3.7.92-1.45.93-4.62-.13-2.51-.66-1.19.26-1.19-1.59-.66-.66.66-.66-.79-.53-.93.93-2-1.19-.39-1.59-2-.92-.53-1.32-1.85-1.46,2.51-.79,1.58-2.65,1.19-2.64Z" transform="translate(38.17)"/><path class="cls-3" d="M1024.18,127.67l8.59,6.88-5.55-1.33,2.25,5.69,5.94,4,1.85,2.64-4-2.25v3l-2.91-3.3-2.38-3.84-3.43-4.23-1.45-2.91-4-5.15-4.88-3.7-4.23-5.29,1.19-1.72-2.78-1.72.8-.53,3,2.52,4.36,3.7,3,3.7ZM655,114.06h-5.42l-3.7-.4.53-1.59,3.83-1.32,3.17.66,1.46.66-.14,1.06ZM128,69.5l.53.93,3-2.51,6.34.53.53,3.17-4.76,1.59-4.75.26L124,76.91l-2.11.79-2.38-.13-.26-1.19-2.12-1.06,1.46-1.45-1.85-.66-3.7.52.4-1.32,2.37-1.19-4.36.8L110.3,73.6l-3.7,1.59,20.73-13.75L129.58,64l1.72,3.44Zm910.46-14.27-2.51.13-2.12-1.06.8-1.32ZM140.94,55l-3.57.27L141.2,53l.53-.13h2.11l2,.92-.93.4Zm795.54-7.53-3.57.13-5.55-.4L926.7,47l.53-1.32,2.51-.27L935,46.63Zm8.06-5.82-.8,1.19-4.22-.27-6.34-1.19-1.06-1.05,5.15.53Zm-15.72-1.46,1.71,2.25-8.84-.13-2.78.79-7.79-2-2-2.11,2.11-.67,6.34.14ZM732.14,55.62l-1.32.27-8.45-.4-1.45-1.59L716,53.11l-1.19-1.72L717,50.6l-1.06-1.72,3.43-2.78-2.51-.39,4.23-2.65-1.59-1.45L723.82,40l6.34-2,7.27-.53,3.17-1.19,4.09-.4,2.64,1.19-.79.93-7.13,1.59-6.21,1.45L727.79,44l-1.72,3.17-2.11,3,2,2.65ZM1005,158.21h1.45l-2.37-4.63-2.91-3.43,1.72-1.33,4.36.67-.4-3.84-1.85-4.23.26-1.45-.79-3.44-4.36,1.06-1.58,1.58H993.8l-3.7-3.7-5.54-2.77-6.21-1.19-3.83-3.84-2.78-2.25-2.37-1.71-4.76-3.84-3.7-1.45-5.28-1.06-4,.13-3.17.66L947.44,120l2.38.93,1.58,2.12-.79,1.19v4.09l1.19,1.72L949,132.43,944.54,131l-3.44.39-2.51-1.32-2.11-.39-2.78,2.64-3.56.66-2.25.93-4.22-.53h-2.91l-3-2-4.09-1.85-3.3-.53-3.57.53-2.51.66-5.15-1.58-2.38-2.91-4.09-.93-3-.39-4.23-1.59-.92,4L887,129l-1.46,2.65-4.88-.93-3.17-.13-3-1.85h-3.17l-3.3-1.19-3.7,1.72-4.1,3.3-2.9.8-1.06.26-2.77-2.38-3.7.53-2.11-1.59-2.51-.79-2.51-2.25-2-.66-3.83.93-5.29-2.12-.66,2-11.36-9.79-5.15-2.91.53-1.19L809,117l-2.64.27-.8-2.12-4.36-1.19-2.64.93-2.77-4-5.68-.79-1.85,1.59L781.54,113l-1,.92-10.57,1.33-.92,1.32,3.17,2.64-2.51.93.92,1-2.11,1.86,5.81,2.64-.13,1.85-4.36-.26-.4,1.19-4.62-2-4.76.13-2.77,1.59-4-1.59L745.75,124l-4.76.13-5,4.1.39,2.91-3.7-2.25-1.32,4.23,1.06.8-1.06,2.9,3.3,2.65,2.25-.13,2.64,2.64.13,2,1.72.66-.79,2.25-2.91.66-2.24,4.1,3.7,3.7.26,2.65,4.62,4.62-1.58,1.59-.4,1.06L740.6,165l-2.78-2.38-.92-.13-2.11-.92-1.32-1.72-3.17-.8-1.85.67-.66-.8L723,157l-4.89-.66-2.77-.66-.26.53-4.76-3.31-3.83-1.58-3.17-2.25,2.25-.66,2-3.31-2.12-1.45,4.36-1.59-.26-.92-2.64.66-.27-1.72L708,139l3-.26.13-1.32-1-2.12.79-2.12-.26-1.05-4.76-1.32H704l-2.24-1.72-2.25.53-4.09-1.33-.14-.79L694,126l-2.51-.26-.53-1.19.67-.66-2.38-2.25-3,.4-.92-.13-.67.79-1.05-.13-1.19-2.38-1.06-1.33.53-.39,2.51.13.93-.79-1.06-1.06-2.11-.66v-.66l-1.33-.66-2.37-2.52.39-1-.53-1.72-3-.93-1.46.53-.66-.92-3.17-.93-1.45-2.25-.53-1.85-1.58-.79,1-1.19-1.58-3.44,1.58-2.11-.52-.66,2.77-2-3.3-1.72,5-4.62,2.11-2.12.53-1.85-4.62-2.38.52-2.38-3-2.64L668,72.28l-4-4,1.72-2.64-4.49-2.25L661,61l2-.26,4-1.32,2.37-1.19,4.76,2,7.26.79,11,3.84,2.51,1.72.92,2.24-2.25,1.85-4,.93L676.93,69l-1.85.4,5,2.51.66,1.59,1.19,3.7,3.7,1.06,2.38.92-.13-1.71-2.12-1.59,1.32-1.32,7.14,2.24,2-.92-2.64-2.51,5.15-3.44,2.38.26,2.9,1.19.66-2.38-2.9-2.11.52-2-2.64-2.12,7.53,1.06,2.25,2-3,.4.66,1.85,2.51,1.19,3.83-.79-.27-2.12,4.76-1.59,7.66-2.9,2,.13-1.58,2,3.43.4,1.32-1.19h4.76l3-1.46,4,2,1.85-2.25-3.7-1.85.66-1.19,8.06,1.06,4.09,1L765,64.35l.66-1.72L762,60.78l-.53-.66-3.3-.4V58.13l-3-2.51-.66-1.06,2.64-2.9-.4-3,1.32-.53,7.14.79,1.71,1.85-.39,2.51,2.24,1.06,2.38,2.38,2.38,4.49,4.09,2.12.4,2.25-2.25,4.89L779,71l.4-1.19,2.38-.93-.4-1.72,1.19-1.58-2.77-2-.27-2.24-2.9-.27-1.85-1.85-.27-3.3-5-2.65L772.3,51l-2.25-2.25,1.19-.13,2.64,1.85,1.32,3,3,.66-2.77-2.38,3.17-1.32,4.89-.14,6.07,1.86-4.36-2.65-3-3.44,3.7-.66,5.81.14,4.89-.4-3.43-1.59.92-2.11,2.51-.14,3.17-1.45,5.68-.4-.13-.79,5.81-.4,2.77.8,3.31-1.72,4.36.13-.93-1.32.66-1.32,3.83-1.19,5.15,1L828,35.4l5.81.52,2.51,1.46,1.19-.79h6.87l7.13,1.58,3.3,1.06,1.59,1.59-1.46.92-4.22,1.72-.8.93,3.57.52,4.49.8,1.45-.66L863,47l.13-.79,3.3-.53,8.33.53,2.37,1.58,10.83.4-3-2.38,5.94.53h3.83l6.08,1.72,3.69,2,.27,1.32L911.12,54l5.55,1.32-1.85-3.44,5.81,1.46,3-.93,6.2,1.06.53-.93,4.76.53-5.95-3,1.32-1.45,25.1,2.11,5,2,10,2.52,9.24-.67,5.82.53,4.09,1.33L993,58.93l4.49.92,2.51-.66,4.36-.13,5.68.66,4.36-.4,8.85,3,1.58-1-5.28-2.25-1.19-1.45,9.51.92,5-.13,9.77,1.59,5.82,1.45,20.73,13.75h0l-1.32,1.45-3.83-.26,5.15,2,5.68,2.91,2.51.93,2.38,1.45.66.92-6.21-.79-4.09,2.78-1.85.39-1.06,2.52-1.19,2.24,1.06,1.72L1060,90.92l-3.83,2.78-2.91-1.33-.79,1.59-4.49-.53,2,2.38.79,3.57,1.72,1.59,4.22.79,5.68,5.42-2.64.13,2.12,3.18,2.9,1.58-3,2,3.31,4.23-3.57.92,2.91,4-1.06,3.57-3.57-2.65-6.6-5.55-10-8.46-4-5.16.13-2.24-1.72-1.72,3.44-.8-.14-4.75.4-3.71,1.59-2.9-4.1-5-2.9.27,2,2.9-2.25,4L1028,86.56l-5.68,1.19-.13,6.08,4.89,2.25-5.29.92-4,.4-2.64-2.65-5-.52-1.58,1.85-9.25-.66-8.19,1-2.24,7.27-3,8.73,5,.53,3.56,2.38,3.57.79.26-1.85,3.44.26,7.92,4.23,2.91,3.18.92,3.83,3.44,4.63,3.17,6.08-.66,5.68.92,2.65-1.19,4.63-1.32,4.49-.53,2.38-2.9,2.25-2,.13-3.17-2-2.51,2.91L1007,161l-.79-.66ZM824.34,32,813.11,33l-.79-3.71,1.32-.39,2,.26,7.79,1.59ZM698.73,25.75l-2.64.26-1.85.26v.4l-2.38.4-2.64-.66.66-.8H685l4-.53h3.31l.79.67.92-.67,1.72-.39,3.57.66Zm112,4.49-4.49.4-7.26-.8-5-1.05-4.23-2.12-3.56-.4,3.3-1.85,4-.53,5.81,1.33,8.59,2.51Z" transform="translate(38.17)"/><path class="cls-5" d="M694.9,333.64l1.45,2.25-.26,2.38-1.06.53-1.85-.27-1.06,2.25-2.11-.26.26-2.25.53-.27.13-2.37,1.06-1.19.79.52Z" transform="translate(38.17)"/><path class="cls-3" d="M736.64,264l-.53-1.72-1.06-1.19-.4-1.58L732.81,258l-2.12-3.3-1.19-3.31L727,248.77l-1.58-.66-2.51-3.84-.66-2.77v-2.38L720,234.76l-1.71-1.59-1.85-.79L715.11,230l.13-.8-1.06-2.11-1.06-.93-1.58-2.91-2.38-3.3-1.85-2.65H705.6l.26-2.24.13-1.32.27-1.59,3.83.53,1.32-1.19.66-1.46,2.51-.53.39-1.32,1.06-.66-3.7-4,6.47-2,.53-.66,4.23,1.06,5.28,2.78,10.44,8.06,6.34.26,3,.4,1.05,2,2.51-.13,1.72,3.44,1.72.92.79,1.33,2.51,1.72.39,1.71-.26,1.33.53,1.32,1.19,1.06.53,1.32.66.92,1,.8.93-.27.79,1.59.26.92,1.59,4,10.57,2.11.52-.92,1.85,2.91L778,249.43l-10,4L758,255l-3,1.72-2.25,4.23-1.59.66-.92-1.32-1.32.13-3.43-.39-.67-.4-4,.13-.92.4-1.46-1.06-.79,2,.4,1.59Z" transform="translate(38.17)"/><path class="cls-2" d="M706.92,291.47l-.53-.13v-2L706,288l-1.85-1.58-.53-2.91.4-2.91-1.72-.27-.13.8-2.11.26.92,1.19.27,2.38-1.85,2.12L697.67,290l-1.72.39-3-2.25-1.32.8-.27,1.19-1.85.66-.13.92h-3.43l-.53-.92-2.51-.13-1.19.79-1.06-.4-1.85-2.38-.53-1.05-2.5.52-.93,1.86-.92,3.57-1.19.79-1.06.39-.26-.13-1.19-1.19-.27-1.19.53-1.72V289l-2.11-2.51-.4-1.72v-.93l-1.32-1.19-.13-2.38-.79-1.45-1.19.13.39-1.45.8-1.59-.4-1.72,1.06-1.19-.66-.92.79-2.52,1.58-2.9,2.91.26-.66-15.73v-1.72h4L674,241.5h40.81l1.32,3.83-.66.79.66,4.1,1.59,4.76,1.45.93,1.85,1.45-1.59,2.25-2.5.66-1.06,1.32-.13,2.65-1.32,5.81.39,1.59-.39,3.44-1.19,4-2.12,2-1.45,3-.26,1.58-1.59,1.06-.92,4.23Z" transform="translate(38.17)"/><path class="cls-3" d="M706.92,291.47l.13,3-.53,1.19-1.85.13-1.19,2.25,2.25.26,1.72,2,.66,1.58,1.71.93,2.12,4.36-2.38,2.65-2.11,2.38-2.12,1.85h-2.51l-2.77.92-2.25-.92-1.45,1.05-3.17-2.64-.79-1.72-2,.93-1.59-.27-.92.66-1.59-.53-2.24-3.3-.53-1.19-2.64-1.59L680,303.1l-1.45-1.72L676,299.27V298l-2-1.59-2.38-1.59,1.06-.39,1.19-.79.92-3.57.93-1.86,2.5-.52.53,1.05,1.85,2.38,1.06.4,1.19-.79,2.51.13.53.92h3.43l.13-.92,1.85-.66.27-1.19,1.32-.8,3,2.25,1.72-.39,1.72-2.91,1.85-2.12-.27-2.38-.92-1.19,2.11-.26.13-.8,1.72.27-.4,2.91.53,2.91L706,288l.4,1.32v2Z" transform="translate(38.17)"/><path class="cls-3" d="M529.53,274.94l-1.32-3-1.72-1.45,1.59-.79,1.71-2.78.93-2.11,1.19-1.19,1.71.26,1.72-.79,1.85-.14,1.72,1.19,2.24,1.06,2.12,2.91,2.24,2.78.13,2.51.66,2.25,1.32,1.19.27,1.45-.27,1.32-.39.13-2-.26-.27.4-.79.13-2.51-.93-1.58-.13-6.48-.13-.92.53-1.19-.13-1.85.66-.53-3.18,3.17.14.79-.53h.67l1.32-.93,1.45.79h1.58l1.46-.79-.66-1.19-1.19.66h-1.06l-1.32-.92h-1.19l-.79.92Z" transform="translate(38.17)"/><path class="cls-3" d="M1155.47,370.92l.8,1.32h-2.38l-1.06-2.37,2,.92Zm-4.09-2.38h-1.45l-2.12-.39-.66-.53.4-1.59,2.24.53,1.06.93Zm3-1.05-.66.66-2.25-3.44-.53-2.38h1.19l1.06,3.17Zm-5.82-5.16v.79l-2.5-1.58-1.85-1.46-1.19-1.32.53-.4,1.58.93,2.64,1.85Zm-7.92-3.83-.66.13-1.45-.93-1.32-1.58.26-.66,2,1.71Z" transform="translate(38.17)"/><path class="cls-2" d="M547.76,302.05l-.93-.27-2.51-1.58-1.85-2.12-.53-1.45-.52-2.91,2-1.85.39-1.06.53-.93h1.06l.79-.79h2.77l1.06,1.45.66,1.72-.13,1.06.53,1.06v1.45l.92-.26-1.58,2-1.59,2.12-.26,1.19Z" transform="translate(38.17)"/><path class="cls-1" d="M281.48,275.74l-.53.92h-2l-1.19-.39-1.32-.8-2-.26-.93-.79.13-.67,1.32-.92.66-.53-.13-.4.93-.26.92.4.66.79,1.06.53.13.53,1.45-.4.8.26.39.4Z" transform="translate(38.17)"/><path class="cls-3" d="M755.52,297.29h-2.9L741,292.53l-1.32-1.46-1.45-1.85L736.9,287l.66-1.45,1.32-2.11,1.06.79.79,1.59,1.59,1.71h1.84l3.17-1.05,3.83-.4,3-1.32,1.72-.27,1.19-.66,2-.13h0l1.19-.13,1.58-.53,1.85-.4,1.59-1.45h1.32l.13,1.19-.26,2.25.13,2.11-.66,1.45-.93,4.37-1.45,4.36-2.11,5.16-2.91,5.81-2.9,4.5-4,5.42L748.13,321l-5.15,4-3.31,3-3.83,4.89-.79,2.11-.79.93-2.12-3.31L732,318l3-4.49.93-1.32h2.24l3-2.91,4.62-.14Z" transform="translate(38.17)"/><path class="cls-4" d="M659.63,153.05,659,154l.53,1.32,1.72,1.72L660,158.34l-.4,1.19.4.53-.4.53h-1.45l-1.19.26-.13-.26.39-.53.27-.92h-.4l-.79-.66-.53-.27-.4-.53-.66-.26-.52-.53-.53.13-.4,1.32-.66.27.26-.27-1.32-.92-1.05-.4-.53-.53-.93-.66.66-.13.4-1.85-1.72-1.59.66-1.72h-1.18l1-1.45-1-1.06-.93-1.59,2.38-1.05,1.85.26,1.85,1.46.53,1.32,2,.92.39,1.59,2,1.19.93-.93.79.53-.66.66Z" transform="translate(38.17)"/><path class="cls-5" d="M387.27,305.35l4.1.79.4-.79,2.9-.26,3.7,1.05-1.85,3.44.13,2.78,1.32,2.38-.66,1.72-.26,1.85-.93,1.58-2-.79-1.71.4-1.46-.4-.26,1.19.53.79-.27.8-2-.27L386.88,318l-.4-2.25h-1.05L383.84,313l.66-2.12-.13-.92,2.24-1.06Z" transform="translate(38.17)"/><path class="cls-4" d="M645.63,132.56l.26.14,1.19-.4,1.72,1.32,1.72-.79,1.45.39,2.11-.66,3.17,1.59-.79.93-.4,1.58-.66.4L652,135.87l-.92.26-.66.93-1.33.53-.39-.27-1.45.53L646,138l-.27.8-2.51.53-1.19-.53-1.58-.93-.53-1.32.26-.53.4-.79h1.32l1.06-.4v-.4l.53-.13.13-.92.66-.14.4-.66Z" transform="translate(38.17)"/><path class="cls-4" d="M631.1,144.07l2.51.39,1.59-.92,2.64-.14.53-.66.52.14.8,1.32-2.38,1.06-.27,1.45-1,.4.13,1.19-1.19-.14-1.19-.66-.53.66L631,148l.79-.26-.92-1.72Z" transform="translate(38.17)"/><path class="cls-5" d="M619.21,97.13,620.27,95l2.11-2.51.53-4.23-1.85-1.85-.66-4.76,1.46-3.31h2.64l.79-1.32-1.06-1.19L627.8,71l2.11-3.84,1.32-2.51h2.51l.4-1.85,5,.53V61l1.45-.13,3.83,1.72,4.36,2.25L650,70.16l1.19,1.33-4.49,1.05-2.12,2.38.8,2.25L641.54,80l-4.76,3-1.32,5.15,2.25,2.52,2.9,2-2,4.1-2.91.92-.26,6.22-1.32,3.43-3.57-.26L629.25,110l-3.43.13-1.19-3.44-2.77-4.23Z" transform="translate(38.17)"/><path class="cls-5" d="M697.27,435.7l-.79,1.85-2.11.4-1.85-2.12v-1.45l1.06-1.45.39-1.19,1.06-.27,1.72.66.39,1.85Z" transform="translate(38.17)"/><path class="cls-3" d="M717.35,196l-5.94,4.36-4-1.58v-.14l.26-.52-.13-1.72.53-2.12,1.58-1.45-.66-1.59-1.58-.26-.67-3,.67-1.59.79-.93.66-.79V182.4l1.05.8,3.57-1.19,1.85.79H718l3.57-1.45h1.85l3.56-.66-1.19,2.51-1.71,1.05.79,2.91-.66,4.76Z" transform="translate(38.17)"/><path class="cls-3" d="M638.5,277.85l.39-1.85-2.24-.13v-2.51l-1.59-1.46,1.46-5.28,4.36-3.71.13-5.28,1-8.07.8-1.72-1.46-1.32-.13-1.32L640,244.14l-.92-6.08,3.3-2.25,14,7.67,14,7.67.66,15.73-2.91-.26-1.58,2.9-.79,2.52.66.92-1.06,1.19.4,1.72-.8,1.59-.39,1.45,1.19-.13.79,1.45.13,2.38L668,283.8v.93l-2.24.66L664,287l-2.51,4.37-3.3,1.85-3.3-.27-1.06.4.4,1.45-1.85,1.33-1.46,1.58-4.36,1.59-.92-.93-.53-.13-.66,1.06-2.9.26.52-1-1.18-2.78-.4-1.59-1.59-.66-2.11-2.38.79-1.85,1.59.4.92-.27h2l-2-3.56.13-2.65L640,280.5Z" transform="translate(38.17)"/><path class="cls-1" d="M594.51,304.69l-2.9.79-.79-1.32-.93-2.64-.26-2,.79-3.57-.93-1.45-.26-3v-2.91l-1.45-2.11.26-1.19h3l-.53,2.11,1.19,1.19,1.19,1.46.13,1.85.66.92-.13,9.12Z" transform="translate(38.17)"/><path class="cls-3" d="M946.38,280.5l-3.3-1.72h-2.9l.13-3h-3l.13,4.36-1.32,5.82-.92,3.57.53,2.77,2.24.14,1.72,3.7.79,3.43,2.11,2.25,2.12.53,1.85,2L945.46,306l-2.25.4-.39-2-2.91-1.72-.66.66-1.45-1.59-.66-1.85-2-2.25-1.85-2-.4,2.38-.79-2.25.26-2.51.66-3.83,1.46-4.1,1.58-3.7-1.71-3.57-.14-1.85-.66-2.25-2.64-3.17-1.06-2,1.19-.79.8-3.44L930.14,262l-2.64-2.91-2.12-3.44,1.32-.79.93-4.23,2.38-.26,1.85-1.72,1.84-.93,1.59,1.32.66,2.38,2.38.14-.27,4.23.53,3.56L942,257l1.05.66,2-.14.53-1.32,2.64.27,3.17,3.17.8,4,3.17,3.43.26,3.44-.92,1.85-3.31-.66-4.35.79-1.85,3.31Z" transform="translate(38.17)"/><path class="cls-1" d="M817.87,168.79l-.8,1.19-3.69-.66.26,2.24,3.43-.26,4.5,1.32,5.94-.66,1.85,3.7.92-.4,2.25.93.39,1.59L834,180h-3.3l-2.38-.39-1.58,1.85-1.32.39-.93.8-1.58-1.32-.66-3.31-1.06-.13v-1.32l-2-.8-1.06,1.33.13,1.58-.39.66-2-.13-.53,1.85-1.32-.79-2.12,1.32-1-.53.79-4-1.45-3.05-2.65-.92.4-1.72,2.64.13,1.06-2.11.26-2.65,4-.92-.14,1.85.8,1.19Z" transform="translate(38.17)"/><path class="cls-3" d="M790.39,187l-1-3.3-2.38-.14L782.34,180l-2.64-.39-4.1-2.12-2.38-.26-1.32.66-2.24-.13-1.85,2.38-2.78.66L764,178l-.4-4.1-2.9-1.45.26-2.65-2.25-.26v-3.3l3.31.92,2.51-1.19-2.91-2.38-1.45-2.25-2.38.93.4,2.91-1.59-2.51,1.06-1.33,3.43-.79,2.51,1.06,3,3.17,1.58-.26h3.57l-1.06-2,2.51-1.45,2-2.25,4.89,2.12,1.19,3.17,1.45.79,3.44-.26,1.32.79,2.64,4.1,4.36,2.64,2.64,1.85,4,2,4.76,1.72.53,2.38-1.06-.14L803.47,179l-.13,1.45-2.64.79.13,3.18-1.59,1.19-2.51.66-.26,1.72-2.38.52Z" transform="translate(38.17)"/><path class="cls-3" d="M372.08,286.31l2-.52.79.13-.4,2.91-2.9.39-.66-.26,1.18-1.19Z" transform="translate(38.17)"/><path class="cls-3" d="M619.87,208.32l-1.58-7.14-2.11-1.59v-1.06l-2.91-2.38-.26-2.91,2-2.24.66-3.31-.66-3.83.66-2,3.43-1.58,2.38.4v2.11l2.77-1.45.27.66-1.59,2v1.85l1.19.93-.26,3.57-2.12,2,.66,2.11,1.72.14.93,1.85,1.32.66-.14,3-1.58,1.19-1.06,1.19-2.24,1.58.39,1.59-.13,1.72Z" transform="translate(38.17)"/><path class="cls-5" d="M721.58,163.63l3.43-.13,3.44,2,.79,1.32v2l2.64.92,1.45,1.19-2,1.06,1.85,4.63-.53,1.19,2.38,3.17-1.45.66-1.32-.92-4-.53-1.32.53-3.56.66h-1.85L718,182.8h-2.64l-1.85-.79L710,183.2l-1.05-.8v2.25l-.66.79-.79.93L706,184.52l1.06-1.46-2,.27-2.91-.93-2,2.38-4.89.4-2.9-2.12-3.57-.13-.66,1.59-2.24.53-3.44-2.12-3.56.13-2.25-4L674,176.85l1.19-3-2.25-2,3.17-3.7,5-.27.93-2.91,6.2.53,3.57-2.64,3.57-1.06,5.28-.13,6.07,2.77,4.89,1.59,3.7-.66,2.77.4Zm-49.53,2.91.66-.53.79-2.51-1.72-.93,3.17-1.32,2.78.53.52,1.59,3,1.19-.53,1.05-3.69.14-1.32,1.32-2.38,2.11-1.32-1.85Z" transform="translate(38.17)"/><path class="cls-3" d="M1005.29,231.85l-.66,6.47-.92,3.18-2.51-3.31-.93-2.91,1.19-4,2.12-3,1.85,1.19Z" transform="translate(38.17)"/><path class="cls-4" d="M707.18,333l.66.4,12.68,8.06.13,2.38,5,4L724,352.68l.13,2.25,2.24,1.45.14,1.06-1.06,2.38.13,1.19-.26,2,1.19,2.51,1.32,4,1.32.79-2.91,2.38-3.83,1.46h-2.11l-1.32,1.19-2.38.13-.93.39-4.22-1.05-2.64.26-.8-5.42-1.19-1.85-.66-1.06-3.43-.79-2-1.19-2.11-.66-1.46-.66-1.45-.93-1.85-5-2-2.25-.66-2.38.4-2.11-.53-3.57,1.45-.27,1.32-1.45,1.32-2,.93-.92v-1.19l-.8-.93L695,338.8l1.06-.53.26-2.38-1.45-2.25,1.32-.39h3.83Z" transform="translate(38.17)"/><path class="cls-1" d="M694.9,333.64,692.78,335l-.79-.52v-2.91l.79-1.59.27-3.17.66-1.85,1.45-2.12,1.32-1.06,1.06-1.32-1.32-.66.13-4.63,1.45-1.05,2.25.92,2.77-.92h2.51l2.12-1.85,1.71,2.77.4,2,1.58,4.63L710,324.52,708.24,327l-1.06,1.72V333l-7.13.27h-3.83Z" transform="translate(38.17)"/><path class="cls-3" d="M683.54,122.52l1.05.13.67-.79.92.13,3-.4,2.38,2.25-.67.66.53,1.19L694,126l1.32,1.59.14.79,4.09,1.33,2.25-.53,2.24,1.72h1.85l4.76,1.32.26,1.05-.79,2.12,1,2.12-.13,1.32-3,.26-1.32,1.06.27,1.72-2.51.26-1.72,1.32-2.91.14L697.27,145l.67,2.51,1.71.93,3.17-.27-.39,1.46-3.31.66-4,2.25-1.85-.8.4-1.85-3.7-1.19.53-.66,2.77-1.32-1-.93-5-.92-.53-1.46-2.78.4-.79,2.25L681,148.82l-1.45-.66-1.46.66-1.45-.66.79-.53.27-1.32.66-1.19-.27-.66.66-.39.4.52,1.85.14.79-.27-.66-.39.13-.53L680,142.48l-.66-1.59-1.19-.66v-1.32l-1.58-1.06-1.32-.13-2.38-1.19-2,.4-.66.53h-1.32l-.66.92-2.25.4-.92.53-1.59-.93h-2l-2-.4-1.19.8-.4-1.06-1.85-1.06.4-1.58.79-.93.66.13-1-1.72,2.37-3.17,1.46-.4.26-1.19-2-3.3,1.45-.13,1.46-1.06h2.24l3.17.26,3.44.93h2.51l1.18.53,1.06-.66.93.92,2.64-.13,1.32.4-.13-2,.66-.79Z" transform="translate(38.17)"/><path class="cls-1" d="M393.35,449.58l2.11-.39,4,3,1.18-.14,3.84,2.65,3,2.11,2.38,2.78-1.19,1.85,1.32,2.25-1.05,2.51-3.31,2.25-2.64-.8-1.71.4L398,466.37l-2.24.13-2.51-2.11-.13-2.64.52-.93-.79-4,.27-4.09Z" transform="translate(38.17)"/><path class="cls-3" d="M49.54,253l-.66.79-.8-.66.4-1.06-.26-1.45.26-.53.79-.53v-.79l.27-.4h.26l1.06.66.66.4.39.53.53,1.45-.13.14-1.58.92Zm-.4-6.21-1.19.39-.39-.92-.4-.27v-.26l.53-.4,1.05.4.8.66Zm-1.85-2.12-.26.53-1.72-.13.26-.53Zm-2.9-.53-.27.27-.26-.14-1.19-.13-.13-.92-.14-.14,1.06-.52.26.26Zm-5.16-2.64-.52.39-1.06-.66.26-.39.66-.4.8.13Zm337.08-92,.13,1.32-4,1.85-3.7,1.32-3.7,1.19-2.51,2.38-.79.93-.66,2,.4,2.11,1.19.14.13-1.46.79.93-.66,1-2.38.67H359l-2.51.66-1.45.13-2,.26L350,166l5-.66.66.66-4.89,1.19h-2l.13-.4-1.32,1.06.92.13L347,170.9l-3.3,3,.13-1.05-.66-.14-.79-1.05v2.11l.66.79-.4,1.46-1.45,1.58-2.78,3.18-.26-.13,1.72-2.78-1.19-1.46.66-3.3-1.19,1.72v2.51l-2-.66L338,178l-.93,3.7.8.27v1.45l-.53,4-2.91,2.91-3.83,1.19-2.77,2.38-1.72.26-2,1.45-.93,1.33L319,199.59l-2.38,1.85-2.11,2.38-1.19,2.78v2.77l.39,3.44.93,2.78-.27,1.71.66,4.63-.52,2.78-.4,1.45-1.19,2.51-1.19.53-1.58-.53-.27-1.71-1.19-.93-1.18-3.44-.93-3-.26-1.58,1.19-2.65-.53-2.25-1.85-3.3-1.19-.53L300.1,211l-.53-.13L298.38,209l-2-1.06-3.83.53-2.91-.4-2.64.27-1.58.52.39,1.06-.52,1.72.52.79-.66.53-1.18-.66-1.46.79-2.38-.13L278,210.83l-3,.53-2.24-.93-2.12.26-3,.93-3.83,2.91L260,216.25l-2.25,2L256.51,220l-.66,2.78-.26,2L256,226l-1.32.13-2.24-.92L250,224.05l-.53-1.85-.13-2.91L247.93,217l-.66-2.25L246.21,212l-2-1.59-2.78.13-2.9,3L236,212.41l-1.45-1.19-.27-2.11-.53-2.12-1.45-1.72L231,204l-.79-1.45h-5.81l-.53,1.72h-9.38l-6.74-2.78-4.36-2,.53-.8-4.36.53-4,.27.27-2.12-1.33-2.24-1.45-.53.13-1.06-1.85-.27-.66-1.05-3-.4-.53-.66.53-2.12-1.59-4-.26-5.55.53-.93-.8-1.32-.92-3.31,1.19-3.3-.66-2.12,2.37-3.3,1.72-3.44.79-2.91,3.31-3.7,2.51-3.57,2.5-3.57,2.78-5.29,1.06-3.3.26-1.85.92-.8,3.57,1.33-.66,3.7,1.45-1.06,1.46-3.17,1.05-3.18h85.06l.8-1.45h1.05l-.52,2.12.52.66,2.12.26,2.77.53,2.51,1.19,2.77-.4,3.31.93h1.05l3.17-1.06,2.25,1.32,2.38,1.59,2,1.32,1.85,1.19-.14,1.06.66.4-.39.39h.79l.79-.39-.26.92.4.66H326l.26.53-.66.66,2.51,1.85-.66,3.57-.79,3.44L324.8,158l-2.25,2.24-1.19,1.33-.26.39.13.53.93.66H323l4.49-2.11,3.43-.66,4.89-1.85.27-.4.13-1.19-.27-.79,1.72-.67h6.08l1.58-1.58.53-.27,4.36-2.77,1.72-.8h10.56l.66-.92,1.06-.27,1.58-.66,1.72-1.72,2-3,3.44-2.9.66,1.05,2.38-.66.92,1.06L375,147.24ZM146.49,103.61l-4.36,1.46L141.6,104l1.45-1.72,4-1.32,2.12-.53,1.71.26v1.19ZM122.18,93.3l-2.37.53-.93-.66-.53-.93,3.44-.66,1.85.27Zm.8-13.88.79.66,2.11-.4,1.06.93,2,.53-.66.26-3,.8-1.06-.8-.26-.66-2.64.27-.27-.27Zm74.62,15.2.13,2.38,4.76-2.11,4-1.19-.39,2,.52,1.45,1.06,1.72-.79,2.65-.79,4.23,2.77,2.38L207,110.49l-3.17,1.71-.4-1.32-1.58-1.19,2-3.3-.92-3,1.58-3.44L202,99.65l-4.36-.14-2.38-1.05-2.11-3.84-2-.66-3.57-1.32-4.22.26-3.7-1.58-1.59-1.59-4,.79L171.85,93l-1.72.26-4.1.79-3.83,1.19-4,.8,2-2.25,5.15-3.57,4.23-1.06.26-.92-5.81,2-4.62,2.51-7,2.51.13,1.85L147,99.78l-4.75,1.58-4.1,1.06-2.5,1.72L129.05,106l-2.77,1.85-5,1.59-1.72-.4-3.83,1.06-4.36,1.32-3.83,1.32-6.21,1.06.27-.66,5.15-1.72,4.09-1.19,5.29-2.11,4.09-.4,3-1.45,6.47-2.25,1.45-.79,3.44-1.33,3.7-2.77,3.83-2.25-4.49,1.19-.27-.66-3,1.32.27-1.85-2.25,1.32,1.06-1.85-4.62,1.45h-1.72l2.25-2.11,2.11-1.32L131.16,93l-4.49.66L126.41,92l-.93-.93,2.51-2-.26-1.59,3.7-2,4.75-2.12,3.31-1.71L142,81.4l1.18.53,4.36-1.72,1.59.27,3.43-1.06,1.59-1.59-.66-.66,3.69-1.32h-1.71l-3.83.79-1.85.8-1.06-.8-4.36.4-2.77-.93.79-1.32-.66-2.11,5.68-1.46,8.19-1.58h2.25l-2.78,1.71,5.81-.13.66-2.25-1.45-1.32.53-1.58-.4-1.46-2-1.19,4-1.72,4.63-.13,5.54-1.45,2.91-1.72,4.89-1.59,3-.39,7-1.46,1.84.27,6.48-1.72,2.77.66-.4,1.45L203,55l4,.27-1.32.79,3,.53,3-.4,4,1.06,4.36.4,1.45.39,4-.53,2.64.93,2.12.53h0L215,71.62,192.85,91.85l2.64.13,1.72.92Z" transform="translate(38.17)"/><path class="cls-3" d="M806.38,180.16l-.53-2.38-4.76-1.72-4-2-2.64-1.85-4.36-2.64-2.64-4.1-1.32-.79-3.44.26-1.45-.79L780.09,161l-4.89-2.12-2,2.25-2.51,1.45,1.06,2H768.2l-4-14.55,7.53-2.24.66.26,5.68,2.91,3,1.45,4.09,3.57,3.57-.66,5.28-.26,4.76,2.91.92,4h1.59l1.58,3.18,4.1.13,1.45,1.85h1.19l.66-2.78,3.3-2.77,1.59-.8,1.18.4-2,2.64,2.91,1.46,2-.93,4.49,2-3.3,2.9-2.64-.39-1.32.13-.8-1.19.14-1.85-4,.92-.26,2.65-1.06,2.11-2.64-.13-.4,1.72,2.65.92,1.45,3.05-.79,4-2.64-.79Z" transform="translate(38.17)"/><path class="cls-2" d="M338.54,282.22l-.14.92-2.11.53,1.06,1.72-.27,2.11-1.58,2.25,1.05,3.17,1.59-.26.92-2.78L338,288.43v-3l4.49-1.59-.4-1.85,1.32-1.32,1.06,2.78,2.51.13,2.11,2.25.13,1.32h3l3.83-.4,1.85,1.72,2.64.53,2.12-1.19v-1.06l4.36-.26h4.22l-3,1.19,1.19,1.85,2.78.26,2.51,2,.39,3.18H377l1.32.92-2.77,2.25-.4,1.45,1.19,1.59-.92.66-2.25.66.13,1.85-1,1.06,2.37,3,.4,1.19L373.67,311l-4,1.45-2.64.66-.93.93-2.77-.93-2.64-.53-.66.4,1.58.92-.26,2.78.52,2.51,2.91.27.13.92-2.51,1.06-.39,1.72-1.46.66-2.64.92-.66,1.19-2.77.27-1.85-2.12-1.06-4-.92-1.32-1.32-.93,1.85-2-.14-.93-.92-1.19-.66-2.64.39-2.78.8-1.45.79-2.12-1.32-.66-2,.4-2.51-.13-1.45.39-2.38-3.44-2-.52-4.49.39-.8-1.32-.92-.4v-.79l.39-1.45-.13-1.59-.79-.93-.26-1.85-1.85-.26,1.05-2.38.66-2.78,1.06-1.45,1.45-1.19.93-2Z" transform="translate(38.17)"/><path class="cls-4" d="M960.25,243.22l-4,3.43-2.24,3.71-.4,2.77,3.3,4.23,4.1,5.16,3.43,2.51L967,268.2l2.51,7.41.26,7-2.64,2.65-3.83,2.51-2.51,3.44-4.22,3.7-1.46-2.65.79-2.64-2.77-2.25,2.91-1.58,3.7-.4L958,283l5.55-3-.14-4.76-1-2.64.13-4-1.19-2.91-3-2.78-2.77-3.43-3.57-4.76-4.49-2.38.79-1.46,2-1-1.85-3.44h-4.23l-2.11-3.7-2.65-3,1.72-1.06h2.78l3.3-.4,2.51-2.11,2,1.45,3.17.79-.13,2.25,2,1.59Z" transform="translate(38.17)"/><path class="cls-3" d="M1171.32,394.85l-1.19.53-.79-1.85.4-1.06Zm-1.32-6.21v3.3l-.79-.53-.79.27-.27-1.19.53-3Z" transform="translate(38.17)"/><path class="cls-3" d="M772.43,262.78l-2.38,1.06-.53,1.72V267l-3.43,1.59-5.41,1.85-3,2.91-1.46.13-1-.13-2,1.58-2.25.8-2.9.13-.8.26-.79,1.06-.79.27-.53,1.05-1.72-.13-1.19.53-2.37-.13-1.06-2.38v-2.12l-.53-1.19-.92-2.9-1.06-1.72.66-.14-.4-1.85.4-.79-.26-1.72,1.45-1.32-.4-1.59.79-2,1.46,1.06.92-.4,4-.13.67.4,3.43.39,1.32-.13.92,1.32,1.59-.66L755,256.7l3-1.72,9.91-1.58,3.17,6.61Z" transform="translate(38.17)"/><path class="cls-3" d="M643.38,443.1l1.72-2,1.19,1.06.53,1.72,1.58.26,2.12.8,1.71-.27,3.17-2.11.66-14.68.93.53,1.85,3.83-.4,2.38.66,1.46,2.51-.4,1.72-1.72,1.72-1.32.92-1.85,1.72-.93,1.45.53,1.59,1.06,2.77.27,2.11-.93.53-1.32.66-1.85,1.85-.4,1.06-1.45,1.32-2.65,3.17-3,5-2.91,1.45.14,1.59.66,1.18-.53,1.85.39,1.32,5.56.8,2.91-.93,4.49.27,1.32-1.72-.66-1.06.27-.39,1.19-1.06,1.45v1.45l1.85,2.12,2.11-.4.79-1.85h2.51l-1,2.91-.66,3.3-.93,1.86-2.51,2-.66.66-1.71,2-1.06,2-2.11,2.9-4.23,4.1-2.51,2.38-2.64,1.85L676,463.2l-1.72.13-.53,1.19-2-.66-1.71.79-3.57-.79-2,.53-1.45-.27-3.44,1.59-2.9.66-2.25,1.46L653,468l-1.32-1.46h-1.06l-1.32-1.85-.27.53-.39-1.06.13-2.24-.92-2.78,1.18-.66v-3l-2-3.7-1.45-3.44h0Zm42.67,1.46-1.32-1.19-1.72.79-1.85,1.59-2,2.51,2.24,3,1.33-.4.66-1.19,2-.66.66-1.32,1.19-2Z" transform="translate(38.17)"/><path class="cls-1" d="M702.69,365.9l1.59,1.85.92,3.31-.66,1.18-.79,3.18.53,3.3-1.19,1.46-1.19,3.7,1.85.92-10.7,3.31.26,2.91-2.64.53-2.11,1.58-.4,1.32-1.32.4L683.67,398l-2,2.65-1.19.13-1.06-.53-3.83-.4-.66-.26v-.4l-1.32-.92-2.24-.13-2.91.79-2.24-2.38L664,393.26l.53-12.69h7.26l-.26-1.32.53-1.45-.53-1.85.39-2-.26-1.19h1.19l.13,1.33,1.59-.14,2.24.4,1.19,1.72,2.77.66,2.12-1.32.79,2.11,2.64.53,1.19,1.72L689,382h2.65l-.14-4.36-1.05.79L688,376.87l-.93-.66.53-4.1.8-4.62-.8-1.86,1.06-2.51.92-.39,4.76-.8,1.32.53,1.45.93,1.46.66,2.11.66Z" transform="translate(38.17)"/><path class="cls-5" d="M695.29,417.85l-1.85-.39-1.18.53-1.59-.66-1.45-.14-2.12-1.72-2.64-.66-.92-2.51.13-1.45-1.45-.4-3.83-4.36-.93-2.38-.66-.66-1.19-3.18,3.83.4,1.06.53,1.19-.13,2-2.65,3.17-3.17,1.32-.4.4-1.32,2.11-1.58,2.64-.53.13,1.45,2.91-.13,1.59.92.66.93,1.71.26,1.72,1.33-.13,5-.93,2.78-.26,3,.53,1.19-.53,2.24-.53.4-1.06,2.91Z" transform="translate(38.17)"/><path class="cls-3" d="M503.11,269.92l-.13.13h-.26l-.27-.39.13-.14.4-.26.13.13.13.27Zm4-1.06h-.13l-.13-.26v-.27l.13-.26h.27l.13.26v.4Zm-.92.53-.26.4-.4-.13L505,269v-.27l.13-.26v-.4h.27v.26l.53.53Zm2-5,.4.13h.13l.26.13v.4l-.13.26-.39.14h-.27l-.13-.14.26-.52Zm-4-1.46.13.14-.13.13-.53-.13h-.13l-.27.39-.26-.53v-.13l.13-.13.4.13Zm4.09-.13-.13.13-.13-.26-.13-.4.26-.13h.13Zm-6.87-.66-.52.13-.27-.13.13-.26.4-.14.26.27Zm-.92-.53-.4.13-.13-.13v-.26l-.13-.13v-.14l.79-.39h.4l.13.39-.13.14Z" transform="translate(38.17)"/><path class="cls-3" d="M740.86,378.33l-.39.13-.14-.27v-.13h.27Zm2.38-.93.26.53v.4l-.13.13-.13-.13-.26-.27-.66-.39H743v-.14l.13-.13Zm-3.43-.79v.13l-.53-.4-.27-.26.14-1.32.13-.14.13-.13.13.13v.93l.27.53.13.4Z" transform="translate(38.17)"/><path class="cls-4" d="M786.83,410.85l-.27.13H786l-.27-.26.13-.14v-.26l.14-.53.26-.13.26-.13v-.4l.27-.13.26-.14.27.4.13.53v.53l-.27.13-.13.27Z" transform="translate(38.17)"/><path class="cls-3" d="M783.13,347.92v.26h-.26v-.26l-.27-.13-.13-.27.26-.13Z" transform="translate(38.17)"/><path class="cls-3" d="M760.81,226l-.13.26-.14-.13-.26-.53v-.26l-.27-.66.14-.13h.39l-.13.13.27.26Z" transform="translate(38.17)"/><path class="cls-3" d="M846,316.32h-.13v-.26h.26v.26Zm.27-3.7h-.14v-.26h.14Z" transform="translate(38.17)"/><path class="cls-3" d="M1175.15,331.26l.14-.13.13.13v.13h-.27Z" transform="translate(38.17)"/><path class="cls-4" d="M-10,385.2h-1.06l-.53-.26h-.13l-.4-.27-.26-.26.26-.13h.53l.93.26.13.26h.13l.26.14Zm-3.57-2.38.53.4.26.53-.26.53-.27-.14-.52.14-.14-.14-.92-.79-.26-.26h.39l.66-.14Z" transform="translate(38.17)"/><path class="cls-3" d="M954.31,324.12l-1.45.53-.53-.26.26-.93.27-.13h.39l.53.13h.27v.27Z" transform="translate(38.17)"/><path class="cls-3" d="M-15.18,414.15l.13.53-.27-.26-.13-.14Zm-1.06-.53.13-.13.13.13-.13.27-.13-.13-.66-.27.13-.13h.26Zm1.45-10.18-.13.27-.26-.27.13-.26.26.13.13.13Z" transform="translate(38.17)"/><path class="cls-3" d="M373.54,261.2l-.13.26-.4-.13-.13-.13v-.14l.26-.26.53.26v.14Zm0-2.12v.13l-.4-.13.13-.53.27.13Z" transform="translate(38.17)"/><path class="cls-3" d="M380.14,277.06H380l-.4-.13v-.8h.27l.39.67Z" transform="translate(38.17)"/><path class="cls-4" d="M374.46,268.33l-.39.14v-.66l-.27-.53.13-.27v-.13l.53.13.13.27v.66Z" transform="translate(38.17)"/><path class="cls-3" d="M372.08,281.29l-.13-.13.13-.27.27-.53.26.14-.26.66Z" transform="translate(38.17)"/><path class="cls-3" d="M370.63,260.93l-.13.13-.13-.13.13-.26h0l.13.13Zm-.26-.4-.27-.26-.26-.13-.13-.13v-.14l.13-.13.26.27.14.26h.13Z" transform="translate(38.17)"/><path class="cls-3" d="M375.39,274.15l-.27.4-.26-.27v-.53l.26-.39.13-.27.14-.13.13.4Z" transform="translate(38.17)"/><path class="cls-4" d="M374.33,276.8h-.13l-.27-.27v-.4l.27-.13.13-.13h.13v.66Z" transform="translate(38.17)"/><path class="cls-3" d="M34.08,321.08l.13.14.27.13v0h0v.13h-.13v.26l.13.14h.13l.13.13h0v.13H35v.13h-.4v-.13h-.13l-.4-.13H34v-.13l-.13-.14h-.27v-.26h.14v.13h0v.13H34l.13.14h0v-.14H34v-.13h.13v.13h.13v-.13h-.13v-.13h.13v0h0v.13h0l.14-.13h0v-.13h-.14l-.13-.13H34v-.14h0v.14h-.13v-.14h.26Z" transform="translate(38.17)"/><path class="cls-3" d="M611.29,327.43l.39.53-.26.66-.53.4-.26-.67.13-.39Z" transform="translate(38.17)"/><line class="cls-6" x1="217.57" y1="684.97" x2="217.57" y2="658.52"/><line class="cls-6" x1="397.01" y1="684.97" x2="397.01" y2="680.44"/><line class="cls-6" x1="576.45" y1="684.97" x2="576.45" y2="658.52"/><line class="cls-6" x1="755.89" y1="684.97" x2="755.89" y2="680.44"/><line class="cls-6" x1="935.32" y1="684.97" x2="935.32" y2="658.52"/><line class="cls-6" x1="1114.76" y1="684.97" x2="1114.76" y2="680.44"/><rect class="cls-3" x="217.57" y="684.97" width="179.44" height="15.12"/><rect class="cls-4" x="397.01" y="684.97" width="179.44" height="15.12"/><rect class="cls-5" x="576.45" y="684.97" width="179.44" height="15.12"/><rect class="cls-2" x="755.89" y="684.97" width="179.44" height="15.12"/><rect class="cls-1" x="935.32" y="684.97" width="179.44" height="15.12"/><text class="cls-7" transform="translate(207.7 671.7)">0%</text><text class="cls-7" transform="translate(382.55 671.7)">20%</text><text class="cls-7" transform="translate(561.31 671.7)">40%</text><text class="cls-7" transform="translate(739.6 671.7)">60%</text><text class="cls-7" transform="translate(918.06 671.7)">80%</text><text class="cls-7" transform="translate(1097.05 671.7)">100%</text></g><g id="Layer_4" data-name="Layer 4"><rect class="cls-6" x="38.17" width="0.6" height="0.55"/><rect class="cls-6" x="1293.56" width="0.6" height="0.55"/></g></svg>